<svg width="192" height="48" viewBox="0 0 192 48" fill="none" xmlns="http://www.w3.org/2000/svg">
<mask id="mask0_1315_1961" style="mask-type:alpha" maskUnits="userSpaceOnUse" x="0" y="0" width="192" height="48">
<path fill-rule="evenodd" clip-rule="evenodd" d="M0 47.3438H191.925V0.65625H0V47.3438Z" fill="white"/>
</mask>
<g mask="url(#mask0_1315_1961)">
<path fill-rule="evenodd" clip-rule="evenodd" d="M55.3125 8.4939H60.6375V31.8939C60.6375 34.1814 61.5375 35.2689 63.4875 35.2689C65.4375 35.2689 66.3375 34.1439 66.3375 31.8939V8.4939H71.625V31.6689C71.625 36.9939 68.55 39.9189 63.4875 39.9189C58.425 39.9189 55.35 36.9939 55.35 31.6689V8.4939H55.3125Z" fill="#2C405A"/>
</g>
<mask id="mask1_1315_1961" style="mask-type:alpha" maskUnits="userSpaceOnUse" x="0" y="0" width="192" height="48">
<path fill-rule="evenodd" clip-rule="evenodd" d="M0 47.3438H191.925V0.65625H0V47.3438Z" fill="white"/>
</mask>
<g mask="url(#mask1_1315_1961)">
<path fill-rule="evenodd" clip-rule="evenodd" d="M76.7625 39.5064V8.4939H81.7124L88.1999 26.2314H88.2749V8.4939H93.0749V39.5064H88.4624L81.6749 20.1564H81.5624V39.5064H76.7625Z" fill="#2C405A"/>
</g>
<mask id="mask2_1315_1961" style="mask-type:alpha" maskUnits="userSpaceOnUse" x="0" y="0" width="192" height="48">
<path fill-rule="evenodd" clip-rule="evenodd" d="M0 47.3438H191.925V0.65625H0V47.3438Z" fill="white"/>
</mask>
<g mask="url(#mask2_1315_1961)">
<path fill-rule="evenodd" clip-rule="evenodd" d="M98.9624 39.5064H104.287V8.4939H98.9624V39.5064Z" fill="#2C405A"/>
</g>
<mask id="mask3_1315_1961" style="mask-type:alpha" maskUnits="userSpaceOnUse" x="0" y="0" width="192" height="48">
<path fill-rule="evenodd" clip-rule="evenodd" d="M0 47.3438H191.925V0.65625H0V47.3438Z" fill="white"/>
</mask>
<g mask="url(#mask3_1315_1961)">
<path fill-rule="evenodd" clip-rule="evenodd" d="M113.25 13.1439H108.113V8.4939H123.713V13.1439H118.575V39.5064H113.25V13.1439Z" fill="#2C405A"/>
</g>
<mask id="mask4_1315_1961" style="mask-type:alpha" maskUnits="userSpaceOnUse" x="0" y="0" width="192" height="48">
<path fill-rule="evenodd" clip-rule="evenodd" d="M0 47.3438H191.925V0.65625H0V47.3438Z" fill="white"/>
</mask>
<g mask="url(#mask4_1315_1961)">
<path fill-rule="evenodd" clip-rule="evenodd" d="M126.863 39.5064V8.4939H141.113V13.1439H132.188V21.1314H139.05V25.7439H132.188V34.8564H141.713V39.5064H126.863Z" fill="#2C405A"/>
</g>
<mask id="mask5_1315_1961" style="mask-type:alpha" maskUnits="userSpaceOnUse" x="0" y="0" width="192" height="48">
<path fill-rule="evenodd" clip-rule="evenodd" d="M0 47.3438H191.925V0.65625H0V47.3438Z" fill="white"/>
</mask>
<g mask="url(#mask5_1315_1961)">
<path fill-rule="evenodd" clip-rule="evenodd" d="M155.438 8.4939H160.763V31.8939C160.763 34.1814 161.662 35.2689 163.612 35.2689C165.562 35.2689 166.462 34.1439 166.462 31.8939V8.4939H171.75V31.6689C171.75 36.9939 168.675 39.9189 163.612 39.9189C158.55 39.9189 155.475 36.9939 155.475 31.6689V8.4939H155.438Z" fill="#2C405A"/>
</g>
<mask id="mask6_1315_1961" style="mask-type:alpha" maskUnits="userSpaceOnUse" x="0" y="0" width="192" height="48">
<path fill-rule="evenodd" clip-rule="evenodd" d="M0 47.3438H191.925V0.65625H0V47.3438Z" fill="white"/>
</mask>
<g mask="url(#mask6_1315_1961)">
<path fill-rule="evenodd" clip-rule="evenodd" d="M186.6 16.1433C186.375 13.4808 184.987 12.6933 183.75 12.6933C182.025 12.6933 181.087 13.8183 181.087 15.7308C181.087 21.0183 191.887 23.5308 191.887 31.9683C191.887 37.0683 188.437 39.9183 183.487 39.9183C178.537 39.9183 175.725 35.9808 175.5 31.3308L180.562 30.6183C180.787 33.7683 182.025 35.3058 183.75 35.3058C185.587 35.3058 186.825 34.3308 186.825 32.4558C186.825 26.3058 176.025 24.6933 176.025 15.8058C176.025 10.8558 179.025 8.08081 184.275 8.08081C188.625 8.08081 191.175 11.2308 191.662 15.5808L186.6 16.1433Z" fill="#2C405A"/>
</g>
<mask id="mask7_1315_1961" style="mask-type:alpha" maskUnits="userSpaceOnUse" x="0" y="0" width="192" height="48">
<path fill-rule="evenodd" clip-rule="evenodd" d="M0 47.3438H191.925V0.65625H0V47.3438Z" fill="white"/>
</mask>
<g mask="url(#mask7_1315_1961)">
</g>
<mask id="mask8_1315_1961" style="mask-type:alpha" maskUnits="userSpaceOnUse" x="0" y="0" width="192" height="48">
<path fill-rule="evenodd" clip-rule="evenodd" d="M0 47.3438H191.925V0.65625H0V47.3438Z" fill="white"/>
</mask>
<g mask="url(#mask8_1315_1961)">
<path fill-rule="evenodd" clip-rule="evenodd" d="M23.625 45.3944C24.1125 45.3944 24.375 45.2444 24.7125 44.9444C26.1 43.8568 26.6625 42.3944 26.6625 40.4443V33.5818V30.9193V17.4193V11.1943C22.3875 16.1443 19.7625 22.6318 19.7625 29.7193V33.5818V40.4818C19.7625 41.3443 19.575 42.1319 19.3125 42.8819C20.175 44.3819 21.75 45.3944 23.625 45.3944Z" fill="#2C405A"/>
</g>
<mask id="mask9_1315_1961" style="mask-type:alpha" maskUnits="userSpaceOnUse" x="0" y="0" width="192" height="48">
<path fill-rule="evenodd" clip-rule="evenodd" d="M0 47.3438H191.925V0.65625H0V47.3438Z" fill="white"/>
</mask>
<g mask="url(#mask9_1315_1961)">
<path fill-rule="evenodd" clip-rule="evenodd" d="M29.625 40.4813V34.7062V17.5313V12.5813C29.625 7.48125 32.4 3.01875 36.525 0.65625V6.88125V24.5438V34.7438H36.4875C35.8875 41.8312 29.9625 47.3813 22.7625 47.3813C26.5125 47.3438 29.625 44.2688 29.625 40.4813Z" fill="#2C405A"/>
</g>
<mask id="mask10_1315_1961" style="mask-type:alpha" maskUnits="userSpaceOnUse" x="0" y="0" width="192" height="48">
<path fill-rule="evenodd" clip-rule="evenodd" d="M0 47.3438H191.925V0.65625H0V47.3438Z" fill="white"/>
</mask>
<g mask="url(#mask10_1315_1961)">
<path fill-rule="evenodd" clip-rule="evenodd" d="M10.0875 46.2938C8.175 45.0563 6.9 42.9188 6.9 40.4813V34.7062V17.5313V12.5813C6.9 7.48125 4.125 3.01875 0 0.65625V6.88125V24.5438V34.7438H0.0375C0.525 40.8188 4.9875 45.7688 10.8375 47.0438C10.575 46.7813 10.3125 46.5563 10.0875 46.2938Z" fill="#2C405A"/>
</g>
<mask id="mask11_1315_1961" style="mask-type:alpha" maskUnits="userSpaceOnUse" x="0" y="0" width="192" height="48">
<path fill-rule="evenodd" clip-rule="evenodd" d="M0 47.3438H191.925V0.65625H0V47.3438Z" fill="white"/>
</mask>
<g mask="url(#mask11_1315_1961)">
<path fill-rule="evenodd" clip-rule="evenodd" d="M10.0874 46.2942C10.3124 46.5567 10.5749 46.8192 10.8374 47.0442C11.7749 47.2692 12.7874 47.3817 13.7624 47.3817C12.4124 47.3442 11.1749 46.9692 10.0874 46.2942Z" fill="#2C405A"/>
</g>
<mask id="mask12_1315_1961" style="mask-type:alpha" maskUnits="userSpaceOnUse" x="0" y="0" width="192" height="48">
<path fill-rule="evenodd" clip-rule="evenodd" d="M0 47.3438H191.925V0.65625H0V47.3438Z" fill="white"/>
</mask>
<g mask="url(#mask12_1315_1961)">
<path fill-rule="evenodd" clip-rule="evenodd" d="M16.725 40.4812V33.5812V29.7188C16.725 22.6313 14.1375 16.1438 9.82495 11.1562V17.4562V30.9562V33.6187V40.4812C9.82495 44.2687 12.9 47.3813 16.725 47.3813H23.625C19.8 47.3438 16.725 44.2687 16.725 40.4812Z" fill="#2C405A"/>
</g>
<mask id="mask13_1315_1961" style="mask-type:alpha" maskUnits="userSpaceOnUse" x="0" y="0" width="192" height="48">
<path fill-rule="evenodd" clip-rule="evenodd" d="M0 47.3438H191.925V0.65625H0V47.3438Z" fill="white"/>
</mask>
<g mask="url(#mask13_1315_1961)">
<path fill-rule="evenodd" clip-rule="evenodd" d="M15.0001 12.2436L16.2376 8.4186L12.9751 6.0561H16.9876L18.2626 2.1936L19.5001 6.0561H23.5501L20.2876 8.4186L21.5251 12.2436L18.2626 9.8811L15.0001 12.2436Z" fill="#2C405A"/>
</g>
</svg>
