<svg xmlns="http://www.w3.org/2000/svg" width="17" height="18" viewBox="0 0 17 18" fill="none">
  <path d="M15.5553 16.3632H16.4697C16.4697 16.6057 16.3733 16.8383 16.2019 17.0097C16.0304 17.1812 15.7978 17.2776 15.5553 17.2776V16.3632ZM14.641 5.39091C14.641 5.1484 14.7373 4.91583 14.9088 4.74436C15.0802 4.57288 15.3128 4.47655 15.5553 4.47655C15.7978 4.47655 16.0304 4.57288 16.2019 4.74436C16.3733 4.91583 16.4697 5.1484 16.4697 5.39091H14.641ZM4.58302 17.2776C4.34052 17.2776 4.10795 17.1812 3.93648 17.0097C3.765 16.8383 3.66867 16.6057 3.66867 16.3632C3.66867 16.1207 3.765 15.8881 3.93648 15.7167C4.10795 15.5452 4.34052 15.4488 4.58302 15.4488V17.2776ZM0.279143 2.37993C0.191812 2.29558 0.122154 2.19468 0.0742338 2.08313C0.0263133 1.97157 0.00108952 1.85159 3.45231e-05 1.73018C-0.00102048 1.60878 0.0221144 1.48838 0.0680891 1.376C0.114064 1.26363 0.181958 1.16154 0.267809 1.07569C0.353661 0.989838 0.45575 0.921944 0.568122 0.875969C0.680493 0.829994 0.800895 0.80686 0.922303 0.807915C1.04371 0.808969 1.16369 0.834194 1.27525 0.882116C1.3868 0.930037 1.4877 0.999693 1.57204 1.08702L0.279143 2.37993ZM14.641 16.3632V5.39091H16.4697V16.3632H14.641ZM15.5553 17.2776H4.58302V15.4488H15.5553V17.2776ZM14.9089 17.0097L0.279143 2.37993L1.57204 1.08702L16.2018 15.7167L14.9089 17.0097Z" fill="#0043CA"/>
</svg>
