<svg width="17" height="16" viewBox="0 0 17 16" fill="none" xmlns="http://www.w3.org/2000/svg">
<path fill-rule="evenodd" clip-rule="evenodd" d="M8.78467 16C13.2029 16 16.7847 12.4183 16.7847 8C16.7847 3.58172 13.2029 0 8.78467 0C4.36639 0 0.784668 3.58172 0.784668 8C0.784668 12.4183 4.36639 16 8.78467 16ZM12.4918 6.70711C12.8823 6.31658 12.8823 5.68342 12.4918 5.29289C12.1013 4.90237 11.4681 4.90237 11.0776 5.29289L7.78467 8.58579L6.49177 7.29289C6.10125 6.90237 5.46809 6.90237 5.07756 7.29289C4.68704 7.68342 4.68704 8.31658 5.07756 8.70711L7.07756 10.7071C7.46809 11.0976 8.10125 11.0976 8.49177 10.7071L12.4918 6.70711Z" fill="#2874AF"/>
</svg>
