<svg width="21" height="21" viewBox="0 0 21 21" fill="none" xmlns="http://www.w3.org/2000/svg">
<path d="M8.06348 9.67627C9.72033 9.67627 11.0635 8.33312 11.0635 6.67627C11.0635 5.01942 9.72033 3.67627 8.06348 3.67627C6.40662 3.67627 5.06348 5.01942 5.06348 6.67627C5.06348 8.33312 6.40662 9.67627 8.06348 9.67627Z" fill="white"/>
<path d="M8.06348 11.6763C11.3772 11.6763 14.0635 14.3626 14.0635 17.6763H2.06348C2.06348 14.3626 4.74977 11.6763 8.06348 11.6763Z" fill="white"/>
<path d="M16.0635 7.67627C16.0635 7.12398 15.6158 6.67627 15.0635 6.67627C14.5112 6.67627 14.0635 7.12398 14.0635 7.67627V8.67627H13.0635C12.5112 8.67627 12.0635 9.12398 12.0635 9.67627C12.0635 10.2286 12.5112 10.6763 13.0635 10.6763H14.0635V11.6763C14.0635 12.2286 14.5112 12.6763 15.0635 12.6763C15.6158 12.6763 16.0635 12.2286 16.0635 11.6763V10.6763H17.0635C17.6158 10.6763 18.0635 10.2286 18.0635 9.67627C18.0635 9.12398 17.6158 8.67627 17.0635 8.67627H16.0635V7.67627Z" fill="white"/>
</svg>
