<svg width="40" height="40" viewBox="0 0 40 40" fill="none" xmlns="http://www.w3.org/2000/svg">
<path d="M37.9332 25.4176H28.273C30.8205 22.8323 32.296 19.3895 32.4095 15.7574C32.4095 10.0697 29.0045 6.09717 24.1365 6.09717C23.178 6.10978 22.2322 6.32417 21.3746 6.74035V6.09717C21.3746 4.57121 22.6105 3.3353 24.1365 3.3353C24.8932 3.3353 25.5111 2.71735 25.5111 1.96067C25.5111 1.204 24.8932 0.586044 24.1365 0.586044C21.0846 0.586044 18.6254 3.05785 18.6254 6.09717V6.74035C17.7678 6.32417 16.822 6.09717 15.8635 6.09717C10.9956 6.09717 7.59051 10.0697 7.59051 15.7574C7.70401 19.3768 9.17953 22.8323 11.727 25.4176H7.59051C3.7819 25.4176 0.692139 28.5074 0.692139 32.316C0.692139 36.1246 3.7819 39.2144 7.59051 39.2144H37.9332C38.6899 39.2144 39.3079 38.5964 39.3079 37.8398V26.8049C39.3079 26.0356 38.6899 25.4176 37.9332 25.4176ZM7.59051 36.4525C5.30787 36.4525 3.45401 34.5987 3.45401 32.316C3.45401 30.0334 5.30787 28.1795 7.59051 28.1795H36.5586V30.9414H7.59051C6.83383 30.9414 6.21588 31.5593 6.21588 32.316C6.21588 33.0727 6.83383 33.6906 7.59051 33.6906H36.5586V36.4525H7.59051Z" fill="white"/>
</svg>

