<?xml version="1.0" encoding="UTF-8" standalone="no"?>
<!DOCTYPE svg PUBLIC "-//W3C//DTD SVG 1.1//EN" "http://www.w3.org/Graphics/SVG/1.1/DTD/svg11.dtd">
<svg width="100%" height="100%" viewBox="0 0 36 40" version="1.1" xmlns="http://www.w3.org/2000/svg" xmlns:xlink="http://www.w3.org/1999/xlink" xml:space="preserve" xmlns:serif="http://www.serif.com/" style="fill-rule:evenodd;clip-rule:evenodd;stroke-linejoin:round;stroke-miterlimit:2;">
    <path d="M28.498,11.702L21.663,11.702C20.553,11.702 20.301,10.945 20.275,10.315L20.275,3.53C22.785,3.908 27.83,5.459 28.498,11.702ZM31.348,37.996C31.348,37.227 30.73,36.609 29.961,36.609L7.588,36.609C6.895,36.596 3.427,36.369 3.427,32.46L3.427,7.553C3.439,6.859 3.666,3.391 7.576,3.391L17.513,3.391L17.513,10.315C17.513,11.979 18.623,14.464 21.663,14.464L29.973,14.464C30.743,14.464 31.361,13.846 31.361,13.076C31.361,3.227 23.214,0.616 18.901,0.616L7.588,0.616C2.115,0.616 0.665,5.144 0.665,7.54L0.665,32.447C0.665,37.921 5.192,39.371 7.588,39.371L29.973,39.371C30.73,39.384 31.348,38.753 31.348,37.996ZM6.189,13.076C6.189,12.307 6.806,11.689 7.576,11.689L10.59,11.689C11.359,11.689 11.977,12.307 11.977,13.076C11.977,13.846 11.359,14.464 10.59,14.464L7.576,14.464C6.806,14.464 6.189,13.846 6.189,13.076ZM17.69,18.613C17.69,19.382 17.072,20 16.303,20L7.576,20C6.806,20 6.189,19.382 6.189,18.613C6.189,17.844 6.806,17.226 7.576,17.226L16.303,17.226C17.072,17.238 17.69,17.856 17.69,18.613ZM15.496,25.436C15.496,26.205 14.878,26.823 14.108,26.823L7.576,26.823C6.806,26.823 6.189,26.205 6.189,25.436C6.189,24.666 6.806,24.048 7.576,24.048L14.108,24.048C14.878,24.061 15.496,24.679 15.496,25.436ZM17.69,32.359C17.69,33.128 17.072,33.746 16.303,33.746L7.576,33.746C6.806,33.746 6.189,33.128 6.189,32.359C6.189,31.59 6.806,30.972 7.576,30.972L16.303,30.972C17.072,30.972 17.69,31.59 17.69,32.359Z" style="fill:white;fill-rule:nonzero;"/>
    <path d="M26.581,34.806C21.461,34.806 17.311,30.656 17.311,25.536C17.311,20.417 21.461,16.267 26.581,16.267C31.7,16.267 35.85,20.417 35.85,25.536C35.85,30.656 31.7,34.806 26.581,34.806ZM30.982,18.802C30.768,18.701 30.528,18.789 30.415,18.991L25.13,28.613L20.88,26.344C20.691,26.243 20.452,26.293 20.326,26.457C20.199,26.621 20.199,26.86 20.351,27.025L25.635,32.788C25.723,32.876 25.837,32.927 25.963,32.927C25.988,32.927 26.026,32.927 26.051,32.914C26.202,32.889 26.328,32.775 26.379,32.636L31.222,19.344C31.285,19.142 31.184,18.903 30.982,18.802Z" style="fill:white;fill-rule:nonzero;"/>
</svg>
