<svg width="31" height="40" viewBox="0 0 31 40" fill="none" xmlns="http://www.w3.org/2000/svg">
<path d="M22.163 0.641663H9.02206C4.34327 0.641663 0.534668 4.45027 0.534668 9.12905V33.3175C0.534668 33.9733 1.07695 34.5156 1.73274 34.5156H2.9182V38.1602C2.9182 38.816 3.46049 39.3583 4.11627 39.3583H8.00054C8.65633 39.3583 9.19862 38.816 9.19862 38.1602V34.5156H21.9486V38.1602C21.9486 38.816 22.4909 39.3583 23.1467 39.3583H27.031C27.6867 39.3583 28.229 38.816 28.229 38.1602V34.5156H29.4523C30.1081 34.5156 30.6504 33.9733 30.6504 33.3175V9.12905C30.6504 4.45027 26.8418 0.641663 22.163 0.641663ZM12.0866 6.24107H19.0985C19.7543 6.24107 20.2965 6.78335 20.2965 7.43914C20.2965 8.09493 19.7543 8.63721 19.0985 8.63721H12.0866C11.4308 8.63721 10.8885 8.09493 10.8885 7.43914C10.8885 6.78335 11.4308 6.24107 12.0866 6.24107ZM6.51241 29.4332C5.84402 29.4332 5.31434 28.8909 5.31434 28.2351C5.31434 27.5667 5.85663 27.0371 6.51241 27.0371C7.18081 27.0371 7.71049 27.5793 7.71049 28.2351C7.71049 28.9035 7.18081 29.4332 6.51241 29.4332ZM19.0985 29.4332H12.0866C11.4308 29.4332 10.8885 28.8909 10.8885 28.2351C10.8885 27.5793 11.4308 27.0371 12.0866 27.0371H19.0985C19.7543 27.0371 20.2965 27.5793 20.2965 28.2351C20.2965 28.8909 19.7669 29.4332 19.0985 29.4332ZM6.51241 24.3509C5.85663 24.3509 5.31434 23.8086 5.31434 23.1528V12.7737C5.31434 12.1179 5.85663 11.5756 6.51241 11.5756H24.6727C25.3284 11.5756 25.8707 12.1179 25.8707 12.7737V23.1528C25.8707 23.8086 25.3284 24.3509 24.6727 24.3509H6.51241ZM24.6727 29.4332C24.0043 29.4332 23.4746 28.8909 23.4746 28.2351C23.4746 27.5667 24.0169 27.0371 24.6727 27.0371C25.3284 27.0371 25.8707 27.5793 25.8707 28.2351C25.8707 28.9035 25.3411 29.4332 24.6727 29.4332Z" fill="white"/>
</svg>

