<svg width="30" height="25" viewBox="0 0 30 25" fill="none" xmlns="http://www.w3.org/2000/svg">
<path d="M29.8398 20.4944L29.8398 8.02694C29.8398 6.13499 28.6271 4.52442 26.9389 3.92287L26.9389 1.4454C26.9389 0.94088 26.5217 0.523681 26.0171 0.523681C25.5126 0.523681 25.0954 0.940879 25.0954 1.4454L25.0954 3.67062L23.2714 3.67062L23.2714 1.4454C23.2714 0.940879 22.8542 0.523681 22.3497 0.523681C21.8452 0.523681 21.428 0.940879 21.428 1.4454L21.428 3.67062L19.6039 3.67062L19.6039 1.4454C19.6039 0.940879 19.1867 0.523681 18.6822 0.523681C18.1777 0.523681 17.7605 0.940879 17.7605 1.4454L17.7605 3.67062L15.9365 3.67062L15.9365 1.4454C15.9365 0.940879 15.5193 0.523681 15.0148 0.523681C14.5102 0.523681 14.093 0.940879 14.093 1.4454L14.093 3.67062L12.2399 3.67062L12.2399 1.4454C12.2399 0.940879 11.8227 0.523681 11.3182 0.523681C10.8137 0.523681 10.3965 0.940879 10.3965 1.4454L10.3965 3.67062L8.57245 3.67061L8.57245 1.4454C8.57245 0.940879 8.15525 0.523681 7.65073 0.523681C7.14621 0.523681 6.72902 0.940879 6.72902 1.4454L6.72902 3.67061L4.90498 3.67061L4.90498 1.4454C4.90498 0.940879 4.48779 0.523681 3.98327 0.523681C3.47875 0.52368 3.06155 0.940878 3.06155 1.4454L3.06155 3.93258C1.37336 4.53412 0.16057 6.1447 0.16057 8.03664L0.160569 20.4944C0.160569 22.8908 2.11073 24.841 4.50719 24.841L25.4835 24.841C27.8897 24.841 29.8398 22.8908 29.8398 20.4944ZM4.49749 22.9976C3.11977 22.9976 1.9943 21.8721 1.9943 20.4944L1.9943 8.02694C1.9943 6.64921 3.11977 5.52375 4.49749 5.52375L25.4835 5.52375C26.8612 5.52375 27.9867 6.64922 27.9867 8.02694L27.9867 20.4847C27.9867 21.8624 26.8612 22.9879 25.4835 22.9879L4.49749 22.9879L4.49749 22.9976Z" fill="white"/>
<path d="M5.77969 8.73796C5.77969 8.64444 5.8555 8.56863 5.94902 8.56863H9.41804C9.51156 8.56863 9.58737 8.64444 9.58737 8.73796V12.3352C9.58737 12.4287 9.51156 12.5045 9.41804 12.5045H5.94902C5.8555 12.5045 5.77969 12.4287 5.77969 12.3352V8.73796ZM13.0954 8.73796C13.0954 8.64444 13.1712 8.56863 13.2647 8.56863H16.7337C16.8272 8.56863 16.9031 8.64444 16.9031 8.73796V12.3352C16.9031 12.4287 16.8272 12.5045 16.7337 12.5045H13.2647C13.1712 12.5045 13.0954 12.4287 13.0954 12.3352V8.73796ZM20.4111 8.73796C20.4111 8.64444 20.4869 8.56863 20.5804 8.56863H24.0494C24.1429 8.56863 24.2187 8.64444 24.2187 8.73796V12.3352C24.2187 12.4287 24.1429 12.5045 24.0494 12.5045H20.5804C20.4869 12.5045 20.4111 12.4287 20.4111 12.3352V8.73796ZM5.77969 16.1819C5.77969 16.0883 5.8555 16.0125 5.94902 16.0125H9.41804C9.51156 16.0125 9.58737 16.0883 9.58737 16.1819V19.7791C9.58737 19.8726 9.51156 19.9484 9.41804 19.9484H5.94902C5.8555 19.9484 5.77969 19.8726 5.77969 19.7791V16.1819ZM13.0954 16.1819C13.0954 16.0883 13.1712 16.0125 13.2647 16.0125H16.7337C16.8272 16.0125 16.9031 16.0883 16.9031 16.1819V19.7791C16.9031 19.8726 16.8272 19.9484 16.7337 19.9484H13.2647C13.1712 19.9484 13.0954 19.8726 13.0954 19.7791V16.1819ZM20.4111 16.1819C20.4111 16.0883 20.4869 16.0125 20.5804 16.0125H24.0494C24.1429 16.0125 24.2187 16.0883 24.2187 16.1819V19.7791C24.2187 19.8726 24.1429 19.9484 24.0494 19.9484H20.5804C20.4869 19.9484 20.4111 19.8726 20.4111 19.7791V16.1819Z" stroke="white" stroke-width="1.2"/>
</svg>
