<svg width="32" height="40" viewBox="0 0 32 40" fill="none" xmlns="http://www.w3.org/2000/svg">
<path d="M31.0453 24.1239L29.0905 17.7804C30.4021 16.0148 31.0957 14.0096 31.0957 11.9162C31.0957 5.72404 24.954 0.679535 17.3999 0.679535C9.84573 0.679535 3.70404 5.72404 3.70404 11.9162C3.70404 18.1083 9.84573 23.1528 17.3999 23.1528C19.5312 23.1528 21.6499 22.7493 23.5416 21.9674L29.2671 25.4859C29.4563 25.5994 29.6833 25.6625 29.8976 25.6625C30.1625 25.6625 30.4147 25.5742 30.6291 25.4102C31.0201 25.1202 31.184 24.6031 31.0453 24.1239ZM24.1469 17.2886H10.6529C9.99706 17.2886 9.45478 16.7463 9.45478 16.0905C9.45478 15.4347 9.99706 14.8924 10.6529 14.8924H24.1469C24.8027 14.8924 25.345 15.4347 25.345 16.0905C25.345 16.7463 24.8027 17.2886 24.1469 17.2886ZM24.1469 13.0764H10.6529C9.99706 13.0764 9.45478 12.5341 9.45478 11.8783C9.45478 11.2226 9.99706 10.6803 10.6529 10.6803H24.1469C24.8027 10.6803 25.345 11.2226 25.345 11.8783C25.345 12.5341 24.8027 13.0764 24.1469 13.0764ZM24.1469 8.86425H10.6529C9.99706 8.86425 9.45478 8.32197 9.45478 7.66618C9.45478 7.01039 9.99706 6.46811 10.6529 6.46811H24.1469C24.8027 6.46811 25.345 7.01039 25.345 7.66618C25.345 8.32197 24.8027 8.86425 24.1469 8.86425Z" fill="white"/>
<path d="M22.5453 24.4518C22.4192 24.3761 22.2678 24.3635 22.1291 24.414C20.2879 25.1328 18.2574 25.5111 16.2018 25.5111C11.3339 25.5111 7.04602 23.4177 4.62465 20.2648C4.4607 20.0631 4.15803 20.0252 3.96886 20.2144C2.06456 22.0052 0.916935 24.3383 0.916935 26.8984C0.916935 28.7775 1.52228 30.5809 2.69513 32.1573L0.967379 37.7567C0.816044 38.2359 0.979991 38.753 1.38355 39.0556C1.59794 39.2196 1.86278 39.3079 2.11501 39.3079C2.3294 39.3079 2.54379 39.2448 2.74557 39.1313L7.8153 36.0163C9.50521 36.6973 11.3843 37.0631 13.3012 37.0631C20.1239 37.0631 25.6729 32.4978 25.6729 26.8858C25.6729 26.7723 25.6729 26.6588 25.6603 26.5453C25.6603 26.4191 25.5846 26.293 25.4711 26.23L22.5453 24.4518Z" fill="white"/>
</svg>

