<svg width="32" height="40" viewBox="0 0 32 40" fill="none" xmlns="http://www.w3.org/2000/svg">
<path d="M20.023 25.1076H11.9896C11.8761 25.1076 11.7752 25.1959 11.7752 25.322C11.7752 25.3724 11.7878 25.4102 11.813 25.4481L14.9028 29.6729C15.0163 29.8242 15.1929 29.9125 15.382 29.9125H16.6053C16.7945 29.9125 16.9711 29.8242 17.0846 29.6729L20.1743 25.4481C20.1995 25.4102 20.2122 25.3724 20.2122 25.322C20.2248 25.2085 20.1365 25.1076 20.023 25.1076Z" fill="white"/>
<path d="M8.50891 25.5868L4.86425 27.6929C4.49853 27.9073 4.25891 28.2982 4.25891 28.727V34.8182C4.25891 37.2648 6.18844 39.3205 8.62241 39.3709C11.1321 39.434 13.2003 37.4036 13.2003 34.8939V33.2166L13.7426 32.9013C13.9444 32.7878 14.0074 32.5104 13.8687 32.3212L9.01336 25.6877C8.91247 25.5363 8.68547 25.4859 8.50891 25.5868Z" fill="white"/>
<path d="M27.1228 27.6929L23.4908 25.5868C23.3142 25.4859 23.0872 25.5364 22.9737 25.7003L18.1184 32.3339C17.9796 32.523 18.0301 32.8005 18.2445 32.914L18.7868 33.2293V34.8183C18.7868 37.2649 20.7163 39.3205 23.1503 39.371C25.6599 39.434 27.7282 37.4036 27.7282 34.8939V28.727C27.7282 28.2982 27.5012 27.9073 27.1228 27.6929Z" fill="white"/>
<path d="M30.9569 20.3657C30.7047 19.4325 30.1119 18.6506 29.267 18.1588L20.8048 13.2782C22.3056 11.9288 23.2136 9.98666 23.2136 7.88057C23.2136 3.8828 19.9599 0.629089 15.9621 0.629089C11.9643 0.629089 8.71059 3.8828 8.71059 7.88057C8.71059 10.0119 9.63122 11.9666 11.1446 13.3034L2.73285 18.1588C1.88789 18.638 1.29516 19.4199 1.04294 20.3657C0.79071 21.3116 0.916822 22.2827 1.40866 23.115C1.88789 23.96 2.66979 24.5527 3.61564 24.8049C4.54887 25.0571 5.53255 24.931 6.36489 24.4392L9.37899 22.6988V22.7114H22.6208V22.6988L25.6349 24.4392C26.4799 24.9184 27.4509 25.0571 28.3842 24.8049C29.3174 24.5527 30.0993 23.96 30.5912 23.115C31.083 22.2827 31.2091 21.3116 30.9569 20.3657Z" fill="white"/>
</svg>

