<svg width="30" height="38" viewBox="0 0 30 38" fill="none" xmlns="http://www.w3.org/2000/svg">
<path d="M18.5185 0.0452576H11.494C5.27665 0.0452576 0.219528 5.10238 0.219528 11.3197V26.6803C0.219528 32.8976 5.27665 37.9547 11.494 37.9547H18.5185C24.7359 37.9547 29.793 32.8976 29.793 26.6803V11.3197C29.793 5.10238 24.7359 0.0452576 18.5185 0.0452576ZM18.5185 35.5712H16.2106V33.8056C16.2106 33.1499 15.6683 32.6076 15.0126 32.6076C14.3568 32.6076 13.8145 33.1499 13.8145 33.8056V35.5712H11.5066C6.61345 35.5712 2.62828 31.5861 2.62828 26.6929V20.4755H4.39386C5.04965 20.4755 5.59193 19.9332 5.59193 19.2774C5.59193 18.6217 5.04965 18.0794 4.39386 18.0794H2.62828V11.3323C2.62828 6.43917 6.61345 2.45401 11.5066 2.45401H13.8145V4.21959C13.8145 4.87537 14.3568 5.41766 15.0126 5.41766C15.6683 5.41766 16.2106 4.87537 16.2106 4.21959V2.45401H18.5185C23.4117 2.45401 27.3968 6.43917 27.3968 11.3323V18.0794H25.6313C24.9755 18.0794 24.4332 18.6217 24.4332 19.2774C24.4332 19.9332 24.9755 20.4755 25.6313 20.4755H27.3968V26.6929C27.3968 31.5861 23.4117 35.5712 18.5185 35.5712Z" fill="white"/>
<path d="M16.198 18.8613V10.7396C16.198 10.0838 15.6557 9.54153 14.9999 9.54153C14.3441 9.54153 13.8018 10.0838 13.8018 10.7396V19.2648C13.8018 19.5297 13.8901 19.7819 14.0415 19.9837L21.2929 29.5809C21.5325 29.8961 21.8857 30.0601 22.2514 30.0601C22.5036 30.0601 22.7558 29.9844 22.9702 29.8205C23.4999 29.4169 23.6008 28.6728 23.2098 28.1432L16.198 18.8613Z" fill="white"/>
</svg>

