<svg width="25" height="25" viewBox="0 0 25 25" fill="none" xmlns="http://www.w3.org/2000/svg">
<path d="M14.9129 9.17018C15.2749 9.58732 15.9065 9.63206 16.3236 9.2701C16.7408 8.90815 16.7855 8.27657 16.4235 7.85942L14.9129 9.17018ZM9.92693 15.3594C9.56498 14.9423 8.93339 14.8975 8.51625 15.2595C8.09911 15.6215 8.05437 16.253 8.41633 16.6702L9.92693 15.3594ZM13.4199 6.0148C13.4199 5.46252 12.9722 5.0148 12.4199 5.0148C11.8676 5.0148 11.4199 5.46252 11.4199 6.0148H13.4199ZM11.4199 18.5148C11.4199 19.0671 11.8676 19.5148 12.4199 19.5148C12.9722 19.5148 13.4199 19.0671 13.4199 18.5148L11.4199 18.5148ZM22.6699 12.2648C22.6699 17.9257 18.0808 22.5148 12.4199 22.5148V24.5148C19.1854 24.5148 24.6699 19.0303 24.6699 12.2648H22.6699ZM12.4199 22.5148C6.759 22.5148 2.16992 17.9257 2.16992 12.2648H0.169922C0.169922 19.0303 5.65443 24.5148 12.4199 24.5148V22.5148ZM2.16992 12.2648C2.16992 6.60388 6.759 2.0148 12.4199 2.0148V0.014801C5.65443 0.014801 0.169922 5.49931 0.169922 12.2648H2.16992ZM12.4199 2.0148C18.0808 2.0148 22.6699 6.60388 22.6699 12.2648H24.6699C24.6699 5.49931 19.1854 0.014801 12.4199 0.014801V2.0148ZM12.4199 11.2648C11.5543 11.2648 10.8158 11.0291 10.323 10.7005C9.82314 10.3673 9.66992 10.0168 9.66992 9.7648H7.66992C7.66992 10.8935 8.35617 11.793 9.21357 12.3646C10.078 12.9409 11.2145 13.2648 12.4199 13.2648V11.2648ZM9.66992 9.7648C9.66992 9.51283 9.82314 9.16231 10.323 8.82908C10.8158 8.50052 11.5543 8.2648 12.4199 8.2648V6.2648C11.2145 6.2648 10.078 6.58872 9.21357 7.16498C8.35617 7.73658 7.66992 8.63606 7.66992 9.7648H9.66992ZM12.4199 8.2648C13.6013 8.2648 14.5029 8.69766 14.9129 9.17018L16.4235 7.85942C15.5368 6.83744 14.0146 6.2648 12.4199 6.2648V8.2648ZM12.4199 13.2648C13.2856 13.2648 14.024 13.5005 14.5169 13.8291C15.0167 14.1623 15.1699 14.5128 15.1699 14.7648H17.1699C17.1699 13.6361 16.4837 12.7366 15.6263 12.165C14.7619 11.5887 13.6253 11.2648 12.4199 11.2648V13.2648ZM11.4199 6.0148V7.2648H13.4199V6.0148H11.4199ZM11.4199 17.2648L11.4199 18.5148L13.4199 18.5148L13.4199 17.2648L11.4199 17.2648ZM12.42 16.2648C11.2386 16.2648 10.3369 15.8319 9.92693 15.3594L8.41633 16.6702C9.30311 17.6922 10.8253 18.2648 12.4199 18.2648L12.42 16.2648ZM15.1699 14.7648C15.1699 15.0168 15.0167 15.3673 14.5169 15.7005C14.0241 16.0291 13.2856 16.2648 12.4199 16.2648V18.2648C13.6254 18.2648 14.7619 17.9409 15.6263 17.3646C16.4837 16.793 17.1699 15.8935 17.1699 14.7648H15.1699ZM11.4199 7.2648L11.4199 17.2648L13.4199 17.2648L13.4199 7.2648L11.4199 7.2648Z" fill="#2874AF"/>
</svg>
