<?xml version="1.0" encoding="UTF-8" standalone="no"?>
<!DOCTYPE svg PUBLIC "-//W3C//DTD SVG 1.1//EN" "http://www.w3.org/Graphics/SVG/1.1/DTD/svg11.dtd">
<svg width="100%" height="100%" viewBox="0 0 48 48" version="1.1" xmlns="http://www.w3.org/2000/svg" xmlns:xlink="http://www.w3.org/1999/xlink" xml:space="preserve" xmlns:serif="http://www.serif.com/" style="fill-rule:evenodd;clip-rule:evenodd;stroke-linejoin:round;stroke-miterlimit:2;">
    <g transform="matrix(1.75224,0,0,1.75224,-20.0327,-17.8912)">
        <path d="M24.596,10.803C22.61,10.803 20.652,11.273 18.882,12.175C17.111,13.076 15.581,14.384 14.413,15.991C13.245,17.599 12.475,19.459 12.163,21.422C11.851,23.384 12.011,25.391 12.625,27.28L24.596,23.39L24.596,10.803Z" style="fill:rgb(40,116,175);fill-rule:nonzero;"/>
        <path d="M26.307,31.627C25.833,29.856 26.31,28.052 27.425,26.762L24.995,24.321L14.422,27.77C15.011,29.576 16.054,31.201 17.448,32.49C18.844,33.78 20.547,34.69 22.394,35.135C24.241,35.58 26.172,35.542 28,35.029C28.236,34.963 28.471,34.888 28.701,34.807C27.564,34.12 26.679,33.011 26.307,31.626L26.307,31.627Z" style="fill:rgb(40,116,175);fill-rule:nonzero;"/>
        <path d="M38.247,35.137L35.197,32.243C36.067,30.61 35.782,28.533 34.378,27.2C33.559,26.426 32.489,26.013 31.361,26.044C30.234,26.073 29.186,26.543 28.412,27.357C27.638,28.176 27.225,29.246 27.256,30.374C27.285,31.501 27.751,32.549 28.57,33.327C29.672,34.373 31.202,34.704 32.57,34.338C32.946,34.237 33.311,34.085 33.649,33.877L36.7,36.772C36.991,37.05 37.4,37.137 37.764,37.039C37.956,36.987 38.141,36.884 38.287,36.728C38.712,36.279 38.696,35.566 38.247,35.139L38.247,35.137ZM33.448,32.142C33.088,32.519 32.649,32.77 32.18,32.897C31.293,33.134 30.31,32.921 29.596,32.244C28.505,31.208 28.462,29.482 29.493,28.392C30.53,27.301 32.255,27.254 33.346,28.289C33.873,28.789 34.177,29.465 34.195,30.194C34.214,30.923 33.952,31.613 33.448,32.142Z" style="fill:rgb(40,116,175);fill-rule:nonzero;"/>
        <path d="M28.116,26.098C28.208,26.024 28.304,25.954 28.401,25.885C28.599,25.747 28.805,25.62 29.022,25.508L28.248,24.734L35.268,20.681C35.379,21.035 35.468,21.394 35.537,21.756L29.147,25.446C29.44,25.304 29.751,25.189 30.076,25.101C30.763,24.917 31.454,24.877 32.118,24.961L35.689,22.899C35.719,23.304 35.726,23.711 35.708,24.119L33.563,25.356C33.941,25.52 34.298,25.725 34.63,25.972L35.557,25.436C35.546,25.496 35.537,25.558 35.524,25.617C35.461,25.933 35.383,26.245 35.291,26.551C35.355,26.618 35.417,26.687 35.477,26.756C35.504,26.786 35.528,26.818 35.553,26.847C35.592,26.894 35.629,26.94 35.666,26.988C35.69,27.019 35.714,27.051 35.737,27.081C35.776,27.135 35.814,27.188 35.85,27.243C35.869,27.27 35.887,27.297 35.906,27.325C35.961,27.408 36.013,27.492 36.063,27.578C36.114,27.446 36.16,27.312 36.206,27.177C36.219,27.136 36.232,27.095 36.246,27.053C36.275,26.963 36.303,26.872 36.331,26.78C36.348,26.723 36.364,26.666 36.379,26.608C36.4,26.534 36.42,26.458 36.439,26.382C36.456,26.315 36.472,26.249 36.488,26.182C36.493,26.16 36.499,26.138 36.504,26.117L36.503,26.117C36.525,26.02 36.548,25.923 36.568,25.824C36.639,25.471 36.689,25.115 36.725,24.76L36.727,24.76C36.729,24.733 36.731,24.708 36.733,24.682C36.739,24.63 36.743,24.577 36.747,24.525C36.753,24.447 36.757,24.368 36.763,24.289C36.765,24.247 36.768,24.203 36.771,24.16C36.776,24.04 36.78,23.92 36.781,23.801L36.781,23.497L36.78,23.497C36.775,23.101 36.748,22.707 36.7,22.314L36.703,22.314C36.7,22.287 36.695,22.263 36.692,22.238C36.675,22.1 36.655,21.962 36.631,21.825C36.621,21.769 36.611,21.713 36.601,21.657C36.579,21.532 36.553,21.406 36.527,21.28C36.52,21.251 36.516,21.222 36.509,21.194L36.507,21.194C36.426,20.838 36.328,20.484 36.212,20.135L36.214,20.135C36.131,19.884 36.039,19.638 35.938,19.394C35.901,19.305 35.863,19.217 35.823,19.129L35.821,19.129C35.676,18.804 35.516,18.487 35.34,18.178L35.343,18.178C35.311,18.12 35.275,18.064 35.241,18.006C35.215,17.962 35.189,17.917 35.161,17.873C35.107,17.784 35.052,17.696 34.996,17.609C34.976,17.577 34.955,17.547 34.934,17.516C34.88,17.435 34.828,17.354 34.773,17.274L34.77,17.274C34.563,16.981 34.344,16.698 34.11,16.425L34.114,16.423C34.081,16.383 34.045,16.345 34.011,16.307C33.991,16.283 33.969,16.26 33.948,16.237C33.76,16.027 33.567,15.822 33.363,15.626L33.359,15.629C33.089,15.369 32.805,15.121 32.508,14.889L32.511,14.889C32.294,14.718 32.07,14.556 31.839,14.402C31.744,14.338 31.646,14.274 31.548,14.213L31.544,14.215C31.189,13.994 30.824,13.794 30.45,13.616L30.454,13.613C30.047,13.419 29.628,13.25 29.202,13.106L29.197,13.109C28.717,12.947 28.227,12.819 27.73,12.725L27.735,12.722C27.144,12.61 26.542,12.545 25.936,12.53L25.928,12.536C25.839,12.533 25.749,12.53 25.66,12.53L25.66,23.653L28.107,26.1C28.107,26.1 28.111,26.096 28.114,26.094L28.116,26.098ZM34.894,19.67L27.469,23.956L26.728,23.216L26.728,23.153L34.42,18.712C34.594,19.021 34.751,19.341 34.894,19.669L34.894,19.67ZM26.728,13.657C27.129,13.7 27.525,13.767 27.915,13.856L26.728,14.54L26.728,13.657ZM26.728,15.771L29.305,14.283C29.708,14.441 30.102,14.623 30.485,14.832L26.728,17.001L26.728,15.77L26.728,15.771ZM26.728,18.233L31.506,15.474C31.818,15.697 32.116,15.935 32.399,16.189L26.73,19.462L26.73,18.231L26.728,18.233ZM26.728,20.694L33.175,16.973C33.414,17.242 33.639,17.523 33.848,17.816L26.73,21.926L26.73,20.696L26.728,20.694Z" style="fill:rgb(40,116,175);fill-rule:nonzero;"/>
    </g>
</svg>
