<svg width="32" height="40" viewBox="0 0 32 40" fill="none" xmlns="http://www.w3.org/2000/svg">
<path d="M7.68918 18.368H2.19066C1.52227 18.368 0.97998 18.9102 0.97998 19.5786V38.155C0.97998 38.8234 1.52227 39.3657 2.19066 39.3657H7.68918C8.35758 39.3657 8.89986 38.8234 8.89986 38.155V19.5786C8.89986 18.9102 8.35758 18.368 7.68918 18.368Z" fill="white"/>
<path d="M18.7493 0.686935H13.2508C12.5824 0.686935 12.0401 1.22922 12.0401 1.89762V38.1424C12.0401 38.8108 12.5824 39.3531 13.2508 39.3531H18.7493C19.4177 39.3531 19.96 38.8108 19.96 38.1424V1.91023C19.96 1.24183 19.4177 0.686935 18.7493 0.686935Z" fill="white"/>
<path d="M29.8094 9.02298H24.3108C23.6424 9.02298 23.1002 9.56527 23.1002 10.2337V38.1424C23.1002 38.8108 23.6424 39.3531 24.3108 39.3531H29.8094C30.4777 39.3531 31.02 38.8108 31.02 38.1424V10.2463C31.02 9.57788 30.4777 9.02298 29.8094 9.02298Z" fill="white"/>
</svg>

