<svg width="31" height="31" viewBox="0 0 31 31" fill="none" xmlns="http://www.w3.org/2000/svg">
<path fill-rule="evenodd" clip-rule="evenodd" d="M4.948 7.85156C4.948 6.19471 6.29114 4.85156 7.948 4.85156H22.948C24.6049 4.85156 25.948 6.19471 25.948 7.85156V19.8516C25.948 21.5084 24.6049 22.8516 22.948 22.8516H19.6192L19.8025 23.5847L21.0087 24.7909C21.4377 25.2199 21.566 25.8651 21.3339 26.4256C21.1017 26.9861 20.5547 27.3516 19.948 27.3516H10.948C10.3413 27.3516 9.79439 26.9861 9.56222 26.4256C9.33005 25.8651 9.45838 25.2199 9.88738 24.7909L11.0936 23.5847L11.2769 22.8516H7.948C6.29114 22.8516 4.948 21.5084 4.948 19.8516V7.85156ZM13.6049 18.3516C13.5829 18.3511 13.5608 18.3511 13.5389 18.3516H7.948V7.85156H22.948V18.3516H17.3572C17.3353 18.3511 17.3132 18.3511 17.2911 18.3516H13.6049Z" fill="#ffffff"/>
</svg>
