<svg width="16" height="21" viewBox="0 0 16 21" fill="none" xmlns="http://www.w3.org/2000/svg">
<path d="M6 19.6086H13C14.1046 19.6086 15 18.7132 15 17.6086V8.02286C15 7.75764 14.8946 7.50329 14.7071 7.31575L9.29289 1.90154C9.10536 1.714 8.851 1.60864 8.58579 1.60864H3C1.89543 1.60864 1 2.50407 1 3.60864V14.6086M1 19.6086L5.87868 14.73M5.87868 14.73C6.42157 15.2729 7.17157 15.6086 8 15.6086C9.65685 15.6086 11 14.2655 11 12.6086C11 10.9518 9.65685 9.60864 8 9.60864C6.34315 9.60864 5 10.9518 5 12.6086C5 13.4371 5.33579 14.1871 5.87868 14.73Z" stroke="white" stroke-width="2" stroke-linecap="round"/>
</svg>
