<svg width="34" height="34" viewBox="0 0 34 34" fill="none" xmlns="http://www.w3.org/2000/svg">
<path d="M33.0085 12.0043L29.3312 5.63472C29.2764 5.53975 29.186 5.47045 29.0801 5.44207C28.9741 5.41369 28.8613 5.42856 28.7663 5.48339L21.0537 9.93618V1.19706C21.0537 1.08736 21.0101 0.982151 20.9325 0.904581C20.8549 0.827011 20.7497 0.783432 20.64 0.783432H13.3587C13.3044 0.783432 13.2507 0.794139 13.2006 0.814941C13.1505 0.835743 13.105 0.866231 13.0667 0.904656C13.0283 0.943081 12.998 0.98869 12.9774 1.03887C12.9567 1.08904 12.9462 1.1428 12.9463 1.19706V9.93618L5.23244 5.48465C5.18551 5.45753 5.13368 5.43993 5.07993 5.43286C5.02619 5.42579 4.97157 5.42938 4.91922 5.44343C4.86686 5.45749 4.81779 5.48173 4.77481 5.51477C4.73184 5.54781 4.69579 5.589 4.66875 5.63598L0.990246 12.0043C0.935752 12.0994 0.92108 12.2121 0.949432 12.318C0.977783 12.4238 1.04686 12.5142 1.14157 12.5693L8.82015 16.9981L1.14157 21.4307C1.04686 21.4858 0.977783 21.5761 0.949432 21.682C0.92108 21.7878 0.935752 21.9006 0.990246 21.9957L4.66749 28.364C4.72235 28.459 4.81269 28.5283 4.91863 28.5567C5.02458 28.585 5.13745 28.5702 5.23244 28.5153L12.9463 24.06V32.7979C12.9462 32.8521 12.9567 32.9059 12.9774 32.9561C12.998 33.0062 13.0283 33.0519 13.0667 33.0903C13.105 33.1287 13.1505 33.1592 13.2006 33.18C13.2507 33.2008 13.3044 33.2115 13.3587 33.2115H20.64C20.7497 33.2115 20.8549 33.1679 20.9325 33.0904C21.0101 33.0128 21.0537 32.9076 21.0537 32.7979V24.06L28.7675 28.5141C28.8626 28.5686 28.9754 28.5832 29.0812 28.5549C29.1871 28.5265 29.2774 28.4575 29.3325 28.3627L33.0085 21.9931C33.0633 21.8982 33.0782 21.7853 33.0498 21.6793C33.0214 21.5734 32.9521 21.4831 32.8572 21.4282L25.1824 16.9981L32.8572 12.5667C32.9514 12.5119 33.0202 12.422 33.0486 12.3167C33.0769 12.2113 33.0625 12.0991 33.0085 12.0043Z" fill="white"/>
</svg>

