<svg width="32" height="24" viewBox="0 0 32 24" fill="none" xmlns="http://www.w3.org/2000/svg">
<path d="M29.9228 0.0823364H2.08976C1.43397 0.0823364 0.891685 0.624621 0.891685 1.28041V22.7322C0.891685 23.388 1.43397 23.9303 2.08976 23.9303H29.9228C30.5786 23.9303 31.1209 23.388 31.1209 22.7322V1.28041C31.1209 0.61201 30.5786 0.0823364 29.9228 0.0823364ZM16 12.8702L5.07863 2.47848H26.9214L16 12.8702ZM10.7663 11.1929L3.28783 19.5794V4.0675L10.7663 11.1929ZM12.5067 12.8449L15.1803 15.3924C15.4073 15.6068 15.7099 15.7203 16.0126 15.7203C16.3153 15.7203 16.6053 15.6068 16.8449 15.3924L19.4429 12.9206L27.1231 21.5341H4.76335L12.5067 12.8449ZM21.158 11.2685L28.7122 4.0675V19.7433L21.158 11.2685Z" fill="white"/>
</svg>

