<svg width="38" height="38" viewBox="0 0 38 38" fill="none" xmlns="http://www.w3.org/2000/svg">
<path d="M35.1046 28.1684C36.6558 25.457 37.5386 22.3294 37.5386 19C37.5386 15.6706 36.6558 12.5304 35.1046 9.83161V9.79378H35.0794C31.8761 4.23221 25.8732 0.474045 19 0.474045C12.1269 0.474045 6.12392 4.23221 2.92066 9.79378H2.89543V9.83161C1.34425 12.543 0.461456 15.6706 0.461456 19C0.461456 22.342 1.34425 25.4696 2.89543 28.181V28.2189H2.90804C6.11131 33.793 12.1143 37.5512 18.9874 37.5512C25.8606 37.5512 31.8635 33.793 35.0668 28.2189H35.092V28.1684H35.1046ZM29.2152 17.8776C29.1647 15.7463 28.9629 13.8042 28.635 12.0512H33.7174C34.5623 13.842 35.092 15.8094 35.2434 17.8776H29.2152ZM26.9577 17.8776H20.1224V12.0512H26.3146C26.7307 13.9555 26.9073 15.9607 26.9577 17.8776ZM20.135 9.79378V3.12241C22.9978 4.27004 24.7255 6.79229 25.7218 9.79378H20.135ZM17.8776 3.12241V9.79378H12.2782C13.5898 5.88428 15.7463 3.99259 17.8776 3.12241ZM17.8776 12.0512V17.8776H11.0423C11.0928 15.6328 11.3198 13.7033 11.6729 12.0512H17.8776ZM8.7849 17.8776H2.75671C2.89543 15.8094 3.42511 13.842 4.28267 12.0512H9.36502C9.03712 13.8042 8.83534 15.7463 8.7849 17.8776ZM8.7849 20.135C8.83534 22.2537 9.03712 24.1959 9.36502 25.9614H4.28267C3.43772 24.1706 2.90804 22.2033 2.75671 20.135H8.7849ZM11.0423 20.135H17.8776V25.9614H11.6855C11.2693 24.0445 11.0928 22.0393 11.0423 20.135ZM17.8776 28.2062V34.8776C15.0149 33.73 13.2871 31.2077 12.2908 28.2062H17.8776ZM20.135 34.8776V28.2062H25.7345C24.4229 32.1157 22.2664 34.02 20.135 34.8776ZM20.135 25.9488V20.1224H26.9704C26.9199 22.3672 26.6929 24.2967 26.3398 25.9488H20.135ZM29.2152 20.135H35.2434C35.1046 22.2033 34.575 24.1706 33.7174 25.9614H28.635C28.9755 24.1959 29.1647 22.2537 29.2152 20.135ZM32.4184 9.79378H28.0928C27.3865 7.37241 26.3524 5.39244 25.0156 3.87909C28.0297 5.07716 30.6024 7.14541 32.4184 9.79378ZM12.9971 3.86648C11.6477 5.39244 10.6261 7.37241 9.91991 9.78117H5.59425C7.41027 7.14541 9.98297 5.07716 12.9971 3.86648ZM5.58163 28.2062H9.9073C10.6135 30.6276 11.6477 32.6076 12.9971 34.1335C9.98297 32.9355 7.39766 30.8546 5.58163 28.2062ZM25.0156 34.1335C26.365 32.6076 27.3865 30.6276 28.0928 28.2062H32.4184C30.6024 30.8546 28.0297 32.9355 25.0156 34.1335Z" fill="white"/>
</svg>

