<svg width="31" height="32" viewBox="0 0 31 32" fill="none" xmlns="http://www.w3.org/2000/svg">
<path d="M29.65 5.45838C29.2842 4.70171 28.8428 3.99548 28.3384 3.37752C26.7115 1.35972 24.2776 0.249927 21.6796 0.300373C19.2709 0.363429 17.0513 1.42278 15.5001 3.2388C13.9615 1.42278 11.7419 0.350818 9.32058 0.300373C6.72265 0.237316 4.28868 1.35972 2.66182 3.37752C2.15737 3.99548 1.71598 4.70171 1.35025 5.45838C0.303513 7.6023 -0.049601 9.98583 0.303515 12.3694C0.656631 14.7277 1.69075 16.9094 3.27978 18.6876L14.6047 31.2989C14.8317 31.5511 15.1596 31.7024 15.5001 31.7024C15.8406 31.7024 16.1685 31.5637 16.3955 31.2989L27.7204 18.6876C29.3221 16.9094 30.3436 14.7277 30.6967 12.3694C31.0498 9.98583 30.6967 7.6023 29.65 5.45838Z" fill="white"/>
</svg>
