<svg width="32" height="39" viewBox="0 0 32 39" fill="none" xmlns="http://www.w3.org/2000/svg">
<path d="M30.9316 14.5556L16.8448 0.468829C16.3782 0.00221168 15.6215 0.00221168 15.1549 0.468829L1.06814 14.5556C0.727631 14.8961 0.626742 15.4132 0.8033 15.8672C0.992469 16.3086 1.42125 16.6113 1.91309 16.6113H30.0867C30.5659 16.6113 31.0073 16.3212 31.1965 15.8672C31.3856 15.4132 31.2721 14.8961 30.9316 14.5556Z" fill="white"/>
<path d="M14.4992 38.8576H17.5133C17.652 38.8576 17.7655 38.7441 17.7655 38.6053V25.8301C17.7655 25.7166 17.6772 25.6283 17.5637 25.6283H14.4487C14.3352 25.6283 14.2469 25.7166 14.2469 25.8301V38.6053C14.2469 38.7441 14.3605 38.8576 14.4992 38.8576Z" fill="white"/>
<path d="M27.35 19.0074H4.64973C3.99394 19.0074 3.45166 19.5497 3.45166 20.2055V37.6595C3.45166 38.3153 3.99394 38.8575 4.64973 38.8575H11.5859C11.7247 38.8575 11.8382 38.744 11.8382 38.6053V24.4302C11.8382 23.7744 12.3804 23.2322 13.0362 23.2322H18.9509C19.6067 23.2322 20.149 23.7744 20.149 24.4302V38.6053C20.149 38.744 20.2625 38.8575 20.4012 38.8575H27.3374C27.9932 38.8575 28.5355 38.3153 28.5355 37.6595V20.2055C28.5481 19.5371 28.0184 19.0074 27.35 19.0074Z" fill="white"/>
</svg>

