<svg width="20" height="21" viewBox="0 0 20 21" fill="none" xmlns="http://www.w3.org/2000/svg">
<path fill-rule="evenodd" clip-rule="evenodd" d="M10.315 0.993408C12.745 0.993408 13.099 1.00641 14.123 1.05341C15.187 1.10241 15.914 1.27141 16.55 1.51841C17.2175 1.76928 17.8222 2.16276 18.322 2.67141C18.8306 3.17118 19.2241 3.77591 19.475 4.44341C19.722 5.07941 19.891 5.80641 19.94 6.87041C19.988 7.93741 20 8.27741 20 10.9934V11.0734C20 13.7164 19.988 14.0604 19.94 15.1164C19.891 16.1804 19.722 16.9074 19.475 17.5434C19.2241 18.2109 18.8306 18.8156 18.322 19.3154C17.8222 19.8241 17.2175 20.2175 16.55 20.4684C15.914 20.7154 15.187 20.8844 14.123 20.9334C13.056 20.9814 12.716 20.9934 10 20.9934H9.92C7.277 20.9934 6.933 20.9814 5.877 20.9334C4.813 20.8844 4.086 20.7154 3.45 20.4684C2.7825 20.2175 2.17777 19.8241 1.678 19.3154C1.16936 18.8156 0.775874 18.2109 0.525 17.5434C0.278 16.9074 0.109 16.1804 0.0599999 15.1164C0.0129999 14.0924 0 13.7374 0 11.3084V10.6784C0 8.24841 0.0129999 7.89441 0.0599999 6.87041C0.109 5.80641 0.278 5.07941 0.525 4.44341C0.775874 3.77591 1.16936 3.17118 1.678 2.67141C2.17777 2.16276 2.7825 1.76928 3.45 1.51841C4.086 1.27141 4.813 1.10241 5.877 1.05341C6.901 1.00641 7.256 0.993408 9.685 0.993408H10.315ZM10.234 2.79541H9.766C7.31 2.79541 6.982 2.80641 5.959 2.85341C4.984 2.89841 4.455 3.06041 4.102 3.19741C3.635 3.37941 3.302 3.59541 2.952 3.94541C2.602 4.29541 2.386 4.62841 2.204 5.09541C2.067 5.44841 1.904 5.97741 1.86 6.95241C1.813 7.97541 1.802 8.30341 1.802 10.7594V11.2274C1.802 13.6834 1.813 14.0114 1.86 15.0344C1.905 16.0094 2.067 16.5384 2.204 16.8914C2.386 17.3574 2.603 17.6914 2.952 18.0414C3.302 18.3914 3.635 18.6074 4.102 18.7894C4.455 18.9264 4.984 19.0894 5.959 19.1334C7.013 19.1814 7.329 19.1914 10 19.1914H10.08C12.677 19.1914 12.997 19.1814 14.04 19.1334C15.016 19.0884 15.545 18.9264 15.898 18.7894C16.364 18.6074 16.698 18.3914 17.048 18.0414C17.398 17.6914 17.614 17.3584 17.796 16.8914C17.933 16.5384 18.096 16.0094 18.14 15.0344C18.188 13.9794 18.198 13.6644 18.198 10.9934V10.9134C18.198 8.31641 18.188 7.99641 18.14 6.95341C18.095 5.97741 17.933 5.44841 17.796 5.09541C17.6358 4.66098 17.3802 4.268 17.048 3.94541C16.7254 3.61327 16.3324 3.35767 15.898 3.19741C15.545 3.06041 15.016 2.89741 14.041 2.85341C13.018 2.80641 12.69 2.79541 10.234 2.79541ZM10 5.85841C10.6743 5.85841 11.3421 5.99123 11.9651 6.24929C12.5881 6.50734 13.1542 6.88559 13.631 7.36242C14.1078 7.83924 14.4861 8.40532 14.7441 9.02833C15.0022 9.65134 15.135 10.3191 15.135 10.9934C15.135 11.6677 15.0022 12.3355 14.7441 12.9585C14.4861 13.5815 14.1078 14.1476 13.631 14.6244C13.1542 15.1012 12.5881 15.4795 11.9651 15.7375C11.3421 15.9956 10.6743 16.1284 10 16.1284C8.63811 16.1284 7.33201 15.5874 6.36901 14.6244C5.40601 13.6614 4.865 12.3553 4.865 10.9934C4.865 9.63152 5.40601 8.32541 6.36901 7.36242C7.33201 6.39942 8.63811 5.85841 10 5.85841ZM10 7.66041C9.11603 7.66041 8.26827 8.01156 7.64321 8.63662C7.01815 9.26168 6.667 10.1094 6.667 10.9934C6.667 11.8774 7.01815 12.7251 7.64321 13.3502C8.26827 13.9753 9.11603 14.3264 10 14.3264C10.884 14.3264 11.7317 13.9753 12.3568 13.3502C12.9818 12.7251 13.333 11.8774 13.333 10.9934C13.333 10.1094 12.9818 9.26168 12.3568 8.63662C11.7317 8.01156 10.884 7.66041 10 7.66041ZM15.338 4.45541C15.6563 4.45541 15.9615 4.58184 16.1865 4.80688C16.4116 5.03192 16.538 5.33715 16.538 5.65541C16.538 5.97367 16.4116 6.27889 16.1865 6.50394C15.9615 6.72898 15.6563 6.85541 15.338 6.85541C15.0197 6.85541 14.7145 6.72898 14.4895 6.50394C14.2644 6.27889 14.138 5.97367 14.138 5.65541C14.138 5.33715 14.2644 5.03192 14.4895 4.80688C14.7145 4.58184 15.0197 4.45541 15.338 4.45541Z" fill="white"/>
</svg>
