<svg width="32" height="39" viewBox="0 0 32 39" fill="none" xmlns="http://www.w3.org/2000/svg">
<path d="M29.7592 6.12392C27.8297 2.55493 24.2859 0.360572 20.2629 0.24707C20.1368 0.24707 20.0233 0.24707 19.8972 0.24707H12.116C11.9899 0.24707 11.8764 0.24707 11.7503 0.24707C7.72729 0.360572 4.18353 2.56754 2.254 6.12392C0.299254 9.75597 0.412756 14.0186 2.56928 17.5245L7.43724 25.4318C7.66424 25.7975 7.81557 26.1885 7.90385 26.592C7.94169 26.7686 8.09302 26.8947 8.26958 26.8947L23.7436 26.9073C23.9202 26.9073 24.0715 26.7812 24.1093 26.6046C24.1976 26.1885 24.349 25.7849 24.576 25.4066L29.4439 17.5119C31.6004 14.006 31.7139 9.75597 29.7592 6.12392Z" fill="white"/>
<path d="M9.17742 34.083C8.93781 34.083 8.77386 34.3478 8.88736 34.5622C10.2242 37.1476 12.923 38.9131 16.0253 38.9131C19.1277 38.9131 21.8139 37.1476 23.1507 34.5748C23.2642 34.3605 23.1129 34.0956 22.8607 34.0956L9.17742 34.083Z" fill="white"/>
<path d="M22.7851 31.6872H9.25325C8.59746 31.6872 8.05518 31.1449 8.05518 30.4891C8.05518 29.8333 8.59746 29.291 9.25325 29.291H22.7851C23.4409 29.291 23.9832 29.8333 23.9832 30.4891C23.9832 31.1449 23.4409 31.6872 22.7851 31.6872Z" fill="white"/>
</svg>
