<svg width="19" height="19" viewBox="0 0 19 19" fill="none" xmlns="http://www.w3.org/2000/svg">
<path fill-rule="evenodd" clip-rule="evenodd" d="M15.8497 15.3849H13.1817V11.2069C13.1817 10.2119 13.1647 8.92988 11.7947 8.92988C10.4047 8.92988 10.1937 10.0159 10.1937 11.1369V15.3849H7.52572V6.79488H10.0847V7.96887H10.1217C10.4777 7.29387 11.3487 6.58187 12.6477 6.58187C15.3507 6.58187 15.8507 8.35987 15.8507 10.6739V15.3849H15.8497ZM4.51672 5.62187C4.31343 5.62207 4.1121 5.58223 3.92421 5.50461C3.73632 5.427 3.56556 5.31314 3.42168 5.16954C3.27779 5.02593 3.1636 4.85539 3.08563 4.66765C3.00765 4.47992 2.96742 4.27866 2.96722 4.07538C2.96702 3.87209 3.00687 3.67075 3.08448 3.48287C3.16209 3.29498 3.27595 3.12422 3.41956 2.98033C3.56316 2.83645 3.7337 2.72226 3.92144 2.64428C4.10918 2.56631 4.31043 2.52607 4.51372 2.52588C4.92427 2.52548 5.31817 2.68819 5.60876 2.97821C5.89935 3.26824 6.06282 3.66182 6.06322 4.07237C6.06362 4.48293 5.90091 4.87683 5.61088 5.16742C5.32086 5.458 4.92727 5.62148 4.51672 5.62187ZM3.17972 15.3849H5.85172V6.79488H3.17872V15.3849H3.17972ZM17.1797 0.046875H1.83972C1.10672 0.046875 0.511719 0.627875 0.511719 1.34488V16.7479C0.511719 17.4649 1.10672 18.0469 1.83972 18.0469H17.1797C17.9137 18.0469 18.5117 17.4649 18.5117 16.7479V1.34488C18.5117 0.627875 17.9137 0.046875 17.1797 0.046875Z" fill="#828282"/>
</svg>
