<svg width="42" height="44" viewBox="0 0 42 44" fill="none" xmlns="http://www.w3.org/2000/svg">
<path d="M2.90446 24.4017L4.83892 21.5265V36.1661C4.83892 36.8975 5.3093 37.5785 6.04197 37.6794C6.25388 37.7116 6.47025 37.6981 6.6765 37.6397C6.88274 37.5813 7.07406 37.4793 7.23755 37.3407C7.40104 37.202 7.53291 37.03 7.62426 36.836C7.71561 36.6421 7.76431 36.4309 7.7671 36.2165V27.5405C7.77243 27.4589 7.80723 27.3821 7.865 27.3243C7.92277 27.2666 7.99957 27.2318 8.0811 27.2264H8.86548C8.94678 27.2321 9.02328 27.267 9.08079 27.3247C9.1383 27.3825 9.17292 27.4591 9.17822 27.5405V36.2203C9.17822 36.9517 9.70156 37.6314 10.3813 37.7336C10.5938 37.7696 10.8117 37.7588 11.0196 37.7017C11.2275 37.6446 11.4204 37.5428 11.5848 37.4033C11.7492 37.2638 11.881 37.09 11.9711 36.8941C12.0612 36.6983 12.1074 36.4851 12.1064 36.2695V21.5265L14.0409 24.4017C14.1715 24.6002 14.3504 24.7622 14.5609 24.8725C14.7713 24.9828 15.0064 25.0377 15.2439 25.0322C15.5934 25.0375 15.931 24.9057 16.1847 24.6652C16.761 24.1949 16.8152 23.2541 16.394 22.6261L12.6297 17.0838C12.3063 16.6036 11.8705 16.2097 11.3602 15.9363C10.8498 15.6629 10.2805 15.5183 9.70156 15.515H7.24376C6.66278 15.5062 6.08915 15.6456 5.57703 15.9201C5.06491 16.1946 4.63119 16.5951 4.31684 17.0838L0.551325 22.6223C0.346686 22.9121 0.250359 23.2646 0.279171 23.6182C0.307983 23.9717 0.460103 24.304 0.708957 24.5568C1.38867 25.2378 2.43408 25.1331 2.90446 24.4017Z" fill="white"/>
<path d="M8.49852 14.7281C9.13987 14.7284 9.76689 14.5384 10.3003 14.1823C10.8336 13.8261 11.2494 13.3197 11.4949 12.7273C11.7405 12.1348 11.8048 11.4828 11.6797 10.8537C11.5547 10.2247 11.2459 9.64689 10.7923 9.19339C10.3388 8.73988 9.76103 8.43107 9.13199 8.30601C8.50295 8.18095 7.85095 8.24526 7.25847 8.49081C6.66599 8.73636 6.15964 9.15212 5.80348 9.68548C5.44732 10.2188 5.25735 10.8459 5.2576 11.4872C5.2576 12.3468 5.59905 13.1711 6.20684 13.7789C6.81463 14.3867 7.63897 14.7281 8.49852 14.7281Z" fill="white"/>
<path d="M27.9642 24.4016L29.8987 21.5264V36.1661C29.8987 36.8975 30.369 37.5784 31.1017 37.6793C31.3136 37.7116 31.53 37.6981 31.7362 37.6397C31.9425 37.5812 32.1338 37.4793 32.2973 37.3406C32.4608 37.202 32.5927 37.0299 32.684 36.836C32.7754 36.6421 32.8241 36.4308 32.8268 36.2165V27.5404C32.8322 27.4589 32.867 27.3821 32.9247 27.3243C32.9825 27.2665 33.0593 27.2318 33.1408 27.2264H33.9252C34.0072 27.2312 34.0846 27.2657 34.1429 27.3235C34.2012 27.3814 34.2364 27.4585 34.2418 27.5404V36.2203C34.2418 36.9517 34.7651 37.6314 35.4448 37.7335C35.6574 37.7696 35.8752 37.7587 36.0831 37.7017C36.291 37.6446 36.4839 37.5428 36.6483 37.4033C36.8127 37.2638 36.9446 37.09 37.0347 36.8941C37.1248 36.6983 37.1709 36.4851 37.1699 36.2695V21.5264L39.1044 24.4016C39.235 24.6001 39.4139 24.7621 39.6244 24.8724C39.8348 24.9827 40.0699 25.0377 40.3074 25.0322C40.6569 25.0374 40.9946 24.9057 41.2482 24.6652C41.8245 24.1948 41.8787 23.2541 41.4575 22.6261L37.6933 17.0837C37.3698 16.6036 36.934 16.2097 36.4237 15.9363C35.9134 15.6629 35.344 15.5183 34.7651 15.515H32.3035C31.7225 15.5062 31.1489 15.6456 30.6368 15.9201C30.1247 16.1946 29.6909 16.5951 29.3766 17.0837L25.6111 22.6223C25.4064 22.9121 25.3101 23.2645 25.3389 23.6181C25.3677 23.9717 25.5199 24.3039 25.7687 24.5568C26.4484 25.2377 27.4938 25.1331 27.9642 24.4016Z" fill="white"/>
<path d="M33.5582 14.7281C34.1996 14.7284 34.8266 14.5384 35.36 14.1823C35.8933 13.8261 36.3091 13.3197 36.5546 12.7273C36.8002 12.1348 36.8645 11.4828 36.7395 10.8537C36.6144 10.2247 36.3056 9.64689 35.8521 9.19339C35.3986 8.73988 34.8208 8.43107 34.1917 8.30601C33.5627 8.18095 32.9107 8.24526 32.3182 8.49081C31.7257 8.73636 31.2194 9.15212 30.8632 9.68548C30.507 10.2188 30.3171 10.8459 30.3173 11.4872C30.3173 12.3468 30.6588 13.1711 31.2666 13.7789C31.8744 14.3867 32.6987 14.7281 33.5582 14.7281Z" fill="white"/>
<path d="M21.0006 43.648C20.5826 43.648 20.1816 43.4819 19.886 43.1863C19.5904 42.8907 19.4243 42.4897 19.4243 42.0716V38.5407C19.4243 38.1226 19.5904 37.7217 19.886 37.4261C20.1816 37.1304 20.5826 36.9644 21.0006 36.9644C21.4187 36.9644 21.8196 37.1304 22.1153 37.4261C22.4109 37.7217 22.577 38.1226 22.577 38.5407V42.0716C22.577 42.4897 22.4109 42.8907 22.1153 43.1863C21.8196 43.4819 21.4187 43.648 21.0006 43.648ZM21.0006 34.4422C20.5826 34.4422 20.1816 34.2762 19.886 33.9806C19.5904 33.6849 19.4243 33.284 19.4243 32.8659V29.335C19.4243 28.9169 19.5904 28.516 19.886 28.2203C20.1816 27.9247 20.5826 27.7586 21.0006 27.7586C21.4187 27.7586 21.8196 27.9247 22.1153 28.2203C22.4109 28.516 22.577 28.9169 22.577 29.335V32.8659C22.577 33.284 22.4109 33.6849 22.1153 33.9806C21.8196 34.2762 21.4187 34.4422 21.0006 34.4422ZM21.0006 25.2365C20.5826 25.2365 20.1816 25.0704 19.886 24.7748C19.5904 24.4792 19.4243 24.0783 19.4243 23.6602V20.1292C19.4243 19.7112 19.5904 19.3102 19.886 19.0146C20.1816 18.719 20.5826 18.5529 21.0006 18.5529C21.4187 18.5529 21.8196 18.719 22.1153 19.0146C22.4109 19.3102 22.577 19.7112 22.577 20.1292V23.6602C22.577 24.0783 22.4109 24.4792 22.1153 24.7748C21.8196 25.0704 21.4187 25.2365 21.0006 25.2365ZM21.0006 16.0308C20.5826 16.0308 20.1816 15.8647 19.886 15.5691C19.5904 15.2735 19.4243 14.8725 19.4243 14.4545V10.9235C19.4243 10.5055 19.5904 10.1045 19.886 9.80889C20.1816 9.51327 20.5826 9.3472 21.0006 9.3472C21.4187 9.3472 21.8196 9.51327 22.1153 9.80889C22.4109 10.1045 22.577 10.5055 22.577 10.9235V14.4545C22.577 14.8725 22.4109 15.2735 22.1153 15.5691C21.8196 15.8647 21.4187 16.0308 21.0006 16.0308ZM21.0006 6.82508C20.5826 6.82508 20.1816 6.65901 19.886 6.36339C19.5904 6.06777 19.4243 5.66683 19.4243 5.24876V1.7178C19.4243 1.29973 19.5904 0.898791 19.886 0.603173C20.1816 0.307556 20.5826 0.141479 21.0006 0.141479C21.4187 0.141479 21.8196 0.307556 22.1153 0.603173C22.4109 0.898791 22.577 1.29973 22.577 1.7178V5.24876C22.577 5.66683 22.4109 6.06777 22.1153 6.36339C21.8196 6.65901 21.4187 6.82508 21.0006 6.82508Z" fill="white"/>
</svg>

