<svg width="40" height="40" viewBox="0 0 40 40" fill="none" xmlns="http://www.w3.org/2000/svg">
<path d="M39.0809 18.5119C39.0809 16.595 38.4629 15.0564 37.1009 13.5556C37.1009 13.4169 37.1009 13.2025 37.0883 13.1142C36.9874 10.9199 36.092 8.82641 34.566 7.22478C33.0905 5.6862 31.1358 4.70252 29.0423 4.4503C28.5 2.1046 26.3939 0.414688 23.9726 0.414688C22.434 0.414688 20.9963 1.08309 20.0126 2.24332C19.0163 1.07047 17.5913 0.414688 16.0527 0.414688C13.6313 0.414688 11.5252 2.1046 10.9829 4.4503C7.13651 4.91691 4.00891 7.72923 3.15134 11.5252C2.97478 12.3576 2.93695 13.2656 2.93695 13.5935C1.56232 15.1068 0.944366 16.6328 0.944366 18.5119C0.944366 20.6936 1.78932 22.7493 3.34051 24.3005C3.65579 24.6157 4.00891 24.9184 4.37463 25.1832C4.07196 26.003 3.92063 26.8731 3.92063 27.7812C3.92063 31.1231 6.03932 33.9229 8.97775 34.5156C9.50742 37.4162 12.1053 39.5853 15.069 39.5853C17.0237 39.5853 18.8524 38.6647 20.0252 37.1135C21.1981 38.6647 23.0267 39.5853 24.9815 39.5853C27.9577 39.5853 30.543 37.4162 31.0727 34.5156C34.0111 33.9229 36.1298 31.1105 36.1298 27.7812C36.1298 26.8858 35.9785 26.0156 35.6758 25.1832C36.0416 24.9184 36.3947 24.6283 36.71 24.3005C38.2359 22.7493 39.0809 20.7062 39.0809 18.5119ZM31.0223 24.2122C30.026 22.951 28.5505 22.2322 26.9362 22.2322C26.2552 22.2322 25.6877 22.7871 25.6877 23.4807C25.6877 24.1743 26.2426 24.7292 26.9362 24.7292C28.437 24.7292 29.6602 25.9525 29.6602 27.4533C29.6602 28.1343 30.2151 28.7018 30.9088 28.7018C31.5898 28.7018 32.1573 28.1469 32.1573 27.4533C32.1573 27.1758 32.1321 26.8984 32.0942 26.6335C32.5482 26.5705 32.9896 26.4696 33.4184 26.3309C33.5571 26.7975 33.6328 27.2893 33.6328 27.7938C33.6328 30.2025 31.9681 32.1573 29.9251 32.1573C28.4243 32.1573 27.201 30.934 27.201 29.4332C27.201 28.7522 26.6462 28.1847 25.9525 28.1847C25.2715 28.1847 24.704 28.7396 24.704 29.4332C24.704 31.7663 26.293 33.8346 28.5126 34.4525C28.046 36.0037 26.5957 37.1135 24.9562 37.1135C22.9132 37.1135 21.2485 35.4488 21.2485 33.4058V24.4644C21.2485 22.9637 22.4718 21.7404 23.9726 21.7404C24.6536 21.7404 25.2211 21.1855 25.2211 20.4918C25.2211 19.7982 24.6662 19.2433 23.9726 19.2433C23.0015 19.2433 22.0683 19.5082 21.2485 20.0126V5.63576C21.2485 4.13501 22.4718 2.91172 23.9726 2.91172C25.095 2.91172 26.066 3.58012 26.4822 4.58902C24.25 5.2322 22.724 7.25 22.724 9.5957C22.724 10.2767 23.2789 10.8442 23.9726 10.8442C24.6662 10.8442 25.2211 10.2893 25.2211 9.5957C25.2211 8.09496 26.4444 6.87166 27.9451 6.87166C30.9214 6.87166 33.5571 8.87686 34.3643 11.7018C32.8509 11.2099 31.2114 11.3108 29.7738 11.9918C29.5215 11.5252 29.2062 11.0838 28.8153 10.6929C28.3361 10.2137 27.5416 10.2137 27.0623 10.6929C26.8227 10.9325 26.6966 11.2352 26.6966 11.5757C26.6966 11.9162 26.8227 12.2188 27.0623 12.4585C27.5794 12.9755 27.8568 13.6313 27.8568 14.2997C27.8568 14.9807 27.5794 15.6365 27.0623 16.141C26.5831 16.6202 26.5831 17.4147 27.0623 17.8939C27.5416 18.3731 28.3361 18.3731 28.8153 17.8939C29.7359 16.9733 30.2782 15.7752 30.3413 14.5141C31.3628 13.8205 32.6491 13.6691 33.8094 14.1358C34.2129 14.2997 34.7174 14.5898 34.9696 14.905L34.9822 14.9303C36.1298 16.0779 36.5965 17.112 36.5965 18.5119C36.5965 20.0378 36.0037 21.4629 34.9318 22.5349C34.4021 23.0645 33.7715 23.4807 33.0905 23.7708C32.4221 24.0482 31.7411 24.1869 31.0223 24.2122ZM15.0438 16.2797C14.3628 16.2797 13.7953 16.8346 13.7953 17.5282C13.7953 18.2218 14.3502 18.7767 15.0438 18.7767C16.3932 18.7767 17.6921 18.3479 18.7515 17.5408V33.3806C18.7515 35.4236 17.0868 37.0883 15.0438 37.0883C13.0007 37.0883 11.3361 35.4236 11.3361 33.3806C11.3361 31.9429 12.4585 30.77 13.8709 30.6691C14.1232 31.451 14.5645 32.1699 15.1699 32.7752C15.6491 33.2545 16.4436 33.2545 16.9229 32.7752C17.4021 32.296 17.4021 31.5015 16.9229 31.0223C15.8509 29.9503 15.8509 28.3991 16.9229 27.3272C17.1625 27.0875 17.2886 26.7849 17.2886 26.4444C17.2886 26.1039 17.1625 25.8012 16.9229 25.5616C16.6832 25.322 16.3806 25.1958 16.0401 25.1958C15.6996 25.1958 15.3969 25.322 15.1573 25.5616C14.4258 26.293 13.934 27.201 13.7322 28.1847C11.5252 28.3234 9.64615 29.8368 9.04081 31.9555C7.47701 31.4132 6.37983 29.6981 6.37983 27.7686C6.37983 27.2641 6.4555 26.7723 6.59422 26.3056C7.40134 26.5705 8.2463 26.6966 9.10386 26.6966C9.78487 26.6966 10.3524 26.1417 10.3524 25.4481C10.3524 24.7671 9.79748 24.1996 9.10386 24.1996C8.34719 24.1996 7.61573 24.0482 6.92211 23.7708C6.22849 23.4807 5.61054 23.0645 5.08087 22.5349C4.00891 21.4629 3.41618 20.0252 3.41618 18.5119C3.41618 17.4651 3.70624 16.6202 4.34941 15.7626C4.41247 15.6869 4.72775 15.4095 4.80342 15.3717C6.05194 14.6402 7.62834 14.7159 8.80119 15.5356C8.19585 16.4058 7.86796 17.4273 7.86796 18.5119C7.86796 19.1929 8.42286 19.7604 9.11648 19.7604C9.8101 19.7604 10.365 19.2055 10.365 18.5119C10.365 17.0111 11.5883 15.7878 13.089 15.7878C13.77 15.7878 14.3375 15.2329 14.3375 14.5393C14.3375 13.8457 13.7826 13.2908 13.089 13.2908C12.2693 13.2908 11.4496 13.4926 10.7181 13.8583C9.28042 12.6224 7.36351 12.118 5.49704 12.4837C6.0141 9.25519 8.78858 6.85905 12.0927 6.85905C13.5935 6.85905 14.8168 8.08235 14.8168 9.58309C14.8168 10.2641 15.3717 10.8316 16.0653 10.8316C16.7463 10.8316 17.3138 10.2767 17.3138 9.58309C17.3138 7.23739 15.7878 5.21959 13.5556 4.57641C13.9718 3.5549 14.9555 2.89911 16.0653 2.89911C17.566 2.89911 18.7893 4.1224 18.7893 5.62315V12.5594C18.7641 14.615 17.0994 16.2797 15.0438 16.2797Z" fill="white"/>
</svg>

