<svg xmlns="http://www.w3.org/2000/svg" width="28" height="28" viewBox="0 0 28 28" fill="none">
  <path d="M27.4697 12.8384C27.4697 11.4853 27.0335 10.3993 26.0721 9.33993C26.0721 9.24201 26.0721 9.09067 26.0632 9.02836C25.9919 7.4794 25.3599 6.00165 24.2827 4.87109C23.2412 3.78503 21.8614 3.09067 20.3836 2.91263C20.0008 1.25684 18.5142 0.0639648 16.805 0.0639648C15.7189 0.0639648 14.7041 0.535775 14.0097 1.35477C13.3065 0.526873 12.3005 0.0639648 11.2145 0.0639648C9.5053 0.0639648 8.01865 1.25684 7.63586 2.91263C4.92073 3.24201 2.71301 5.22717 2.10767 7.9067C1.98304 8.49423 1.95633 9.13518 1.95633 9.36664C0.986007 10.4349 0.549805 11.512 0.549805 12.8384C0.549805 14.3785 1.14624 15.8295 2.2412 16.9245C2.46375 17.1471 2.71301 17.3607 2.97117 17.5477C2.75752 18.1263 2.6507 18.7405 2.6507 19.3815C2.6507 21.7405 4.14624 23.7168 6.22043 24.1352C6.59432 26.1827 8.42814 27.7138 10.5201 27.7138C11.9 27.7138 13.1908 27.064 14.0186 25.969C14.8465 27.064 16.1373 27.7138 17.5172 27.7138C19.6181 27.7138 21.443 26.1827 21.8169 24.1352C23.8911 23.7168 25.3866 21.7316 25.3866 19.3815C25.3866 18.7494 25.2798 18.1352 25.0661 17.5477C25.3243 17.3607 25.5735 17.156 25.7961 16.9245C26.8733 15.8295 27.4697 14.3874 27.4697 12.8384ZM21.7813 16.8622C21.078 15.972 20.0365 15.4646 18.897 15.4646C18.4163 15.4646 18.0157 15.8563 18.0157 16.3459C18.0157 16.8355 18.4074 17.2272 18.897 17.2272C19.9563 17.2272 20.8198 18.0907 20.8198 19.15C20.8198 19.6307 21.2115 20.0313 21.7011 20.0313C22.1819 20.0313 22.5824 19.6396 22.5824 19.15C22.5824 18.9542 22.5646 18.7583 22.5379 18.5714C22.8584 18.5269 23.17 18.4557 23.4727 18.3577C23.5706 18.6871 23.624 19.0343 23.624 19.3904C23.624 21.0907 22.4489 22.4705 21.0068 22.4705C19.9474 22.4705 19.0839 21.607 19.0839 20.5477C19.0839 20.0669 18.6922 19.6663 18.2026 19.6663C17.7219 19.6663 17.3213 20.058 17.3213 20.5477C17.3213 22.1945 18.443 23.6545 20.0098 24.0907C19.6804 25.1856 18.6566 25.969 17.4994 25.969C16.0572 25.969 14.8822 24.7939 14.8822 23.3518V17.0402C14.8822 15.9809 15.7457 15.1174 16.805 15.1174C17.2857 15.1174 17.6863 14.7257 17.6863 14.2361C17.6863 13.7465 17.2946 13.3548 16.805 13.3548C16.1195 13.3548 15.4608 13.5417 14.8822 13.8978V3.74943C14.8822 2.69008 15.7457 1.82658 16.805 1.82658C17.5973 1.82658 18.2827 2.29839 18.5765 3.01055C17.0008 3.46456 15.9237 4.88889 15.9237 6.54468C15.9237 7.02539 16.3154 7.42598 16.805 7.42598C17.2946 7.42598 17.6863 7.03429 17.6863 6.54468C17.6863 5.48533 18.5498 4.62183 19.6092 4.62183C21.71 4.62183 23.5706 6.03726 24.1403 8.03133C23.0721 7.68415 21.9148 7.75536 20.9 8.23607C20.7219 7.9067 20.4994 7.59512 20.2234 7.31916C19.8851 6.98088 19.3243 6.98088 18.986 7.31916C18.8169 7.4883 18.7278 7.70195 18.7278 7.94231C18.7278 8.18266 18.8169 8.39631 18.986 8.56545C19.351 8.93044 19.5468 9.39334 19.5468 9.86515C19.5468 10.3459 19.351 10.8088 18.986 11.1649C18.6477 11.5031 18.6477 12.064 18.986 12.4022C19.3243 12.7405 19.8851 12.7405 20.2234 12.4022C20.8733 11.7524 21.256 10.9067 21.3006 10.0165C22.0216 9.52688 22.9296 9.42005 23.7486 9.74943C24.0335 9.86516 24.3896 10.0699 24.5676 10.2925L24.5765 10.3103C25.3866 11.1203 25.716 11.8503 25.716 12.8384C25.716 13.9156 25.2976 14.9215 24.5409 15.6782C24.167 16.0521 23.7219 16.3459 23.2412 16.5506C22.7694 16.7465 22.2887 16.8444 21.7813 16.8622ZM10.5023 11.2628C10.0216 11.2628 9.62102 11.6545 9.62102 12.1441C9.62102 12.6337 10.0127 13.0254 10.5023 13.0254C11.4549 13.0254 12.3718 12.7227 13.1195 12.153V23.334C13.1195 24.7761 11.9445 25.9512 10.5023 25.9512C9.06019 25.9512 7.88512 24.7761 7.88512 23.334C7.88512 22.3192 8.6774 21.4913 9.67444 21.4201C9.85248 21.972 10.1641 22.4794 10.5913 22.9067C10.9296 23.245 11.4905 23.245 11.8287 22.9067C12.167 22.5684 12.167 22.0076 11.8287 21.6693C11.0721 20.9126 11.0721 19.8177 11.8287 19.061C11.9979 18.8919 12.0869 18.6782 12.0869 18.4379C12.0869 18.1975 11.9979 17.9839 11.8287 17.8147C11.6596 17.6456 11.4459 17.5566 11.2056 17.5566C10.9652 17.5566 10.7516 17.6456 10.5824 17.8147C10.0661 18.331 9.71895 18.972 9.57651 19.6663C8.01865 19.7643 6.69224 20.8325 6.26494 22.3281C5.16108 21.9453 4.3866 20.7346 4.3866 19.3726C4.3866 19.0165 4.44001 18.6693 4.53794 18.3399C5.10767 18.5269 5.70411 18.6159 6.30945 18.6159C6.79016 18.6159 7.19076 18.2242 7.19076 17.7346C7.19076 17.2539 6.79906 16.8533 6.30945 16.8533C5.77532 16.8533 5.259 16.7465 4.76939 16.5506C4.27978 16.3459 3.84357 16.0521 3.46969 15.6782C2.71301 14.9215 2.29461 13.9067 2.29461 12.8384C2.29461 12.0996 2.49936 11.5031 2.95337 10.8978C2.99788 10.8444 3.22043 10.6485 3.27384 10.6218C4.15515 10.1055 5.26791 10.1589 6.0958 10.7376C5.6685 11.3518 5.43705 12.0729 5.43705 12.8384C5.43705 13.3192 5.82874 13.7198 6.31835 13.7198C6.80797 13.7198 7.19966 13.3281 7.19966 12.8384C7.19966 11.7791 8.06316 10.9156 9.12251 10.9156C9.60322 10.9156 10.0038 10.5239 10.0038 10.0343C10.0038 9.54468 9.61212 9.15299 9.12251 9.15299C8.54387 9.15299 7.96524 9.29542 7.44892 9.55358C6.43408 8.68118 5.08096 8.3251 3.76346 8.58326C4.12844 6.30432 6.0869 4.61293 8.41924 4.61293C9.47859 4.61293 10.3421 5.47643 10.3421 6.53578C10.3421 7.01649 10.7338 7.41708 11.2234 7.41708C11.7041 7.41708 12.1047 7.02539 12.1047 6.53578C12.1047 4.87999 11.0276 3.45566 9.45188 3.00165C9.74565 2.28058 10.44 1.81767 11.2234 1.81767C12.2827 1.81767 13.1462 2.68118 13.1462 3.74052V8.63667C13.1284 10.0877 11.9534 11.2628 10.5023 11.2628Z" fill="#2874AF"/>
</svg>
