<svg width="32" height="40" viewBox="0 0 32 40" fill="none" xmlns="http://www.w3.org/2000/svg">
<path d="M27.1358 15.6239L24.1595 9.57047C23.9956 8.64985 23.6677 7.77967 23.2263 6.98516L25.1684 2.15505C25.4585 1.42359 24.9288 0.641693 24.1469 0.641693H7.87838C7.09648 0.641693 6.5542 1.4362 6.85687 2.15505L8.79901 6.98516C8.35761 7.77967 8.02972 8.64985 7.86577 9.57047L4.88951 15.6239C4.57423 16.2671 5.04085 17.0237 5.75969 17.0237H10.2493C11.7374 18.4614 13.7679 19.3568 16.0127 19.3568C18.2449 19.3568 20.2753 18.4614 21.776 17.0237H26.2656C26.9845 17.0237 27.4511 16.2671 27.1358 15.6239ZM17.9422 5.30786H17.0089V6.2411C17.0089 6.79599 16.5549 7.25 16 7.25C15.4452 7.25 14.9911 6.79599 14.9911 6.2411V5.30786H14.0579C13.503 5.30786 13.049 4.85386 13.049 4.29896C13.049 3.74407 13.503 3.29006 14.0579 3.29006H14.9911V2.35683C14.9911 1.80193 15.4452 1.34792 16 1.34792C16.5549 1.34792 17.0089 1.80193 17.0089 2.35683V3.29006H17.9422C18.4971 3.29006 18.9511 3.74407 18.9511 4.29896C18.9511 4.85386 18.5097 5.30786 17.9422 5.30786Z" fill="white"/>
<path d="M20.0482 21.589H12.7842C12.5067 21.589 12.3301 21.8917 12.4815 22.1313L16.1135 27.8442C16.2522 28.0586 16.5675 28.0586 16.7063 27.8442L20.3383 22.1313C20.5022 21.8917 20.3257 21.589 20.0482 21.589Z" fill="white"/>
<path d="M29.5571 39.3709C30.3769 39.3709 31.0453 38.7025 31.0453 37.8828V29.9881C31.0453 25.8516 28.0312 22.3961 24.0712 21.7151C23.7307 21.6521 23.4028 21.8034 23.2137 22.0935L17.7152 30.8457C17.6395 30.9592 17.6016 31.0853 17.6016 31.224V33.0022C17.6016 33.9355 18.3583 34.6921 19.2916 34.6921H21.3094C22.3057 34.6921 23.1128 33.885 23.1128 32.8887V31.224C22.3687 30.7826 21.8895 29.9503 21.9651 29.0045C22.0534 27.8947 22.9362 26.9866 24.046 26.8605C25.4585 26.7092 26.6692 27.8064 26.6692 29.1936C26.6692 30.0512 26.2025 30.8079 25.5215 31.2114V32.8761C25.5215 35.1966 23.6424 37.0757 21.322 37.0757H19.3042C17.0468 37.0757 15.2181 35.247 15.2181 32.9896V31.2114C15.2181 31.0727 15.1803 30.9466 15.1046 30.8331L9.55566 21.9926C9.39171 21.7277 9.08904 21.589 8.78637 21.6142C4.42287 21.9043 0.967377 25.549 0.967377 29.9881V37.8828C0.967377 38.7025 1.63577 39.3709 2.45551 39.3709H29.5571V39.3709Z" fill="white"/>
</svg>

