<svg width="32" height="40" viewBox="0 0 32 40" fill="none" xmlns="http://www.w3.org/2000/svg">
<path d="M29.9985 36.8865H4.39765C3.74186 36.8865 3.19958 36.3568 3.19958 35.6884C3.19958 35.0326 3.72925 34.4903 4.39765 34.4903H29.822C30.4778 34.4903 31.0201 33.9481 31.0201 33.2923V4.72774C31.0201 2.50816 29.2292 0.717358 27.0097 0.717358H4.82643C2.60685 0.717358 0.803436 2.52077 0.803436 4.74035V25.9525V33.3049V35.2849C0.803436 37.5044 2.59424 39.2952 4.81382 39.2952H29.9607C30.6039 39.2952 31.1588 38.816 31.1966 38.1728C31.2344 37.4666 30.6922 36.8865 29.9985 36.8865ZM20.9941 21.3242H10.7537C10.0979 21.3242 9.55566 20.7819 9.55566 20.1261C9.55566 19.4703 10.0979 18.928 10.7537 18.928H20.9815C21.6373 18.928 22.1795 19.4703 22.1795 20.1261C22.1795 20.7819 21.6499 21.3242 20.9941 21.3242ZM7.34869 12.0423H24.3991C25.0549 12.0423 25.5972 12.5846 25.5972 13.2404C25.5972 13.8961 25.0549 14.4384 24.3991 14.4384H7.34869C6.6929 14.4384 6.15062 13.8961 6.15062 13.2404C6.15062 12.5846 6.68029 12.0423 7.34869 12.0423Z" fill="white"/>
</svg>

