<svg xmlns="http://www.w3.org/2000/svg" width="40" height="34" viewBox="0 0 40 34" fill="none">
  <path d="M22.244 1.46142L38.9242 9.20127C39.9325 9.66904 39.9273 11.1033 38.9157 11.5642L21.8419 19.3383C20.4589 19.9679 18.8696 19.9635 17.4906 19.3254L0.754775 11.5832C-0.255609 11.1158 -0.250372 9.6791 0.763235 9.21898L17.8922 1.44331C19.2761 0.814927 20.8654 0.82177 22.244 1.46142Z" fill="white"/>
  <path d="M19.8758 26.695C18.6688 26.695 17.4626 26.4353 16.3399 25.916L0.871468 18.7599C0.118515 18.4117 -0.209417 17.5192 0.139464 16.7669C0.487941 16.0145 1.38109 15.6868 2.13405 16.0354L17.6028 23.1912C19.0362 23.8542 20.6827 23.859 22.1202 23.2049L37.8742 16.0318C38.6291 15.688 39.5203 16.0209 39.8643 16.7753C40.2084 17.5297 39.8752 18.4201 39.1202 18.7639L23.3662 25.937C22.2563 26.4422 21.0663 26.695 19.8762 26.695H19.8758Z" fill="white"/>
  <path d="M19.8758 33.6083C18.6688 33.6083 17.4626 33.3487 16.3399 32.8294L0.871468 25.6736C0.118515 25.3254 -0.209417 24.433 0.139464 23.6806C0.487941 22.9282 1.38109 22.6006 2.13405 22.9492L17.6028 30.1049C19.0362 30.7679 20.6827 30.7728 22.1202 30.1186L37.8742 22.9456C38.6291 22.6018 39.5203 22.9347 39.8643 23.6891C40.2084 24.4434 39.8752 25.3339 39.1202 25.6777L23.3662 32.8507C22.2563 33.3559 21.0663 33.6087 19.8762 33.6087L19.8758 33.6083Z" fill="white"/>
</svg>
