<svg width="25" height="25" viewBox="0 0 25 25" fill="none" xmlns="http://www.w3.org/2000/svg">
<path d="M23.1239 12.7058C23.1239 18.6869 18.2753 23.5355 12.2942 23.5355C6.3131 23.5355 1.46447 18.6869 1.46447 12.7058C1.46447 6.72472 6.3131 1.87609 12.2942 1.87609C18.2753 1.87609 23.1239 6.72472 23.1239 12.7058ZM12.4222 7.13508C11.5013 6.52112 10.3171 6.46387 9.34126 6.98615C8.36538 7.50842 7.75617 8.52542 7.75617 9.63227V15.7794C7.75617 16.8862 8.36538 17.9032 9.34126 18.4255C10.3171 18.9478 11.5013 18.8905 12.4222 18.2765L17.0325 15.203C17.8675 14.6464 18.369 13.7093 18.369 12.7058C18.369 11.7023 17.8675 10.7653 17.0325 10.2086L12.4222 7.13508Z" fill="white" stroke="white" stroke-width="2.92893"/>
</svg>
