<svg width="34" height="37" viewBox="0 0 34 37" fill="none" xmlns="http://www.w3.org/2000/svg">
<path d="M0.74434 15.8984C1.04013 15.603 1.44108 15.4371 1.85911 15.4371C2.27715 15.4371 2.6781 15.603 2.97389 15.8984L13.2414 26.1659L18.0612 21.3462C18.357 21.0508 18.7579 20.8849 19.176 20.8849C19.594 20.8849 19.9949 21.0508 20.2907 21.3462L30.1749 31.2304V29.5998C30.1749 29.1817 30.341 28.7808 30.6366 28.4852C30.9322 28.1896 31.3332 28.0235 31.7512 28.0235C32.1693 28.0235 32.5702 28.1896 32.8659 28.4852C33.1615 28.7808 33.3275 29.1817 33.3275 29.5998V35.0362C33.3275 35.4543 33.1615 35.8552 32.8659 36.1508C32.5702 36.4465 32.1693 36.6125 31.7512 36.6125H26.3148C25.8967 36.6125 25.4958 36.4465 25.2002 36.1508C24.9046 35.8552 24.7385 35.4543 24.7385 35.0362C24.7385 34.6182 24.9046 34.2172 25.2002 33.9216C25.4958 33.626 25.8967 33.4599 26.3148 33.4599H27.9453L19.176 24.6905L14.3562 29.5103C14.0604 29.8057 13.6595 29.9716 13.2414 29.9716C12.8234 29.9716 12.4224 29.8057 12.1266 29.5103L0.74434 18.128C0.448942 17.8322 0.28302 17.4312 0.28302 17.0132C0.28302 16.5952 0.448942 16.1942 0.74434 15.8984Z" fill="white"/>
<path d="M22.3525 4.09744C22.1151 3.60323 21.8219 3.13782 21.4786 2.71027C20.9642 2.07777 20.3168 1.56638 19.5824 1.21248C18.848 0.858579 18.0446 0.670858 17.2294 0.662671C16.4142 0.654485 15.6072 0.826033 14.8659 1.16511C14.1245 1.5042 13.4669 2.00248 12.94 2.62452C12.413 2.00248 11.7555 1.5042 11.0141 1.16511C10.2727 0.826033 9.46574 0.654485 8.65054 0.662671C7.83534 0.670858 7.03196 0.858579 6.29754 1.21248C5.56313 1.56638 4.91572 2.07777 4.40136 2.71027C4.05811 3.13782 3.7649 3.60323 3.52745 4.09744C2.83462 5.52267 2.59183 7.12496 2.83135 8.69147C3.06569 10.2568 3.75557 11.7186 4.81499 12.8946L12.3473 21.2856C12.4221 21.3686 12.5136 21.4349 12.6157 21.4803C12.7178 21.5257 12.8282 21.5492 12.94 21.5492C13.0517 21.5492 13.1622 21.5257 13.2643 21.4803C13.3664 21.4349 13.4578 21.3686 13.5327 21.2856L21.065 12.8946C22.123 11.7181 22.8116 10.2564 23.0448 8.69147C23.2855 7.12535 23.0441 5.52307 22.3525 4.09744Z" fill="white"/>
</svg>

