<svg width="27" height="26" viewBox="0 0 27 26" fill="none" xmlns="http://www.w3.org/2000/svg">
<path d="M3.05111 1.59814V0.348145H1.80111V1.59814H3.05111ZM24.3844 1.59814H25.6344V0.348145H24.3844V1.59814ZM6.16722 11.3809C5.67907 11.8691 5.67907 12.6605 6.16722 13.1487C6.65538 13.6368 7.44683 13.6368 7.93499 13.1487L6.16722 11.3809ZM11.0511 8.26481L11.935 7.38093C11.4468 6.89277 10.6554 6.89277 10.1672 7.38093L11.0511 8.26481ZM15.0511 12.2648L14.1672 13.1487C14.6554 13.6368 15.4468 13.6368 15.935 13.1487L15.0511 12.2648ZM21.2683 7.81536C21.7565 7.32721 21.7565 6.53575 21.2683 6.04759C20.7802 5.55944 19.9887 5.55944 19.5006 6.04759L21.2683 7.81536ZM7.50056 23.3809C7.0124 23.8691 7.0124 24.6605 7.50056 25.1487C7.98871 25.6368 8.78017 25.6368 9.26832 25.1487L7.50056 23.3809ZM13.7178 18.9315L14.6017 18.0476C14.1135 17.5594 13.322 17.5594 12.8339 18.0476L13.7178 18.9315ZM18.1672 25.1487C18.6554 25.6368 19.4468 25.6368 19.935 25.1487C20.4231 24.6605 20.4231 23.8691 19.935 23.3809L18.1672 25.1487ZM1.71777 0.348145C1.02742 0.348145 0.467773 0.907789 0.467773 1.59814C0.467773 2.2885 1.02742 2.84814 1.71777 2.84814V0.348145ZM25.7178 2.84814C26.4081 2.84814 26.9678 2.2885 26.9678 1.59814C26.9678 0.907789 26.4081 0.348145 25.7178 0.348145V2.84814ZM3.05111 2.84814H24.3844V0.348145H3.05111V2.84814ZM23.1344 1.59814V17.5981H25.6344V1.59814H23.1344ZM23.0511 17.6815H4.38444V20.1815H23.0511V17.6815ZM4.30111 17.5981V1.59814H1.80111V17.5981H4.30111ZM4.38444 17.6815C4.33842 17.6815 4.30111 17.6442 4.30111 17.5981H1.80111C1.80111 19.0249 2.9577 20.1815 4.38444 20.1815V17.6815ZM23.1344 17.5981C23.1344 17.6442 23.0971 17.6815 23.0511 17.6815V20.1815C24.4778 20.1815 25.6344 19.0249 25.6344 17.5981H23.1344ZM7.93499 13.1487L11.935 9.14869L10.1672 7.38093L6.16722 11.3809L7.93499 13.1487ZM10.1672 9.14869L14.1672 13.1487L15.935 11.3809L11.935 7.38093L10.1672 9.14869ZM15.935 13.1487L21.2683 7.81536L19.5006 6.04759L14.1672 11.3809L15.935 13.1487ZM9.26832 25.1487L14.6017 19.8154L12.8339 18.0476L7.50056 23.3809L9.26832 25.1487ZM12.8339 19.8154L18.1672 25.1487L19.935 23.3809L14.6017 18.0476L12.8339 19.8154ZM1.71777 2.84814H25.7178V0.348145H1.71777V2.84814Z" fill="#2874AF"/>
</svg>
