<svg width="35" height="35" viewBox="0 0 35 35" fill="none" xmlns="http://www.w3.org/2000/svg">
<path d="M27.1572 34.0074H18.5185C18.178 34.0074 17.8501 33.8435 17.661 33.566C17.4718 33.2886 17.4213 32.9354 17.5348 32.6202C17.661 32.2797 17.7114 31.9265 17.7114 31.5734C17.7114 29.8331 16.2989 28.4206 14.5586 28.4206C12.8182 28.4206 11.4058 29.8331 11.4058 31.5734C11.4058 31.9265 11.4688 32.2797 11.5823 32.6202C11.6958 32.9354 11.658 33.3012 11.4562 33.5786C11.2544 33.8561 10.9391 34.0326 10.5986 34.02H1.95992C1.3798 34.02 0.913184 33.5534 0.913184 32.9733C0.913184 32.9733 0.913184 32.9733 0.913184 32.9607V23.6283C0.913184 23.2878 1.07713 22.9599 1.35458 22.7708C1.63203 22.5816 1.98514 22.5311 2.30042 22.6446C2.64093 22.7708 2.99404 22.8212 3.34716 22.8212C5.08751 22.8212 6.49998 21.4087 6.49998 19.6684C6.49998 17.928 5.08751 16.5156 3.34716 16.5156C2.99404 16.5156 2.64093 16.5786 2.30042 16.6921C1.98514 16.8056 1.61942 16.7678 1.34197 16.566C1.06452 16.3642 0.900574 16.0489 0.900574 15.7084V7.77595C0.900574 7.19583 1.36719 6.72921 1.94731 6.72921H9.40057C8.82045 3.89168 10.6617 1.1172 13.4992 0.549689C16.3368 -0.0304298 19.1112 1.81082 19.6788 4.64835C19.8175 5.34197 19.8175 6.0482 19.6788 6.74182H27.1572C27.7374 6.74182 28.204 7.20844 28.204 7.78856V14.5356C31.0415 13.9555 33.816 15.7967 34.3835 18.6343C34.951 21.4718 33.1224 24.2463 30.2848 24.8138C29.5912 24.9525 28.885 24.9525 28.1914 24.8138V32.9607C28.204 33.5408 27.7374 34.0074 27.1572 34.0074Z" fill="white"/>
</svg>

