<svg width="40" height="41" viewBox="0 0 40 41" fill="none" xmlns="http://www.w3.org/2000/svg">
<path d="M39.0653 20.0384H34.8344C34.8344 20.0384 34.8269 20.0359 34.8231 20.0359C34.8193 20.0359 34.8155 20.0384 34.8117 20.0384H29.8924C29.8924 20.0384 29.8848 20.0359 29.881 20.0359C29.8772 20.0359 29.8747 20.0384 29.8697 20.0384H24.9515C24.9515 20.0384 24.944 20.0359 24.9402 20.0359C24.9364 20.0359 24.9339 20.0384 24.9301 20.0384H21.8884L31.0298 10.8983C31.1786 10.7495 31.2631 10.5477 31.2631 10.3358C31.2631 10.124 31.1786 9.92222 31.0298 9.77468C28.2694 7.02179 24.6577 5.44547 20.7951 5.25252V1.76822C20.7951 1.32937 20.4395 0.973755 20.0006 0.973755C19.5618 0.973755 19.2062 1.32937 19.2062 1.76822V5.25378C11.2287 5.65732 4.82506 12.061 4.42152 20.0384H0.934695C0.495847 20.0384 0.140228 20.394 0.140228 20.8329C0.140228 21.2717 0.495847 21.6274 0.934695 21.6274H4.42152C4.82632 29.6073 11.23 36.0122 19.2062 36.4158V39.8988C19.2062 40.3377 19.5618 40.6933 20.0006 40.6933C20.4395 40.6933 20.7951 40.3377 20.7951 39.8988V36.4158C28.7713 36.011 35.1724 29.6073 35.5785 21.6274H39.0666C39.5054 21.6274 39.861 21.2717 39.861 20.8329C39.861 20.394 39.5054 20.0384 39.0666 20.0384H39.0653ZM23.4345 16.2439C22.6564 15.6613 21.7522 15.2893 20.7938 15.1556V11.781C22.6476 11.9424 24.3866 12.6625 25.8166 13.8618L23.4345 16.2439ZM15.9325 20.0384C16.2528 18.3877 17.5542 17.0863 19.2049 16.7635V20.0384H15.9325ZM19.2049 21.6274V24.8973C17.5554 24.5757 16.2553 23.2768 15.9325 21.6274H19.2049ZM20.7938 21.6274H24.065C23.7422 23.2756 22.4433 24.5744 20.7938 24.8973V21.6274ZM20.7938 16.7622C21.331 16.8669 21.8405 17.0762 22.297 17.3814L20.7938 18.8846V16.7609V16.7622ZM19.2049 15.1581C16.6777 15.51 14.6764 17.5125 14.3246 20.0397H10.9513C11.3321 15.6613 14.8265 12.1656 19.2049 11.7848V15.1581ZM14.3246 21.6286C14.6777 24.1545 16.679 26.1533 19.2049 26.5051V29.8873C14.8278 29.5064 11.3334 26.0095 10.9513 21.6286H14.3246ZM20.7938 26.5064C23.3197 26.1533 25.3185 24.1545 25.6716 21.6299H29.0449C28.6628 26.0095 25.1697 29.5064 20.7926 29.8885V26.5064H20.7938ZM29.3274 10.356L26.9402 12.7419C25.205 11.2489 23.07 10.3636 20.7938 10.1959V6.8402C23.9704 7.01674 26.9516 8.23492 29.3274 10.3548V10.356ZM19.2049 6.84524V10.1984C13.9513 10.5868 9.75075 14.7874 9.36234 20.0422H6.00919C6.40895 12.9399 12.1026 7.24625 19.2049 6.84524ZM6.00919 21.6299H9.36234C9.75201 26.886 13.9526 31.0878 19.2049 31.4775V34.8294C12.1039 34.4284 6.41147 28.7334 6.00919 21.6286V21.6299ZM20.7938 34.8294V31.4775C26.0461 31.0878 30.2442 26.886 30.6351 21.6299H33.9883C33.586 28.7334 27.8948 34.4284 20.7938 34.8294Z" fill="white"/>
</svg>

