<svg width="39" height="39" viewBox="0 0 39 39" fill="none" xmlns="http://www.w3.org/2000/svg">
<path d="M24.0407 8.82123H9.48733L12.7032 5.60535C13.7626 4.546 13.7626 2.83087 12.7032 1.78413C11.6439 0.724787 9.92873 0.724787 8.88199 1.78413L1.05039 9.61574C-0.00895527 10.6751 -0.00895527 12.3902 1.05039 13.437L8.88199 21.2686C9.41166 21.7982 10.1053 22.0631 10.7989 22.0631C11.4925 22.0631 12.1861 21.7982 12.7158 21.2686C13.7752 20.2092 13.7752 18.4941 12.7158 17.4473L9.48733 14.2315H24.0407C29.2492 14.2315 33.4866 18.4688 33.4866 23.6773C33.4866 28.8858 29.2492 33.1231 24.0407 33.1231H2.95469C1.46656 33.1231 0.243271 34.3338 0.243271 35.8346C0.243271 37.3353 1.45395 38.546 2.95469 38.546H24.0407C32.2381 38.546 38.8968 31.8872 38.8968 23.6899C38.8968 15.4926 32.2255 8.82123 24.0407 8.82123Z" fill="white"/>
</svg>

