<svg width="36" height="40" viewBox="0 0 36 40" fill="none" xmlns="http://www.w3.org/2000/svg">
<path d="M17.9999 8.59051C15.6164 8.59051 13.649 10.5579 13.649 12.9414C13.649 15.3249 15.6164 17.2923 17.9999 17.2923C20.3835 17.2923 22.3508 15.3249 22.3508 12.9414C22.3508 10.5579 20.3835 8.59051 17.9999 8.59051ZM17.9999 14.6818C17.0289 14.6818 16.2596 13.9125 16.2596 12.9414C16.2596 11.9703 17.0289 11.201 17.9999 11.201C18.971 11.201 19.7403 11.9703 19.7403 12.9414C19.7403 13.9125 18.9836 14.6818 17.9999 14.6818Z" fill="white"/>
<path d="M34.8991 28.4407L27.8368 22.9674C27.9377 21.9711 28.0007 20.9496 28.0007 19.9028C28.0007 11.0749 24.2299 3.47032 18.6053 0.468841C18.4161 0.367951 18.2018 0.317505 17.9747 0.317505C17.7604 0.317505 17.5586 0.367951 17.382 0.468841C11.7574 3.45771 7.98662 11.0749 7.98662 19.9028C7.98662 20.9369 8.04968 21.9585 8.15057 22.9674L1.08825 28.4407C0.77297 28.6803 0.583801 29.0712 0.583801 29.4748V37.3064C0.596413 38.1135 1.49181 38.7819 2.27371 38.5423L12.7411 35.3138C14.0653 37.0289 15.6417 38.4036 17.382 39.3242C17.7604 39.526 18.227 39.526 18.6053 39.3242C20.3457 38.3909 21.9095 37.0289 23.2463 35.3138L33.7136 38.5423C34.4829 38.7819 35.3909 38.1135 35.4035 37.3064V29.4748C35.4035 29.0712 35.2144 28.6803 34.8991 28.4407ZM3.20695 35.5282V30.0927L8.60457 25.8932C9.15947 28.5415 10.0423 30.9629 11.2403 33.0564L3.20695 35.5282ZM18 36.6128C13.9013 34.0022 10.5972 27.5831 10.5972 19.9028C10.5972 12.2225 13.9013 5.80341 18 3.19288C22.0986 5.80341 25.4028 12.2225 25.4028 19.9028C25.4028 27.5831 22.0986 34.0022 18 36.6128ZM32.793 35.5282L24.7596 33.0564C25.9577 30.9629 26.8531 28.5289 27.3954 25.8932L32.793 30.0927V35.5282Z" fill="white"/>
</svg>

