<svg width="31" height="40" viewBox="0 0 31 40" fill="none" xmlns="http://www.w3.org/2000/svg">
<path d="M2.80861 20.6432C5.28042 24.6788 9.6187 26.911 14.0326 26.911C15.2433 26.911 16.4666 26.747 17.6521 26.3939L24.5 37.5675C25.1558 38.6395 26.316 39.2322 27.4889 39.2322C28.1068 39.2322 28.75 39.0683 29.3175 38.7151C30.957 37.7062 31.4867 35.5497 30.4778 33.8976L23.6298 22.724C27.5645 18.5119 28.3843 12.0297 25.2315 6.88428C23.3902 3.89541 20.5022 1.78933 17.0846 0.969592C13.6669 0.149859 10.1358 0.717367 7.14689 2.546C4.15802 4.38725 2.05194 7.27523 1.2322 10.6929C0.41247 14.1105 0.967366 17.6417 2.80861 20.6432ZM9.56826 6.53117C13.566 4.08458 18.7997 5.33309 21.2463 9.33087C22.4318 11.2604 22.7975 13.543 22.2678 15.75C21.7381 17.957 20.3887 19.8235 18.4466 21.0089C17.0594 21.8539 15.5334 22.2574 14.02 22.2574C11.1573 22.2574 8.37018 20.8197 6.76855 18.2092C4.32196 14.2114 5.58309 8.97775 9.56826 6.53117Z" fill="white"/>
</svg>

