<svg width="24" height="26" viewBox="0 0 24 26" fill="none" xmlns="http://www.w3.org/2000/svg">
<path d="M10.2539 9.78728C9.72748 9.78728 9.21285 9.63115 8.77512 9.33865C8.3374 9.04614 7.99624 8.6304 7.79481 8.144C7.59338 7.65759 7.54072 7.12238 7.64349 6.60605C7.74626 6.08971 7.99984 5.61545 8.37216 5.24325C8.74449 4.87104 9.21883 4.61761 9.73519 4.515C10.2516 4.41239 10.7868 4.46522 11.2731 4.66681C11.7594 4.86839 12.1751 5.20967 12.4674 5.64749C12.7598 6.08531 12.9158 6.59999 12.9156 7.12645C12.9147 7.83202 12.634 8.50842 12.135 9.00726C11.636 9.50609 10.9595 9.78661 10.2539 9.78728Z" fill="#2874AF"/>
<path d="M7.2938 15.0104C7.03007 14.8581 6.81115 14.6389 6.6591 14.375C6.50706 14.111 6.42725 13.8117 6.42774 13.5071V12.6027C6.42774 12.3047 6.48643 12.0097 6.60048 11.7344C6.71452 11.4592 6.88168 11.2091 7.0924 10.9984C7.30312 10.7878 7.55327 10.6207 7.82857 10.5068C8.10387 10.3928 8.39892 10.3342 8.69687 10.3344H11.8112C12.4126 10.3348 12.9892 10.5739 13.4143 10.9993C13.8395 11.4246 14.0784 12.0013 14.0787 12.6027V13.513C14.079 13.8175 13.9991 14.1168 13.8471 14.3807C13.695 14.6446 13.4762 14.8638 13.2126 15.0163C12.3123 15.5349 11.2914 15.8075 10.2524 15.8064C9.21343 15.8054 8.19303 15.5309 7.2938 15.0104Z" fill="#2874AF"/>
<path d="M16.751 16.9538C16.6978 16.8701 16.6383 16.7905 16.5731 16.7158C17.9677 15.4596 18.9527 13.8133 19.4001 11.9904C18.764 11.9872 18.1348 11.8583 17.5486 11.6113C17.1421 13.2047 16.2225 14.62 14.9316 15.6388C13.6408 16.6575 12.0505 17.2231 10.4063 17.2482C8.76203 17.2733 7.15524 16.7565 5.83393 15.7775C4.51262 14.7986 3.55026 13.412 3.09538 11.8317C2.64051 10.2514 2.71842 8.56538 3.31709 7.03379C3.91576 5.5022 5.00189 4.21024 6.40785 3.35733C7.81381 2.50443 9.46141 2.13799 11.0963 2.3146C12.7313 2.4912 14.2626 3.20102 15.454 4.3345C15.82 3.81414 16.2834 3.3697 16.8186 3.0258C15.6222 1.87042 14.1397 1.0545 12.5235 0.661888C10.9073 0.269279 9.2157 0.314154 7.62259 0.7919C6.02947 1.26965 4.59231 2.16303 3.45884 3.38021C2.32538 4.59739 1.5365 6.09446 1.1733 7.71754C0.810099 9.34061 0.885677 11.0311 1.39227 12.6153C1.89886 14.1995 2.81818 15.6202 4.05574 16.7314C5.2933 17.8426 6.80445 18.6041 8.43384 18.9378C10.0632 19.2715 11.7521 19.1652 13.3268 18.6299C13.3741 18.7613 13.4357 18.8871 13.5106 19.0049L16.9347 24.421C17.0598 24.6526 17.2312 24.8561 17.4383 25.0187C17.6453 25.1813 17.8836 25.2996 18.1383 25.3663C18.393 25.433 18.6586 25.4466 18.9188 25.4063C19.179 25.366 19.4281 25.2727 19.6507 25.1321C19.8733 24.9915 20.0646 24.8066 20.2127 24.589C20.3609 24.3713 20.4627 24.1256 20.5119 23.8669C20.5611 23.6083 20.5565 23.3423 20.4986 23.0855C20.4407 22.8286 20.3306 22.5865 20.1751 22.374L16.751 16.9538Z" fill="#2874AF"/>
<path d="M19.4367 3.34653C18.6891 3.34653 17.9583 3.56822 17.3367 3.98356C16.715 4.39891 16.2306 4.98925 15.9445 5.67994C15.6584 6.37064 15.5835 7.13066 15.7294 7.86389C15.8752 8.59713 16.2352 9.27065 16.7639 9.79928C17.2925 10.3279 17.966 10.6879 18.6992 10.8338C19.4325 10.9796 20.1925 10.9048 20.8832 10.6187C21.5739 10.3326 22.1642 9.84809 22.5796 9.22648C22.9949 8.60488 23.2166 7.87406 23.2166 7.12646C23.2167 6.63004 23.119 6.13847 22.9291 5.67982C22.7392 5.22116 22.4608 4.80442 22.1097 4.4534C21.7587 4.10238 21.342 3.82395 20.8833 3.63403C20.4247 3.44411 19.9331 3.34642 19.4367 3.34653ZM21.3275 4.59927L19.3498 10.0203C19.3393 10.0491 19.3216 10.0748 19.2983 10.0948C19.2751 10.1148 19.2471 10.1286 19.217 10.1347C19.2053 10.1355 19.1936 10.1355 19.1819 10.1347C19.1571 10.1347 19.1325 10.1295 19.1098 10.1195C19.087 10.1094 19.0667 10.0947 19.05 10.0763L16.8953 7.72444C16.8662 7.69341 16.8491 7.65304 16.8472 7.61057C16.8452 7.56809 16.8584 7.5263 16.8845 7.4927C16.9105 7.4591 16.9477 7.43589 16.9893 7.42724C17.0309 7.41858 17.0743 7.42506 17.1116 7.4455L18.8454 8.37336L21.0018 4.4481C21.0239 4.40908 21.0598 4.37974 21.1024 4.36586C21.1451 4.35198 21.1914 4.35456 21.2322 4.37309C21.273 4.39163 21.3055 4.42478 21.3231 4.46601C21.3407 4.50725 21.3423 4.5536 21.3275 4.59593V4.59927Z" fill="#2874AF"/>
</svg>
