<svg width="22" height="40" viewBox="0 0 22 40" fill="none" xmlns="http://www.w3.org/2000/svg">
<path d="M17.0408 9.31825C19.4507 9.31825 21.4043 7.36465 21.4043 4.95475C21.4043 2.54485 19.4507 0.591248 17.0408 0.591248C14.6309 0.591248 12.6773 2.54485 12.6773 4.95475C12.6773 7.36465 14.6309 9.31825 17.0408 9.31825Z" fill="white"/>
<path d="M21.1899 20.0378C21.5052 19.2811 21.1521 18.4236 20.3954 18.1083L15.5401 16.0905L14.8212 10.9577C14.796 10.819 14.7582 10.6929 14.7077 10.5668C14.5564 9.58308 14.0267 8.66246 13.1313 8.06973C11.454 6.9221 9.15876 7.3635 8.02375 9.05341L1.23888 19.0541C0.784871 19.7352 0.583091 20.5044 0.608313 21.2611C0.608313 21.3116 0.595703 21.3494 0.595703 21.3998V35.7767C0.595703 37.6432 2.12167 39.2196 3.98814 39.1817C5.80416 39.1439 7.25446 37.6684 7.25446 35.8524V23.2789C7.27968 23.2537 7.3049 23.2159 7.31752 23.1906L12.4881 15.5734L12.7404 17.339C12.816 17.8813 13.1944 18.3101 13.6736 18.4993C13.6862 18.4993 13.6862 18.5119 13.6988 18.5119L19.0712 20.7441C19.3235 20.8449 19.5883 20.908 19.8657 20.908C20.3071 20.908 20.8873 20.7441 21.1899 20.0378Z" fill="white"/>
</svg>

