<svg width="34" height="38" viewBox="0 0 34 38" fill="none" xmlns="http://www.w3.org/2000/svg">
<path d="M14.0762 14.2427C13.2813 14.2427 12.5042 14.0069 11.8433 13.5653C11.1823 13.1236 10.6672 12.4958 10.3631 11.7614C10.0589 11.0269 9.97939 10.2188 10.1346 9.43915C10.2897 8.6595 10.6726 7.94339 11.2348 7.38137C11.797 6.81936 12.5133 6.43668 13.293 6.28175C14.0726 6.12682 14.8808 6.20659 15.6151 6.51097C16.3495 6.81536 16.9771 7.33068 17.4185 7.99176C17.86 8.65285 18.0955 9.43 18.0952 10.2249C18.0939 11.2903 17.67 12.3117 16.9166 13.0649C16.1631 13.8181 15.1416 14.2417 14.0762 14.2427Z" fill="white"/>
<path d="M9.60704 22.1293C9.20881 21.8993 8.87825 21.5683 8.64867 21.1698C8.41909 20.7713 8.29859 20.3193 8.29932 19.8594V18.4937C8.29932 18.0438 8.38795 17.5983 8.56015 17.1827C8.73236 16.7671 8.98476 16.3894 9.30293 16.0714C9.62111 15.7533 9.99883 15.5011 10.4145 15.329C10.8302 15.157 11.2757 15.0685 11.7256 15.0687H16.4281C17.3362 15.0693 18.2068 15.4304 18.8488 16.0727C19.4908 16.7149 19.8516 17.5856 19.8519 18.4937V19.8683C19.8524 20.3281 19.7318 20.78 19.5022 21.1784C19.2726 21.5769 18.9422 21.9079 18.5442 22.1382C17.1848 22.9213 15.6432 23.3328 14.0744 23.3313C12.5056 23.3297 10.9648 22.9152 9.60704 22.1293Z" fill="white"/>
<path d="M23.8873 25.0638C23.8069 24.9374 23.7171 24.8172 23.6186 24.7044C25.7245 22.8076 27.2117 20.3218 27.8873 17.5693C26.9268 17.5644 25.9767 17.3698 25.0916 16.9968C24.4778 19.4028 23.0892 21.5399 21.1401 23.0782C19.191 24.6165 16.7897 25.4705 14.307 25.5084C11.8243 25.5462 9.39808 24.7659 7.40296 23.2877C5.40783 21.8096 3.9547 19.7158 3.26786 17.3297C2.58102 14.9435 2.69866 12.3977 3.60262 10.085C4.50659 7.7724 6.14661 5.82159 8.26955 4.53374C10.3925 3.24588 12.8803 2.69258 15.349 2.95925C17.8176 3.22592 20.1299 4.29772 21.9288 6.00921C22.4815 5.22349 23.1812 4.55241 23.9894 4.03314C22.1829 2.28857 19.9444 1.05655 17.504 0.463729C15.0635 -0.129094 12.5093 -0.0613349 10.1037 0.660042C7.6982 1.38142 5.52815 2.73039 3.81667 4.56828C2.10519 6.40618 0.914014 8.66669 0.365595 11.1175C-0.182824 13.5682 -0.0687038 16.1208 0.696226 18.5129C1.46116 20.9049 2.8493 23.0501 4.71796 24.728C6.58662 26.4058 8.86839 27.5557 11.3287 28.0596C13.789 28.5634 16.3391 28.403 18.7169 27.5947C18.7883 27.7931 18.8814 27.983 18.9944 28.161L24.1647 36.3389C24.3536 36.6887 24.6124 36.9959 24.925 37.2415C25.2377 37.487 25.5974 37.6657 25.982 37.7664C26.3666 37.8671 26.7677 37.8876 27.1606 37.8268C27.5534 37.766 27.9296 37.625 28.2657 37.4127C28.6018 37.2004 28.8906 36.9212 29.1143 36.5926C29.338 36.264 29.4918 35.8929 29.566 35.5024C29.6403 35.1118 29.6335 34.7102 29.546 34.3224C29.4586 33.9346 29.2923 33.5689 29.0576 33.2481L23.8873 25.0638Z" fill="white"/>
<path d="M27.9415 4.5174C26.8127 4.5174 25.7092 4.85214 24.7706 5.47929C23.832 6.10644 23.1005 6.99784 22.6685 8.04076C22.2365 9.08368 22.1235 10.2313 22.3437 11.3384C22.5639 12.4456 23.1075 13.4626 23.9057 14.2608C24.7039 15.059 25.7209 15.6026 26.8281 15.8228C27.9352 16.043 29.0828 15.93 30.1257 15.498C31.1686 15.066 32.06 14.3345 32.6872 13.3959C33.3143 12.4573 33.6491 11.3538 33.6491 10.2249C33.6493 9.47537 33.5017 8.73311 33.215 8.04056C32.9282 7.34802 32.5078 6.71876 31.9778 6.18873C31.4477 5.6587 30.8185 5.23829 30.1259 4.95152C29.4334 4.66475 28.6911 4.51723 27.9415 4.5174ZM30.7966 6.40898L27.8104 14.5945C27.7945 14.638 27.7678 14.6768 27.7327 14.707C27.6976 14.7373 27.6553 14.758 27.6099 14.7673C27.5923 14.7685 27.5746 14.7685 27.5569 14.7673C27.5194 14.7673 27.4823 14.7595 27.4479 14.7442C27.4136 14.729 27.3829 14.7068 27.3577 14.679L24.1042 11.1279C24.0603 11.081 24.0345 11.02 24.0315 10.9559C24.0285 10.8918 24.0485 10.8287 24.0878 10.7779C24.1271 10.7272 24.1833 10.6922 24.2462 10.6791C24.309 10.666 24.3745 10.6758 24.4308 10.7067L27.0487 12.1077L30.3048 6.18073C30.3381 6.12181 30.3924 6.0775 30.4568 6.05654C30.5212 6.03558 30.5911 6.03948 30.6527 6.06747C30.7144 6.09545 30.7634 6.1455 30.79 6.20777C30.8166 6.27004 30.819 6.34002 30.7966 6.40394V6.40898Z" fill="white"/>
</svg>

