<svg width="24" height="21" viewBox="0 0 24 21" fill="none" xmlns="http://www.w3.org/2000/svg">
<path d="M1.4884 20.3462C1.60189 20.3462 1.71287 20.326 1.82006 20.2856L8.14174 17.8758L15.4016 20.297C15.5013 20.3323 15.6059 20.3499 15.7106 20.3499C15.8153 20.3499 15.9237 20.3323 16.0259 20.2957L22.659 17.7711C23.0235 17.6324 23.2643 17.2768 23.258 16.8871V1.91329C23.258 1.6636 23.1609 1.43031 22.9844 1.25502C22.8078 1.07973 22.5745 0.98263 22.3261 0.98263C22.2126 0.98263 22.1016 1.00281 21.9945 1.04316L15.6715 3.44926L8.4116 1.02803C8.2111 0.957409 7.99041 0.957408 7.78612 1.02929L1.15296 3.55393C0.794817 3.69012 0.553955 4.03943 0.553955 4.42406V19.4142C0.553955 19.6639 0.651056 19.8972 0.827604 20.0725C1.00415 20.2478 1.23745 20.3449 1.48588 20.3449L1.4884 20.3462ZM16.6249 5.08359L21.3942 3.2664L21.3967 16.2452L16.6249 18.0637V5.08233V5.08359ZM9.0497 3.20461L14.761 5.10881V18.1242L9.0497 16.22V3.20461ZM2.41401 5.08233L7.18586 3.26388V16.2452L2.41401 18.0637V5.08233Z" fill="white"/>
</svg>

