<svg width="21" height="21" viewBox="0 0 21 21" fill="none" xmlns="http://www.w3.org/2000/svg">
<path d="M6.71902 11.9506C6.92131 11.5468 7.03516 11.091 7.03516 10.6086C7.03516 10.1263 6.92131 9.67049 6.71902 9.26671M6.71902 11.9506C6.22649 12.9337 5.20964 13.6086 4.03516 13.6086C2.3783 13.6086 1.03516 12.2655 1.03516 10.6086C1.03516 8.95179 2.3783 7.60864 4.03516 7.60864C5.20964 7.60864 6.22649 8.28356 6.71902 9.26671M6.71902 11.9506L13.3513 15.2667M6.71902 9.26671L13.3513 5.95058M13.3513 5.95058C13.8438 6.93373 14.8607 7.60864 16.0352 7.60864C17.692 7.60864 19.0352 6.2655 19.0352 4.60864C19.0352 2.95179 17.692 1.60864 16.0352 1.60864C14.3783 1.60864 13.0352 2.95179 13.0352 4.60864C13.0352 5.09101 13.149 5.54679 13.3513 5.95058ZM13.3513 15.2667C13.149 15.6705 13.0352 16.1263 13.0352 16.6086C13.0352 18.2655 14.3783 19.6086 16.0352 19.6086C17.692 19.6086 19.0352 18.2655 19.0352 16.6086C19.0352 14.9518 17.692 13.6086 16.0352 13.6086C14.8607 13.6086 13.8438 14.2836 13.3513 15.2667Z" stroke="white" stroke-width="2" stroke-linecap="round" stroke-linejoin="round"/>
</svg>
