<svg xmlns="http://www.w3.org/2000/svg" width="21" height="26" viewBox="0 0 21 26" fill="none">
  <g clip-path="url(#clip0_18868_5085)">
    <path d="M20.8462 3.1321C17.2097 3.1321 13.6754 2.08799 10.5 0.00012207C7.37552 2.08799 3.6365 3.1321 0 3.1321V15.3614C0 21.029 8.50233 26.0001 10.5 26.0001C12.4977 26.0001 21 21.029 21 15.3614V3.1321H20.8462ZM18.8997 15.3614C18.8997 17.6979 16.6463 19.9352 15.3657 21.0787C13.2145 22.8185 11.1145 23.7629 10.4999 23.9124C9.88522 23.763 7.78538 22.8185 5.68543 21.0787C4.35357 19.9352 2.09984 17.698 2.09984 15.3614V5.071C5.07076 4.77258 7.99007 3.87791 10.4999 2.48576C13.1119 3.97727 15.929 4.82231 18.8996 5.12074V15.3615L18.8997 15.3614Z" fill="currentColor"/>
    <path d="M9.22258 13.9925C9.14275 13.9968 9.06609 13.9676 9.00684 13.9104L6.49962 11.486C6.44118 11.4297 6.36641 11.4017 6.29175 11.4017C6.21156 11.4017 6.1315 11.434 6.07212 11.498L4.60965 13.0769C4.55439 13.1366 4.52523 13.2152 4.52746 13.2979C4.5297 13.3807 4.56321 13.4575 4.62164 13.5138L9.2113 17.9525C9.26961 18.009 9.34497 18.0377 9.4241 18.0336C9.50311 18.0296 9.57553 17.993 9.62797 17.9308L16.3964 9.89445C16.4489 9.8321 16.4745 9.75221 16.4684 9.66968C16.4624 9.58714 16.4254 9.51206 16.3644 9.45848L14.7523 8.04062C14.6913 7.98691 14.6131 7.96072 14.5323 7.96697C14.4515 7.97322 14.3782 8.01094 14.3259 8.07329L9.42763 13.8884C9.37484 13.9513 9.30206 13.9883 9.22246 13.9925H9.22258Z" fill="currentColor"/>
  </g>
  <defs>
    <clipPath id="clip0_18868_5085">
      <rect width="21" height="26" fill="white"/>
    </clipPath>
  </defs>
</svg>
