<svg width="25" height="25" viewBox="0 0 25 25" fill="none" xmlns="http://www.w3.org/2000/svg">
<path d="M17.7822 12.7586C17.7822 15.8926 17.1284 18.7051 16.0951 20.7158C15.0484 22.7526 13.6918 23.835 12.3333 23.835C10.9747 23.835 9.61811 22.7526 8.57141 20.7158C7.53814 18.7051 6.88428 15.8926 6.88428 12.7586C6.88428 9.62457 7.53814 6.81204 8.57141 4.80137C9.61811 2.76455 10.9747 1.68219 12.3333 1.68219C13.6918 1.68219 15.0484 2.76455 16.0951 4.80137C17.1284 6.81204 17.7822 9.62457 17.7822 12.7586Z" stroke="#FF4F4F"/>
<path d="M12.3423 6.97913C15.4763 6.97913 18.2888 7.63299 20.2995 8.66626C22.3363 9.71295 23.4186 11.0696 23.4186 12.4281C23.4186 13.7866 22.3363 15.1432 20.2995 16.1899C18.2888 17.2232 15.4763 17.8771 12.3423 17.8771C9.20825 17.8771 6.39572 17.2232 4.38505 16.1899C2.34823 15.1432 1.26587 13.7866 1.26587 12.4281C1.26587 11.0696 2.34823 9.71295 4.38505 8.66626C6.39572 7.63299 9.20825 6.97913 12.3423 6.97913Z" stroke="#FF4F4F"/>
<circle cx="12.3333" cy="12.7496" r="11.3979" stroke="#FF4F4F"/>
</svg>
