<svg width="34" height="34" viewBox="0 0 34 34" fill="none" xmlns="http://www.w3.org/2000/svg">
<path d="M24.9289 0.142831C24.2689 0.141334 23.6232 0.335769 23.0738 0.701507C22.5243 1.06725 22.0958 1.58783 21.8425 2.19732C21.5891 2.8068 21.5224 3.47777 21.6507 4.12522C21.779 4.77266 22.0966 5.36746 22.5632 5.83427C23.0299 6.30108 23.6245 6.61889 24.2719 6.74744C24.9193 6.87599 25.5903 6.80951 26.1999 6.5564C26.8095 6.3033 27.3302 5.87497 27.6962 5.32566C28.0621 4.77636 28.2568 4.1308 28.2556 3.47076C28.2546 2.58866 27.9038 1.74296 27.2802 1.11911C26.6566 0.495254 25.811 0.144166 24.9289 0.142831ZM14.2667 3.79233C14.0026 3.78833 13.7429 3.86058 13.5189 4.0004L7.99921 7.36869C6.30687 8.40149 7.67638 10.6474 9.36745 9.61085L14.4924 6.48343L18.1495 7.2842L13.7786 13.9174C12.7698 15.6828 12.1834 17.2983 13.6349 18.273L21.0247 23.0373L16.7749 31.1245C16.5483 31.5653 16.5052 32.0778 16.655 32.5503C16.8048 33.0227 17.1353 33.4168 17.5744 33.6466C17.7908 33.7604 18.0275 33.8303 18.271 33.852C18.5145 33.8738 18.7599 33.8471 18.9931 33.7735C19.2262 33.6998 19.4424 33.5807 19.6292 33.423C19.816 33.2653 19.9697 33.0721 20.0814 32.8547L25.084 23.3375L25.0928 23.3198C25.332 22.906 25.4017 22.4158 25.2875 21.9518C25.1733 21.4877 24.8839 21.0859 24.48 20.8305L19.205 17.4256L23.1798 11.3952L24.6628 14.6563C24.9718 15.3323 25.5002 15.6034 25.997 15.5807H32.1913C34.1724 15.5807 34.1724 12.9552 32.1913 12.9552H26.7738L25.2126 9.52258C24.9264 8.9261 24.6805 8.67136 24.1937 8.28674L20.3386 5.41405C19.7523 4.99664 19.4559 4.88945 18.7787 4.73308L14.6942 3.83899C14.5539 3.80697 14.4105 3.79131 14.2667 3.79233ZM12.1468 18.7989L9.98285 21.6993H2.19078C1.69421 21.7023 1.21907 21.9021 0.869475 22.2547C0.519879 22.6074 0.324331 23.0843 0.325675 23.5808C0.325331 23.8252 0.373448 24.0671 0.467244 24.2927C0.56104 24.5183 0.69865 24.723 0.872109 24.8951C1.04557 25.0672 1.25143 25.2031 1.47778 25.295C1.70413 25.387 1.94647 25.4331 2.19078 25.4308H10.8404C11.1447 25.4429 11.4474 25.3803 11.722 25.2484C11.9966 25.1165 12.2346 24.9193 12.4154 24.6742L15.2705 20.8519C15.2936 20.8209 15.3101 20.7855 15.3189 20.7478C15.3278 20.7102 15.3288 20.6711 15.322 20.633C15.3151 20.5949 15.3005 20.5587 15.2791 20.5265C15.2576 20.4943 15.2298 20.4669 15.1973 20.4459L12.5264 18.7232C12.4662 18.6842 12.3934 18.6697 12.3228 18.6826C12.2523 18.6954 12.1893 18.7348 12.1468 18.7926V18.7989Z" fill="white"/>
</svg>

