<svg width="42" height="38" viewBox="0 0 42 38" fill="none" xmlns="http://www.w3.org/2000/svg">
<path d="M12.6513 37.7151C12.3991 37.7151 12.1595 37.6647 11.9199 37.5386C9.86424 36.5297 7.99777 35.1929 6.37092 33.566C-1.7003 25.4948 -1.7003 12.3539 6.37092 4.28265C7.92211 2.73147 9.68768 1.44512 11.6172 0.461438C12.4369 0.0452663 13.4458 0.373159 13.8746 1.19289C14.2908 2.01262 13.9629 3.02153 13.1432 3.45031C11.5289 4.27004 10.0408 5.35461 8.74184 6.65357C1.96958 13.4258 1.96958 24.4355 8.74184 31.2077C10.1165 32.5824 11.6803 33.6922 13.3954 34.5371C14.2277 34.9407 14.5682 35.9496 14.1647 36.7819C13.862 37.3746 13.2693 37.7151 12.6513 37.7151Z" fill="white"/>
<path d="M29.6387 37.5764C29.0334 37.5764 28.4406 37.2485 28.1506 36.6684C27.7344 35.8487 28.0623 34.8398 28.882 34.411C30.4963 33.5913 31.9844 32.5067 33.2834 31.2077C40.0556 24.4355 40.0556 13.4258 33.2834 6.65357C31.9844 5.35461 30.5089 4.28266 28.882 3.45031C28.0623 3.03414 27.7344 2.02524 28.1506 1.19289C28.5667 0.373159 29.5756 0.0452663 30.408 0.461438C32.3375 1.44512 34.1031 2.73147 35.6543 4.28265C43.7255 12.3539 43.7255 25.4948 35.6543 33.566C34.1031 35.1172 32.3375 36.4036 30.408 37.3873C30.1558 37.5134 29.9035 37.5764 29.6387 37.5764Z" fill="white"/>
<path d="M15.905 31.0438C15.6528 31.0438 15.4132 30.9934 15.1736 30.8672C13.862 30.2241 12.6639 29.3665 11.6172 28.3198C6.43396 23.1365 6.43396 14.7122 11.6172 9.52895C12.6135 8.53266 13.7359 7.71293 14.9844 7.08236C15.8041 6.66619 16.813 6.99408 17.2418 7.81382C17.658 8.63355 17.3301 9.64245 16.5104 10.0712C15.5897 10.5379 14.7322 11.1558 13.9881 11.8999C10.1165 15.7715 10.1165 22.0772 13.9881 25.9488C14.77 26.7307 15.6654 27.3739 16.6491 27.8531C17.4814 28.2567 17.8219 29.2656 17.4184 30.0979C17.1157 30.6907 16.523 31.0438 15.905 31.0438Z" fill="white"/>
<path d="M26.2715 30.9555C25.6662 30.9555 25.0734 30.6276 24.7834 30.0475C24.3672 29.2278 24.6951 28.2189 25.5148 27.7901C26.4355 27.3235 27.293 26.7055 28.0245 25.9614C31.8961 22.0898 31.8961 15.7841 28.0245 11.9125C27.2804 11.1684 26.4355 10.5505 25.5148 10.0838C24.6951 9.66767 24.3672 8.65877 24.7834 7.82642C25.1995 7.00669 26.2084 6.6788 27.0408 7.09497C28.2767 7.72553 29.4117 8.54527 30.408 9.54156C32.9176 12.0512 34.3049 15.3932 34.3049 18.937C34.3049 22.4807 32.9176 25.8227 30.408 28.3324C29.4117 29.3287 28.2893 30.1484 27.0408 30.779C26.7886 30.8925 26.5237 30.9555 26.2715 30.9555Z" fill="white"/>
<path d="M21 24.3346C19.6128 24.3346 18.2381 23.8049 17.1788 22.7582C15.0727 20.6521 15.0727 17.2218 17.1788 15.1157C19.2849 13.0096 22.7151 13.0096 24.8212 15.1157C25.8427 16.1372 26.3976 17.4866 26.3976 18.9369C26.3976 20.3872 25.8301 21.7366 24.8212 22.7582C23.7619 23.8049 22.3872 24.3346 21 24.3346Z" fill="white"/>
</svg>

