<svg width="32" height="39" viewBox="0 0 32 39" fill="none" xmlns="http://www.w3.org/2000/svg">
<path d="M8.44591 0.255934L21.8265 0.255935C26.8962 0.255935 31.0201 4.37982 31.0201 9.44955L31.0201 16.4866C31.0201 18.2018 30.5156 19.8539 29.5572 21.2663L23.5038 30.2582C23.4029 30.3969 23.3272 30.5608 23.2768 30.7248L21.4355 36.7151C21.0446 38.0015 19.8717 38.8717 18.5223 38.8717L16.9837 38.8717C15.3317 38.8717 13.8309 38.1024 12.8725 36.7656C11.914 35.4288 11.6618 33.7515 12.1915 32.1877L14.6885 24.974L4.64991 24.974C2.6195 24.974 0.967422 23.322 0.967422 21.2915L0.967422 20.6862C0.967422 19.362 1.67365 18.2018 2.72039 17.546C2.40511 17.0037 2.22855 16.3731 2.22855 15.7047L2.22855 15.0994C2.22855 13.7752 2.93478 12.615 3.98152 11.9592C3.66624 11.4169 3.48968 10.7863 3.48968 10.1179L3.48968 9.51261C3.48968 8.18842 4.19591 7.02819 5.24265 6.3724C4.92736 5.83011 4.75081 5.19955 4.75081 4.53115L4.75081 3.92581C4.76342 1.90801 6.41549 0.255934 8.44591 0.255934ZM14.6507 2.65208L8.4333 2.65207C7.72707 2.65207 7.14695 3.23219 7.14695 3.93842L7.14695 4.54376C7.14695 5.25 7.72707 5.83011 8.4333 5.83011L14.2219 5.83011C14.8777 5.83011 15.4199 6.3724 15.4199 7.02819C15.4199 7.68397 14.8777 8.22626 14.2219 8.22626L7.17217 8.22626C6.46594 8.22626 5.88582 8.80638 5.88582 9.51261L5.88582 10.1179C5.88582 10.8242 6.46594 11.4043 7.17217 11.4043L12.9607 11.4043C13.6165 11.4043 14.1588 11.9466 14.1588 12.6024C14.1588 13.2582 13.6165 13.8004 12.9607 13.8004L5.91104 13.8004C5.20481 13.8004 4.62469 14.3806 4.62469 15.0868L4.62469 15.6921C4.62469 16.3984 5.20481 16.9785 5.91104 16.9785L11.6996 16.9785C12.3554 16.9785 12.8977 17.5208 12.8977 18.1766C12.8977 18.8323 12.3554 19.3746 11.6996 19.3746L4.64991 19.3746C3.94368 19.3746 3.36357 19.9547 3.36357 20.661L3.36357 21.2663C3.36357 21.9725 3.94368 22.5527 4.64991 22.5527L16.3658 22.5527C16.7567 22.5527 17.1099 22.7418 17.3369 23.0571C17.5639 23.3724 17.6143 23.776 17.5008 24.1417L14.4741 32.9317C14.1966 33.7515 14.3228 34.6343 14.8398 35.3405C15.3443 36.0467 16.1388 36.4503 17.009 36.4503L18.5475 36.4503C18.8376 36.4503 19.0898 36.2611 19.1655 35.9963L21.0067 30.0059C21.1202 29.615 21.2968 29.2493 21.5364 28.9087L27.5898 19.9169C28.2835 18.8954 28.6366 17.7099 28.6366 16.474L28.6366 9.43694C28.6366 5.69139 25.5846 2.63946 21.8391 2.63946L14.6507 2.63946L14.6507 2.65208Z" fill="white"/>
</svg>

