<svg xmlns="http://www.w3.org/2000/svg" width="25" height="29" viewBox="0 0 25 29" fill="none">
  <g clip-path="url(#clip0_18868_5158)">
    <path d="M6.84938 8.96698C6.9699 8.96698 7.08913 8.93504 7.19554 8.87628C8.70964 8.02544 10.643 7.53742 12.5007 7.53742C15.9686 7.53742 18.8378 8.00372 20.3725 8.81623C20.7161 8.99764 21.143 8.86734 21.3263 8.52496C21.5084 8.18258 21.3776 7.75716 21.0353 7.57447C18.5763 6.27139 14.2481 6.13086 12.5007 6.13086C10.3776 6.13086 8.2481 6.66998 6.50323 7.65112C6.16477 7.84148 6.04426 8.27073 6.23528 8.608C6.35964 8.82901 6.59554 8.9657 6.84938 8.9657V8.96698Z" fill="#2874AF"/>
    <path d="M25 7.34581C25 5.84599 23.3462 4.69493 20.0833 3.9233C17.409 3.29093 14.3269 3.06608 12.5 3.06608C8.99487 3.06608 5.04103 4.19031 2.8859 5.8C2.73462 5.91242 2.63718 6.07722 2.61026 6.26247C2.58333 6.44899 2.63077 6.63295 2.74359 6.7837C2.85641 6.93445 3.0218 7.03154 3.20769 7.05837C3.39487 7.0852 3.57949 7.03665 3.73077 6.92551C5.63333 5.50361 9.32051 4.47137 12.4987 4.47137C14.25 4.47137 17.2 4.68599 19.7564 5.29026C21.5244 5.70802 23.5885 6.49753 23.5885 7.34581C23.5885 8.1941 21.491 8.97978 19.6949 9.40137C17.1167 10.0056 14.2077 10.2203 12.4987 10.2203C8.62821 10.2203 1.40897 8.70639 1.40897 5.81278C1.40897 4.13921 4.51923 2.98432 5.85641 2.56529C8.41282 1.76555 11.2795 1.40529 12.4987 1.40529C16.5769 1.40529 18.8628 2.3596 18.8846 2.36855C19.241 2.52313 19.6564 2.3596 19.8128 2.00573C19.9679 1.65057 19.8051 1.23537 19.4487 1.08079C19.3474 1.03608 16.9077 0 12.5 0C11.191 0 8.13333 0.379427 5.43462 1.22515C1.87949 2.33789 0 3.92458 0 5.81278C0 6.71344 0.370513 7.54 1.09103 8.27458C1.04872 8.47004 1.02564 8.66934 1.02564 8.87885C1.02564 10.1628 1.73462 11.3394 3.07949 12.3001C3.07821 12.3512 3.07692 12.4023 3.07692 12.4559C3.07692 14.1755 4.22308 15.5974 6.38974 16.5696C8.07436 17.3246 10.3013 17.7577 12.5 17.7577C17.4051 17.7577 18.9846 17.0704 20.6692 15.5284C20.8077 15.4019 20.8885 15.2282 20.8974 15.0404C20.9064 14.8526 20.8397 14.6737 20.7128 14.5358C20.45 14.2509 20.0026 14.2317 19.7167 14.4936C18.4526 15.6498 17.3359 16.3524 12.5013 16.3524C10.6564 16.3524 8.67179 15.9896 7.19487 15.3802C6.17436 14.9599 4.99103 14.2573 4.61282 13.1803C6.69231 14.1474 9.48333 14.6916 12.5013 14.6916C17.268 14.6916 22.95 13.9187 22.95 10.2381C22.95 10.0938 22.9385 9.95326 22.9141 9.81273C24.3013 9.1433 25.0013 8.31802 25.0013 7.34581H25ZM12.5 13.2863C9.18462 13.2863 6.08333 12.5671 4.20256 11.3624C3.51154 10.9229 2.70769 10.2369 2.49359 9.34004C3.15128 9.72586 3.93333 10.0746 4.83974 10.3812C7.54744 11.2985 10.659 11.6243 12.5013 11.6243C13.7462 11.6243 16.8462 11.462 19.6705 10.8488C20.3577 10.6993 20.9782 10.5345 21.5321 10.3544C21.3949 12.1915 18.0423 13.2851 12.5 13.2851V13.2863Z" fill="#2874AF"/>
    <path d="M16.7576 18.4131C16.5743 18.3722 16.3845 18.4042 16.2268 18.5038C16.2115 18.5128 14.7076 19.4173 11.4743 19.4173C8.24095 19.4173 7.15249 18.012 7.06274 17.8893C6.89736 17.5585 6.50377 17.4115 6.1589 17.5559C5.79992 17.7054 5.63069 18.118 5.78197 18.4757C5.89223 18.7389 6.33069 19.3266 7.27172 19.8593C8.04608 20.2988 9.40505 20.8226 11.4743 20.8226C15.1371 20.8226 16.905 19.7379 16.9794 19.6919C17.3076 19.485 17.4063 19.0506 17.1986 18.7223C17.0986 18.5639 16.9409 18.454 16.7576 18.4119V18.4131Z" fill="#2874AF"/>
    <path d="M14.9568 21.8803L14.7991 21.7717C14.794 21.7794 14.2311 22.4846 12.2504 22.4846C10.4273 22.4846 10.0786 21.9059 10.0773 21.9059L9.90294 21.9851L9.85423 21.8305L8.69141 22.192L8.7491 22.3747C8.78243 22.4833 8.93243 22.8627 9.44653 23.2192C10.0901 23.665 11.0337 23.8912 12.2504 23.8912C13.467 23.8912 14.3876 23.6868 15.117 23.2831C15.6888 22.9662 15.926 22.629 15.985 22.5331L16.085 22.3696L15.0453 21.736L14.9568 21.8816V21.8803ZM9.78756 22.0375L9.7273 22.0643C9.72346 22.0553 9.72346 22.049 9.72346 22.049L9.78756 22.0375Z" fill="#2874AF"/>
    <path d="M15.1811 25.3104C15.4477 25.0294 15.4349 24.5835 15.1529 24.3165C14.8695 24.0508 14.4234 24.0636 14.1554 24.3446C12.9849 25.58 11.4426 25.0371 11.3785 25.0141C11.017 24.8786 10.6093 25.0626 10.4721 25.4229C10.4054 25.5979 10.4105 25.7895 10.4887 25.9607C10.5657 26.1319 10.7054 26.2622 10.8811 26.3286C10.9426 26.3516 11.5054 26.5573 12.2836 26.5573C13.0618 26.5573 14.2041 26.3414 15.1811 25.3104Z" fill="#2874AF"/>
    <path d="M15.0725 26.6992C14.9174 26.5919 14.7315 26.551 14.5456 26.5843C14.3597 26.6175 14.1982 26.7197 14.0917 26.8743C13.6046 27.5718 12.5084 27.5961 12.4994 27.5961C12.1123 27.5973 11.7969 27.9129 11.7969 28.2987C11.7969 28.6845 12.1135 29.0013 12.502 29.0013C12.5764 29.0013 14.3341 28.986 15.2494 27.6791C15.4712 27.361 15.393 26.9228 15.0738 26.7005L15.0725 26.6992Z" fill="#2874AF"/>
  </g>
  <defs>
    <clipPath id="clip0_18868_5158">
      <rect width="25" height="29" fill="white"/>
    </clipPath>
  </defs>
</svg>
