<svg xmlns="http://www.w3.org/2000/svg" width="30" height="30" viewBox="0 0 30 30" fill="none">
  <path fill-rule="evenodd" clip-rule="evenodd" d="M10.5 3C11.3284 3 12 3.67157 12 4.5V6H13.0983C13.116 5.99969 13.1337 5.99968 13.1514 6H16.5C17.3284 6 18 6.67157 18 7.5C18 8.32843 17.3284 9 16.5 9H14.367C13.8245 11.5312 12.9461 13.9373 11.7811 16.1694C12.2172 16.7007 12.6744 17.214 13.1515 17.7082C13.7268 18.3042 13.7101 19.2538 13.1141 19.8292C12.518 20.4046 11.5684 20.3878 10.9931 19.7918C10.7094 19.4979 10.432 19.198 10.1611 18.8922C8.83341 20.8651 7.26579 22.6626 5.50038 24.2427C4.88309 24.7952 3.9348 24.7426 3.38231 24.1253C2.82982 23.508 2.88235 22.5597 3.49964 22.0073C5.31928 20.3786 6.9032 18.4932 8.19463 16.4084C7.35993 15.2249 6.613 13.9748 5.96336 12.6675C5.59469 11.9257 5.89722 11.0254 6.63908 10.6567C7.38095 10.2881 8.28122 10.5906 8.6499 11.3325C9.00029 12.0375 9.38241 12.7242 9.79439 13.3905C10.4205 11.9891 10.9237 10.521 11.2904 9H4.50001C3.67159 9 3.00001 8.32843 3.00001 7.5C3.00001 6.67157 3.67159 6 4.50001 6H9V4.5C9 3.67157 9.67157 3 10.5 3ZM19.5 12C20.0681 12 20.5875 12.321 20.8416 12.8292L25.3281 21.8022C25.3378 21.8206 25.3472 21.8393 25.3561 21.8583L26.8416 24.8292C27.2121 25.5701 26.9117 26.4712 26.1708 26.8416C25.4298 27.2121 24.5288 26.9118 24.1583 26.1708L23.0729 24H15.927L14.8416 26.1708C14.4711 26.9118 13.5701 27.2121 12.8292 26.8416C12.0882 26.4712 11.7879 25.5701 12.1583 24.8292L13.6438 21.8583C13.6528 21.8393 13.6621 21.8206 13.6718 21.8022L18.1583 12.8292C18.4124 12.321 18.9318 12 19.5 12ZM17.427 21H21.5729L19.5 16.8541L17.427 21Z" fill="#2874AF"/>
</svg>
