<svg width="23" height="29" viewBox="0 0 23 29" fill="none" xmlns="http://www.w3.org/2000/svg">
<path fill-rule="evenodd" clip-rule="evenodd" d="M11.5 1.19754L21.6641 19.5584H19.244L21.6641 23.9301H19.244L21.6641 28.3017H1.33594L3.75595 23.9301H1.33594L3.75595 19.5584H1.33594L11.5 1.19754ZM4.24002 19.5584L2.05444 23.5066H3.99039L6.17597 19.5584H4.24002ZM6.41041 19.1349H4.47446L11.5 6.44362L18.5255 19.1349H16.5896L11.5 9.94083L6.41041 19.1349ZM6.66003 19.5584L4.47446 23.5066H18.5255L16.34 19.5584H6.66003ZM16.1055 19.1349H6.89447L11.5 10.8153L16.1055 19.1349ZM16.824 19.5584L19.0096 23.5066H20.9456L18.76 19.5584H16.824ZM19.0096 19.1349L11.5 5.56918L3.99039 19.1349H2.05444L11.5 2.07197L20.9456 19.1349H19.0096ZM2.05444 27.8782L4.24002 23.9301H18.76L20.9456 27.8782H2.05444Z" fill="#FF4F4F" stroke="#FF4F4F" stroke-width="0.4"/>
</svg>
