<svg xmlns="http://www.w3.org/2000/svg" width="21" height="27" viewBox="0 0 21 27" fill="none"><path fill-rule="evenodd" clip-rule="evenodd" d="M13.4331 25.5319C13.6654 25.5313 13.8888 25.4425 14.0575 25.2834C14.8321 24.6735 15.152 23.8207 15.152 22.7139V6.01855C12.6284 8.97023 11.2461 12.7205 11.2538 16.5952V22.7139C11.2516 23.1848 11.1642 23.6515 10.9957 24.0915C11.2336 24.5279 11.5857 24.8922 12.0148 25.1457C12.4439 25.3993 12.9339 25.5328 13.4331 25.5319Z" fill="white"></path><path fill-rule="evenodd" clip-rule="evenodd" d="M16.899 22.6983V6.80124C16.8986 5.42315 17.2627 4.06921 17.9548 2.87538C18.6469 1.68156 19.6427 0.689902 20.8421 0V19.4254H20.8126C20.6493 21.3871 19.7508 23.2161 18.2953 24.5498C16.8398 25.8835 14.9336 26.6245 12.9546 26.6258C14.0008 26.6247 15.0038 26.2104 15.743 25.4738C16.4822 24.7373 16.897 23.739 16.8962 22.6983" fill="white"></path><path fill-rule="evenodd" clip-rule="evenodd" d="M5.80797 26.0173C5.24372 25.6648 4.77859 25.1757 4.45612 24.5957C4.13365 24.0157 3.96438 23.3639 3.96413 22.7011V6.80264C3.96343 5.42212 3.59656 4.06624 2.90055 2.87184C2.20454 1.67744 1.20402 0.686823 2.28882e-05 0V19.4282H0.0280805C0.172728 21.1035 0.85334 22.6887 1.97007 23.9512C3.0868 25.2136 4.58087 26.0869 6.23314 26.443C6.08474 26.3117 5.94418 26.1719 5.81217 26.0243" fill="white"></path><path fill-rule="evenodd" clip-rule="evenodd" d="M6.18125 26.4328C6.72396 26.5485 7.27785 26.6042 7.83285 26.5989C7.09517 26.5929 6.37423 26.3796 5.75328 25.9834C5.88718 26.1412 6.03007 26.2913 6.18125 26.4328Z" fill="white"></path><path fill-rule="evenodd" clip-rule="evenodd" d="M9.56572 22.7013V16.5839C9.56985 12.7045 8.17022 8.95316 5.62267 6.01562V22.6985C5.62248 23.2137 5.72433 23.7239 5.92239 24.1999C6.12045 24.676 6.41084 25.1086 6.77699 25.4731C7.14313 25.8375 7.57786 26.1267 8.05635 26.324C8.53484 26.5213 9.04773 26.623 9.56572 26.6232H13.5074C12.9895 26.623 12.4766 26.5213 11.9982 26.324C11.5198 26.1266 11.0852 25.8375 10.7191 25.473C10.3531 25.1085 10.0628 24.6759 9.86494 24.1998C9.66703 23.7238 9.56536 23.2136 9.56572 22.6985" fill="white"></path><path fill-rule="evenodd" clip-rule="evenodd" d="M8.56394 6.62612L9.28519 4.44324L7.39505 3.09499H9.73142L10.4513 0.912109L11.1739 3.09499H13.5075L11.6188 4.44463L12.3414 6.62612L10.4513 5.27787L8.56394 6.62612Z" fill="white"></path></svg>
