<svg width="22" height="19" viewBox="0 0 22 19" fill="none" xmlns="http://www.w3.org/2000/svg">
<path d="M14.6353 3.80865C14.6353 5.79687 13.0236 7.40865 11.0353 7.40865C9.04712 7.40865 7.43535 5.79687 7.43535 3.80865C7.43535 1.82042 9.04712 0.208649 11.0353 0.208649C13.0236 0.208649 14.6353 1.82042 14.6353 3.80865Z" fill="white"/>
<path d="M20.6353 6.20865C20.6353 7.53413 19.5608 8.60865 18.2353 8.60865C16.9099 8.60865 15.8353 7.53413 15.8353 6.20865C15.8353 4.88317 16.9099 3.80865 18.2353 3.80865C19.5608 3.80865 20.6353 4.88317 20.6353 6.20865Z" fill="white"/>
<path d="M15.8353 14.6086C15.8353 11.9577 13.6863 9.80865 11.0353 9.80865C8.38438 9.80865 6.23535 11.9577 6.23535 14.6086V18.2086H15.8353V14.6086Z" fill="white"/>
<path d="M6.23535 6.20865C6.23535 7.53413 5.16083 8.60865 3.83535 8.60865C2.50987 8.60865 1.43535 7.53413 1.43535 6.20865C1.43535 4.88317 2.50987 3.80865 3.83535 3.80865C5.16083 3.80865 6.23535 4.88317 6.23535 6.20865Z" fill="white"/>
<path d="M18.2353 18.2086V14.6086C18.2353 13.3437 17.9091 12.1549 17.3362 11.1218C17.6236 11.0479 17.9249 11.0086 18.2353 11.0086C20.2236 11.0086 21.8353 12.6204 21.8353 14.6086V18.2086H18.2353Z" fill="white"/>
<path d="M4.73446 11.1218C4.16157 12.1549 3.83535 13.3437 3.83535 14.6086V18.2086H0.235352V14.6086C0.235352 12.6204 1.84713 11.0086 3.83535 11.0086C4.1458 11.0086 4.44707 11.0479 4.73446 11.1218Z" fill="white"/>
</svg>
