<svg width="20" height="21" viewBox="0 0 20 21" fill="none" xmlns="http://www.w3.org/2000/svg">
<path d="M3.12104 16.4124C5.15267 15.264 7.4998 14.6086 10 14.6086C12.5002 14.6086 14.8473 15.264 16.879 16.4124M13 8.60864C13 10.2655 11.6569 11.6086 10 11.6086C8.34315 11.6086 7 10.2655 7 8.60864C7 6.95179 8.34315 5.60864 10 5.60864C11.6569 5.60864 13 6.95179 13 8.60864ZM19 10.6086C19 15.5792 14.9706 19.6086 10 19.6086C5.02944 19.6086 1 15.5792 1 10.6086C1 5.63808 5.02944 1.60864 10 1.60864C14.9706 1.60864 19 5.63808 19 10.6086Z" stroke="white" stroke-width="2" stroke-linecap="round" stroke-linejoin="round"/>
</svg>
