<svg width="32" height="40" viewBox="0 0 32 40" fill="none" xmlns="http://www.w3.org/2000/svg">
<path d="M29.759 6.55639C27.8294 2.9874 24.2857 0.793036 20.2627 0.679535C20.1366 0.679535 20.0231 0.679535 19.8969 0.679535H12.1158C11.9897 0.679535 11.8762 0.679535 11.7501 0.679535C7.72707 0.793036 4.1833 3.00001 2.25377 6.55639C0.299026 10.1884 0.412527 14.451 2.56906 17.957L7.43701 25.8643C7.66401 26.23 7.81534 26.6209 7.90362 27.0245C7.94146 27.201 8.09279 27.3272 8.26935 27.3272L23.7434 27.3398C23.9199 27.3398 24.0713 27.2137 24.1091 27.0371C24.1974 26.6209 24.3487 26.2174 24.5757 25.839L29.4437 17.9444C31.6002 14.4384 31.7137 10.1884 29.759 6.55639Z" fill="white"/>
<path d="M9.17739 34.5156C8.93777 34.5156 8.77382 34.7804 8.88733 34.9948C10.2241 37.5801 12.9229 39.3457 16.0253 39.3457C19.1277 39.3457 21.8139 37.5801 23.1507 35.0074C23.2642 34.793 23.1128 34.5282 22.8606 34.5282L9.17739 34.5156Z" fill="white"/>
</svg>

