<svg width="32" height="40" viewBox="0 0 32 40" fill="none" xmlns="http://www.w3.org/2000/svg">
<path d="M24.8153 15.8509C24.9035 15.914 25.017 15.914 25.1053 15.8635L27.1862 14.7411C27.6402 14.5015 27.8924 13.997 27.8041 13.48C27.7537 13.1647 27.5519 12.8746 27.2871 12.6981L25.5467 11.4622L28.0059 7.98146L29.1662 8.8012C29.3805 8.95253 29.6202 9.01559 29.8598 9.01559C30.2633 9.01559 30.6543 8.81381 30.8813 8.44808C31.2218 7.90579 31.0452 7.18695 30.5156 6.80861L25.9755 3.60535L24.2604 2.39467L22.1165 0.881313C21.5489 0.490364 20.767 0.641699 20.4013 1.23443C20.0734 1.77671 20.25 2.49556 20.767 2.86128L21.9021 3.65579L19.4429 7.13651L17.6899 5.92582C17.4251 5.73666 17.0972 5.64838 16.7693 5.69882C16.2522 5.7871 15.8613 6.20327 15.7856 6.69511L15.4073 9.20476L5.74702 22.888C5.36869 23.4303 5.4948 24.1743 6.03708 24.5527L6.83159 25.1202L5.48219 27.8694C5.21735 28.3991 5.3813 29.0423 5.86052 29.3828L6.52892 29.8494L1.16913 37.4288C0.790794 37.9711 0.916907 38.7151 1.45919 39.0935C1.67358 39.2448 1.9132 39.3079 2.15281 39.3079C2.53115 39.3079 2.89688 39.1313 3.13649 38.8034L8.49628 31.224L9.16468 31.6907C9.37907 31.842 9.61868 31.9051 9.8583 31.9051C10.1736 31.9051 10.4889 31.7789 10.7159 31.5393L12.8472 29.345L13.6417 29.9125C13.8561 30.0638 14.0957 30.1269 14.3353 30.1269C14.7136 30.1269 15.0794 29.9503 15.319 29.6224L16.8828 27.4028C16.9711 27.2767 16.9458 27.1002 16.8197 27.0119L13.4525 24.6283C12.9102 24.25 12.7841 23.4933 13.1624 22.9637C13.5408 22.4214 14.2975 22.2953 14.8271 22.6736L17.8665 24.8301C18.1691 25.0445 18.5979 24.9689 18.8123 24.6662C19.0267 24.3635 18.951 23.9347 18.6484 23.7203L15.609 21.5638C15.0668 21.1855 14.9406 20.4288 15.319 19.8991C15.6973 19.3568 16.454 19.2307 16.9837 19.6091L20.023 21.753C20.3257 21.9674 20.7544 21.8917 20.9688 21.589C21.1832 21.2864 21.1076 20.8576 20.8049 20.6432L17.7656 18.4993C17.1981 18.1083 17.0846 17.3138 17.526 16.7715C17.9295 16.2797 18.661 16.204 19.178 16.5697L22.1417 18.6632C22.4696 18.8902 22.9236 18.8146 23.1632 18.4867C23.3902 18.1588 23.3145 17.7048 22.9866 17.4651L19.9851 15.3464C19.4429 14.9681 19.3167 14.2114 19.6951 13.6818C20.0734 13.1395 20.8301 13.0134 21.3598 13.3917L24.8153 15.8509Z" fill="white"/>
</svg>

