<svg width="31" height="26" viewBox="0 0 31 26" fill="none" xmlns="http://www.w3.org/2000/svg">
<circle cx="18.8385" cy="11.9203" r="10.103" transform="rotate(-10 18.8385 11.9203)" stroke="#FF4F4F" stroke-width="0.367381"/>
<circle cx="17.5188" cy="12.8991" r="9.36822" transform="rotate(-10 17.5188 12.8991)" stroke="#FF4F4F" stroke-width="0.367381"/>
<circle cx="16.1991" cy="13.8779" r="8.63346" transform="rotate(-10 16.1991 13.8779)" stroke="#FF4F4F" stroke-width="0.367381"/>
<circle cx="14.8797" cy="14.8566" r="7.89869" transform="rotate(-10 14.8797 14.8566)" stroke="#FF4F4F" stroke-width="0.367381"/>
<circle cx="13.56" cy="15.8355" r="7.16393" transform="rotate(-10 13.56 15.8355)" stroke="#FF4F4F" stroke-width="0.367381"/>
<circle cx="12.2403" cy="16.8143" r="6.42917" transform="rotate(-10 12.2403 16.8143)" stroke="#FF4F4F" stroke-width="0.367381"/>
<circle cx="10.9208" cy="17.793" r="5.69441" transform="rotate(-10 10.9208 17.793)" stroke="#FF4F4F" stroke-width="0.367381"/>
<circle cx="9.60115" cy="18.7718" r="4.95964" transform="rotate(-10 9.60115 18.7718)" stroke="#FF4F4F" stroke-width="0.367381"/>
<circle cx="7.91988" cy="19.8144" r="4.22488" transform="rotate(-10 7.91988 19.8144)" stroke="#FF4F4F" stroke-width="0.367381"/>
<circle cx="6.60019" cy="20.7931" r="3.49012" transform="rotate(-10 6.60019 20.7931)" stroke="#FF4F4F" stroke-width="0.367381"/>
<circle cx="4.91867" cy="21.8357" r="2.75536" transform="rotate(-10 4.91867 21.8357)" stroke="#FF4F4F" stroke-width="0.367381"/>
<circle cx="3.59922" cy="22.8145" r="2.0206" transform="rotate(-10 3.59922 22.8145)" stroke="#FF4F4F" stroke-width="0.367381"/>
<circle cx="2.27953" cy="23.7932" r="1.28583" transform="rotate(-10 2.27953 23.7932)" stroke="#FF4F4F" stroke-width="0.367381"/>
</svg>
