<svg width="6" height="17" viewBox="0 0 6 17" fill="none" xmlns="http://www.w3.org/2000/svg">
<path d="M5.59788 1.24925L4.14758 10.9221C4.12236 11.0734 3.99624 11.1869 3.84491 11.1869H2.155C2.00366 11.1869 1.87755 11.0734 1.85233 10.9221L0.402027 1.24925C0.376805 1.06008 0.515528 0.896133 0.704697 0.896133H5.2826C5.48438 0.896133 5.6231 1.06008 5.59788 1.24925Z" fill="white"/>
<path d="M2.99993 16.3071C4.07951 16.3071 4.95468 15.4319 4.95468 14.3524C4.95468 13.2728 4.07951 12.3976 2.99993 12.3976C1.92036 12.3976 1.04519 13.2728 1.04519 14.3524C1.04519 15.4319 1.92036 16.3071 2.99993 16.3071Z" fill="white"/>
</svg>

