<svg width="21" height="22" viewBox="0 0 21 22" fill="none" xmlns="http://www.w3.org/2000/svg">
<path d="M19.043 2.02805H20.1607C20.1607 1.73163 20.0429 1.44735 19.8333 1.23775C19.6237 1.02815 19.3395 0.9104 19.043 0.9104V2.02805ZM17.9254 15.4398C17.9254 15.7362 18.0431 16.0205 18.2527 16.2301C18.4623 16.4397 18.7466 16.5575 19.043 16.5575C19.3395 16.5575 19.6237 16.4397 19.8333 16.2301C20.0429 16.0205 20.1607 15.7362 20.1607 15.4398H17.9254ZM5.63127 0.9104C5.33485 0.9104 5.05057 1.02815 4.84097 1.23775C4.63137 1.44735 4.51362 1.73163 4.51362 2.02805C4.51362 2.32447 4.63137 2.60874 4.84097 2.81834C5.05057 3.02794 5.33485 3.14569 5.63127 3.14569V0.9104ZM0.370501 19.1202C0.263755 19.2233 0.17861 19.3466 0.120035 19.483C0.0614604 19.6194 0.0306286 19.766 0.0293391 19.9144C0.0280495 20.0628 0.0563279 20.21 0.112524 20.3473C0.16872 20.4847 0.251709 20.6095 0.356648 20.7144C0.461587 20.8194 0.586374 20.9024 0.723729 20.9586C0.861084 21.0148 1.00826 21.043 1.15666 21.0417C1.30506 21.0404 1.45171 21.0096 1.58807 20.951C1.72443 20.8925 1.84775 20.8073 1.95085 20.7006L0.370501 19.1202ZM17.9254 2.02805V15.4398H20.1607V2.02805H17.9254ZM19.043 0.9104H5.63127V3.14569H19.043V0.9104ZM18.2529 1.23787L0.370501 19.1202L1.95085 20.7006L19.8332 2.81822L18.2529 1.23787Z" fill="#E3EBF3"/>
</svg>
