<svg width="253" height="205" viewBox="0 0 253 205" fill="none" xmlns="http://www.w3.org/2000/svg">
<path fill-rule="evenodd" clip-rule="evenodd" d="M96.6683 0.558643L0.683377 204.75L252.947 163.297L96.6683 0.558643ZM232.794 164.548L20.1773 199.485L122.913 160.272L232.794 164.548ZM15.7078 199.015L122.576 158.224L236.878 162.672L120.098 143.144L15.7078 199.015ZM117.289 126.047L16.0755 196.511L119.75 141.024L235.728 160.418L117.289 126.047ZM16.5944 193.672L116.923 123.824L234.328 157.894L114.484 108.979L16.5944 193.672ZM111.683 91.9327L17.2229 190.44L114.097 106.624L232.698 155.032L111.683 91.9327ZM17.9239 186.77L111.271 89.4244L230.86 151.781L108.885 74.906L17.9239 186.77ZM106.09 57.895L18.6663 182.634L108.445 72.2246L228.833 148.099L106.09 57.895ZM19.4245 178.009L105.618 55.0247L226.635 143.96L103.297 40.8968L19.4245 178.009ZM100.04 21.0786L17.578 177.131L102.792 37.8249L228.103 142.537L100.04 21.0786ZM21.0317 166.242L99.4946 17.7585L221.347 133.326L97.2503 4.10064L21.0317 166.242Z" fill="#0043CA"/>
</svg>
