<svg width="97" height="18" viewBox="0 0 97 18" fill="none" xmlns="http://www.w3.org/2000/svg">
<path d="M16.3649 16.1674H17.2792C17.2792 16.4099 17.1829 16.6425 17.0114 16.814C16.84 16.9855 16.6074 17.0818 16.3649 17.0818V16.1674ZM15.4505 5.19514C15.4505 4.95263 15.5469 4.72006 15.7183 4.54859C15.8898 4.37711 16.1224 4.28078 16.3649 4.28078C16.6074 4.28078 16.84 4.37711 17.0114 4.54859C17.1829 4.72006 17.2792 4.95263 17.2792 5.19514H15.4505ZM5.39259 17.0818C5.15009 17.0818 4.91752 16.9855 4.74605 16.814C4.57457 16.6425 4.47824 16.4099 4.47824 16.1674C4.47824 15.9249 4.57457 15.6924 4.74605 15.5209C4.91752 15.3494 5.15009 15.2531 5.39259 15.2531V17.0818ZM1.08871 2.18416C1.00138 2.09981 0.931725 1.99891 0.883804 1.88736C0.835884 1.7758 0.81066 1.65582 0.809605 1.53441C0.80855 1.413 0.831685 1.29261 0.877659 1.18023C0.923634 1.06786 0.991528 0.965771 1.07738 0.879919C1.16323 0.794067 1.26532 0.726173 1.37769 0.680199C1.49006 0.634224 1.61047 0.61109 1.73187 0.612144C1.85328 0.613199 1.97326 0.638424 2.08482 0.686346C2.19637 0.734266 2.29727 0.803923 2.38161 0.891253L1.08871 2.18416ZM15.4505 16.1674V5.19514H17.2792V16.1674H15.4505ZM16.3649 17.0818H5.39259V15.2531H16.3649V17.0818ZM15.7184 16.8139L1.08871 2.18416L2.38161 0.891253L17.0113 15.521L15.7184 16.8139Z" fill="#0043CA"/>
<path d="M42.8346 16.1674H43.749C43.749 16.4099 43.6526 16.6425 43.4812 16.814C43.3097 16.9855 43.0771 17.0818 42.8346 17.0818V16.1674ZM41.9203 5.19514C41.9203 4.95263 42.0166 4.72006 42.1881 4.54859C42.3595 4.37711 42.5921 4.28078 42.8346 4.28078C43.0771 4.28078 43.3097 4.37711 43.4812 4.54859C43.6526 4.72006 43.749 4.95263 43.749 5.19514H41.9203ZM31.8623 17.0818C31.6198 17.0818 31.3872 16.9855 31.2158 16.814C31.0443 16.6425 30.948 16.4099 30.948 16.1674C30.948 15.9249 31.0443 15.6924 31.2158 15.5209C31.3872 15.3494 31.6198 15.2531 31.8623 15.2531V17.0818ZM27.5584 2.18416C27.4711 2.09981 27.4015 1.99891 27.3535 1.88736C27.3056 1.7758 27.2804 1.65582 27.2793 1.53441C27.2783 1.413 27.3014 1.29261 27.3474 1.18023C27.3934 1.06786 27.4613 0.965771 27.5471 0.879919C27.633 0.794067 27.735 0.726173 27.8474 0.680199C27.9598 0.634224 28.0802 0.61109 28.2016 0.612144C28.323 0.613199 28.443 0.638424 28.5545 0.686346C28.6661 0.734266 28.767 0.803923 28.8513 0.891253L27.5584 2.18416ZM41.9203 16.1674V5.19514H43.749V16.1674H41.9203ZM42.8346 17.0818H31.8623V15.2531H42.8346V17.0818ZM42.1882 16.8139L27.5584 2.18416L28.8513 0.891253L43.4811 15.521L42.1882 16.8139Z" fill="#0043CA"/>
<path d="M69.3043 16.1674H70.2187C70.2187 16.4099 70.1224 16.6425 69.9509 16.814C69.7794 16.9855 69.5468 17.0818 69.3043 17.0818V16.1674ZM68.39 5.19514C68.39 4.95263 68.4863 4.72006 68.6578 4.54859C68.8293 4.37711 69.0618 4.28078 69.3043 4.28078C69.5468 4.28078 69.7794 4.37711 69.9509 4.54859C70.1224 4.72006 70.2187 4.95263 70.2187 5.19514H68.39ZM58.332 17.0818C58.0895 17.0818 57.857 16.9855 57.6855 16.814C57.514 16.6425 57.4177 16.4099 57.4177 16.1674C57.4177 15.9249 57.514 15.6924 57.6855 15.5209C57.857 15.3494 58.0895 15.2531 58.332 15.2531V17.0818ZM54.0282 2.18416C53.9408 2.09981 53.8712 1.99891 53.8233 1.88736C53.7753 1.7758 53.7501 1.65582 53.7491 1.53441C53.748 1.413 53.7711 1.29261 53.8171 1.18023C53.8631 1.06786 53.931 0.965771 54.0168 0.879919C54.1027 0.794067 54.2048 0.726173 54.3171 0.680199C54.4295 0.634224 54.5499 0.61109 54.6713 0.612144C54.7927 0.613199 54.9127 0.638424 55.0243 0.686346C55.1358 0.734266 55.2367 0.803923 55.3211 0.891253L54.0282 2.18416ZM68.39 16.1674V5.19514H70.2187V16.1674H68.39ZM69.3043 17.0818H58.332V15.2531H69.3043V17.0818ZM68.6579 16.8139L54.0282 2.18416L55.3211 0.891253L69.9508 15.521L68.6579 16.8139Z" fill="#0043CA"/>
<path d="M95.7741 16.1674H96.6884C96.6884 16.4099 96.5921 16.6425 96.4206 16.814C96.2491 16.9855 96.0166 17.0818 95.7741 17.0818V16.1674ZM94.8597 5.19514C94.8597 4.95263 94.956 4.72006 95.1275 4.54859C95.299 4.37711 95.5316 4.28078 95.7741 4.28078C96.0166 4.28078 96.2491 4.37711 96.4206 4.54859C96.5921 4.72006 96.6884 4.95263 96.6884 5.19514H94.8597ZM84.8018 17.0818C84.5593 17.0818 84.3267 16.9855 84.1552 16.814C83.9838 16.6425 83.8874 16.4099 83.8874 16.1674C83.8874 15.9249 83.9838 15.6924 84.1552 15.5209C84.3267 15.3494 84.5593 15.2531 84.8018 15.2531V17.0818ZM80.4979 2.18416C80.4106 2.09981 80.3409 1.99891 80.293 1.88736C80.2451 1.7758 80.2198 1.65582 80.2188 1.53441C80.2177 1.413 80.2409 1.29261 80.2868 1.18023C80.3328 1.06786 80.4007 0.965771 80.4866 0.879919C80.5724 0.794067 80.6745 0.726173 80.7869 0.680199C80.8992 0.634224 81.0196 0.61109 81.1411 0.612144C81.2625 0.613199 81.3824 0.638424 81.494 0.686346C81.6056 0.734266 81.7064 0.803923 81.7908 0.891253L80.4979 2.18416ZM94.8597 16.1674V5.19514H96.6884V16.1674H94.8597ZM95.7741 17.0818H84.8018V15.2531H95.7741V17.0818ZM95.1276 16.8139L80.4979 2.18416L81.7908 0.891253L96.4205 15.521L95.1276 16.8139Z" fill="#0043CA"/>
</svg>
