<svg width="289" height="289" viewBox="0 0 289 289" fill="none" xmlns="http://www.w3.org/2000/svg">
<path d="M249.877 190.811C239.644 201.045 221.926 202.142 201.284 195.262C180.689 188.397 157.423 173.653 136.402 152.632C115.381 131.611 100.637 108.345 93.7724 87.7502C86.8916 67.1078 87.9894 49.3903 98.2231 39.1566C108.457 28.9229 126.174 27.8251 146.817 34.7059C167.412 41.5709 190.678 56.3143 211.699 77.3353C232.72 98.3564 247.463 121.623 254.328 142.217C261.209 162.86 260.111 180.577 249.877 190.811Z" stroke="#0043CA" stroke-width="1.4998"/>
<path d="M245.635 195.053C235.402 205.287 217.684 206.385 197.042 199.504C176.447 192.639 153.181 177.895 132.16 156.874C111.139 135.853 96.3952 112.587 89.5302 91.9923C82.6494 71.3499 83.7472 53.6324 93.9809 43.3987C104.215 33.165 121.932 32.0672 142.575 38.948C163.169 45.8129 186.436 60.5563 207.457 81.5774C228.478 102.598 243.221 125.865 250.086 146.459C256.967 167.102 255.869 184.819 245.635 195.053Z" stroke="#0043CA" stroke-width="1.4998"/>
<path d="M241.393 199.295C231.159 209.529 213.441 210.627 192.799 203.746C172.204 196.881 148.938 182.137 127.917 161.116C106.896 140.095 92.1525 116.829 85.2876 96.2343C78.4068 75.5919 79.5045 57.8745 89.7383 47.6407C99.972 37.407 117.689 36.3092 138.332 43.19C158.927 50.055 182.193 64.7984 203.214 85.8195C224.235 106.841 238.978 130.107 245.843 150.701C252.724 171.344 251.626 189.061 241.393 199.295Z" stroke="#0043CA" stroke-width="1.4998"/>
<path d="M237.151 203.537C226.918 213.771 209.2 214.869 188.558 207.988C167.963 201.123 144.697 186.379 123.676 165.358C102.655 144.337 87.9113 121.071 81.0464 100.476C74.1655 79.834 75.2633 62.1165 85.4971 51.8828C95.7308 41.6491 113.448 40.5513 134.091 47.4321C154.685 54.2971 177.952 69.0405 198.973 90.0615C219.994 111.083 234.737 134.349 241.602 154.944C248.483 175.586 247.385 193.303 237.151 203.537Z" stroke="#0043CA" stroke-width="1.4998"/>
<path d="M232.909 207.779C222.675 218.013 204.958 219.111 184.316 212.23C163.721 205.365 140.455 190.622 119.434 169.601C98.4125 148.58 83.6691 125.313 76.8042 104.719C69.9234 84.0762 71.0212 66.3587 81.2549 56.125C91.4886 45.8913 109.206 44.7935 129.848 51.6743C150.443 58.5392 173.709 73.2827 194.73 94.3037C215.752 115.325 230.495 138.591 237.36 159.186C244.241 179.828 243.143 197.546 232.909 207.779Z" stroke="#0043CA" stroke-width="1.4998"/>
<path d="M228.666 212.021C218.432 222.255 200.715 223.353 180.072 216.472C159.478 209.607 136.211 194.864 115.19 173.843C94.1694 152.822 79.4259 129.555 72.561 108.961C65.6802 88.3181 66.778 70.6006 77.0117 60.3669C87.2454 50.1332 104.963 49.0354 125.605 55.9162C146.2 62.7812 169.466 77.5246 190.487 98.5457C211.508 119.567 226.252 142.833 233.117 163.428C239.998 184.07 238.9 201.788 228.666 212.021Z" stroke="#0043CA" stroke-width="1.4998"/>
<path d="M224.424 216.263C214.191 226.497 196.473 227.595 175.831 220.714C155.236 213.849 131.97 199.106 110.949 178.085C89.9277 157.064 75.1843 133.798 68.3193 113.203C61.4385 92.5603 62.5363 74.8428 72.77 64.6091C83.0037 54.3754 100.721 53.2776 121.364 60.1584C141.958 67.0234 165.225 81.7668 186.246 102.788C207.267 123.809 222.01 147.075 228.875 167.67C235.756 188.312 234.658 206.03 224.424 216.263Z" stroke="#0043CA" stroke-width="1.4998"/>
<path d="M220.183 220.505C209.949 230.739 192.232 231.837 171.59 224.956C150.995 218.091 127.729 203.348 106.708 182.327C85.6865 161.306 70.943 138.04 64.0781 117.445C57.1973 96.8023 58.2951 79.0848 68.5288 68.8511C78.7625 58.6174 96.48 57.5196 117.122 64.4004C137.717 71.2654 160.983 86.0088 182.004 107.03C203.025 128.051 217.769 151.317 224.634 171.912C231.515 192.554 230.417 210.272 220.183 220.505Z" stroke="#0043CA" stroke-width="1.4998"/>
<path d="M215.941 224.748C205.708 234.981 187.99 236.079 167.348 229.198C146.753 222.333 123.487 207.59 102.466 186.569C81.4448 165.548 66.7013 142.282 59.8364 121.687C52.9556 101.045 54.0534 83.327 64.2871 73.0933C74.5208 62.8596 92.2383 61.7618 112.881 68.6426C133.476 75.5076 156.742 90.251 177.763 111.272C198.784 132.293 213.527 155.559 220.392 176.154C227.273 196.796 226.175 214.514 215.941 224.748Z" stroke="#0043CA" stroke-width="1.4998"/>
<path d="M211.698 228.99C201.465 239.223 183.747 240.321 163.105 233.44C142.51 226.575 119.244 211.832 98.2226 190.811C77.2016 169.79 62.4582 146.524 55.5932 125.929C48.7124 105.286 49.8102 87.569 60.0439 77.3353C70.2776 67.1015 87.9951 66.0038 108.638 72.8846C129.232 79.7495 152.499 94.4929 173.52 115.514C194.541 136.535 209.284 159.801 216.149 180.396C223.03 201.038 221.932 218.756 211.698 228.99Z" stroke="#0043CA" stroke-width="1.4998"/>
<path d="M207.457 233.232C197.223 243.466 179.506 244.563 158.863 237.683C138.269 230.818 115.002 216.074 93.9814 195.053C72.9604 174.032 58.217 150.766 51.352 130.171C44.4712 109.529 45.569 91.8112 55.8027 81.5775C66.0364 71.3438 83.7539 70.246 104.396 77.1268C124.991 83.9918 148.257 98.7352 169.278 119.756C190.299 140.777 205.043 164.043 211.908 184.638C218.789 205.281 217.691 222.998 207.457 233.232Z" stroke="#0043CA" stroke-width="1.4998"/>
<path d="M203.215 237.474C192.981 247.708 175.264 248.805 154.621 241.924C134.026 235.06 110.76 220.316 89.7392 199.295C68.7182 178.274 53.9748 155.008 47.1098 134.413C40.229 113.771 41.3268 96.0532 51.5605 85.8194C61.7942 75.5857 79.5117 74.4879 100.154 81.3688C120.749 88.2337 144.015 102.977 165.036 123.998C186.057 145.019 200.801 168.285 207.666 188.88C214.546 209.523 213.449 227.24 203.215 237.474Z" stroke="#0043CA" stroke-width="1.4998"/>
<path d="M198.972 241.716C188.738 251.95 171.021 253.047 150.379 246.167C129.784 239.302 106.518 224.558 85.4966 203.537C64.4755 182.516 49.7321 159.25 42.8672 138.655C35.9863 118.013 37.0841 100.295 47.3179 90.0616C57.5516 79.8279 75.269 78.7301 95.9115 85.6109C116.506 92.4758 139.772 107.219 160.793 128.24C181.815 149.261 196.558 172.527 203.423 193.122C210.304 213.765 209.206 231.482 198.972 241.716Z" stroke="#0043CA" stroke-width="1.4998"/>
<path d="M194.73 245.958C184.497 256.192 166.779 257.29 146.137 250.409C125.542 243.544 102.276 228.8 81.2549 207.779C60.2338 186.758 45.4904 163.492 38.6255 142.897C31.7447 122.255 32.8424 104.537 43.0762 94.3037C53.3099 84.07 71.0273 82.9722 91.6698 89.853C112.265 96.718 135.531 111.461 156.552 132.482C177.573 153.503 192.316 176.77 199.181 197.364C206.062 218.007 204.964 235.724 194.73 245.958Z" stroke="#0043CA" stroke-width="1.4998"/>
<path d="M190.489 250.2C180.255 260.434 162.538 261.531 141.895 254.651C121.3 247.786 98.0342 233.042 77.0132 212.021C55.9921 191 41.2487 167.734 34.3838 147.139C27.503 126.497 28.6007 108.779 38.8345 98.5456C49.0682 88.3119 66.7856 87.2141 87.4281 94.0949C108.023 100.96 131.289 115.703 152.31 136.724C173.331 157.745 188.075 181.012 194.939 201.606C201.82 222.249 200.723 239.966 190.489 250.2Z" stroke="#0043CA" stroke-width="1.4998"/>
</svg>
