<svg width="37" height="37" viewBox="0 0 37 37" fill="none" xmlns="http://www.w3.org/2000/svg">
  <path d="M18.5 37C28.7173 37 37 28.7173 37 18.5C37 8.28272 28.7173 -1.52588e-05 18.5 -1.52588e-05C8.28273 -1.52588e-05 0 8.28272 0 18.5C0 28.7173 8.28273 37 18.5 37Z" fill="url(#paint0_linear_10977_43740)"/>
  <path d="M18.5004 34.2895C27.2207 34.2895 34.2899 27.2203 34.2899 18.5C34.2899 9.77968 27.2207 2.71048 18.5004 2.71048C9.78014 2.71048 2.71094 9.77968 2.71094 18.5C2.71094 27.2203 9.78014 34.2895 18.5004 34.2895Z" fill="url(#paint1_linear_10977_43740)"/>
  <path d="M18.5007 16.6815C15.8519 16.6815 13.6973 14.5269 13.6973 11.8781C13.6973 9.2294 15.8519 7.07472 18.5007 7.07472C21.1494 7.07472 23.3041 9.2294 23.3041 11.8781C23.3041 14.5269 21.1494 16.6815 18.5007 16.6815Z" fill="white"/>
  <path d="M24.9649 28.2784H12.0369C11.6457 28.2784 11.3301 27.9627 11.3301 27.5716V22.178C11.3301 19.9684 13.1279 18.1706 15.3375 18.1706H21.678C23.8876 18.1706 25.6854 19.9684 25.6854 22.178V27.5716C25.6786 27.9627 25.356 28.2784 24.9649 28.2784Z" fill="white"/>
  <defs>
  <linearGradient id="paint0_linear_10977_43740" x1="-0.40719" y1="314.266" x2="37" y2="314.266" gradientUnits="userSpaceOnUse">
  <stop stop-color="#2874AF"/>
  <stop offset="0.515625" stop-color="#82C9BD"/>
  <stop offset="1" stop-color="#F07012"/>
  </linearGradient>
  <linearGradient id="paint1_linear_10977_43740" x1="2.36341" y1="270.932" x2="34.2899" y2="270.932" gradientUnits="userSpaceOnUse">
  <stop stop-color="#2874AF"/>
  <stop offset="0.515625" stop-color="#82C9BD"/>
  <stop offset="1" stop-color="#F07012"/>
  </linearGradient>
  </defs>
</svg>
