<svg width="96" height="71" viewBox="0 0 96 71" fill="none" xmlns="http://www.w3.org/2000/svg">
<path d="M62.6162 63.4731H76.0569V66.2057H62.6162V63.4731ZM70.8459 58.9293V70.7495H67.859V58.9293H70.8459Z" fill="#E5E7EB"/>
<path d="M82.5591 43.4187H95.9998V46.1514H82.5591V43.4187ZM90.7887 38.8749V50.6952H87.8019V38.8749H90.7887Z" fill="#E5E7EB"/>
<path d="M40.9429 3.31171H54.3836V6.04434H40.9429V3.31171ZM49.1725 -1.23209V10.5881H46.1857V-1.23209H49.1725Z" fill="#E5E7EB"/>
<path d="M40.9429 23.3653H54.3836V26.0979H40.9429V23.3653ZM49.1725 18.8215V30.6417H46.1857V18.8215H49.1725Z" fill="#E5E7EB"/>
<path d="M0 43.4187H13.4407V46.1514H0V43.4187ZM8.22966 38.8749V50.6952H5.24284V38.8749H8.22966Z" fill="#E5E7EB"/>
<path d="M20.4722 3.31171H33.9129V6.04434H20.4722V3.31171ZM28.7018 -1.23209V10.5881H25.715V-1.23209H28.7018Z" fill="#E5E7EB"/>
</svg>
