<svg width="17" height="14" viewBox="0 0 17 14" fill="none" xmlns="http://www.w3.org/2000/svg">
<path d="M1.5 0C0.947715 0 0.5 0.447715 0.5 1C0.5 1.55228 0.947715 2 1.5 2H12.5C13.0523 2 13.5 1.55228 13.5 1C13.5 0.447715 13.0523 0 12.5 0H1.5Z" fill="#3B8BCA"/>
<path d="M1.5 4C0.947715 4 0.5 4.44772 0.5 5C0.5 5.55228 0.947715 6 1.5 6H8.49999C9.05227 6 9.49999 5.55228 9.49999 5C9.49999 4.44772 9.05227 4 8.49999 4H1.5Z" fill="#3B8BCA"/>
<path d="M1.5 8C0.947715 8 0.5 8.44772 0.5 9C0.5 9.55229 0.947715 10 1.5 10H5.49999C6.05228 10 6.49999 9.55229 6.49999 9C6.49999 8.44772 6.05228 8 5.49999 8H1.5Z" fill="#3B8BCA"/>
<path d="M13.5 5C13.5 4.44772 13.0523 4 12.5 4C11.9477 4 11.5 4.44771 11.5 5L11.5 10.5858L10.2071 9.29289C9.81657 8.90237 9.1834 8.90237 8.79288 9.29289C8.40236 9.68342 8.40236 10.3166 8.79288 10.7071L11.7929 13.7071C11.9804 13.8946 12.2348 14 12.5 14C12.7652 14 13.0196 13.8946 13.2071 13.7071L16.2071 10.7071C16.5976 10.3166 16.5976 9.68342 16.2071 9.29289C15.8166 8.90237 15.1834 8.90237 14.7929 9.29289L13.5 10.5858L13.5 5Z" fill="#3B8BCA"/>
</svg>
