<svg width="38" height="30" viewBox="0 0 38 30" fill="none" xmlns="http://www.w3.org/2000/svg">
<path d="M21.1312 1.39244C20.1097 2.40134 20.1097 4.04081 21.1186 5.06232L28.4962 12.4777H3.27364C1.83596 12.4777 0.67572 13.638 0.67572 15.0757C0.67572 16.5134 1.83596 17.6736 3.27364 17.6736H28.4331L21.1186 24.9377C20.0971 25.9466 20.0971 27.5861 21.106 28.6076C22.1149 29.6291 23.7544 29.6291 24.7759 28.6202L36.5422 16.9169C36.6052 16.8539 36.6683 16.7908 36.7187 16.7277C37.0466 16.3242 37.2484 15.845 37.2989 15.3531V15.3405C37.3115 15.2522 37.3115 15.1766 37.3115 15.0883C37.3115 15.0757 37.3115 15.0631 37.3115 15.0504C37.3115 14.9748 37.3115 14.9117 37.2989 14.8361C37.2989 14.8234 37.2989 14.8108 37.2863 14.7856C37.2736 14.7226 37.2736 14.6469 37.261 14.5838C37.261 14.5712 37.261 14.5712 37.261 14.5586C37.2484 14.4829 37.2232 14.4073 37.2106 14.3316C37.1854 14.2559 37.1601 14.1677 37.1223 14.092C37.0719 13.9911 37.0214 13.8776 36.971 13.7767C36.9584 13.7515 36.9458 13.7389 36.9331 13.7137C36.8701 13.6128 36.807 13.5245 36.7314 13.4362C36.7188 13.4236 36.7061 13.411 36.7061 13.3984C36.6557 13.3479 36.6179 13.2975 36.5674 13.247L24.8011 1.40505C23.7922 0.383535 22.1401 0.383534 21.1312 1.39244Z" fill="white"/>
</svg>

