<svg width="24" height="24" viewBox="0 0 24 24" fill="none" xmlns="http://www.w3.org/2000/svg">
<path d="M16.1797 11.7496C16.1797 14.9478 15.6929 17.8264 14.9184 19.8919C14.5306 20.9261 14.0778 21.7369 13.5941 22.2825C13.11 22.8285 12.6268 23.0758 12.1667 23.0758C11.7067 23.0758 11.2234 22.8285 10.7394 22.2825C10.2557 21.7369 9.80293 20.9261 9.41513 19.8919C8.64056 17.8264 8.15381 14.9478 8.15381 11.7496C8.15381 8.55151 8.64056 5.67285 9.41513 3.60733C9.80293 2.57318 10.2557 1.76234 10.7394 1.21678C11.2234 0.670773 11.7067 0.423462 12.1667 0.423462C12.6268 0.423462 13.11 0.670773 13.5941 1.21678C14.0778 1.76234 14.5306 2.57318 14.9184 3.60733C15.6929 5.67285 16.1797 8.55151 16.1797 11.7496Z" stroke="#FF4F4F" stroke-width="0.75"/>
<path d="M12.1667 7.73669C15.3649 7.73669 18.2435 8.22344 20.3091 8.99802C21.3432 9.38582 22.154 9.83855 22.6996 10.3222C23.2456 10.8063 23.4929 11.2895 23.4929 11.7496C23.4929 12.2097 23.2456 12.6929 22.6996 13.177C22.154 13.6607 21.3432 14.1134 20.3091 14.5013C18.2435 15.2758 15.3649 15.7626 12.1667 15.7626C8.96862 15.7626 6.08997 15.2758 4.02444 14.5013C2.9903 14.1134 2.17946 13.6607 1.63389 13.177C1.08789 12.6929 0.840576 12.2097 0.840576 11.7496C0.840576 11.2895 1.08789 10.8063 1.63389 10.3222C2.17946 9.83855 2.9903 9.38582 4.02444 8.99802C6.08997 8.22344 8.96862 7.73669 12.1667 7.73669Z" stroke="#FF4F4F" stroke-width="0.75"/>
<path d="M15.0042 8.91207C17.2656 11.1735 18.957 13.5532 19.8698 15.5614C20.3268 16.5669 20.5801 17.4604 20.6238 18.1882C20.6676 18.9166 20.5008 19.4331 20.1755 19.7585C19.8501 20.0838 19.3336 20.2506 18.6052 20.2068C17.8774 20.1631 16.9839 19.9099 15.9784 19.4528C13.9702 18.54 11.5905 16.8486 9.32907 14.5872C7.06765 12.3258 5.37632 9.94611 4.46348 7.93786C4.00644 6.93239 3.75322 6.03891 3.70947 5.31111C3.66569 4.58273 3.8325 4.06617 4.15783 3.74084C4.48317 3.4155 4.99972 3.2487 5.7281 3.29248C6.4559 3.33623 7.34938 3.58945 8.35485 4.04648C10.3631 4.95933 12.7428 6.65066 15.0042 8.91207Z" stroke="#FF4F4F" stroke-width="0.75"/>
<path d="M4.15783 19.7585C3.8325 19.4331 3.66569 18.9166 3.70947 18.1882C3.75322 17.4604 4.00644 16.5669 4.46348 15.5614C5.37632 13.5532 7.06765 11.1735 9.32907 8.91207C11.5905 6.65066 13.9702 4.95933 15.9784 4.04648C16.9839 3.58945 17.8774 3.33623 18.6052 3.29248C19.3336 3.2487 19.8501 3.4155 20.1755 3.74084C20.5008 4.06617 20.6676 4.58273 20.6238 5.31111C20.5801 6.03891 20.3268 6.93239 19.8698 7.93786C18.957 9.94611 17.2656 12.3258 15.0042 14.5872C12.7428 16.8486 10.3631 18.54 8.35485 19.4528C7.34938 19.9099 6.4559 20.1631 5.7281 20.2068C4.99972 20.2506 4.48317 20.0838 4.15783 19.7585Z" stroke="#FF4F4F" stroke-width="0.75"/>
</svg>
