<svg width="36" height="36" viewBox="0 0 36 36" fill="none" xmlns="http://www.w3.org/2000/svg">
<path d="M34.0542 23.095H2.1224C1.36572 23.095 0.747772 23.7129 0.747772 24.4696C0.747772 25.2263 1.36572 25.8442 2.1224 25.8442H16.6758L11.8961 34.1172L11.8709 34.2055L11.8457 34.2938C11.6944 34.7982 12.0853 35.0883 12.5519 35.0883H23.6877C23.9777 35.0883 24.2426 34.9748 24.3687 34.6469C24.3939 34.4704 24.3687 34.319 24.2804 34.1425L19.4377 25.8568H34.0542C34.8108 25.8568 35.4288 25.2389 35.4288 24.4822C35.4288 23.7129 34.8108 23.095 34.0542 23.095Z" fill="white"/>
<path d="M2.37463 11.9718L3.69882 10.0045V20.043C3.69882 20.5475 4.02671 21.0141 4.51855 21.0772C5.12389 21.1907 5.70401 20.6862 5.70401 20.0683V14.1157C5.70401 14.0022 5.81751 13.9013 5.9184 13.9013H6.46069C6.57419 13.9013 6.67508 14.0148 6.67508 14.1157V20.0683C6.67508 20.5727 7.0282 21.0393 7.49481 21.1024C8.13799 21.2159 8.68027 20.7114 8.68027 20.0935V9.99185L10.0045 11.9592C10.181 12.2493 10.5089 12.388 10.8242 12.388C11.0386 12.388 11.2908 12.3123 11.4674 12.1358C11.8583 11.8079 11.8961 11.1647 11.6061 10.7359L9.046 6.95253C8.57938 6.27152 7.82271 5.88057 7.04081 5.88057H5.3509C4.53116 5.88057 3.77449 6.27152 3.3457 6.95253L0.76039 10.7485C0.470331 11.1395 0.508166 11.7196 0.873893 12.0727C1.34051 12.5519 2.04674 12.4763 2.37463 11.9718Z" fill="white"/>
<path d="M6.20846 5.35089C7.43175 5.35089 8.42804 4.3546 8.42804 3.13131C8.42804 1.90802 7.43175 0.911728 6.20846 0.911728C4.98517 0.911728 3.98888 1.90802 3.98888 3.13131C3.98888 4.3546 4.98517 5.35089 6.20846 5.35089Z" fill="white"/>
<path d="M25.6677 11.9718L26.9918 10.0045V20.043C26.9918 20.5475 27.3197 21.0141 27.8116 21.0772C28.4169 21.1907 28.997 20.6862 28.997 20.0683V14.1157C28.997 14.0022 29.1105 13.9013 29.2114 13.9013H29.7537C29.8672 13.9013 29.9681 14.0148 29.9681 14.1157V20.0683C29.9681 20.5727 30.3212 21.0393 30.7878 21.1024C31.431 21.2159 31.9733 20.7114 31.9733 20.0935V9.99185L33.2975 11.9592C33.474 12.2493 33.8019 12.388 34.1172 12.388C34.3316 12.388 34.5838 12.3123 34.7604 12.1358C35.1513 11.8079 35.1892 11.1647 34.8991 10.7359L32.3264 6.95253C31.8598 6.27152 31.1031 5.88057 30.3212 5.88057H28.6439C27.8242 5.88057 27.0675 6.27152 26.6387 6.95253L24.0534 10.7485C23.7634 11.1395 23.8012 11.7196 24.1669 12.0727C24.6209 12.5519 25.3398 12.4763 25.6677 11.9718Z" fill="white"/>
<path d="M29.5015 5.35089C30.7248 5.35089 31.7211 4.3546 31.7211 3.13131C31.7211 1.90802 30.7248 0.911728 29.5015 0.911728C28.2782 0.911728 27.2819 1.90802 27.2819 3.13131C27.2819 4.3546 28.2782 5.35089 29.5015 5.35089Z" fill="white"/>
</svg>

