<svg xmlns="http://www.w3.org/2000/svg" width="33" height="33" viewBox="0 0 33 33" fill="none">
  <path fill-rule="evenodd" clip-rule="evenodd" d="M11.9175 3.76917C11.2704 3.76917 10.687 4.15899 10.4393 4.75687C10.1917 5.35475 10.3286 6.04294 10.7862 6.50054L11.9175 7.63191V13.6437C11.9175 14.068 11.749 14.475 11.4489 14.7751L5.0489 21.1751C2.02507 24.1989 4.16667 29.3692 8.44301 29.3692H24.992C29.2684 29.3692 31.41 24.1989 28.3862 21.1751L21.9862 14.7751C21.6861 14.475 21.5175 14.068 21.5175 13.6437V7.63191L22.6489 6.50054C23.1065 6.04294 23.2434 5.35475 22.9957 4.75687C22.7481 4.15899 22.1647 3.76917 21.5175 3.76917H11.9175ZM15.1175 13.6437V6.96916H18.3175V13.6437C18.3175 14.9167 18.8232 16.1376 19.7234 17.0378L21.3675 18.6819C20.2206 18.4151 19.018 18.4691 17.8936 18.8439L17.1413 19.0946C15.8276 19.5325 14.4073 19.5325 13.0936 19.0946L12.1937 18.7947C12.1327 18.7744 12.0715 18.756 12.01 18.7395L13.7116 17.0378C14.6118 16.1376 15.1175 14.9167 15.1175 13.6437Z" fill="#2874AF"/>
</svg>
