<svg xmlns="http://www.w3.org/2000/svg" width="20" height="20" viewBox="0 0 20 20" fill="none">
  <path fill-rule="evenodd" clip-rule="evenodd" d="M19.0469 9.59375C19.0469 14.8405 14.7936 19.0938 9.54688 19.0938C4.30017 19.0938 0.046875 14.8405 0.046875 9.59375C0.046875 4.34704 4.30017 0.09375 9.54688 0.09375C14.7936 0.09375 19.0469 4.34704 19.0469 9.59375ZM11.9219 6.03125C11.9219 7.34293 10.8586 8.40625 9.54688 8.40625C8.2352 8.40625 7.17188 7.34293 7.17188 6.03125C7.17188 4.71957 8.2352 3.65625 9.54688 3.65625C10.8586 3.65625 11.9219 4.71957 11.9219 6.03125ZM9.54679 10.7812C7.15096 10.7812 5.08656 12.2003 4.14819 14.2437C5.45478 15.7593 7.38877 16.7188 9.54685 16.7188C11.7049 16.7188 13.6388 15.7593 14.9454 14.2438C14.0071 12.2003 11.9427 10.7812 9.54679 10.7812Z" fill="#2874AF"/>
</svg>
