<svg width="32" height="40" viewBox="0 0 32 40" fill="none" xmlns="http://www.w3.org/2000/svg">
<path d="M19.5942 0.629093H12.4184C6.06235 0.629093 0.891724 5.79972 0.891724 12.1558V14.9681V25.0697C0.891724 25.7508 1.44662 26.293 2.11502 26.293C5.57051 26.293 8.39543 23.4807 8.39543 20.0126C8.39543 16.9733 6.22629 14.4258 3.35092 13.8583V12.1558C3.35092 7.14912 7.42436 3.08829 12.4184 3.08829H19.5942C24.6009 3.08829 28.6618 7.16173 28.6618 12.1558V13.707C25.7864 14.2745 23.6172 16.822 23.6172 19.8613C23.6172 22.9006 25.7864 25.4355 28.6618 26.0156C28.523 30.1016 25.6098 33.5067 21.7508 34.3769C20.8428 33.1031 18.6988 32.2582 16.0126 32.2582C12.4058 32.2582 9.79528 33.7589 9.79528 35.8146C9.79528 37.8702 12.4058 39.3709 16.0126 39.3709C18.9889 39.3709 21.2968 38.3494 22.003 36.8235C27.1988 35.8019 31.1336 31.2114 31.1336 25.7129V24.8932V14.7916V12.1306C31.121 5.79972 25.9503 0.629093 19.5942 0.629093Z" fill="white"/>
</svg>

