<svg width="27" height="27" viewBox="0 0 27 27" fill="none" xmlns="http://www.w3.org/2000/svg">
<path d="M20.4196 6.93148H23.0863C24.559 6.93148 25.7529 8.12539 25.7529 9.59814V17.5981C25.7529 19.0709 24.559 20.2648 23.0863 20.2648H20.4196V25.5981L15.0863 20.2648H9.75293C9.01655 20.2648 8.34988 19.9663 7.86731 19.4838M7.86731 19.4838L12.4196 14.9315H17.7529C19.2257 14.9315 20.4196 13.7376 20.4196 12.2648V4.26481C20.4196 2.79205 19.2257 1.59814 17.7529 1.59814H4.4196C2.94684 1.59814 1.75293 2.79205 1.75293 4.26481V12.2648C1.75293 13.7376 2.94684 14.9315 4.4196 14.9315H7.08626V20.2648L7.86731 19.4838Z" stroke="white" stroke-width="2.5" stroke-linecap="round" stroke-linejoin="round"/>
</svg>
