<svg width="36" height="34" viewBox="0 0 36 34" fill="none" xmlns="http://www.w3.org/2000/svg">
<path d="M22.572 6.59567C22.5724 6.10228 22.4928 5.61208 22.3362 5.14419C22.7145 5.25391 23.0865 5.37497 23.456 5.51495C25.171 6.14547 26.7839 7.10009 28.3174 8.28927L28.3501 8.31702C28.6156 8.52107 28.9447 8.6244 29.2791 8.60865C29.6135 8.59289 29.9315 8.45907 30.1766 8.23096C30.4216 8.00285 30.5779 7.69524 30.6175 7.36281C30.6571 7.03038 30.5776 6.69467 30.3931 6.41534C29.1093 4.47962 27.2581 2.89447 25.1407 1.79609C22.9928 0.699396 20.6207 0.112939 18.2092 0.0823188C15.7976 0.0516985 13.4115 0.57774 11.2363 1.61954C9.09253 2.66243 7.20094 4.20723 5.87557 6.11647C5.68368 6.391 5.59549 6.72475 5.62674 7.05824C5.65799 7.39173 5.80664 7.70329 6.04619 7.9374C6.28575 8.1715 6.60065 8.31294 6.93477 8.3365C7.26889 8.36007 7.60052 8.26423 7.87057 8.06606L7.90588 8.04084C9.47463 6.89833 11.1102 5.99163 12.8379 5.39893C13.109 5.30435 13.3826 5.22112 13.6563 5.14672C13.4456 5.77569 13.3741 6.44295 13.4468 7.10229C13.5195 7.76162 13.7347 8.39727 14.0775 8.96519C14.4202 9.53312 14.8823 10.0197 15.4318 10.3914C15.9812 10.763 16.6049 11.0107 17.2596 11.1174C17.9143 11.2241 18.5844 11.1871 19.2234 11.0092C19.8624 10.8312 20.4551 10.5165 20.9604 10.0867C21.4657 9.65697 21.8716 9.12252 22.1498 8.52038C22.4281 7.91823 22.5721 7.26279 22.572 6.59945V6.59567Z" fill="white"/>
<path d="M14.9728 31.1573L14.94 31.1434C13.0546 30.4147 11.3118 29.3604 9.79114 28.0286C9.30893 27.6015 8.85445 27.144 8.43046 26.6591C9.19987 26.6539 9.95556 26.4548 10.6276 26.0801C11.2997 25.7054 11.8663 25.1673 12.2753 24.5155C12.6842 23.8638 12.9221 23.1194 12.9671 22.3513C13.012 21.5832 12.8625 20.8161 12.5324 20.1211C12.2022 19.4261 11.7022 18.8256 11.0784 18.3751C10.4546 17.9246 9.7273 17.6387 8.96374 17.5438C8.20018 17.449 7.42502 17.5482 6.70999 17.8324C5.99496 18.1166 5.36315 18.5765 4.87301 19.1697C4.79819 18.7115 4.74439 18.2491 4.7116 17.7825C4.57752 15.7634 4.80297 13.7365 5.37744 11.7963L5.38752 11.7609C5.48173 11.4313 5.45373 11.0788 5.30867 10.7681C5.1636 10.4575 4.91124 10.2097 4.59801 10.0704C4.28478 9.93103 3.93177 9.9095 3.60392 10.0097C3.27608 10.11 2.99546 10.3252 2.81371 10.6159C1.48707 12.7383 0.772053 15.2818 0.693867 17.8392C0.616578 20.4365 1.17959 23.013 2.33324 25.3413C2.62384 25.9207 2.94632 26.4836 3.29921 27.0273C3.65568 27.5672 4.04261 28.0863 4.45813 28.5822C5.29162 29.5681 6.24282 30.4482 7.29046 31.2027C9.37373 32.7021 11.8303 33.6743 14.3259 33.8975C14.667 33.9289 15.0079 33.8361 15.286 33.6362C15.5641 33.4364 15.7608 33.1429 15.8399 32.8097C15.9191 32.4765 15.8753 32.1259 15.7167 31.8223C15.5581 31.5188 15.2953 31.2826 14.9766 31.1573H14.9728Z" fill="white"/>
<path d="M33.6339 11.7017C33.4701 11.4068 33.2069 11.1797 32.8913 11.0607C32.5757 10.9417 32.2281 10.9385 31.9103 11.0516C31.5926 11.1648 31.3253 11.387 31.156 11.6788C30.9866 11.9705 30.9263 12.3129 30.9857 12.6449L30.9946 12.6966C31.0786 13.1926 31.1526 13.684 31.2165 14.1708C31.2804 14.6576 31.3182 15.1435 31.33 15.6286C31.3685 16.5867 31.3264 17.5464 31.2039 18.4975C31.1745 18.7186 31.1404 18.9389 31.1017 19.1583C30.6108 18.5694 29.9798 18.1134 29.2666 17.8319C28.5535 17.5504 27.7811 17.4525 27.0203 17.5472C26.2595 17.642 25.5347 17.9263 24.9123 18.374C24.29 18.8218 23.7901 19.4187 23.4585 20.11C23.127 20.8012 22.9743 21.5647 23.0146 22.3303C23.0549 23.096 23.2868 23.8392 23.6891 24.4918C24.0914 25.1445 24.6512 25.6856 25.3171 26.0656C25.983 26.4456 26.7336 26.6523 27.5002 26.6666C27.0256 27.206 26.5141 27.7116 25.9692 28.1799C25.2418 28.809 24.4593 29.3716 23.6312 29.8609C22.7822 30.3604 21.897 30.7959 20.983 31.1636L20.9338 31.1837C20.6197 31.3126 20.362 31.5494 20.2071 31.8516C20.0522 32.1537 20.0104 32.5013 20.0893 32.8316C20.1681 33.1618 20.3624 33.453 20.637 33.6526C20.9117 33.8523 21.2486 33.9472 21.5871 33.9202C23.9957 33.7349 26.3728 32.8382 28.422 31.4498C30.4909 30.0361 32.195 28.1518 33.3943 25.9516C34.6069 23.7533 35.2652 21.2926 35.3124 18.7825C35.3578 16.307 34.8092 13.8202 33.6339 11.7017Z" fill="white"/>
</svg>

