<svg width="33" height="33" viewBox="0 0 33 33" fill="none" xmlns="http://www.w3.org/2000/svg">
<path d="M12.7176 6.93147H10.0509C8.57818 6.93147 7.38428 8.12538 7.38428 9.59813V25.5981C7.38428 27.0709 8.57818 28.2648 10.0509 28.2648H23.3843C24.857 28.2648 26.0509 27.0709 26.0509 25.5981V9.59813C26.0509 8.12538 24.857 6.93147 23.3843 6.93147H20.7176M12.7176 6.93147C12.7176 8.40423 13.9115 9.59813 15.3843 9.59813H18.0509C19.5237 9.59813 20.7176 8.40423 20.7176 6.93147M12.7176 6.93147C12.7176 5.45871 13.9115 4.2648 15.3843 4.2648H18.0509C19.5237 4.2648 20.7176 5.45871 20.7176 6.93147M16.7176 16.2648H20.7176M16.7176 21.5981H20.7176M12.7176 16.2648H12.7309M12.7176 21.5981H12.7309" stroke="#2874AF" stroke-width="2.5" stroke-linecap="round"/>
</svg>
