<svg width="31" height="40" viewBox="0 0 31 40" fill="none" xmlns="http://www.w3.org/2000/svg">
<path d="M19.8428 0.666931C19.9437 0.666931 20.032 0.75521 20.032 0.8561C19.8807 3.50447 17.6863 5.59794 15.0001 5.59794C12.3139 5.59794 10.1195 3.49186 9.9682 0.8561C9.9682 0.75521 10.0439 0.666931 10.1574 0.666931H19.8428V0.666931Z" fill="white"/>
<path d="M29.2761 4.61427L22.6174 1.72628C22.4913 1.67584 22.3399 1.7515 22.3147 1.89023C21.6841 5.35833 18.6448 8.0067 15.0002 8.0067C11.3555 8.0067 8.30357 5.37094 7.68561 1.89023C7.66039 1.7515 7.50906 1.67584 7.38294 1.72628L0.736802 4.61427C0.295407 4.80343 0.0179596 5.23222 0.0179596 5.71145V16.7589C0.0179596 17.0742 0.11885 17.3769 0.333241 17.6039C0.673746 17.9696 1.20342 18.0831 1.65743 17.9065L4.96158 16.595L3.80134 38.072C3.77612 38.5512 4.02834 39.0052 4.49496 39.2196C4.65891 39.2953 4.84808 39.3331 5.02464 39.3331H25.0009C25.1775 39.3331 25.3666 39.2953 25.5306 39.2196C25.9846 39.0052 26.2494 38.5386 26.2242 38.072L25.0639 16.595L28.3681 17.9065C28.8221 18.0831 29.3518 17.9696 29.6923 17.6039C29.9067 17.3769 30.0076 17.0742 30.0076 16.7589V5.71145C29.995 5.23222 29.7175 4.80343 29.2761 4.61427Z" fill="white"/>
</svg>

