<svg width="22" height="23" viewBox="0 0 22 23" fill="none" xmlns="http://www.w3.org/2000/svg">
<path d="M11.0006 10.6387C17.0537 10.6387 21.9857 15.297 21.9857 21.0248C21.9911 21.2015 21.961 21.3775 21.8972 21.5424C21.8333 21.7073 21.737 21.8577 21.6139 21.9846C21.4908 22.1116 21.3435 22.2125 21.1806 22.2815C21.0178 22.3504 20.8428 22.3859 20.666 22.3859C20.4891 22.3859 20.3141 22.3504 20.1513 22.2815C19.9884 22.2125 19.8411 22.1116 19.718 21.9846C19.5949 21.8577 19.4986 21.7073 19.4348 21.5424C19.3709 21.3775 19.3408 21.2015 19.3463 21.0248C19.3463 16.7536 15.6022 13.2781 11.0006 13.2781C6.39899 13.2781 2.65492 16.7536 2.65492 21.0248C2.66038 21.2015 2.63029 21.3775 2.56643 21.5424C2.50256 21.7073 2.40623 21.8577 2.28315 21.9846C2.16006 22.1116 2.01273 22.2125 1.8499 22.2815C1.68706 22.3504 1.51204 22.3859 1.33522 22.3859C1.1584 22.3859 0.983376 22.3504 0.820542 22.2815C0.657707 22.2125 0.510377 22.1116 0.387292 21.9846C0.264207 21.8577 0.167876 21.7073 0.104014 21.5424C0.0401518 21.3775 0.0100591 21.2015 0.0155231 21.0248C0.0155231 15.297 4.94752 10.6387 11.0006 10.6387Z" fill="#2C405A"/>
<path d="M16.8154 9.20487C16.6421 9.20487 16.4704 9.17071 16.3102 9.10436C16.15 9.03801 16.0044 8.94076 15.8818 8.81815C15.7592 8.69555 15.662 8.54999 15.5956 8.3898C15.5293 8.22962 15.4951 8.05793 15.4951 7.88454V2.11772C15.4951 1.76755 15.6342 1.43172 15.8818 1.18411C16.1294 0.936501 16.4653 0.797394 16.8154 0.797394C17.1656 0.797394 17.5014 0.936501 17.7491 1.18411C17.9967 1.43172 18.1358 1.76755 18.1358 2.11772V7.88454C18.1358 8.05793 18.1016 8.22962 18.0353 8.3898C17.9689 8.54999 17.8717 8.69555 17.7491 8.81815C17.6264 8.94076 17.4809 9.03801 17.3207 9.10436C17.1605 9.17071 16.9888 9.20487 16.8154 9.20487V9.20487Z" fill="#2C405A"/>
<path d="M5.18593 9.20486C5.01254 9.20486 4.84085 9.17071 4.68066 9.10436C4.52047 9.03801 4.37492 8.94075 4.25232 8.81815C4.12971 8.69555 4.03246 8.54999 3.9661 8.3898C3.89975 8.22961 3.8656 8.05792 3.8656 7.88454V2.11772C3.8656 1.76755 4.00471 1.43172 4.25232 1.18411C4.49992 0.936499 4.83576 0.797394 5.18593 0.797394C5.5361 0.797394 5.87193 0.936499 6.11954 1.18411C6.36715 1.43172 6.50625 1.76755 6.50625 2.11772V7.88454C6.50625 8.23471 6.36715 8.57054 6.11954 8.81815C5.87193 9.06576 5.5361 9.20486 5.18593 9.20486Z" fill="#2C405A"/>
</svg>

