<svg width="36" height="30" viewBox="0 0 36 30" fill="none" xmlns="http://www.w3.org/2000/svg">
<path d="M16.7137 21.6209C17.0542 21.9614 17.5208 22.1506 18.0126 22.1506C18.5045 22.1506 18.9585 21.9614 19.3116 21.6209L25.819 15.1135C26.5378 14.3947 26.5378 13.247 25.819 12.5282C25.1002 11.8094 23.9525 11.8094 23.2337 12.5282L19.8539 15.908V1.87167C19.8539 0.862763 19.0341 0.0430298 18.0252 0.0430298C17.0163 0.0430298 16.1966 0.862763 16.1966 1.87167V15.9206L12.7916 12.5282C12.0727 11.8094 10.9251 11.8094 10.2062 12.5282C9.4874 13.247 9.4874 14.3947 10.2062 15.1135L16.7137 21.6209Z" fill="white"/>
<path d="M34.0289 12.566C33.02 12.566 32.2002 13.3858 32.2002 14.3947V20.5364C32.2002 23.3739 29.8924 25.6818 27.0548 25.6818H8.94504C6.1075 25.6818 3.79963 23.3739 3.79963 20.5364V14.3947C3.79963 13.3858 2.9799 12.566 1.971 12.566C0.962097 12.566 0.142365 13.3858 0.142365 14.3947V20.5364C0.142365 25.3791 4.08969 29.339 8.94504 29.339H27.0548C31.8976 29.339 35.8575 25.3917 35.8575 20.5364V14.3947C35.8575 13.3858 35.0378 12.566 34.0289 12.566Z" fill="white"/>
</svg>

