<svg width="32" height="40" viewBox="0 0 32 40" fill="none" xmlns="http://www.w3.org/2000/svg">
<path d="M30.402 6.18545L16.4288 0.939163C16.1513 0.838272 15.8612 0.838272 15.5838 0.939163L1.61051 6.19807C1.59789 6.19807 1.59789 6.19807 1.58528 6.21068C1.57267 6.21068 1.56006 6.22329 1.54745 6.22329C1.52223 6.2359 1.50962 6.2359 1.48439 6.24851C1.47178 6.24851 1.45917 6.26112 1.44656 6.26112C1.42134 6.27373 1.3835 6.29896 1.35828 6.31157C1.35828 6.31157 1.34567 6.31157 1.34567 6.32418C1.32045 6.33679 1.29522 6.36201 1.27 6.37462C1.25739 6.38724 1.25739 6.38723 1.24478 6.39985C1.21956 6.41246 1.20694 6.43768 1.19433 6.45029C1.18172 6.4629 1.18172 6.4629 1.16911 6.47551C1.14389 6.50074 1.13128 6.51335 1.11867 6.53857L1.10605 6.55118C1.08083 6.57641 1.06822 6.60163 1.043 6.62685C1.03039 6.63946 1.03039 6.65207 1.03039 6.65207C1.01777 6.67729 1.00517 6.68991 0.992554 6.71513C0.979943 6.72774 0.979941 6.74035 0.96733 6.75296C0.954718 6.76557 0.954719 6.7908 0.942108 6.81602C0.942108 6.82863 0.929497 6.84124 0.929497 6.85385C0.916886 6.87908 0.904275 6.91691 0.891663 6.94213C0.891663 6.95474 0.891663 6.96735 0.879051 6.97997C0.86644 7.00519 0.866441 7.03041 0.866441 7.05563C0.866441 7.06825 0.86644 7.08086 0.853829 7.09347C0.853829 7.11869 0.841217 7.14391 0.841217 7.16914C0.841217 7.18175 0.841217 7.19436 0.841217 7.20697C0.841217 7.2448 0.841217 7.28264 0.841217 7.32047V15.997C0.841217 16.6528 1.3835 17.1951 2.03929 17.1951C2.69507 17.1951 3.23736 16.6528 3.23736 15.997V9.06083L15.5964 13.7018C15.7351 13.7522 15.8739 13.7774 16.0126 13.7774C16.1513 13.7774 16.3026 13.7522 16.4288 13.7018L30.402 8.43026C30.8687 8.25371 31.1839 7.81231 31.1839 7.30786C31.1839 6.80341 30.8687 6.36201 30.402 6.18545Z" fill="white"/>
<path d="M26.215 20.6758C25.9754 20.4993 25.6475 20.5749 25.4836 20.8145C23.4658 23.9043 19.9725 25.9599 16.0125 25.9599C12.0274 25.9599 8.52143 23.8917 6.50363 20.7767C6.33968 20.5245 6.01179 20.4614 5.77217 20.6254C2.84636 22.7062 0.929443 26.1239 0.929443 29.9703V38.3568C0.929443 39.0126 1.47173 39.5549 2.12751 39.5549H29.7966C30.4524 39.5549 30.9947 39.0126 30.9947 38.3568V29.9703C30.9821 26.1491 29.103 22.7567 26.215 20.6758Z" fill="white"/>
<path d="M17.2612 15.934C16.8576 16.0853 16.4288 16.161 16 16.161C15.5713 16.161 15.1425 16.0853 14.7389 15.934L7.71443 13.2982C7.4622 13.1973 7.18475 13.3739 7.14692 13.6513C7.10908 13.9792 7.08386 14.3197 7.08386 14.6602C7.08386 19.5786 11.0816 23.5764 16 23.5764C20.9184 23.5764 24.9162 19.5786 24.9162 14.6602C24.9162 14.3197 24.891 13.9792 24.8532 13.6513C24.8153 13.3739 24.5505 13.2099 24.2856 13.2982L17.2612 15.934Z" fill="white"/>
</svg>

