<svg width="32" height="30" viewBox="0 0 32 30" fill="none" xmlns="http://www.w3.org/2000/svg">
<path d="M30.5912 18.1224H1.40872C1.15649 18.1224 0.954712 18.3242 0.954712 18.5764V28.5645C0.954712 29.2203 1.497 29.7626 2.15278 29.7626H29.8471C30.5029 29.7626 31.0452 29.2203 31.0452 28.5645V18.5764C31.0452 18.3242 30.8434 18.1224 30.5912 18.1224Z" fill="white"/>
<path d="M29.8471 6.15429H22.1417C21.6246 3.22847 19.0771 0.996277 16 0.996277C12.9228 0.996277 10.3753 3.22847 9.85827 6.15429H2.15278C1.497 6.15429 0.954712 6.69657 0.954712 7.35236V15.2722C0.954712 15.5245 1.15649 15.7262 1.40872 15.7262H30.5912C30.8434 15.7262 31.0452 15.5245 31.0452 15.2722V7.35236C31.0452 6.68396 30.5155 6.15429 29.8471 6.15429ZM16 3.39242C17.7403 3.39242 19.2158 4.55266 19.6825 6.15429H12.3175C12.7841 4.56527 14.2596 3.39242 16 3.39242ZM18.5096 13.3301H13.4903C12.8345 13.3301 12.2922 12.7878 12.2922 12.132C12.2922 11.4762 12.8345 10.934 13.4903 10.934H18.5096C19.1654 10.934 19.7077 11.4762 19.7077 12.132C19.7077 12.7878 19.178 13.3301 18.5096 13.3301Z" fill="white"/>
</svg>

