<svg width="44" height="34" viewBox="0 0 44 34" fill="none" xmlns="http://www.w3.org/2000/svg">
<path d="M7.85155 22.7509C8.82061 22.7512 9.76799 22.4641 10.5739 21.926C11.3799 21.3879 12.0082 20.623 12.3794 19.7279C12.7507 18.8327 12.8482 17.8476 12.6596 16.8971C12.4711 15.9466 12.005 15.0732 11.3202 14.3876C10.6354 13.7019 9.7627 13.2347 8.8124 13.0449C7.86209 12.8552 6.87687 12.9514 5.98126 13.3215C5.08566 13.6916 4.31988 14.3189 3.78075 15.1242C3.24162 15.9294 2.95333 16.8764 2.95233 17.8455C2.95233 19.1454 3.4683 20.3922 4.3869 21.3119C5.3055 22.2317 6.55162 22.7493 7.85155 22.7509Z" fill="white"/>
<path d="M10.7192 23.7497H4.98516C3.87776 23.7507 2.816 24.1911 2.03294 24.9741C1.24989 25.7572 0.809534 26.819 0.808533 27.9264V32.8016C0.808533 33.1193 0.934751 33.4241 1.15942 33.6487C1.38409 33.8734 1.68881 33.9996 2.00654 33.9996H13.6978C14.0154 33.9993 14.32 33.873 14.5446 33.6484C14.7692 33.4238 14.8955 33.1192 14.8958 32.8016V27.9264C14.8945 26.8191 14.454 25.7575 13.671 24.9745C12.8881 24.1915 11.8265 23.7511 10.7192 23.7497Z" fill="white"/>
<path d="M21.9994 26.654C22.8428 26.6542 23.6673 26.4044 24.3688 25.9361C25.0702 25.4678 25.617 24.802 25.9401 24.0229C26.2633 23.2439 26.3481 22.3865 26.184 21.5592C26.0199 20.7319 25.6142 19.9718 25.0181 19.3751C24.4221 18.7784 23.6625 18.3718 22.8354 18.2067C22.0083 18.0416 21.1509 18.1254 20.3714 18.4476C19.592 18.7698 18.9256 19.3158 18.4564 20.0167C17.9873 20.7176 17.7365 21.5419 17.7357 22.3853C17.7361 23.5164 18.1852 24.6012 18.9846 25.4016C19.7839 26.2019 20.8682 26.6523 21.9994 26.654Z" fill="white"/>
<path d="M17.143 33.9996H26.8532C27.1172 33.9993 27.3703 33.8942 27.5568 33.7074C27.7434 33.5206 27.8482 33.2674 27.8482 33.0034V30.9605C27.8472 30.0407 27.4813 29.1589 26.831 28.5085C26.1806 27.8581 25.2988 27.4923 24.379 27.4913H19.6185C18.6989 27.4926 17.8174 27.8586 17.1673 28.5089C16.5172 29.1593 16.1516 30.0409 16.1506 30.9605V33.0034C16.1506 33.267 16.255 33.5198 16.441 33.7065C16.627 33.8932 16.8795 33.9986 17.143 33.9996Z" fill="white"/>
<path d="M31.248 17.8455C31.2477 18.8148 31.535 19.7624 32.0733 20.5685C32.6117 21.3746 33.377 22.0029 34.2725 22.3739C35.168 22.745 36.1535 22.8421 37.1042 22.6531C38.0549 22.464 38.9282 21.9973 39.6136 21.3119C40.299 20.6265 40.7658 19.7532 40.9548 18.8024C41.1439 17.8517 41.0467 16.8663 40.6756 15.9708C40.3046 15.0753 39.6763 14.31 38.8702 13.7716C38.0641 13.2332 37.1165 12.946 36.1472 12.9463C34.8484 12.9479 33.6032 13.4646 32.6848 14.383C31.7664 15.3015 31.2497 16.5466 31.248 17.8455Z" fill="white"/>
<path d="M39.0148 23.7497H33.2808C32.1735 23.7511 31.1119 24.1915 30.329 24.9745C29.546 25.7575 29.1055 26.8191 29.1042 27.9264V32.8016C29.1042 33.1193 29.2304 33.4241 29.4551 33.6487C29.6797 33.8734 29.9845 33.9996 30.3022 33.9996H41.9935C42.3112 33.9996 42.6159 33.8734 42.8406 33.6487C43.0652 33.4241 43.1915 33.1193 43.1915 32.8016V27.9264C43.1901 26.8191 42.7497 25.7575 41.9667 24.9745C41.1837 24.1915 40.1221 23.7511 39.0148 23.7497Z" fill="white"/>
<path d="M28.3829 3.081C28.2212 2.74658 28.0224 2.43143 27.7902 2.14151C27.4411 1.71286 27.0019 1.3663 26.5038 1.12645C26.0057 0.886592 25.4609 0.759318 24.908 0.753661C24.3552 0.748004 23.808 0.864102 23.305 1.09371C22.8021 1.32332 22.3559 1.66082 21.9981 2.08225C21.6404 1.66084 21.1943 1.32336 20.6915 1.09375C20.1887 0.864148 19.6415 0.748052 19.0888 0.753709C18.5361 0.759366 17.9914 0.886637 17.4934 1.12649C16.9954 1.36634 16.5563 1.71288 16.2073 2.14151C15.9747 2.43112 15.7758 2.74632 15.6146 3.081C15.1439 4.04747 14.9789 5.13446 15.1417 6.19708C15.3007 7.2587 15.7682 8.25019 16.486 9.04833L21.5946 14.7382C21.6451 14.795 21.7071 14.8404 21.7764 14.8715C21.8457 14.9027 21.9209 14.9187 21.9969 14.9187C22.0729 14.9187 22.148 14.9027 22.2173 14.8715C22.2867 14.8404 22.3486 14.795 22.3991 14.7382L27.5077 9.04833C28.2264 8.25059 28.6943 7.25897 28.8533 6.19708C29.0163 5.13472 28.8522 4.04791 28.3829 3.081Z" fill="white"/>
</svg>

