<svg width="32" height="40" viewBox="0 0 32 40" fill="none" xmlns="http://www.w3.org/2000/svg">
<path d="M30.339 23.2285C29.6958 22.1691 28.7878 21.2233 27.6402 20.4288C25.4332 18.8902 22.5326 18.0453 19.4681 18.0453H17.9674V8.14541H18.3457C20.5779 8.14541 22.7344 8.75075 24.273 9.8227C24.9666 10.3019 26.0764 11.2604 26.3034 12.5972C26.3539 12.8872 26.6061 13.089 26.8961 13.089H29.6454C30.0111 13.089 30.2886 12.7737 30.2507 12.4206C30.1499 11.3613 29.7967 10.3398 29.2166 9.3687C28.5734 8.30935 27.6654 7.36351 26.5178 6.569C24.3108 5.03042 21.4102 4.18547 18.3457 4.18547H17.9674V1.18398C17.9674 0.729977 17.6016 0.36425 17.1476 0.36425H14.8398C14.3858 0.36425 14.02 0.729977 14.02 1.18398V4.18547H12.5193C9.45475 4.18547 6.55416 5.03042 4.34719 6.569C3.19956 7.36351 2.30416 8.29674 1.64837 9.3687C0.942143 10.5415 0.576416 11.7901 0.576416 13.089C0.576416 14.388 0.942143 15.6365 1.64837 16.8093C2.29155 17.8687 3.19956 18.8145 4.34719 19.6091C6.55416 21.1476 9.45475 21.9926 12.5193 21.9926H14.0326V31.8924H12.5319C10.2997 31.8924 8.14318 31.2871 6.6046 30.2151C5.91098 29.7359 4.80119 28.7775 4.57419 27.4407C4.52374 27.1506 4.27152 26.9488 3.98146 26.9488H1.2322C0.866475 26.9488 0.589027 27.2641 0.62686 27.6172C0.727751 28.6766 1.08087 29.6981 1.66098 30.6691C2.30416 31.7285 3.21217 32.6743 4.3598 33.4688C6.56677 35.0074 9.46736 35.8524 12.5319 35.8524H14.0326V38.816C14.0326 39.27 14.3984 39.6358 14.8524 39.6358H17.1602C17.6142 39.6358 17.98 39.27 17.98 38.816V35.8524H19.4807C22.5453 35.8524 25.4458 35.0074 27.6528 33.4688C28.8004 32.6743 29.6958 31.7411 30.3516 30.6691C31.0579 29.4963 31.4236 28.2478 31.4236 26.9488C31.411 25.6499 31.0452 24.3887 30.339 23.2285ZM12.5319 18.0579C10.2997 18.0579 8.14318 17.4525 6.6046 16.3806C5.83532 15.8383 4.53636 14.7033 4.53636 13.1016C4.53636 11.5 5.83532 10.365 6.6046 9.8227C8.14318 8.76336 10.2997 8.14541 12.5319 8.14541H14.0326V18.0453H12.5319V18.0579ZM25.3954 30.2277C23.8568 31.2871 21.7003 31.905 19.4681 31.905H17.9674V22.0052H19.4681C21.7003 22.0052 23.8568 22.6105 25.3954 23.6825C26.1647 24.2248 27.4636 25.3598 27.4636 26.9614C27.4636 28.5378 26.1647 29.6855 25.3954 30.2277Z" fill="white"/>
</svg>

