<svg width="31" height="40" viewBox="0 0 31 40" fill="none" xmlns="http://www.w3.org/2000/svg">
<path d="M12.528 0.743713C11.8722 0.743713 11.33 1.286 11.33 1.94178V11.3246C11.33 12.9766 9.98055 14.3261 8.32848 14.3261H5.40266C3.75058 14.3261 2.40118 12.9766 2.40118 11.3246V1.94178C2.40118 1.286 1.85889 0.743713 1.20311 0.743713C0.54732 0.743713 0.0050354 1.286 0.0050354 1.94178V11.3246C0.0050354 13.6703 1.50578 15.6629 3.58664 16.4069V36.0427C3.58664 37.8587 5.06216 39.3216 6.86557 39.3216C8.66898 39.3216 10.1445 37.8461 10.1445 36.0427V16.4195C12.2254 15.6755 13.7261 13.6703 13.7261 11.3372V1.9544C13.7261 1.286 13.1838 0.743713 12.528 0.743713Z" fill="white"/>
<path d="M4.98643 11.9677C5.64222 11.9677 6.1845 11.4254 6.1845 10.7696V1.92909C6.1845 1.2733 5.64222 0.731018 4.98643 0.731018C4.33065 0.731018 3.78836 1.2733 3.78836 1.92909V10.7696C3.78836 11.438 4.33065 11.9677 4.98643 11.9677Z" fill="white"/>
<path d="M8.83293 11.9677C9.48871 11.9677 10.031 11.4254 10.031 10.7696V1.92909C10.031 1.2733 9.48871 0.731018 8.83293 0.731018C8.17714 0.731018 7.63486 1.2733 7.63486 1.92909V10.7696C7.63486 11.438 8.16453 11.9677 8.83293 11.9677Z" fill="white"/>
<path d="M24.6095 0.679504H20.473C19.8172 0.679504 19.275 1.22179 19.275 1.87758V36.0415C19.275 37.8576 20.7505 39.3205 22.5539 39.3205C24.3573 39.3205 25.8328 37.8449 25.8328 36.0415V24.3635H28.8091C29.4649 24.3635 30.0072 23.8212 30.0072 23.1654V6.07713C30.0198 3.10087 27.5858 0.679504 24.6095 0.679504Z" fill="white"/>
</svg>

