<svg width="36" height="36" viewBox="0 0 36 36" fill="none" xmlns="http://www.w3.org/2000/svg">
<path d="M22.3509 18C22.3509 20.3961 20.4088 22.3509 18 22.3509C15.5913 22.3509 13.6491 20.4088 13.6491 18C13.6491 15.5912 15.5913 13.6491 18 13.6491C20.4088 13.6491 22.3509 15.6039 22.3509 18ZM35.3783 16.9154V19.0846C35.3783 20.2826 34.4073 21.2537 33.2092 21.2537H30.6113C30.3086 22.4266 29.842 23.5616 29.224 24.6083L31.0401 26.4496C31.885 27.2945 31.885 28.6691 31.0401 29.5267L29.5267 31.0401C28.6818 31.885 27.3071 31.885 26.4496 31.0401L24.6083 29.1988C23.5616 29.8168 22.4392 30.296 21.2537 30.6113V33.2092C21.2537 34.4073 20.2826 35.3783 19.0846 35.3783H16.9154C15.7174 35.3783 14.7463 34.4073 14.7463 33.2092V30.6113C13.5735 30.3086 12.4384 29.842 11.3917 29.224L9.55046 31.0401C8.7055 31.885 7.33087 31.885 6.4733 31.0401L4.95995 29.5267C4.115 28.6817 4.115 27.3071 4.95995 26.4496L6.8012 24.6083C6.18324 23.5616 5.70402 22.4392 5.38874 21.2537H2.79081C1.59274 21.2537 0.621674 20.2826 0.621674 19.0846V16.9154C0.621674 15.7174 1.59274 14.7463 2.79081 14.7463H5.38874C5.69141 13.5734 6.15802 12.4384 6.77598 11.3917L4.95995 9.55044C4.115 8.70549 4.115 7.33086 4.95995 6.47329L6.4733 4.95994C7.31826 4.11498 8.69289 4.11498 9.55046 4.95994L11.3917 6.80118C12.4384 6.18323 13.5608 5.704 14.7463 5.38872V2.7908C14.7463 1.59273 15.7174 0.621658 16.9154 0.621658H19.0846C20.2826 0.621658 21.2537 1.59273 21.2537 2.7908V5.38872C22.4266 5.69139 23.5616 6.15801 24.6083 6.77596L26.4496 4.95994C27.2945 4.11498 28.6691 4.11498 29.5267 4.95994L31.0401 6.47329C31.885 7.31825 31.885 8.69288 31.0401 9.55044L29.1988 11.3917C29.8168 12.4384 30.296 13.5608 30.6113 14.7463H33.2092C34.4073 14.7463 35.3783 15.7174 35.3783 16.9154ZM25.6046 18C25.6046 13.8004 22.1996 10.3954 18 10.3954C13.8005 10.3954 10.3954 13.8004 10.3954 18C10.3954 22.1996 13.8005 25.6046 18 25.6046C22.1996 25.6046 25.6046 22.1996 25.6046 18Z" fill="white"/>
</svg>

