<svg width="32" height="40" viewBox="0 0 32 40" fill="none" xmlns="http://www.w3.org/2000/svg">
<path d="M29.8472 3.16393H2.16543C1.48442 3.16393 0.942139 2.62165 0.942139 1.94064C0.942139 1.25963 1.48442 0.717346 2.16543 0.717346H29.8472C30.5282 0.717346 31.0705 1.25963 31.0705 1.94064C31.0705 2.62165 30.5156 3.16393 29.8472 3.16393Z" fill="white"/>
<path d="M26.3539 6.99776H5.65875C4.97774 6.99776 4.43546 6.45548 4.43546 5.77447C4.43546 5.09346 4.97774 4.55118 5.65875 4.55118H26.3539C27.0349 4.55118 27.5771 5.09346 27.5771 5.77447C27.5771 6.45548 27.0222 6.99776 26.3539 6.99776Z" fill="white"/>
<path d="M8.37017 31.4384C7.68917 31.4384 7.14688 30.8961 7.14688 30.2151V9.52003C7.14688 8.83902 7.68917 8.29674 8.37017 8.29674C9.05118 8.29674 9.59346 8.83902 9.59346 9.52003V30.2151C9.59346 30.8835 9.05118 31.4384 8.37017 31.4384Z" fill="white"/>
<path d="M23.7307 31.4384C23.0497 31.4384 22.5074 30.8961 22.5074 30.2151V9.52003C22.5074 8.83902 23.0497 8.29674 23.7307 8.29674C24.4117 8.29674 24.954 8.83902 24.954 9.52003V30.2151C24.954 30.8835 24.4117 31.4384 23.7307 31.4384Z" fill="white"/>
<path d="M18.6105 31.4384C17.9295 31.4384 17.3872 30.8961 17.3872 30.2151V9.52003C17.3872 8.83902 17.9295 8.29674 18.6105 8.29674C19.2915 8.29674 19.8338 8.83902 19.8338 9.52003V30.2151C19.8338 30.8835 19.2789 31.4384 18.6105 31.4384Z" fill="white"/>
<path d="M13.4904 31.7032C12.8093 31.7032 12.2671 31.161 12.2671 30.48V9.78485C12.2671 9.10384 12.8093 8.56155 13.4904 8.56155C14.1714 8.56155 14.7136 9.10384 14.7136 9.78485V30.48C14.7136 31.161 14.1714 31.7032 13.4904 31.7032Z" fill="white"/>
<path d="M26.3539 35.5245H5.65875C4.97774 35.5245 4.43546 34.9822 4.43546 34.3012C4.43546 33.6202 4.97774 33.0779 5.65875 33.0779H26.3539C27.0349 33.0779 27.5771 33.6202 27.5771 34.3012C27.5771 34.9822 27.0222 35.5245 26.3539 35.5245Z" fill="white"/>
<path d="M29.8472 39.2826H2.16543C1.48442 39.2826 0.942139 38.7403 0.942139 38.0593C0.942139 37.3783 1.48442 36.836 2.16543 36.836H29.8472C30.5282 36.836 31.0705 37.3783 31.0705 38.0593C31.0705 38.7403 30.5156 39.2826 29.8472 39.2826Z" fill="white"/>
</svg>

