<svg width="36" height="36" viewBox="0 0 36 36" fill="none" xmlns="http://www.w3.org/2000/svg">
<path d="M18.0006 35.4398C27.632 35.4398 35.4398 27.632 35.4398 18.0006C35.4398 8.36924 27.632 0.561462 18.0006 0.561462C8.36924 0.561462 0.561462 8.36924 0.561462 18.0006C0.561462 27.632 8.36924 35.4398 18.0006 35.4398Z" fill="white"/>
<path d="M18.0044 30.3476C11.3498 30.3476 5.93481 25.2277 5.93481 18.935C5.93481 18.5504 6.08759 18.1815 6.35956 17.9096C6.63153 17.6376 7.00041 17.4848 7.38503 17.4848C7.76965 17.4848 8.13853 17.6376 8.4105 17.9096C8.68247 18.1815 8.83525 18.5504 8.83525 18.935C8.83525 23.6287 12.9488 27.4472 18.0044 27.4472C23.06 27.4472 27.1735 23.6287 27.1735 18.935C27.1735 18.5504 27.3263 18.1815 27.5983 17.9096C27.8702 17.6376 28.2391 17.4848 28.6237 17.4848C29.0084 17.4848 29.3773 17.6376 29.6492 17.9096C29.9212 18.1815 30.074 18.5504 30.074 18.935C30.0702 25.2277 24.6565 30.3476 18.0044 30.3476Z" fill="#2C405A"/>
<path d="M23.012 17.2868C22.6274 17.2868 22.2585 17.134 21.9866 16.8621C21.7146 16.5901 21.5618 16.2212 21.5618 15.8366V9.49733C21.5618 9.11271 21.7146 8.74383 21.9866 8.47186C22.2585 8.1999 22.6274 8.04712 23.012 8.04712C23.3967 8.04712 23.7656 8.1999 24.0375 8.47186C24.3095 8.74383 24.4623 9.11271 24.4623 9.49733V15.8329C24.4628 16.0237 24.4256 16.2127 24.3529 16.3891C24.2802 16.5654 24.1736 16.7258 24.0389 16.8608C23.9042 16.9959 23.7441 17.103 23.5679 17.1761C23.3918 17.2492 23.2028 17.2868 23.012 17.2868Z" fill="#2C405A"/>
<path d="M12.9893 17.2868C12.6047 17.2868 12.2358 17.134 11.9638 16.8621C11.6918 16.5901 11.5391 16.2212 11.5391 15.8366V9.49733C11.5391 9.11271 11.6918 8.74383 11.9638 8.47186C12.2358 8.1999 12.6047 8.04712 12.9893 8.04712C13.3739 8.04712 13.7427 8.1999 14.0146 8.47186C14.2866 8.74383 14.4395 9.11271 14.4395 9.49733V15.8329C14.44 16.0237 14.4028 16.2127 14.3301 16.3891C14.2575 16.5654 14.1507 16.7258 14.016 16.8608C13.8813 16.9959 13.7212 17.103 13.5451 17.1761C13.3689 17.2492 13.18 17.2868 12.9893 17.2868Z" fill="#2C405A"/>
</svg>

