<svg width="32" height="40" viewBox="0 0 32 40" fill="none" xmlns="http://www.w3.org/2000/svg">
<path d="M30.1497 5.83753C29.784 5.08086 29.3426 4.37463 28.8382 3.75667C27.2113 1.73887 24.7773 0.629078 22.1794 0.679523C19.7706 0.742579 17.5511 1.80193 15.9999 3.61795C14.4613 1.80193 12.2417 0.729968 9.82035 0.679523C7.22243 0.616467 4.78845 1.73887 3.16159 3.75667C2.65714 4.37463 2.21575 5.08086 1.85002 5.83753C0.803284 7.98145 0.45017 10.365 0.803286 12.7485C1.1564 15.1068 2.19053 17.2886 3.77955 19.0668L15.1045 31.678C15.3315 31.9303 15.6594 32.0816 15.9999 32.0816C16.3404 32.0816 16.6683 31.9429 16.8953 31.678L28.2202 19.0668C29.8218 17.2886 30.8433 15.1068 31.1965 12.7485C31.5496 10.365 31.1965 7.98145 30.1497 5.83753Z" fill="white"/>
<path d="M15.9998 39.3205C15.6593 39.3205 15.3314 39.1692 15.1044 38.9169L8.47091 31.4889L6.90711 34.1499C6.69272 34.5156 6.30177 34.7426 5.87299 34.7426H2.05177C1.39598 34.7426 0.853699 34.2003 0.853699 33.5445C0.853699 32.8887 1.39598 32.3464 2.05177 32.3464H5.19198L7.24761 28.8531C7.43678 28.5252 7.77729 28.3108 8.16824 28.273C8.54657 28.2352 8.92491 28.3865 9.17714 28.6639L16.0124 36.3064L25.7357 25.3346C26.0636 24.9562 26.5933 24.8301 27.0599 25.0067C27.5265 25.1832 27.8292 25.6246 27.8292 26.1291V32.3464H29.9731C30.6289 32.3464 31.1712 32.8887 31.1712 33.5445C31.1712 34.2003 30.6289 34.7426 29.9731 34.7426H26.6311C25.9754 34.7426 25.4331 34.2003 25.4331 33.5445V29.2945L16.9205 38.9043C16.6682 39.1692 16.353 39.3205 15.9998 39.3205Z" fill="white"/>
</svg>

