<svg width="16" height="19" viewBox="0 0 16 19" fill="none" xmlns="http://www.w3.org/2000/svg">
<path d="M15.0245 7.02671L8.40358 0.405793C8.18919 0.191401 7.82347 0.191401 7.60908 0.405793L0.988153 7.02671C0.824207 7.19066 0.773762 7.43027 0.862041 7.64466C0.950319 7.85906 1.1521 7.99778 1.3791 7.99778H14.6209C14.848 7.99778 15.0497 7.85906 15.138 7.64466C15.2263 7.43027 15.1885 7.19066 15.0245 7.02671Z" fill="white"/>
<path d="M7.29376 18.4525H8.70623C8.76929 18.4525 8.81973 18.4021 8.81973 18.339V12.3361C8.81973 12.2856 8.7819 12.2478 8.73145 12.2478H7.26854C7.2181 12.2478 7.18026 12.2856 7.18026 12.3361V18.339C7.18026 18.4021 7.23071 18.4525 7.29376 18.4525Z" fill="white"/>
<path d="M13.3346 9.12019H2.66547C2.35019 9.12019 2.09796 9.37241 2.09796 9.68769V17.8976C2.09796 18.2129 2.35019 18.4651 2.66547 18.4651H5.93179C5.99484 18.4651 6.04529 18.4147 6.04529 18.3516V11.6929C6.04529 11.3776 6.29752 11.1254 6.6128 11.1254H9.38728C9.70256 11.1254 9.95479 11.3776 9.95479 11.6929V18.3516C9.95479 18.4147 10.0052 18.4651 10.0683 18.4651H13.3346C13.6499 18.4651 13.9021 18.2129 13.9021 17.8976V9.68769C13.9021 9.37241 13.6499 9.12019 13.3346 9.12019Z" fill="white"/>
</svg>

