<svg width="32" height="40" viewBox="0 0 32 40" fill="none" xmlns="http://www.w3.org/2000/svg">
<path d="M24.7649 26.4696C28.233 26.4696 31.0453 23.6447 31.0453 20.1892C31.0453 20.0757 31.0327 19.9622 30.9949 19.8613L26.2657 3.06307H29.822C30.4778 3.06307 31.0201 2.52079 31.0201 1.865C31.0201 1.20922 30.4778 0.666931 29.822 0.666931H2.21598C1.56019 0.666931 1.0179 1.20922 1.0179 1.865C1.0179 2.52079 1.56019 3.06307 2.21598 3.06307H5.73452L0.980071 19.8613C0.954848 19.9622 0.929626 20.0757 0.929626 20.1892C0.929626 23.6573 3.75455 26.4696 7.21004 26.4696C10.6655 26.4696 13.4905 23.6447 13.4905 20.1892C13.4905 20.0757 13.4778 19.9622 13.44 19.8613L8.68556 3.06307H14.7894V29.4963L6.41553 37.2649C6.0498 37.6054 5.9363 38.1224 6.11286 38.5764C6.28942 39.0304 6.73081 39.3331 7.22265 39.3331H24.7145C25.2063 39.3331 25.6477 39.0304 25.8243 38.5764C26.0008 38.1224 25.8873 37.5927 25.5216 37.2649L17.2234 29.5089V3.06307H23.2768L18.5223 19.8613C18.4971 19.9622 18.4719 20.0757 18.4719 20.1892C18.4845 23.6573 21.3094 26.4696 24.7649 26.4696ZM3.72933 18.9911L7.23526 6.59423L10.7412 18.9911H3.72933ZM21.2716 18.9911L24.7775 6.59423L28.2835 18.9911H21.2716Z" fill="white"/>
</svg>

