<?xml version="1.0" encoding="UTF-8" standalone="no"?>
<!DOCTYPE svg PUBLIC "-//W3C//DTD SVG 1.1//EN" "http://www.w3.org/Graphics/SVG/1.1/DTD/svg11.dtd">
<svg width="100%" height="100%" viewBox="0 0 48 48" version="1.1" xmlns="http://www.w3.org/2000/svg" xmlns:xlink="http://www.w3.org/1999/xlink" xml:space="preserve" xmlns:serif="http://www.serif.com/" style="fill-rule:evenodd;clip-rule:evenodd;stroke-linejoin:round;stroke-miterlimit:2;">
    <g transform="matrix(1.86588,0,0,1.86588,-20.7851,-17.5696)">
        <path d="M23.925,25.465L28.258,21.131C30.651,18.738 30.651,14.858 28.258,12.465C25.865,10.072 21.985,10.072 19.592,12.465C17.199,14.858 17.199,18.738 19.592,21.131L23.925,25.465ZM22.216,14.962C23.178,14.066 24.672,14.066 25.634,14.962C26.687,15.943 26.631,17.639 25.613,18.657C24.681,19.589 23.169,19.589 22.236,18.657C21.219,17.639 21.163,15.943 22.216,14.962Z" style="fill:rgb(40,116,175);fill-rule:nonzero;"/>
        <path d="M24.29,27.724C26.971,27.707 29.155,26.88 29.859,25.627C30.303,24.835 29.948,24.058 29.238,23.475C28.934,23.225 28.617,23.054 28.299,22.88L27.975,23.202C27.977,23.201 28.145,23.312 28.162,23.322C28.859,23.761 29.108,24.511 28.669,25.267C27.918,26.561 25.729,26.973 24.212,26.982C23.809,26.991 23.502,27.173 23.5,27.338C23.501,27.518 23.825,27.721 24.29,27.723L24.29,27.724Z" style="fill:rgb(40,116,175);fill-rule:nonzero;"/>
        <path d="M15.303,29.997C13.341,28.637 12.551,26.883 13.135,25.185L13.259,24.824C13.559,24.732 13.939,24.603 14.198,24.374C14.427,24.17 14.393,24.076 14.146,23.985C13.449,23.733 11.985,24.069 11.561,24.575C11.525,24.617 11.484,24.663 11.495,24.722C11.514,24.827 11.663,24.859 11.984,24.961L11.747,25.43C10.78,27.351 11.397,29.335 13.484,31.015C13.828,31.29 14.808,31.151 15.284,30.567C15.445,30.369 15.515,30.144 15.303,29.997L15.303,29.997Z" style="fill:rgb(40,116,175);fill-rule:nonzero;"/>
        <path d="M36.427,26.045C36.311,25.759 35.371,25.467 35.015,25.634C35.484,27.473 34.429,29.276 32.09,30.584C29.091,32.254 24.637,32.797 20.465,32.001L19.777,31.868L19.741,31.659C19.502,30.731 18.3,30.522 17.353,30.749C15.405,31.224 14.408,33.235 15.936,33.956C16.726,34.326 17.779,34.129 18.542,33.684C18.603,33.648 18.617,33.636 18.827,33.492C20.548,33.859 21.998,34.127 24.25,34.129C32.193,34.135 38.089,30.246 36.427,26.045L36.427,26.045Z" style="fill:rgb(40,116,175);fill-rule:nonzero;"/>
        <path d="M31.934,25.046C32.051,25.88 31.692,26.693 30.893,27.397C30.726,27.544 31.052,27.796 31.252,27.895C31.463,27.998 31.713,28.057 31.94,28.058C32.211,28.054 32.343,27.989 32.404,27.927C34.038,26.229 33.354,24.427 31.464,23.125C30.684,22.587 29.983,22.299 29.183,21.998L29.051,22.132C29.184,22.191 29.317,22.249 29.45,22.308C30.525,22.78 31.763,23.831 31.934,25.046L31.934,25.046Z" style="fill:rgb(40,116,175);fill-rule:nonzero;"/>
        <path d="M14.918,22.887C15.917,22.129 16.898,21.717 18.062,21.304L18.022,21.242C16.553,21.683 15.257,22.16 13.938,23.065C14.256,23.135 14.727,23.032 14.918,22.887Z" style="fill:rgb(40,116,175);fill-rule:nonzero;"/>
        <path d="M16.062,27.986C17.778,29.54 20.811,30.475 24.175,30.487C25.874,30.491 26.961,30.284 28.153,30.055C29.004,30.474 29.818,30.474 30.348,30.26C31.368,29.851 31.044,28.853 29.933,28.332C29.296,28.036 28.544,27.969 27.969,28.157C27.557,28.294 27.302,28.551 27.269,28.859L27.25,29.032L26.658,29.131C20.936,30.084 15.383,27.523 16.338,24.485C16.584,23.705 17.247,22.996 18.265,22.423L18.809,22.134L18.654,21.979C18.059,22.229 17.152,22.567 16.276,23.259C14.537,24.631 14.322,26.403 16.063,27.986L16.062,27.986Z" style="fill:rgb(40,116,175);fill-rule:nonzero;"/>
        <path d="M18.052,24.666C17.983,25.486 18.621,25.996 19.163,26.495C19.078,26.659 18.995,26.782 19.041,26.955C19.158,27.382 19.883,27.552 20.362,27.554C20.961,27.558 21.857,27.323 22.103,26.807C22.164,26.676 22.164,26.555 22.103,26.435C21.944,26.133 21.426,25.924 20.815,25.92C20.605,25.916 20.406,25.952 20.211,25.985C19.936,25.748 19.697,25.565 19.501,25.251C19.166,24.714 19.161,24.085 19.63,23.516C19.711,23.417 19.792,23.317 19.884,23.205L19.56,22.882C19.181,23.118 18.996,23.221 18.77,23.422C18.401,23.75 18.092,24.178 18.052,24.666L18.052,24.666Z" style="fill:rgb(40,116,175);fill-rule:nonzero;"/>
        <path d="M35.667,24.233C35.433,24.135 35.223,24.086 35.004,24.036C33.634,22.898 32.362,22.086 29.772,21.329L29.742,21.365C31.399,21.929 32.877,22.675 34.078,23.957C33.579,24.032 33.68,24.263 33.703,24.306C34.1,24.769 35.193,25.021 35.786,24.982C36.189,24.963 36.378,24.85 36.378,24.779C36.378,24.679 36.189,24.449 35.667,24.232L35.667,24.233Z" style="fill:rgb(40,116,175);fill-rule:nonzero;"/>
    </g>
</svg>
