<svg width="32" height="39" viewBox="0 0 32 39" fill="none" xmlns="http://www.w3.org/2000/svg">
<path d="M22.775 12.4254H22.3853V5.40135C22.3853 4.06353 21.8539 2.78051 20.9079 1.83454C19.9619 0.888561 18.6789 0.357117 17.3411 0.357117H14.6601C13.3223 0.357117 12.0393 0.888561 11.0933 1.83454C10.1473 2.78051 9.61587 4.06353 9.61587 5.40135V12.4254H9.2262C7.04402 12.4291 4.95226 13.2976 3.40922 14.8406C1.86618 16.3837 0.997686 18.4754 0.994019 20.6576V30.6515C0.996689 32.8352 1.86543 34.9287 3.40967 36.4727C4.95391 38.0167 7.04753 38.8851 9.23125 38.8875H22.775C24.9578 38.8838 27.0502 38.0148 28.5933 36.4709C30.1365 34.9271 31.0045 32.8343 31.0072 30.6515V20.6576C31.0035 18.4754 30.135 16.3837 28.592 14.8406C27.049 13.2976 24.9572 12.4291 22.775 12.4254ZM12.0119 5.40135C12.0119 4.69899 12.2909 4.02541 12.7875 3.52877C13.2842 3.03213 13.9577 2.75313 14.6601 2.75313H17.3411C18.0435 2.75313 18.717 3.03213 19.2137 3.52877C19.7103 4.02541 19.9893 4.69899 19.9893 5.40135V12.4254H12.0119V5.40135ZM28.6112 30.6515C28.6092 32.2 27.9931 33.6844 26.898 34.7792C25.803 35.874 24.3184 36.4898 22.77 36.4914H9.2262C7.67862 36.4884 6.19534 35.8721 5.10138 34.7774C4.00743 33.6828 3.39203 32.1991 3.39003 30.6515V20.6576C3.39303 19.1107 4.00887 17.628 5.10272 16.5341C6.19656 15.4403 7.67927 14.8244 9.2262 14.8214H22.775C24.3219 14.8244 25.8046 15.4403 26.8985 16.5341C27.9923 17.628 28.6082 19.1107 28.6112 20.6576V30.6515Z" fill="white"/>
</svg>

