<svg xmlns="http://www.w3.org/2000/svg" width="26" height="32" viewBox="0 0 26 32" fill="none">
  <g clip-path="url(#clip0_18868_5127)">
    <path d="M21.0117 16.0177C18.6778 15.116 15.9991 16.1629 15.038 18.3512C14.3328 19.9566 14.8578 21.9173 16.2822 23.4261C16.2388 23.4234 16.1955 23.4202 16.153 23.4166C15.7629 23.3821 15.4174 23.6534 15.3819 24.0194C15.3465 24.3857 15.634 24.7095 16.0245 24.7427C16.2116 24.7588 16.4092 24.7665 16.615 24.7665C19.0448 24.7665 22.6035 23.6602 23.4991 21.6217C23.9649 20.5617 23.9624 19.3948 23.4927 18.3363C23.0228 17.2779 22.1418 16.4544 21.012 16.0177H21.0117ZM22.1868 21.1143C21.7387 22.1341 19.9616 22.9579 18.205 23.285C16.7385 22.2482 15.6559 20.4396 16.3503 18.8586C16.6714 18.1272 17.2772 17.5571 18.0552 17.2532C18.4463 17.1005 18.8574 17.0242 19.2684 17.0242C19.6794 17.0242 20.0832 17.0993 20.4711 17.249C21.2507 17.5503 21.8584 18.1183 22.1824 18.8485C22.5066 19.5787 22.5082 20.3835 22.1868 21.1146V21.1143Z" fill="#2874AF"/>
    <path d="M21.8334 14.1479C20.5145 13.6381 19.0911 13.5362 17.7304 13.8389C17.7737 12.5844 17.7839 10.5592 17.7839 7.98299C17.7839 6.07577 16.824 4.08092 15.1508 2.50998C13.4515 0.91499 11.2513 0 9.11446 0C6.97758 0 4.77738 0.91499 3.07782 2.51028C1.40455 4.08092 0.445046 6.07577 0.445046 7.98329C0.445046 8.48653 0.443779 9.1095 0.442196 9.80554C0.434913 13.0413 0.424146 17.9308 0.536246 19.7154C0.549863 19.9334 0.67463 20.1203 0.855131 20.2317C0.74303 20.5537 0.664497 20.8909 0.625863 21.2408L0.0216612 26.7367C-0.0980392 27.8276 0.282279 28.9202 1.0654 29.7342C1.8482 30.5482 2.96762 31.0152 4.13644 31.0152H13.2349C13.2862 31.071 13.3458 31.1213 13.418 31.1599C13.6691 31.2947 13.9335 31.4159 14.203 31.5199C15.0304 31.8399 15.8991 31.9997 16.7677 31.9997C17.6363 31.9997 18.5211 31.8369 19.3549 31.511C21.0145 30.8628 22.3059 29.6466 22.9908 28.0872L25.4922 22.3917C26.9061 19.1723 25.2645 15.474 21.8331 14.1476L21.8334 14.1479ZM1.86118 9.80822C1.86277 9.11098 1.86403 8.48742 1.86403 7.98299C1.86403 4.62605 5.45536 1.33149 9.11414 1.33149C12.7729 1.33149 16.3642 4.62634 16.3642 7.98299C16.3642 10.577 16.3544 13.1224 16.2882 14.3258C15.0026 14.9197 13.9674 15.8679 13.3068 17.056C12.9316 16.9748 12.5468 16.9333 12.1586 16.9333H5.71376C4.20674 16.9333 2.84602 17.5414 1.9071 18.5217C1.8463 16.3115 1.85485 12.4896 1.86087 9.80792L1.86118 9.80822ZM2.11927 28.8421C1.5974 28.2993 1.35388 27.6 1.43337 26.8731L2.03693 21.3772C2.232 19.6028 3.81249 18.2647 5.71408 18.2647H12.1589C12.3499 18.2647 12.5395 18.279 12.7267 18.3063L10.5439 23.2758C10.1734 24.1189 10.0065 25.0015 10.0413 25.9025H5.304C4.91196 25.9025 4.59434 26.2005 4.59434 26.5683C4.59434 26.9361 4.91196 27.234 5.304 27.234H14.07C14.7898 27.234 15.3753 27.7836 15.3753 28.4589C15.3753 29.1341 14.7898 29.6837 14.07 29.6837H4.13676C3.35776 29.6837 2.64114 29.3848 2.11927 28.8424V28.8421ZM24.1802 21.8846L21.6789 27.5801C21.1383 28.8106 20.1193 29.7702 18.8096 30.282C17.7902 30.6801 16.6898 30.7683 15.6331 30.5494C16.3345 30.0862 16.7949 29.3225 16.7949 28.4586C16.7949 27.0492 15.5726 25.9025 14.0703 25.9025H11.4616C11.4261 25.1762 11.5572 24.4638 11.8562 23.7832L14.3575 18.088C14.8981 16.8575 15.9171 15.898 17.2269 15.3861C18.5369 14.8742 19.9803 14.8719 21.2925 15.379C22.6042 15.8861 23.627 16.8421 24.1726 18.0708C24.7179 19.2995 24.7208 20.6541 24.1802 21.8849V21.8846Z" fill="#2874AF"/>
    <path d="M9.08873 16.4235C12.7244 16.4235 15.4674 13.169 15.4746 8.85044C15.5402 7.57866 14.5747 6.87905 13.6405 6.20261C12.7114 5.52974 11.7506 4.83399 11.364 3.46566C11.2804 3.16948 10.984 2.96182 10.666 2.97074C10.3399 2.97608 10.0593 3.18909 9.98648 3.48765C9.58304 5.14116 7.79356 5.6854 6.06265 6.21182C4.42326 6.71061 2.72751 7.22633 2.69141 8.83261C2.69141 13.0178 5.56136 16.4232 9.08873 16.4232V16.4235ZM6.5006 7.47884C7.94492 7.03947 9.65683 6.5187 10.6575 5.25643C11.2633 6.1634 12.0771 6.7525 12.7735 7.25663C13.6396 7.88376 14.0902 8.23728 14.0566 8.79548C14.056 8.80796 14.0557 8.82014 14.0557 8.83261C14.0557 12.4008 11.9204 15.0917 9.08904 15.0917C6.25772 15.0917 4.11103 12.2837 4.11103 8.84687C4.12464 8.2444 5.02303 7.92832 6.50092 7.47855L6.5006 7.47884Z" fill="#2874AF"/>
  </g>
  <defs>
    <clipPath id="clip0_18868_5127">
      <rect width="26" height="32" fill="white"/>
    </clipPath>
  </defs>
</svg>
