<svg width="100%" height="100%" viewBox="0 0 31 31" version="1.1" xmlns="http://www.w3.org/2000/svg" xmlns:xlink="http://www.w3.org/1999/xlink" xml:space="preserve" xmlns:serif="http://www.serif.com/" style="fill-rule:evenodd;clip-rule:evenodd;stroke-linejoin:round;stroke-miterlimit:2;">
    <g transform="matrix(1,0,0,1,-7.66271,-8.849)">
        <path d="M26.346,38.178C26.44,38.799 26.018,39.372 25.411,39.466C20.59,40.238 15.641,38.624 12.165,35.148C6.162,29.145 6.162,19.375 12.165,13.361L12.996,12.543L11.415,12.543C10.795,12.543 10.292,12.039 10.292,11.42L10.292,11.41C10.292,10.788 10.797,10.286 11.418,10.287L15.697,10.297C16.318,10.298 16.82,10.801 16.82,11.422L16.82,15.714C16.82,16.334 16.317,16.837 15.697,16.837C15.077,16.837 14.575,16.333 14.575,15.714L14.575,14.133L13.755,14.952C8.629,20.077 8.629,28.432 13.755,33.556C16.727,36.517 20.939,37.898 25.058,37.243C25.667,37.149 26.24,37.571 26.345,38.178L26.346,38.178Z" style="fill:white;fill-rule:nonzero;"/>
    </g>
    <g transform="matrix(1,0,0,1,-7.66271,-8.849)">
        <path d="M19.794,10.326C19.7,9.706 20.122,9.132 20.729,9.039C25.55,8.266 30.499,9.881 33.975,13.356C39.978,19.36 39.978,29.13 33.975,35.144L33.145,35.962L34.725,35.962C35.345,35.962 35.848,36.466 35.848,37.085L35.848,37.094C35.848,37.716 35.343,38.219 34.722,38.217L30.443,38.208C29.822,38.207 29.32,37.703 29.32,37.083L29.32,32.791C29.32,32.17 29.823,31.668 30.443,31.668C31.063,31.668 31.566,32.172 31.566,32.791L31.566,34.371L32.385,33.553C37.511,28.427 37.511,20.073 32.385,14.948C29.413,11.988 25.201,10.607 21.082,11.262C20.474,11.356 19.9,10.934 19.795,10.326L19.794,10.326Z" style="fill:white;fill-rule:nonzero;"/>
    </g>
    <g transform="matrix(1,0,0,1,-7.66271,-8.849)">
        <path d="M23.07,15.698C18.346,15.698 14.517,19.529 14.517,24.252C14.517,28.975 18.346,32.805 23.07,32.805C27.794,32.805 31.624,28.975 31.624,24.252C31.624,19.529 27.793,15.698 23.07,15.698ZM22.678,23.408L23.454,23.408C25.059,23.408 26.354,24.793 26.194,26.429C26.072,27.662 25.098,28.605 23.911,28.842L23.911,29.945C23.911,30.067 23.812,30.165 23.691,30.165L22.451,30.165C22.328,30.165 22.223,30.067 22.223,29.945L22.223,28.857C21.005,28.652 20.054,27.647 19.948,26.399C19.932,26.27 20.047,26.155 20.176,26.155L21.416,26.155C21.523,26.155 21.623,26.224 21.638,26.331C21.722,26.833 22.156,27.213 22.68,27.213L23.396,27.213C23.929,27.213 24.416,26.855 24.5,26.338C24.613,25.676 24.104,25.098 23.457,25.098L22.811,25.098C21.373,25.098 20.086,24.054 19.95,22.624C19.805,21.147 20.84,19.876 22.226,19.649L22.226,18.568C22.226,18.439 22.331,18.34 22.453,18.34L23.693,18.34C23.815,18.34 23.913,18.439 23.913,18.568L23.913,19.649C25.138,19.854 26.089,20.859 26.196,22.115C26.203,22.244 26.097,22.351 25.969,22.351L24.72,22.351C24.621,22.351 24.522,22.282 24.507,22.184C24.423,21.681 23.982,21.293 23.457,21.293L22.742,21.293C22.216,21.293 21.729,21.651 21.638,22.175C21.531,22.837 22.041,23.408 22.68,23.408L22.678,23.408Z" style="fill:white;fill-rule:nonzero;"/>
    </g>
</svg>
