<svg width="40" height="35" viewBox="0 0 40 35" fill="none" xmlns="http://www.w3.org/2000/svg">
<path d="M5.63468 28.0059C5.93048 28.3013 6.33142 28.4672 6.74946 28.4672C7.16749 28.4672 7.56844 28.3013 7.86423 28.0059L18.1318 17.7383L22.9515 22.5581C23.2473 22.8535 23.6483 23.0194 24.0663 23.0194C24.4843 23.0194 24.8853 22.8535 25.1811 22.5581L35.064 12.6739V14.3045C35.064 14.7226 35.23 15.1235 35.5257 15.4191C35.8213 15.7147 36.2222 15.8808 36.6403 15.8808C37.0584 15.8808 37.4593 15.7147 37.7549 15.4191C38.0505 15.1235 38.2166 14.7226 38.2166 14.3045V8.86807C38.2166 8.45044 38.0509 8.04988 37.7558 7.75433C37.4607 7.45879 37.0604 7.29242 36.6428 7.29175H31.2077C30.7896 7.29175 30.3886 7.45782 30.093 7.75344C29.7974 8.04906 29.6313 8.45 29.6313 8.86807C29.6313 9.28614 29.7974 9.68708 30.093 9.9827C30.3886 10.2783 30.7896 10.4444 31.2077 10.4444H32.8382L24.0688 19.215L19.2402 14.394C19.094 14.2476 18.9203 14.1315 18.7291 14.0523C18.5379 13.9731 18.333 13.9323 18.1261 13.9323C17.9191 13.9323 17.7142 13.9731 17.5231 14.0523C17.3319 14.1315 17.1582 14.2476 17.0119 14.394L5.62964 25.7763C5.33491 26.0728 5.1699 26.4741 5.17084 26.8921C5.17179 27.3102 5.33862 27.7108 5.63468 28.0059Z" fill="white"/>
<path d="M5.33834 13.3221C4.50856 13.3221 3.71031 13.0989 3.14914 12.7092C2.92972 12.5579 2.55266 12.2401 2.48205 11.8265C2.45727 11.6814 2.38182 11.5498 2.26914 11.4551C2.15645 11.3605 2.01383 11.3088 1.86665 11.3094H0.748092C0.661238 11.3099 0.575408 11.3282 0.495985 11.3634C0.416562 11.3985 0.345258 11.4497 0.286545 11.5137C0.22776 11.5787 0.183157 11.6552 0.155583 11.7384C0.128008 11.8215 0.118065 11.9095 0.12639 11.9967C0.177162 12.4928 0.339706 12.971 0.601809 13.3952C0.910728 13.8912 1.32012 14.3169 1.8036 14.6449C2.76452 15.312 4.01927 15.679 5.33456 15.679H5.56659V16.5025C5.56693 16.691 5.64196 16.8717 5.77528 17.005C5.90859 17.1383 6.0893 17.2134 6.27783 17.2137H7.21353C7.40206 17.2134 7.58277 17.1383 7.71608 17.005C7.84939 16.8717 7.92443 16.691 7.92477 16.5025V15.679H8.15554C9.47461 15.679 10.7306 15.312 11.6865 14.6449C12.1704 14.3174 12.5799 13.8916 12.8883 13.3952C13.2088 12.8834 13.3788 12.2917 13.3788 11.6878C13.3788 11.0838 13.2088 10.4921 12.8883 9.98029C12.5797 9.48442 12.1703 9.05905 11.6865 8.73185C10.7268 8.06475 9.47082 7.69652 8.15554 7.69652H7.92855V4.43794C8.62584 4.45764 9.30443 4.66785 9.89076 5.04577C10.1102 5.1971 10.4885 5.51363 10.5591 5.92851C10.5839 6.07359 10.6593 6.20518 10.772 6.29985C10.8847 6.39453 11.0273 6.44616 11.1745 6.44555H12.2918C12.3789 6.44468 12.4648 6.4258 12.5442 6.39008C12.6236 6.35437 12.6947 6.3026 12.7531 6.23804C12.8115 6.17347 12.8559 6.09751 12.8835 6.01494C12.9111 5.93237 12.9213 5.84498 12.9135 5.75827C12.8637 5.26157 12.7011 4.78281 12.4381 4.3585C12.1295 3.86263 11.7201 3.43726 11.2363 3.11005C10.3321 2.47952 9.16439 2.11886 7.92855 2.07977V1.23486C7.92822 1.04633 7.85318 0.865617 7.71987 0.732306C7.58656 0.598996 7.40584 0.523954 7.21731 0.523621H6.28161C6.09308 0.523954 5.91237 0.598996 5.77906 0.732306C5.64575 0.865617 5.57071 1.04633 5.57037 1.23486V2.07598H5.33834C4.01927 2.07598 2.76452 2.44295 1.80738 3.11005C1.32425 3.43801 0.914916 3.86323 0.605592 4.3585C0.285081 4.87057 0.115112 5.46249 0.115112 6.0666C0.115112 6.67071 0.285081 7.26263 0.605592 7.7747C0.914562 8.27025 1.32396 8.69554 1.80738 9.02315C2.7683 9.69025 4.02306 10.0572 5.33834 10.0572H5.57037V13.3234L5.33834 13.3221ZM7.92855 13.3221V10.0534H8.15932C8.99036 10.0534 9.78861 10.2779 10.3485 10.6663C10.6007 10.8429 11.0282 11.2098 11.0282 11.6865C11.0282 12.1632 10.602 12.5302 10.3485 12.7067C9.78861 13.0964 8.99036 13.3196 8.15932 13.3196L7.92855 13.3221ZM5.57037 4.4329V7.69778H5.33834C4.50856 7.69778 3.71031 7.47457 3.14914 7.0849C2.89693 6.90962 2.4707 6.54265 2.4707 6.06597C2.4707 5.58929 2.89567 5.22232 3.14914 5.04577C3.71031 4.65611 4.50856 4.4329 5.33834 4.4329H5.57037Z" fill="white"/>
<path d="M38.0994 30.9H3.28662V19.0297C3.28662 18.6116 3.12054 18.2107 2.82492 17.915C2.5293 17.6194 2.12836 17.4533 1.71029 17.4533C1.29223 17.4533 0.891284 17.6194 0.595666 17.915C0.300048 18.2107 0.133972 18.6116 0.133972 19.0297V32.4763C0.133972 32.8944 0.300048 33.2953 0.595666 33.5909C0.891284 33.8866 1.29223 34.0526 1.71029 34.0526H38.0994C38.5174 34.0526 38.9184 33.8866 39.214 33.5909C39.5096 33.2953 39.6757 32.8944 39.6757 32.4763C39.6757 32.0583 39.5096 31.6573 39.214 31.3617C38.9184 31.0661 38.5174 30.9 38.0994 30.9Z" fill="white"/>
</svg>

