<svg xmlns="http://www.w3.org/2000/svg" width="22" height="24" viewBox="0 0 22 24" fill="none">
  <path d="M20.8798 4.92147H16.8204L18.3427 0.755295C18.4406 0.488232 18.316 0.203366 18.0578 0.0876386C17.7997 -0.0280885 17.5059 0.0698336 17.3724 0.319092L14.8442 4.92147H1.11718C0.654273 4.92147 0.271484 5.30426 0.271484 5.76717V18.7642C0.271484 19.2271 0.654273 19.6099 1.11718 19.6099H9.00442V21.5506H7.11718C6.65427 21.5506 6.27148 21.9333 6.27148 22.3962C6.27148 22.8592 6.65427 23.2419 7.11718 23.2419H15.316C15.7789 23.2419 16.1617 22.8592 16.1617 22.3962C16.1617 21.9333 15.7789 21.5506 15.316 21.5506H13.3486V19.6099H20.8798C21.3427 19.6099 21.7255 19.2271 21.7255 18.7642V5.76717C21.7255 5.29536 21.3427 4.92147 20.8798 4.92147ZM11.6572 21.5506H10.7047V19.6099H11.6572V21.5506ZM20.0341 17.9185H1.96288V6.61286H13.9095L10.9362 12.0253L5.76406 9.25678C5.53261 9.13215 5.24774 9.19447 5.0875 9.39921C4.92727 9.60396 4.93617 9.89773 5.11421 10.0847L11.5415 17.0995C11.6394 17.2152 11.7908 17.2687 11.9332 17.2687C11.9688 17.2687 12.0044 17.2687 12.04 17.2598C12.227 17.2241 12.3783 17.0906 12.4406 16.9215L16.2062 6.60396H20.0341V17.9185Z" fill="#2874AF"/>
</svg>
