<svg width="32" height="34" viewBox="0 0 32 34" fill="none" xmlns="http://www.w3.org/2000/svg">
<path d="M29.9985 7.71291H24.2478L26.4043 1.81083C26.543 1.43249 26.3664 1.02893 26.0007 0.864983C25.635 0.701036 25.2188 0.839759 25.0297 1.19288L21.448 7.71291H2.00148C1.34569 7.71291 0.803406 8.25519 0.803406 8.91098V27.3235C0.803406 27.9792 1.34569 28.5215 2.00148 28.5215H13.1751V31.2708H10.5015C9.84568 31.2708 9.3034 31.8131 9.3034 32.4689C9.3034 33.1246 9.84568 33.6669 10.5015 33.6669H22.1164C22.7722 33.6669 23.3145 33.1246 23.3145 32.4689C23.3145 31.8131 22.7722 31.2708 22.1164 31.2708H19.3294V28.5215H29.9985C30.6543 28.5215 31.1966 27.9792 31.1966 27.3235V8.91098C31.1966 8.24258 30.6543 7.71291 29.9985 7.71291ZM16.9332 31.2708H15.5838V28.5215H16.9332V31.2708ZM28.8004 26.1254H3.19955V10.1091H20.1239L15.9117 17.7767L8.58456 13.8546C8.25667 13.678 7.8531 13.7663 7.6261 14.0564C7.3991 14.3464 7.41171 14.7626 7.66394 15.0275L16.7693 24.9651C16.908 25.1291 17.1224 25.2048 17.3242 25.2048C17.3746 25.2048 17.4251 25.2048 17.4755 25.1921C17.7403 25.1417 17.9547 24.9525 18.043 24.7129L23.3776 10.0964H28.8004V26.1254Z" fill="white"/>
</svg>

