<svg xmlns="http://www.w3.org/2000/svg" width="53" height="46" viewBox="0 0 53 46" fill="none">
  <path fill-rule="evenodd" clip-rule="evenodd" d="M20.6335 13.1107C19.613 12.7925 18.5819 12.5914 17.5587 12.5664H17.5486H17.5384C16.5149 12.591 15.4842 12.7925 14.4636 13.1107C13.0165 13.5619 11.9527 14.3484 11.2924 15.4937C10.7723 16.3957 10.8691 17.6113 11.7654 17.8947C13.6753 18.4985 15.6266 18.8164 17.5388 18.8341H17.5489H17.5591C19.4712 18.8164 21.4225 18.4985 23.3325 17.8947C24.2288 17.6113 24.3256 16.3957 23.8055 15.4937C23.1452 14.3484 22.0811 13.5619 20.6343 13.1107H20.6335Z" fill="white"/>
  <path d="M18.283 12.0513C19.9778 11.6512 21.0275 9.95302 20.6275 8.25818C20.2275 6.56334 18.5292 5.51368 16.8344 5.91369C15.1396 6.31371 14.0899 8.01193 14.4899 9.70677C14.8899 11.4016 16.5882 12.4513 18.283 12.0513Z" fill="white"/>
  <path fill-rule="evenodd" clip-rule="evenodd" d="M50.2833 16.4696C48.5821 14.7684 46.3202 13.8316 43.914 13.8316C41.5079 13.8316 39.246 14.7684 37.5448 16.4696C36.8518 17.1626 36.2861 17.9483 35.8584 18.799L28.7828 15.9793C29.1557 14.8304 29.358 13.6047 29.358 12.3315C29.358 11.263 29.2152 10.2283 28.9491 9.24397L34.1514 7.46338C34.7646 8.45461 35.8613 9.11495 37.1124 9.11495C39.034 9.11495 40.5917 7.55725 40.5917 5.63567C40.5917 3.71409 39.034 2.15639 37.1124 2.15639C35.1908 2.15639 33.6331 3.71409 33.6331 5.63567C33.6331 5.76071 33.64 5.88393 33.6527 6.00534L28.4508 7.78558C27.8524 6.35255 26.9805 5.06195 25.899 3.98084C23.7621 1.84398 20.8098 0.522217 17.5487 0.522217C14.2876 0.522217 11.3353 1.84398 9.19843 3.9812C7.06157 6.11842 5.73944 9.07074 5.73944 12.3315C5.73944 15.5922 7.06121 18.5449 9.19843 20.6817C9.5402 21.0235 9.90298 21.3443 10.2846 21.6422L5.33099 28.9258C4.93703 28.7711 4.50829 28.6863 4.0596 28.6863C2.13803 28.6863 0.580322 30.244 0.580322 32.1655C0.580322 34.0871 2.13803 35.6448 4.0596 35.6448C5.98118 35.6448 7.53888 34.0871 7.53888 32.1655C7.53888 31.249 7.18407 30.415 6.60455 29.7935L11.5585 22.5098C13.3149 23.546 15.3626 24.1411 17.5491 24.1411C18.3359 24.1411 19.1042 24.0635 19.8479 23.9168L20.9087 27.8864C19.6801 28.3296 18.5537 29.0414 17.6023 29.9928C15.9011 31.694 14.9642 33.9559 14.9642 36.3621C14.9642 38.7682 15.9011 41.0301 17.6023 42.7313C19.3036 44.4325 21.5658 45.3694 23.9716 45.3694C26.3774 45.3694 28.6396 44.4325 30.3409 42.7313C32.0421 41.0301 32.979 38.7682 32.979 36.3621C32.979 34.7957 32.5814 33.2905 31.8348 31.9611L36.9181 28.5145C37.1139 28.7548 37.3226 28.9867 37.5448 29.2089C39.246 30.9101 41.5079 31.847 43.914 31.847C46.3202 31.847 48.5817 30.9101 50.2833 29.2089C51.9845 27.5077 52.9214 25.2458 52.9214 22.8396C52.9214 20.4335 51.9845 18.1716 50.2833 16.4704V16.4696ZM17.5487 22.5997C14.7131 22.5997 12.146 21.4505 10.2879 19.5923C8.42972 17.7341 7.28048 15.1671 7.28048 12.3315C7.28048 9.49586 8.42972 6.9288 10.2879 5.07065C12.146 3.2125 14.7131 2.06325 17.5487 2.06325C20.3843 2.06325 22.9514 3.2125 24.8095 5.07065C26.6677 6.9288 27.8169 9.49586 27.8169 12.3315C27.8169 15.1671 26.6677 17.7341 24.8095 19.5923C22.9514 21.4505 20.3843 22.5997 17.5487 22.5997ZM29.251 41.6408C27.8408 43.051 25.9657 43.8277 23.9716 43.8277C21.9775 43.8277 20.1023 43.051 18.6922 41.6408C17.282 40.2306 16.5053 38.3554 16.5053 36.3613C16.5053 34.3673 17.282 32.4921 18.6922 31.0819C20.1023 29.6717 21.9775 28.895 23.9716 28.895C25.9657 28.895 27.8408 29.6717 29.251 31.0819C30.6612 32.4921 31.4379 34.3669 31.4379 36.3613C31.4379 38.3558 30.6612 40.2306 29.251 41.6408ZM30.9675 30.6865C30.7718 30.4462 30.563 30.2143 30.3409 29.9921C28.6396 28.2909 26.3777 27.354 23.9716 27.354C23.4385 27.354 22.9126 27.4004 22.3979 27.4903L21.3368 23.5203C23.0742 22.932 24.6301 21.951 25.899 20.6821C26.8442 19.7365 27.6299 18.6315 28.2123 17.4109L35.2883 20.2309C35.0372 21.0659 34.9067 21.9426 34.9067 22.8393C34.9067 24.4057 35.3043 25.9108 36.0509 27.2402L30.9675 30.6869V30.6865ZM49.1935 28.1183C47.7833 29.5285 45.9081 30.3052 43.914 30.3052C41.92 30.3052 40.0448 29.5285 38.6346 28.1183C37.2244 26.7082 36.4477 24.833 36.4477 22.8389C36.4477 20.8448 37.2244 18.9697 38.6346 17.5595C40.0448 16.1493 41.9196 15.3726 43.914 15.3726C45.9085 15.3726 47.7833 16.1493 49.1935 17.5595C50.6037 18.9697 51.3804 20.8448 51.3804 22.8389C51.3804 24.833 50.6037 26.7082 49.1935 28.1183Z" fill="white"/>
  <path fill-rule="evenodd" clip-rule="evenodd" d="M46.3201 22.9742C45.5239 22.726 44.72 22.569 43.9216 22.5498H43.9136H43.9056C43.1076 22.569 42.3033 22.726 41.5071 22.9742C40.3785 23.3261 39.5486 23.9394 39.0335 24.8328C38.628 25.5362 38.7034 26.4847 39.4025 26.7058C40.8924 27.1769 42.4142 27.4248 43.9056 27.4386H43.9136H43.9216C45.4133 27.4248 46.9351 27.1766 48.4247 26.7058C49.1238 26.4847 49.1992 25.5366 48.7937 24.8328C48.2787 23.9394 47.4487 23.3258 46.3201 22.9742Z" fill="white"/>
  <path d="M44.3319 22.1781C45.6712 21.9518 46.5735 20.6827 46.3472 19.3433C46.1209 18.004 44.8518 17.1017 43.5124 17.328C42.1731 17.5543 41.2708 18.8235 41.4971 20.1628C41.7234 21.5021 42.9926 22.4044 44.3319 22.1781Z" fill="white"/>
  <path fill-rule="evenodd" clip-rule="evenodd" d="M26.3777 36.4966C25.5815 36.2483 24.7776 36.0914 23.9792 36.0722H23.9712H23.9632C23.1652 36.0914 22.361 36.2483 21.5647 36.4966C20.4361 36.8485 19.6062 37.4621 19.0912 38.3551C18.6856 39.0586 18.761 40.007 19.4601 40.2278C20.95 40.6989 22.4719 40.9468 23.9632 40.9606H23.9712H23.9792C25.4709 40.9468 26.9924 40.6985 28.4823 40.2278C29.1814 40.0067 29.2568 39.0586 28.8513 38.3551C28.3363 37.4617 27.5063 36.8481 26.3777 36.4966Z" fill="white"/>
  <path d="M25.7187 35.0147C26.6791 34.0542 26.6791 32.497 25.7187 31.5366C24.7582 30.5761 23.201 30.5761 22.2405 31.5366C21.2801 32.497 21.2801 34.0542 22.2405 35.0147C23.201 35.9752 24.7582 35.9752 25.7187 35.0147Z" fill="white"/>
</svg>
