<?xml version="1.0" encoding="UTF-8" standalone="no"?>
<!DOCTYPE svg PUBLIC "-//W3C//DTD SVG 1.1//EN" "http://www.w3.org/Graphics/SVG/1.1/DTD/svg11.dtd">
<svg width="100%" height="100%" viewBox="0 0 48 48" version="1.1" xmlns="http://www.w3.org/2000/svg" xmlns:xlink="http://www.w3.org/1999/xlink" xml:space="preserve" xmlns:serif="http://www.serif.com/" style="fill-rule:evenodd;clip-rule:evenodd;stroke-linejoin:round;stroke-miterlimit:2;">
    <g transform="matrix(1.64849,0,0,1.64849,-13.8421,-17.0438)">
        <path d="M36.36,24.702C36.36,25.535 35.685,26.21 34.852,26.21C34.018,26.21 33.344,25.535 33.344,24.702C33.344,23.868 34.019,23.193 34.852,23.193C35.685,23.193 36.36,23.868 36.36,24.702Z" style="fill:rgb(40,116,175);fill-rule:nonzero;"/>
        <path d="M21.813,29.9C21.813,31.267 20.704,32.376 19.336,32.376C17.968,32.376 16.859,31.267 16.859,29.9C16.859,28.532 17.968,27.423 19.336,27.423C20.704,27.423 21.813,28.532 21.813,29.9Z" style="fill:rgb(40,116,175);fill-rule:nonzero;"/>
        <path d="M25.005,15.761C25.005,16.537 24.376,17.166 23.601,17.166C22.825,17.166 22.195,16.537 22.195,15.761C22.195,14.985 22.824,14.356 23.601,14.356C24.377,14.356 25.005,14.985 25.005,15.761Z" style="fill:rgb(40,116,175);fill-rule:nonzero;"/>
        <path d="M34.85,11.944C33.518,11.944 32.439,13.024 32.439,14.356C32.439,14.886 32.611,15.376 32.901,15.774L28.194,20.37C27.381,19.547 26.254,19.036 25.005,19.036C22.997,19.036 21.298,20.357 20.73,22.178L13.028,21.264C13.019,20.036 12.022,19.045 10.794,19.045C9.565,19.045 8.559,20.046 8.559,21.281C8.559,22.516 9.559,23.516 10.793,23.516C11.787,23.516 12.63,22.866 12.92,21.967L20.573,22.876C20.542,23.086 20.527,23.299 20.527,23.516C20.527,25.989 22.532,27.994 25.005,27.994C25.659,27.994 26.279,27.854 26.838,27.602L28.847,31.766C27.747,32.32 26.992,33.457 26.992,34.772C26.992,36.63 28.499,38.137 30.357,38.137C32.216,38.137 33.721,36.63 33.721,34.772C33.721,32.914 32.215,31.408 30.357,31.408C30.066,31.408 29.784,31.445 29.515,31.515L27.463,27.259C28.68,26.459 29.485,25.081 29.485,23.516C29.485,22.547 29.176,21.65 28.653,20.918L33.399,16.283C33.803,16.588 34.306,16.769 34.85,16.769C36.183,16.769 37.262,15.689 37.262,14.357C37.262,13.025 36.183,11.944 34.85,11.944Z" style="fill:rgb(40,116,175);fill-rule:nonzero;"/>
    </g>
</svg>
