<svg width="32" height="41" viewBox="0 0 32 41" fill="none" xmlns="http://www.w3.org/2000/svg">
<path d="M7.97923 28.9614C5.28041 28.9614 3.07344 26.7671 3.07344 24.0556C3.07344 21.3568 5.2678 19.1499 7.97923 19.1499C10.678 19.1499 12.885 21.3442 12.885 24.0556C12.885 26.7671 10.678 28.9614 7.97923 28.9614Z" fill="white"/>
<path d="M13.8309 40.2107H2.14021C1.48442 40.2107 0.942139 39.6684 0.942139 39.0126V34.1321C0.942139 31.8242 2.82122 29.9577 5.11647 29.9577H10.8546C13.1625 29.9577 15.0289 31.8368 15.0289 34.1321V39.0126C15.0289 39.681 14.4867 40.2107 13.8309 40.2107Z" fill="white"/>
<path d="M16.0378 10.6246C13.339 10.6246 11.132 8.43028 11.132 5.71885C11.132 3.02004 13.3264 0.813065 16.0378 0.813065C18.7366 0.813065 20.9436 3.00743 20.9436 5.71885C20.9436 8.43028 18.7366 10.6246 16.0378 10.6246Z" fill="white"/>
<path d="M21.8895 18.2166H10.1988C9.54303 18.2166 9.00075 17.6743 9.00075 17.0185V15.8079C9.00075 13.5 10.8798 11.6335 13.1751 11.6335H18.9132C21.2211 11.6335 23.0875 13.5126 23.0875 15.8079V17.0185C23.0875 17.6743 22.5452 18.2166 21.8895 18.2166Z" fill="white"/>
<path d="M24.0208 28.9614C21.322 28.9614 19.115 26.7671 19.115 24.0556C19.115 21.3568 21.3094 19.1499 24.0208 19.1499C26.7196 19.1499 28.9266 21.3442 28.9266 24.0556C28.9266 26.7671 26.7322 28.9614 24.0208 28.9614Z" fill="white"/>
<path d="M29.8724 40.2107H18.1817C17.526 40.2107 16.9837 39.6684 16.9837 39.0126V34.1321C16.9837 31.8242 18.8628 29.9577 21.158 29.9577H26.8961C29.204 29.9577 31.0705 31.8368 31.0705 34.1321V39.0126C31.0705 39.681 30.5282 40.2107 29.8724 40.2107Z" fill="white"/>
</svg>

