<svg width="32" height="40" viewBox="0 0 32 40" fill="none" xmlns="http://www.w3.org/2000/svg">
<path d="M18.888 0.629089H7.57567C2.10238 0.629089 0.652084 5.15654 0.652084 7.55268V32.4599C0.652084 37.9332 5.17953 39.3835 7.57567 39.3835H24.4243C29.8976 39.3835 31.3479 34.8561 31.3479 32.4599V13.0764C31.3479 3.22701 23.201 0.629089 18.888 0.629089ZM28.4978 11.7018H21.6625C20.5527 11.7018 20.3004 10.9451 20.2752 10.3145V3.52968C22.7849 3.90802 27.8294 5.45921 28.4978 11.7018ZM24.4243 36.6091H7.58828C6.89466 36.5964 3.42656 36.3694 3.42656 32.4599V7.55268C3.43918 6.85906 3.66618 3.39096 7.57567 3.39096H17.5134V10.3145C17.5134 11.9792 18.6231 14.4637 21.6625 14.4637H28.5861V32.4473C28.5734 33.141 28.3338 36.6091 24.4243 36.6091ZM25.8116 32.4599C25.8116 33.2292 25.1936 33.8472 24.4243 33.8472H13.3516C12.5823 33.8472 11.9644 33.2292 11.9644 32.4599C11.9644 31.6907 12.5823 31.0727 13.3516 31.0727H24.4243C25.1936 31.0727 25.8116 31.6907 25.8116 32.4599ZM6.18843 13.0764C6.18843 12.3071 6.80639 11.6892 7.57567 11.6892H10.5898C11.3591 11.6892 11.977 12.3071 11.977 13.0764C11.977 13.8457 11.3591 14.4637 10.5898 14.4637H7.57567C6.80639 14.4637 6.18843 13.8457 6.18843 13.0764ZM25.8116 24.1491C25.8116 24.9184 25.1936 25.5364 24.4243 25.5364H7.57567C6.80639 25.5364 6.18843 24.9184 6.18843 24.1491C6.18843 23.3798 6.80639 22.7619 7.57567 22.7619H24.4243C25.1936 22.7745 25.8116 23.3924 25.8116 24.1491ZM25.8116 18.6128C25.8116 19.3821 25.1936 20 24.4243 20H7.57567C6.80639 20 6.18843 19.3821 6.18843 18.6128C6.18843 17.8435 6.80639 17.2255 7.57567 17.2255H24.4243C25.1936 17.2381 25.8116 17.8561 25.8116 18.6128Z" fill="white"/>
</svg>

