<?xml version="1.0" encoding="UTF-8" standalone="no"?>
<!DOCTYPE svg PUBLIC "-//W3C//DTD SVG 1.1//EN" "http://www.w3.org/Graphics/SVG/1.1/DTD/svg11.dtd">
<svg width="100%" height="100%" viewBox="0 0 48 48" version="1.1" xmlns="http://www.w3.org/2000/svg" xmlns:xlink="http://www.w3.org/1999/xlink" xml:space="preserve" xmlns:serif="http://www.serif.com/" style="fill-rule:evenodd;clip-rule:evenodd;stroke-linejoin:round;stroke-miterlimit:2;">
    <g transform="matrix(1.71661,0,0,1.71661,-17.8519,-14.6693)">
        <rect x="25.785" y="21.422" width="4.503" height="0.67" style="fill:rgb(40,116,175);fill-rule:nonzero;"/>
        <path d="M28.299,22.722L27.629,22.722L27.629,26.427L30.29,26.427L30.29,25.758L28.299,25.758L28.299,22.722Z" style="fill:rgb(40,116,175);fill-rule:nonzero;"/>
        <path d="M27.629,20.792L28.299,20.792L28.299,17.634L30.29,17.634L30.29,16.964L27.629,16.964L27.629,20.792Z" style="fill:rgb(40,116,175);fill-rule:nonzero;"/>
        <path d="M36.437,12.93L11.991,12.93C11.421,12.93 10.957,13.394 10.957,13.964L10.957,31.996C10.957,32.566 11.421,33.03 11.991,33.03L36.437,33.03C37.007,33.03 37.471,32.566 37.471,31.996L37.471,13.964C37.471,13.394 37.007,12.93 36.437,12.93ZM11.737,13.964C11.737,13.824 11.851,13.711 11.991,13.711L36.437,13.711C36.577,13.711 36.691,13.824 36.691,13.964L36.691,29.54L11.737,29.54L11.737,13.964Z" style="fill:rgb(40,116,175);fill-rule:nonzero;"/>
        <path d="M19.343,24.554C18.999,24.56 18.659,24.505 18.336,24.388C18.176,24.331 18.02,24.258 17.873,24.174C17.743,24.099 17.618,24.012 17.502,23.917C17.172,23.65 16.912,23.32 16.73,22.935C16.591,22.645 16.504,22.335 16.471,22.014C16.427,21.591 16.476,21.175 16.619,20.777C16.676,20.618 16.747,20.463 16.832,20.316C16.906,20.187 16.992,20.063 17.087,19.946C17.353,19.619 17.683,19.361 18.068,19.18C18.361,19.042 18.671,18.956 18.991,18.924C19.353,18.887 19.714,18.92 20.064,19.021L20.155,19.047L21.312,17.044L21.183,16.992C20.309,16.639 19.354,16.536 18.42,16.692C18.085,16.749 17.753,16.839 17.435,16.961C16.492,17.322 15.686,17.946 15.105,18.767C15.016,18.892 14.929,19.028 14.847,19.17C14.757,19.326 14.674,19.488 14.602,19.652C14.193,20.571 14.067,21.582 14.239,22.578C14.296,22.913 14.387,23.244 14.511,23.562C14.875,24.505 15.503,25.311 16.326,25.893C16.457,25.986 16.593,26.074 16.731,26.153C16.887,26.243 17.049,26.326 17.215,26.4C17.872,26.692 18.582,26.842 19.297,26.842C19.498,26.842 19.7,26.83 19.901,26.806L20.04,26.79L19.438,24.552L19.343,24.554Z" style="fill:rgb(40,116,175);fill-rule:nonzero;"/>
        <path d="M21.24,19.7C21.445,19.897 21.618,20.121 21.753,20.367L21.798,20.45L24.039,19.851L23.984,19.723C23.645,18.936 23.11,18.242 22.438,17.717L22.329,17.631L21.172,19.635L21.24,19.7L21.24,19.7Z" style="fill:rgb(40,116,175);fill-rule:nonzero;"/>
        <path d="M24.348,20.985L22.11,21.582L22.112,21.677C22.119,21.962 22.083,22.244 22.005,22.515C21.988,22.572 21.97,22.629 21.95,22.685C21.893,22.845 21.821,23 21.737,23.147C21.662,23.276 21.576,23.4 21.482,23.516C21.43,23.579 21.381,23.635 21.329,23.689C21.134,23.892 20.908,24.066 20.657,24.204L20.574,24.249L21.177,26.488L21.304,26.433C22.097,26.097 22.793,25.564 23.318,24.891C23.368,24.827 23.417,24.762 23.463,24.696C23.553,24.571 23.64,24.435 23.722,24.293C23.812,24.138 23.894,23.975 23.967,23.812C23.993,23.753 24.018,23.695 24.041,23.637C24.359,22.843 24.471,21.974 24.365,21.123L24.348,20.985L24.348,20.985Z" style="fill:rgb(40,116,175);fill-rule:nonzero;"/>
        <path d="M20.751,21.378C20.647,20.989 20.398,20.665 20.05,20.464C19.332,20.049 18.41,20.297 17.995,21.016C17.58,21.735 17.826,22.657 18.545,23.072C18.776,23.205 19.033,23.274 19.294,23.274C19.424,23.274 19.556,23.256 19.686,23.222C20.074,23.117 20.399,22.868 20.6,22.52C20.801,22.172 20.855,21.766 20.751,21.378L20.751,21.378Z" style="fill:rgb(40,116,175);fill-rule:nonzero;"/>
        <rect x="31.742" y="20.445" width="2.628" height="2.624" style="fill:rgb(40,116,175);fill-rule:nonzero;"/>
        <rect x="31.742" y="24.78" width="2.628" height="2.624" style="fill:rgb(40,116,175);fill-rule:nonzero;"/>
        <rect x="31.742" y="15.987" width="2.628" height="2.624" style="fill:rgb(40,116,175);fill-rule:nonzero;"/>
    </g>
</svg>
