<svg width="42" height="28" viewBox="0 0 42 28" fill="none" xmlns="http://www.w3.org/2000/svg">
<path d="M32.1107 22.9214C32.7539 23.2366 33.4979 22.8583 33.6493 22.1647C33.7249 21.8116 33.6871 21.3828 33.3844 20.9036C32.9178 20.1847 26.2591 12.8828 21.6433 7.88872C21.5046 7.73738 21.2776 7.72477 21.1137 7.85088L17.8095 10.638C16.334 11.8739 14.1396 11.7604 12.8028 10.3858C11.4534 8.97329 11.4156 6.76632 12.7524 5.34124C13.2947 4.76112 13.9126 4.09273 14.5558 3.42433C14.6945 3.2856 14.5936 3.04599 14.3918 3.04599H6.29541C6.13146 3.04599 5.99274 3.18471 5.99274 3.34866V16.2626C5.99274 16.4139 6.05579 16.5527 6.16929 16.6536L17.3303 26.566C18.2004 27.3479 19.3102 27.7389 20.3696 27.6506C20.8488 27.6128 21.1641 27.4866 21.3785 27.3479C21.4794 27.2722 21.4794 27.1209 21.3911 27.0452L17.2546 23.5015C16.8889 23.1862 16.8132 22.6313 17.1159 22.253C17.4312 21.862 17.9987 21.8116 18.377 22.1395L23.8881 26.8813C24.38 27.3101 25.0231 27.474 25.5654 27.3353C25.742 27.2849 26.032 27.1966 26.196 26.8182C26.3599 26.4147 26.2212 25.9481 25.8933 25.658L20.7101 21.3323C20.3318 21.0171 20.2813 20.4622 20.5966 20.0964C20.9119 19.7181 21.4668 19.6677 21.8451 19.9829L28.857 25.8346C29.374 26.2633 30.1433 26.2003 30.5973 25.6958C31.0513 25.1914 31.0009 24.4095 30.4964 23.9429L23.6233 17.7255C23.2576 17.3976 23.2323 16.8301 23.5602 16.4644C23.8881 16.0987 24.443 16.0734 24.8088 16.4013L31.6819 22.6187C31.6693 22.6439 31.8332 22.7952 32.1107 22.9214Z" fill="white"/>
<path d="M14.0386 6.55217C13.3576 7.28362 13.3702 8.44386 14.0638 9.1627C14.7575 9.86893 15.8925 9.93199 16.6618 9.30142L20.8992 5.71982C21.2649 5.41715 21.8072 5.45499 22.1225 5.79549C23.7241 7.52323 30.4207 14.7747 33.4348 18.2176C33.5735 18.3689 33.8005 18.3815 33.9392 18.2302C34.1536 18.0158 34.3554 17.7636 34.5572 17.5114C34.9355 17.0447 35.3139 16.5781 35.7679 16.2376C35.9318 16.1241 36.0201 15.9223 36.0201 15.7206V3.3489C36.0201 3.22279 35.9192 3.1219 35.7931 3.1219C34.0653 3.14712 30.799 2.99579 28.1002 1.75988C24.8087 0.259142 19.9281 0.700538 18.4021 2.12561C18.276 2.23911 18.1373 2.36522 17.9986 2.49134L14.0386 6.55217Z" fill="white"/>
<path d="M1.45255 0.813797C0.99854 0.813797 0.632812 1.17952 0.632812 1.63353V16.7923C0.632812 17.2463 0.99854 17.612 1.45255 17.612H3.39468C3.84869 17.612 4.21442 17.2463 4.21442 16.7923V1.63353C4.21442 1.17952 3.84869 0.813797 3.39468 0.813797H1.45255Z" fill="white"/>
<path d="M37.7856 1.63353V16.7923C37.7856 17.2463 38.1514 17.612 38.6054 17.612H40.5475C41.0015 17.612 41.3673 17.2463 41.3673 16.7923V1.63353C41.3673 1.17952 41.0015 0.813797 40.5475 0.813797H38.6054C38.1514 0.813797 37.7856 1.17952 37.7856 1.63353Z" fill="white"/>
</svg>

