<svg xmlns="http://www.w3.org/2000/svg" width="37" height="29" viewBox="0 0 37 29" fill="none">
  <path d="M16.2469 6.36954C16.2469 9.68325 13.5607 12.3695 10.2469 12.3695C6.93324 12.3695 4.24695 9.68325 4.24695 6.36954C4.24695 3.05583 6.93324 0.369537 10.2469 0.369537C13.5607 0.369537 16.2469 3.05583 16.2469 6.36954Z" fill="white"/>
  <path d="M32.2469 6.36954C32.2469 9.68325 29.5607 12.3695 26.2469 12.3695C22.9332 12.3695 20.2469 9.68325 20.2469 6.36954C20.2469 3.05583 22.9332 0.369537 26.2469 0.369537C29.5607 0.369537 32.2469 3.05583 32.2469 6.36954Z" fill="white"/>
  <path d="M24.1052 28.3695C24.1986 27.7163 24.247 27.0486 24.247 26.3695C24.247 23.0992 23.1256 20.0907 21.2465 17.7077C22.7174 16.8566 24.4253 16.3695 26.247 16.3695C31.7698 16.3695 36.247 20.8467 36.247 26.3695V28.3695H24.1052Z" fill="white"/>
  <path d="M10.2469 16.3695C15.7698 16.3695 20.2469 20.8467 20.2469 26.3695V28.3695H0.246948V26.3695C0.246948 20.8467 4.7241 16.3695 10.2469 16.3695Z" fill="white"/>
</svg>
