<svg width="32" height="40" viewBox="0 0 32 40" fill="none" xmlns="http://www.w3.org/2000/svg">
<path d="M30.0363 30.6692L25.0423 25.9651C23.8946 24.8806 22.2299 24.641 20.8301 25.3724L20.5905 25.4985C19.6446 25.9904 18.6988 26.4696 17.7655 26.9614C14.2974 24.1491 11.8256 20 11.0185 15.6113C11.977 14.9681 12.9228 14.3249 13.8813 13.6818C15.1928 12.799 15.7856 11.2352 15.382 9.6966C14.8019 7.48963 14.2092 5.27005 13.629 3.06308C13.2255 1.53711 11.8004 0.553432 10.224 0.704767C7.48736 0.982215 5.02816 2.26856 3.31302 4.33681C1.57267 6.41767 0.765545 9.07865 1.04299 11.8153C1.58528 17.112 3.1743 22.0178 5.78483 26.4065C8.39537 30.7953 11.9517 34.5408 16.3405 37.5423C18.0556 38.7151 20.023 39.3205 22.0155 39.3205C22.6713 39.3205 23.3397 39.2574 23.9955 39.1187C26.6313 38.589 28.9391 37.0505 30.4903 34.7804C31.3605 33.4815 31.1839 31.7537 30.0363 30.6692Z" fill="white"/>
</svg>

