<svg width="24" height="40" viewBox="0 0 24 40" fill="none" xmlns="http://www.w3.org/2000/svg">
<path d="M12.6054 39.2196C14.3884 39.2196 15.8338 37.7741 15.8338 35.9911C15.8338 34.208 14.3884 32.7626 12.6054 32.7626C10.8223 32.7626 9.37687 34.208 9.37687 35.9911C9.37687 37.7741 10.8223 39.2196 12.6054 39.2196Z" fill="white"/>
<path d="M12.454 30.1647C11.1298 30.1647 10.0579 29.0927 10.0579 27.7685C10.0579 26.5326 10.1588 25.4228 10.3479 24.4644C10.5497 23.4555 10.8776 22.497 11.319 21.6395C11.7478 20.7945 12.3279 19.9622 13.0215 19.1803C13.6269 18.4993 14.3583 17.73 15.2159 16.9102C15.2285 16.8976 15.2411 16.885 15.2663 16.8724C15.6573 16.5193 16.0987 16.1157 16.6031 15.6743C16.9688 15.3464 17.3472 14.9303 17.7003 14.4384C18.0282 13.9718 18.3182 13.4169 18.5579 12.7737C18.7723 12.1936 18.8858 11.4748 18.8858 10.6298C18.8858 9.81008 18.747 9.11646 18.4444 8.52373C18.1417 7.90578 17.7381 7.41394 17.2211 6.99777C16.6662 6.55638 15.9978 6.21587 15.2159 5.97626C14.3709 5.72403 13.4503 5.58531 12.4666 5.58531C11.2433 5.58531 10.1461 5.78709 9.2129 6.17804C8.29228 6.56899 7.56083 7.08605 6.95549 7.75445C6.33753 8.44807 5.88353 9.2678 5.56825 10.2515C5.24035 11.273 5.08902 12.4585 5.13946 13.7448C5.18991 15.069 4.15578 16.1788 2.8316 16.2292C1.50741 16.2797 0.397622 15.2455 0.347177 13.9214C0.271509 12.0675 0.498511 10.3398 1.00296 8.77596C1.52002 7.16172 2.31454 5.74925 3.37388 4.56379C4.44584 3.36572 5.78264 2.41988 7.34644 1.75148C8.8724 1.1083 10.6001 0.780411 12.4666 0.780411C13.9169 0.780411 15.3168 0.982192 16.6157 1.37314C17.9777 1.78931 19.1758 2.40727 20.1973 3.21439C21.2567 4.05934 22.1142 5.10608 22.7322 6.34198C23.3628 7.60311 23.678 9.02818 23.678 10.592C23.678 12.0044 23.4763 13.2908 23.0601 14.4006C22.6691 15.4473 22.1773 16.3932 21.5972 17.2129C21.0297 17.9948 20.4243 18.6758 19.7812 19.2433C19.3145 19.6595 18.8984 20.0252 18.5326 20.3531C17.776 21.072 17.1454 21.7403 16.6283 22.3205C16.1996 22.8123 15.8464 23.3041 15.6068 23.796C15.3672 24.2752 15.178 24.8175 15.0645 25.3976C14.9384 26.0408 14.8628 26.8353 14.8628 27.7433C14.8501 29.0927 13.7782 30.1647 12.454 30.1647Z" fill="white"/>
</svg>

