<svg width="40" height="36" viewBox="0 0 40 36" fill="none" xmlns="http://www.w3.org/2000/svg">
<path d="M31.0651 2.60059C30.4043 3.27526 30.4043 4.35472 31.0651 5.02939C37.1838 11.138 37.1914 21.0499 31.0828 27.1685C24.9742 33.2872 15.0623 33.2947 8.94367 27.1862C3.29665 21.548 2.79475 12.5629 7.77845 6.3308L9.16561 7.71796C4.88811 13.1708 5.37361 20.9628 10.293 25.8444C15.679 31.1572 24.3349 31.1572 29.7209 25.8444C32.3035 23.2718 33.755 19.7762 33.7537 16.1305C33.7739 12.481 32.3199 8.97776 29.7209 6.41655C29.0487 5.73432 27.9503 5.72549 27.2681 6.39763C27.2618 6.40394 27.2555 6.41025 27.2492 6.41655C26.5884 7.09122 26.5884 8.17068 27.2492 8.84535C31.277 12.8454 31.2997 19.3525 27.2996 23.3803C23.2995 27.4081 16.7925 27.4308 12.7647 23.4307C10.8201 21.5001 9.72678 18.872 9.72931 16.1305C9.7167 13.998 10.3851 11.916 11.6373 10.1896L13.3725 11.9248C11.0345 15.5756 12.1001 20.4307 15.7509 22.7674C18.8669 24.7624 22.954 24.311 25.5581 21.6817C28.6288 18.6009 28.6288 13.6172 25.5581 10.5364C24.9074 9.86554 23.8368 9.84915 23.1671 10.4999C23.1545 10.5125 23.1419 10.5238 23.1306 10.5364C22.4483 11.2086 22.4395 12.307 23.1116 12.9892C23.118 12.9955 23.1243 13.0018 23.1306 13.0081C24.8431 14.6828 24.8733 17.4281 23.1999 19.1406C23.1772 19.1633 23.1545 19.1873 23.1306 19.21C21.4546 20.9553 18.6828 21.0108 16.9375 19.3361C15.6311 18.0826 15.2313 16.1532 15.9312 14.4835L18.186 16.7383C18.5037 17.0687 18.9413 17.2566 19.4004 17.2591C19.8594 17.2629 20.3008 17.0737 20.6148 16.7383C21.297 16.0662 21.3058 14.9678 20.6337 14.2855C20.6274 14.2792 20.6211 14.2729 20.6148 14.2666L7.43166 1.08354C6.78095 0.412655 5.71032 0.396262 5.0407 1.04697C5.02809 1.05958 5.01547 1.07093 5.00412 1.08354C4.32189 1.75568 4.31307 2.85406 4.98521 3.5363C4.99151 3.5426 4.99782 3.54891 5.00412 3.55521L5.30804 3.85913C-1.01995 11.457 -0.51174 22.6262 6.4783 29.6187C13.8744 37.0918 25.9289 37.1523 33.4006 29.7562C33.4473 29.7108 33.4927 29.6654 33.5381 29.6187C40.9871 22.1533 40.9871 10.0673 33.5381 2.60185C32.8659 1.91962 31.7675 1.91079 31.0853 2.58293C31.079 2.58924 31.0727 2.59555 31.0664 2.60185L31.0651 2.60059Z" fill="white"/>
</svg>

