<svg width="36" height="36" viewBox="0 0 36 36" fill="none" xmlns="http://www.w3.org/2000/svg">
<path d="M18.0007 35.4398C27.6321 35.4398 35.4398 27.632 35.4398 18.0006C35.4398 8.36924 27.6321 0.561462 18.0007 0.561462C8.3693 0.561462 0.561523 8.36924 0.561523 18.0006C0.561523 27.632 8.3693 35.4398 18.0007 35.4398Z" fill="white"/>
<path d="M18.0006 16.6387C24.0537 16.6387 28.9857 21.297 28.9857 27.0248C28.9911 27.2015 28.961 27.3775 28.8972 27.5424C28.8333 27.7073 28.737 27.8577 28.6139 27.9846C28.4908 28.1116 28.3435 28.2125 28.1806 28.2815C28.0178 28.3504 27.8428 28.3859 27.666 28.3859C27.4891 28.3859 27.3141 28.3504 27.1513 28.2815C26.9884 28.2125 26.8411 28.1116 26.718 27.9846C26.5949 27.8577 26.4986 27.7073 26.4348 27.5424C26.3709 27.3775 26.3408 27.2015 26.3463 27.0248C26.3463 22.7536 22.6022 19.2781 18.0006 19.2781C13.399 19.2781 9.65492 22.7536 9.65492 27.0248C9.66038 27.2015 9.63029 27.3775 9.56643 27.5424C9.50256 27.7073 9.40623 27.8577 9.28315 27.9846C9.16006 28.1116 9.01273 28.2125 8.8499 28.2815C8.68706 28.3504 8.51204 28.3859 8.33522 28.3859C8.1584 28.3859 7.98338 28.3504 7.82054 28.2815C7.65771 28.2125 7.51038 28.1116 7.38729 27.9846C7.26421 27.8577 7.16788 27.7073 7.10401 27.5424C7.04015 27.3775 7.01006 27.2015 7.01552 27.0248C7.01552 21.297 11.9475 16.6387 18.0006 16.6387Z" fill="#2C405A"/>
<path d="M23.8154 15.2049C23.6421 15.2049 23.4704 15.1707 23.3102 15.1044C23.15 15.038 23.0044 14.9408 22.8818 14.8182C22.7592 14.6955 22.662 14.55 22.5956 14.3898C22.5293 14.2296 22.4951 14.0579 22.4951 13.8845V8.11772C22.4951 7.76755 22.6342 7.43172 22.8818 7.18411C23.1294 6.9365 23.4653 6.79739 23.8154 6.79739C24.1656 6.79739 24.5014 6.9365 24.7491 7.18411C24.9967 7.43172 25.1358 7.76755 25.1358 8.11772V13.8845C25.1358 14.0579 25.1016 14.2296 25.0353 14.3898C24.9689 14.55 24.8717 14.6955 24.7491 14.8182C24.6264 14.9408 24.4809 15.038 24.3207 15.1044C24.1605 15.1707 23.9888 15.2049 23.8154 15.2049V15.2049Z" fill="#2C405A"/>
<path d="M12.1859 15.2049C12.0125 15.2049 11.8408 15.1707 11.6807 15.1044C11.5205 15.038 11.3749 14.9408 11.2523 14.8181C11.1297 14.6955 11.0325 14.55 10.9661 14.3898C10.8998 14.2296 10.8656 14.0579 10.8656 13.8845V8.11772C10.8656 7.76755 11.0047 7.43172 11.2523 7.18411C11.4999 6.9365 11.8358 6.79739 12.1859 6.79739C12.5361 6.79739 12.8719 6.9365 13.1195 7.18411C13.3671 7.43172 13.5063 7.76755 13.5063 8.11772V13.8845C13.5063 14.2347 13.3671 14.5705 13.1195 14.8181C12.8719 15.0658 12.5361 15.2049 12.1859 15.2049Z" fill="#2C405A"/>
</svg>
