<?xml version="1.0" encoding="UTF-8" standalone="no"?>
<!DOCTYPE svg PUBLIC "-//W3C//DTD SVG 1.1//EN" "http://www.w3.org/Graphics/SVG/1.1/DTD/svg11.dtd">
<svg width="100%" height="100%" viewBox="0 0 32 40" version="1.1" xmlns="http://www.w3.org/2000/svg" xmlns:xlink="http://www.w3.org/1999/xlink" xml:space="preserve" xmlns:serif="http://www.serif.com/" style="fill-rule:evenodd;clip-rule:evenodd;stroke-linejoin:round;stroke-miterlimit:2;">
    <path d="M15.962,39.358C15.622,39.358 15.306,39.283 15.016,39.131C9.266,36.269 3.174,32.712 1.573,28.096C0.627,25.36 0.917,21.74 1.131,19.092L1.144,18.84L1.144,18.815C1.169,18.562 1.182,18.31 1.207,18.071C1.232,17.793 1.245,17.516 1.27,17.251L1.308,16.797C1.585,13.367 1.838,10.138 1.964,6.809C2.001,5.699 2.897,4.791 4.007,4.753C8.307,4.614 11.889,3.391 14.663,1.121C14.663,1.121 14.676,1.121 14.676,1.108C15.458,0.478 16.542,0.478 17.324,1.108C17.324,1.108 17.337,1.108 17.337,1.121C20.111,3.404 23.693,4.627 27.993,4.753C29.103,4.791 30.011,5.699 30.049,6.809C30.188,10.327 30.465,13.757 30.717,17.074L30.717,17.087C30.755,17.654 30.806,18.222 30.843,18.777L30.856,18.979C31.058,21.488 31.36,25.259 30.389,28.046C28.788,32.687 22.659,36.256 16.883,39.131C16.618,39.283 16.29,39.358 15.962,39.358ZM21.637,27.327C21.814,27.466 22.079,27.277 21.99,27.062L19.846,20.441L25.471,16.355C25.66,16.229 25.559,15.927 25.332,15.927L18.371,15.927L16.227,9.306C16.164,9.079 15.849,9.079 15.773,9.306L13.629,15.927L6.668,15.927C6.441,15.927 6.34,16.217 6.529,16.355L12.153,20.441L10.01,27.062C9.934,27.277 10.186,27.466 10.375,27.327L16.013,23.241L21.637,27.327Z" style="fill:white;"/>
</svg>
