<svg width="31" height="40" viewBox="0 0 31 40" fill="none" xmlns="http://www.w3.org/2000/svg">
<path d="M25.336 0.704758H9.13047C6.67127 0.704758 4.57779 2.28117 3.7959 4.47553H2.08076C1.42498 4.47553 0.88269 5.01782 0.88269 5.6736C0.88269 6.32939 1.42498 6.87167 2.08076 6.87167H3.468V9.24259H2.08076C1.42498 9.24259 0.88269 9.78488 0.88269 10.4407C0.88269 11.0965 1.42498 11.6387 2.08076 11.6387H3.468V14.0097H2.08076C1.42498 14.0097 0.88269 14.5519 0.88269 15.2077C0.88269 15.8635 1.42498 16.4058 2.08076 16.4058H3.468V18.7767H2.08076C1.42498 18.7767 0.88269 19.319 0.88269 19.9748C0.88269 20.6306 1.42498 21.1729 2.08076 21.1729H3.468V23.5816H2.08076C1.42498 23.5816 0.88269 24.1239 0.88269 24.7797C0.88269 25.4355 1.42498 25.9778 2.08076 25.9778H3.468V28.3487H2.08076C1.42498 28.3487 0.88269 28.891 0.88269 29.5468C0.88269 30.2025 1.42498 30.7448 2.08076 30.7448H3.468V33.1157H2.08076C1.42498 33.1157 0.88269 33.658 0.88269 34.3138C0.88269 34.9696 1.42498 35.5119 2.08076 35.5119H3.80851C4.59041 37.7063 6.68388 39.2827 9.14308 39.2827H25.336C28.451 39.2827 30.9858 36.7478 30.9858 33.6328V6.36722C30.9858 3.23963 28.451 0.704758 25.336 0.704758ZM28.5897 33.6454C28.5897 35.4362 27.1268 36.8991 25.336 36.8991H9.13047C7.33967 36.8991 5.87676 35.4362 5.87676 33.6454V6.36722C5.87676 4.57642 7.33967 3.11351 9.13047 3.11351H25.3234C27.1142 3.11351 28.5771 4.57642 28.5771 6.36722V33.6454H28.5897Z" fill="white"/>
<path d="M24.2009 11.5378H10.2528C9.59703 11.5378 9.05475 12.0801 9.05475 12.7359C9.05475 13.3917 9.59703 13.934 10.2528 13.934H24.2009C24.8567 13.934 25.399 13.3917 25.399 12.7359C25.399 12.0801 24.8693 11.5378 24.2009 11.5378Z" fill="white"/>
<path d="M24.2009 16.3049H10.2528C9.59703 16.3049 9.05475 16.8472 9.05475 17.503C9.05475 18.1588 9.59703 18.701 10.2528 18.701H24.2009C24.8567 18.701 25.399 18.1588 25.399 17.503C25.399 16.8472 24.8693 16.3049 24.2009 16.3049Z" fill="white"/>
<path d="M24.2009 21.0846H10.2528C9.59703 21.0846 9.05475 21.6269 9.05475 22.2827C9.05475 22.9384 9.59703 23.4807 10.2528 23.4807H24.2009C24.8567 23.4807 25.399 22.9384 25.399 22.2827C25.399 21.6269 24.8693 21.0846 24.2009 21.0846Z" fill="white"/>
<path d="M24.2009 25.8517H10.2528C9.59703 25.8517 9.05475 26.3939 9.05475 27.0497C9.05475 27.7055 9.59703 28.2478 10.2528 28.2478H24.2009C24.8567 28.2478 25.399 27.7055 25.399 27.0497C25.399 26.3939 24.8693 25.8517 24.2009 25.8517Z" fill="white"/>
<path d="M24.2009 30.6313H10.2528C9.59703 30.6313 9.05475 31.1736 9.05475 31.8294C9.05475 32.4852 9.59703 33.0274 10.2528 33.0274H24.2009C24.8567 33.0274 25.399 32.4852 25.399 31.8294C25.399 31.1736 24.8693 30.6313 24.2009 30.6313Z" fill="white"/>
</svg>

