<svg width="32" height="40" viewBox="0 0 32 40" fill="none" xmlns="http://www.w3.org/2000/svg">
<path d="M8.58453 4.53897C8.82415 4.80381 9.15204 4.94253 9.47993 4.94253C9.75738 4.94253 10.0474 4.84164 10.2744 4.63986C10.7663 4.19847 10.8167 3.44179 10.3753 2.94995L8.73587 1.09609C8.29447 0.604255 7.5378 0.553811 7.04596 0.995205C6.55412 1.4366 6.50367 2.19328 6.94506 2.68511L8.58453 4.53897Z" fill="white"/>
<path d="M4.47339 6.93471L6.61731 8.158C6.80648 8.25889 7.00826 8.32195 7.21004 8.32195C7.62621 8.32195 8.02977 8.10756 8.25678 7.71661C8.58467 7.13649 8.38289 6.40504 7.81538 6.07715L5.67146 4.85385C5.09134 4.52596 4.35989 4.72774 4.032 5.29525C3.7041 5.87537 3.90588 6.60682 4.47339 6.93471Z" fill="white"/>
<path d="M2.90957 11.6766L5.28049 12.3954C5.39399 12.4332 5.52011 12.4459 5.63361 12.4459C6.15067 12.4459 6.61729 12.118 6.78123 11.6009C6.9704 10.9703 6.61729 10.3019 5.98672 10.1002L3.6158 9.38132C2.98524 9.19215 2.31684 9.54526 2.11506 10.1758C1.91328 10.819 2.27901 11.4874 2.90957 11.6766Z" fill="white"/>
<path d="M2.10292 16.7337H2.11553L4.58734 16.7085C5.24313 16.6959 5.78541 16.1536 5.7728 15.4978C5.76019 14.842 5.23052 14.3123 4.57473 14.3123H4.56212L2.09031 14.3375C1.43452 14.3502 0.892237 14.8924 0.904848 15.5482C0.904848 16.204 1.44713 16.7337 2.10292 16.7337Z" fill="white"/>
<path d="M30.7805 26.0408L29.4184 24.6788C28.9518 24.2122 28.1952 24.2122 27.7285 24.6788L27.5646 24.8427L26.3665 23.6447C26.253 23.5312 26.1773 23.3672 26.1773 23.2033V19.0163C26.1773 18.6254 26.1017 18.247 25.963 17.8939L20.8932 5.20697C20.5779 4.39985 19.9221 3.7819 19.115 3.47923C18.3079 3.18917 17.3999 3.25222 16.6432 3.6684C16.4036 3.79451 16.1892 3.95845 16 4.13501C15.8109 3.95845 15.5965 3.79451 15.3569 3.6684C14.6002 3.25222 13.6922 3.18917 12.8851 3.47923C12.0779 3.76929 11.4221 4.39985 11.1069 5.20697L6.03713 17.8939C5.89841 18.247 5.82274 18.6254 5.82274 19.0163V23.2033C5.82274 23.3672 5.75968 23.5312 5.63357 23.6447L4.4355 24.8427L4.27155 24.6788C3.80494 24.2122 3.04826 24.2122 2.58164 24.6788L1.21962 26.0408C0.753005 26.5074 0.753005 27.2641 1.21962 27.7307C1.68624 28.1973 2.44292 28.1973 2.90954 27.7307L3.41399 27.2263L3.57793 27.3902L9.97185 33.7841L11.0564 34.8687L9.29084 37.4288C8.9125 37.9711 9.05123 38.7151 9.59351 39.0935C9.79529 39.2322 10.0349 39.3079 10.2745 39.3079C10.6529 39.3079 11.0312 39.1313 11.2582 38.7908L13.5913 35.3984C13.9192 34.9191 13.8561 34.276 13.4526 33.8724L12.4184 32.8383L15.9874 28.273L19.5564 32.8383L18.5223 33.8724C18.1187 34.276 18.0557 34.9191 18.3836 35.3984L20.7167 38.7908C20.9437 39.1313 21.322 39.3079 21.7003 39.3079C21.94 39.3079 22.167 39.2448 22.3814 39.0935C22.9236 38.7151 23.0624 37.9711 22.684 37.4288L20.9184 34.8687L22.003 33.7841L28.3969 27.3902L28.5609 27.2263L29.0653 27.7307C29.5319 28.1973 30.2886 28.1973 30.7552 27.7307C31.2471 27.2641 31.2471 26.5074 30.7805 26.0408ZM16 17.0237C15.7226 16.7967 15.4073 16.6076 15.0668 16.4815C14.9659 16.4436 14.865 16.4184 14.7641 16.3806L16 10.8568L17.2359 16.3806C17.1351 16.4058 17.0342 16.4436 16.9333 16.4815C16.5928 16.6076 16.2775 16.7967 16 17.0237ZM14.6632 26.1039L10.7285 31.1358L6.13802 26.5453L7.33609 25.3472C7.9036 24.7797 8.21888 24.0104 8.21888 23.2033V19.0163C8.21888 18.9407 8.2315 18.8524 8.26933 18.7767L13.3391 6.08976C13.4273 5.86276 13.6165 5.76187 13.7048 5.73664C13.8057 5.69881 14.0075 5.66098 14.2219 5.77448C14.4741 5.9132 14.6002 6.19065 14.5371 6.4681L12.2293 16.7337C11.3843 17.2381 10.8042 18.0957 10.6655 19.0794L10.1862 22.3457C10.0854 23.0015 10.5394 23.6068 11.1951 23.7077C11.8509 23.8086 12.4563 23.3546 12.5572 22.6988L13.0364 19.4325C13.0868 19.0668 13.3265 18.8776 13.4652 18.7893C13.6039 18.7137 13.8813 18.5875 14.2345 18.7263C14.575 18.8524 14.8146 19.1929 14.8146 19.5586V25.6751C14.802 25.839 14.7515 25.9777 14.6632 26.1039ZM17.1981 25.6751V19.5586C17.1981 19.1929 17.4251 18.8524 17.7782 18.7263C18.1314 18.6001 18.4088 18.7137 18.5475 18.7893C18.6862 18.865 18.9259 19.0668 18.9763 19.4325L19.4555 22.6988C19.5564 23.3546 20.1618 23.8086 20.8176 23.7077C21.4733 23.6068 21.9273 23.0015 21.8265 22.3457L21.3472 19.0794C21.2085 18.0957 20.6284 17.2381 19.7834 16.7337L17.4756 6.4681C17.4125 6.19065 17.5386 5.9132 17.7908 5.77448C18.0052 5.66098 18.207 5.69881 18.3079 5.73664C18.4088 5.77448 18.5854 5.86276 18.6736 6.08976L23.7434 18.7893C23.7686 18.865 23.7938 18.9407 23.7938 19.0289V23.2033C23.7938 24.0104 24.1091 24.7671 24.6766 25.3472L25.8747 26.5453L21.2842 31.1358L17.3494 26.1039C17.2486 25.9777 17.1981 25.839 17.1981 25.6751Z" fill="white"/>
<path d="M21.7256 4.62685C21.9526 4.82863 22.2426 4.92952 22.5201 4.92952C22.848 4.92952 23.1759 4.7908 23.4155 4.52596L25.0549 2.6721C25.4963 2.18026 25.4459 1.42359 24.9541 0.982193C24.4622 0.540799 23.7055 0.591243 23.2642 1.08308L21.6247 2.93694C21.1833 3.42878 21.2337 4.19807 21.7256 4.62685Z" fill="white"/>
<path d="M23.7433 7.71662C23.9703 8.10757 24.3739 8.32196 24.79 8.32196C24.9918 8.32196 25.1936 8.27152 25.3828 8.15801L27.5267 6.93472C28.1068 6.60683 28.296 5.87538 27.9681 5.29526C27.6402 4.71514 26.9087 4.52597 26.3286 4.85386L24.1847 6.07716C23.6172 6.40505 23.4154 7.1365 23.7433 7.71662Z" fill="white"/>
<path d="M25.2315 11.6009C25.3828 12.118 25.862 12.4459 26.3791 12.4459C26.4926 12.4459 26.6061 12.4332 26.7322 12.3954L29.1031 11.6766C29.7337 11.4874 30.0868 10.819 29.8976 10.1758C29.7085 9.54526 29.0401 9.19215 28.3969 9.38132L26.026 10.1002C25.3954 10.3019 25.0423 10.9703 25.2315 11.6009Z" fill="white"/>
<path d="M27.4384 14.3123H27.4258C26.77 14.3123 26.2404 14.842 26.2278 15.4978C26.2151 16.1536 26.7574 16.6959 27.4132 16.7085L29.885 16.7337H29.8976C30.5534 16.7337 31.0831 16.204 31.0957 15.5482C31.1083 14.8924 30.566 14.3502 29.9102 14.3375L27.4384 14.3123Z" fill="white"/>
</svg>

