<svg width="28" height="28" viewBox="0 0 28 28" fill="none" xmlns="http://www.w3.org/2000/svg">
<path fill-rule="evenodd" clip-rule="evenodd" d="M5.54297 5.2926H13.5771V12.0582H5.54297V5.2926ZM5.96582 5.71545H13.1543V11.6354H5.96582V5.71545Z" fill="#FF4F4F"/>
<path fill-rule="evenodd" clip-rule="evenodd" d="M4.69727 4.4469V14.5953H16.1143V4.4469H4.69727ZM15.6914 4.86975H5.12012V14.1725H15.6914V4.86975Z" fill="#FF4F4F"/>
<path fill-rule="evenodd" clip-rule="evenodd" d="M3.85156 3.6012H18.6514V17.1324H3.85156V3.6012ZM4.27441 4.02405H18.2285V16.7096H4.27441V4.02405Z" fill="#FF4F4F"/>
<path fill-rule="evenodd" clip-rule="evenodd" d="M3.00586 2.75549V19.6696H20.7656V2.75549H3.00586ZM20.3428 3.17834H3.42871V19.2467H20.3428V3.17834Z" fill="#FF4F4F"/>
<path fill-rule="evenodd" clip-rule="evenodd" d="M2.16016 1.90979H22.8799V22.2067H2.16016V1.90979ZM2.58301 2.33264H22.457V21.7838H2.58301V2.33264Z" fill="#FF4F4F"/>
<path fill-rule="evenodd" clip-rule="evenodd" d="M1.31445 1.06409V24.7438H24.9941V1.06409H1.31445ZM24.5713 1.48694H1.7373V24.3209H24.5713V1.48694Z" fill="#FF4F4F"/>
<path fill-rule="evenodd" clip-rule="evenodd" d="M0.46875 0.218384V27.2809H27.5312V0.218384H0.46875ZM27.1084 0.641235H0.891602V26.858H27.1084V0.641235Z" fill="#FF4F4F"/>
</svg>
