<svg width="36" height="38" viewBox="0 0 36 38" fill="none" xmlns="http://www.w3.org/2000/svg">
<path d="M27.9882 33.8939C27.6981 33.8939 27.4206 33.8056 27.1684 33.6291L18 26.9703L8.83162 33.6291C8.33979 33.9822 7.684 33.9822 7.20477 33.6291C6.71293 33.276 6.51115 32.6454 6.70032 32.0779L10.2063 21.3079L1.03786 14.6491C0.546018 14.296 0.344238 13.6654 0.533407 13.0979C0.722576 12.5304 1.25225 12.1395 1.85759 12.1395H13.1825L16.6885 1.36944C16.8776 0.80193 17.4073 0.41098 18.0126 0.41098C18.618 0.41098 19.1476 0.80193 19.3368 1.36944L22.8428 12.1395H34.1677C34.773 12.1395 35.3027 12.5304 35.4919 13.0979C35.681 13.6654 35.4792 14.296 34.9874 14.6491L25.819 21.3079L29.3249 32.0779C29.5141 32.6454 29.3123 33.276 28.8205 33.6291C28.5557 33.8056 28.2656 33.8939 27.9882 33.8939ZM18 23.868C18.2901 23.868 18.5675 23.9562 18.8198 24.1328L25.3398 28.8746L22.8428 21.207C22.6536 20.6395 22.8554 20.0089 23.3472 19.6558L29.8672 14.9139H21.796C21.1907 14.9139 20.661 14.523 20.4718 13.9555L17.9748 6.28783L15.4778 13.9555C15.2886 14.523 14.7589 14.9139 14.1536 14.9139H6.08237L12.6024 19.6558C13.0942 20.0089 13.296 20.6395 13.1068 21.207L10.6098 28.8746L17.1298 24.1328C17.4325 23.9562 17.71 23.868 18 23.868Z" fill="white"/>
<path d="M1.9207 25.5452C1.34059 25.5452 0.81091 25.1795 0.60913 24.612C0.356904 23.8932 0.747854 23.0987 1.4667 22.8464L5.96892 21.3079C6.68777 21.0556 7.48228 21.4466 7.7345 22.1654C7.98673 22.8843 7.59578 23.6788 6.87694 23.931L2.37471 25.4696C2.22337 25.52 2.05943 25.5452 1.9207 25.5452Z" fill="white"/>
<path d="M34.1172 25.5453C33.9658 25.5453 33.8145 25.52 33.6632 25.4696L29.1609 23.931C28.4421 23.6788 28.0511 22.8969 28.3034 22.1654C28.5556 21.434 29.3375 21.0556 30.069 21.3079L34.5712 22.8464C35.29 23.0987 35.681 23.8806 35.4287 24.612C35.227 25.1795 34.6973 25.5453 34.1172 25.5453Z" fill="white"/>
<path d="M25.1633 10.5757C24.8984 10.5757 24.6336 10.5 24.394 10.3361C23.7508 9.90728 23.5869 9.04972 24.003 8.40654L26.6388 4.4466C27.0676 3.80342 27.9251 3.63948 28.5683 4.05565C29.2115 4.48443 29.3754 5.342 28.9593 5.98517L26.3235 9.94512C26.0587 10.3613 25.6173 10.5757 25.1633 10.5757Z" fill="white"/>
<path d="M10.7486 10.5757C10.2946 10.5757 9.86577 10.3613 9.58832 9.9577L6.95256 5.99776C6.52378 5.35459 6.70034 4.49702 7.34351 4.06824C7.98669 3.63946 8.84426 3.81602 9.27304 4.45919L11.9088 8.41913C12.3376 9.0623 12.161 9.91987 11.5178 10.3486C11.2782 10.5 11.0134 10.5757 10.7486 10.5757Z" fill="white"/>
<path d="M18.0001 37.6016C17.2308 37.6016 16.6129 36.9837 16.6129 36.2144V31.4599C16.6129 30.6906 17.2308 30.0727 18.0001 30.0727C18.7694 30.0727 19.3874 30.6906 19.3874 31.4599V36.2144C19.3874 36.9837 18.7694 37.6016 18.0001 37.6016Z" fill="white"/>
</svg>

