<svg width="42" height="23" viewBox="0 0 42 23" fill="none" xmlns="http://www.w3.org/2000/svg">
<path d="M34.5356 14.4231H2.74053C1.4139 14.4231 0.413879 16.089 0.413879 18.2996C0.413879 20.5102 1.4139 22.1773 2.74053 22.1773H34.5356C34.7985 22.1695 35.0564 22.1042 35.2913 21.9859C35.5262 21.8676 35.7323 21.6992 35.895 21.4926C36.5003 20.7977 36.8622 19.601 36.8622 18.2996C36.8622 16.9982 36.5003 15.8027 35.9013 15.1142C35.5205 14.6677 35.0362 14.4231 34.5356 14.4231ZM2.91456 20.6262C2.76071 20.6262 2.13901 19.8784 2.13901 18.2996C2.13901 16.7207 2.76071 15.9729 2.91456 15.9729H11.7243C11.7142 15.9969 11.7067 16.0246 11.6966 16.0486C11.6713 16.1091 11.6499 16.1747 11.6272 16.2365C11.5793 16.3626 11.5351 16.5064 11.5011 16.6501C11.4809 16.7258 11.462 16.8014 11.4444 16.8784C11.4116 17.0297 11.3838 17.1861 11.3611 17.3462C11.351 17.4194 11.3384 17.49 11.3309 17.5657C11.2754 18.0534 11.2754 18.5458 11.3309 19.0335C11.3384 19.1092 11.351 19.1811 11.3611 19.2542C11.3838 19.4144 11.4116 19.5707 11.4444 19.7208C11.462 19.799 11.4809 19.8746 11.5011 19.949C11.5402 20.0941 11.5843 20.2303 11.6272 20.3639C11.6499 20.427 11.6713 20.49 11.6966 20.5506C11.7067 20.5758 11.7142 20.6023 11.7243 20.6262H2.91456ZM35.4952 18.2971C35.4952 19.77 34.8496 20.9629 34.0539 20.9629C33.2581 20.9629 32.6112 19.7725 32.6112 18.2971C32.6112 16.8216 33.2569 15.6324 34.0539 15.6324C34.8508 15.6324 35.4952 16.8279 35.4952 18.2971Z" fill="white"/>
<path d="M31.103 13.1267C30.866 13.1269 30.6342 13.0567 30.4371 12.925C30.24 12.7934 30.0863 12.6063 29.9956 12.3873C29.9049 12.1683 29.8811 11.9273 29.9274 11.6948C29.9737 11.4624 30.0879 11.2488 30.2556 11.0813L31.9719 9.37257C32.2294 9.114 32.3739 8.76395 32.3739 8.39903C32.3739 8.03411 32.2294 7.68405 31.9719 7.42549C31.6213 7.0753 31.3431 6.65944 31.1534 6.20169C30.9636 5.74393 30.8659 5.25326 30.8659 4.75772C30.8659 4.26219 30.9636 3.77151 31.1534 3.31376C31.3431 2.856 31.6213 2.44014 31.9719 2.08995L33.6692 0.390046C33.8941 0.166217 34.1987 0.0407584 34.516 0.0411999C34.8333 0.0416414 35.1375 0.167947 35.3617 0.392401C35.586 0.616855 35.7121 0.92112 35.7123 1.23843C35.7125 1.55574 35.5868 1.86016 35.3628 2.08491L33.6617 3.78481C33.5337 3.91249 33.4323 4.06414 33.363 4.23108C33.2938 4.39803 33.2581 4.57699 33.2581 4.75772C33.2581 4.93846 33.2938 5.11742 33.363 5.28436C33.4323 5.45131 33.5337 5.60295 33.6617 5.73063C34.3691 6.4382 34.7666 7.39781 34.7666 8.3984C34.7666 9.39898 34.3691 10.3586 33.6617 11.0662L31.9504 12.7787C31.7251 13.0023 31.4204 13.1274 31.103 13.1267Z" fill="white"/>
<path d="M36.9757 13.1267C36.7396 13.1254 36.5092 13.0543 36.3133 12.9224C36.1175 12.7905 35.965 12.6037 35.875 12.3854C35.785 12.1672 35.7615 11.9272 35.8075 11.6956C35.8534 11.464 35.9668 11.2512 36.1333 11.0838L37.8445 9.37257C37.9725 9.24479 38.074 9.09303 38.1433 8.92599C38.2125 8.75894 38.2482 8.57987 38.2482 8.39903C38.2482 8.21819 38.2125 8.03913 38.1433 7.87208C38.074 7.70503 37.9725 7.55328 37.8445 7.4255C37.1395 6.71662 36.7438 5.7575 36.7438 4.75773C36.7438 3.75796 37.1395 2.79883 37.8445 2.08996L39.5381 0.390049C39.7629 0.165296 40.0677 0.039032 40.3856 0.039032C40.7034 0.039032 41.0083 0.165296 41.233 0.390049C41.4578 0.614802 41.584 0.919632 41.584 1.23748C41.584 1.55533 41.4578 1.86016 41.233 2.08491L39.5381 3.78482C39.4104 3.91258 39.309 4.06425 39.2399 4.23119C39.1707 4.39812 39.1351 4.57704 39.1351 4.75773C39.1351 4.93842 39.1707 5.11733 39.2399 5.28427C39.309 5.4512 39.4104 5.60287 39.5381 5.73063C40.2456 6.43821 40.6431 7.39782 40.6431 8.3984C40.6431 9.39899 40.2456 10.3586 39.5381 11.0662L37.8231 12.7787C37.7116 12.8895 37.5794 12.9773 37.434 13.037C37.2886 13.0967 37.1329 13.1272 36.9757 13.1267Z" fill="white"/>
</svg>

