<svg xmlns="http://www.w3.org/2000/svg" width="32" height="32" viewBox="0 0 32 32" fill="none">
  <path d="M12.8001 7.99995C11.9164 7.99995 11.2001 8.71629 11.2001 9.59995C11.2001 10.4836 11.9164 11.1999 12.8001 11.1999L21.7373 11.2L19.6687 13.2686C19.0438 13.8934 19.0438 14.9065 19.6687 15.5313C20.2935 16.1562 21.3066 16.1562 21.9314 15.5313L26.7314 10.7313C27.0315 10.4313 27.2001 10.0243 27.2001 9.59995C27.2001 9.17561 27.0315 8.76864 26.7314 8.46858L21.9314 3.66858C21.3066 3.04374 20.2935 3.04374 19.6687 3.66858C19.0438 4.29342 19.0438 5.30648 19.6687 5.93132L21.7373 7.99995L12.8001 7.99995Z" fill="#2874AF"/>
  <path d="M19.2 24C20.0837 24 20.8001 23.2836 20.8001 22.4C20.8001 21.5163 20.0837 20.8 19.2001 20.8L10.2628 20.8L12.3314 18.7313C12.9563 18.1065 12.9563 17.0934 12.3314 16.4686C11.7066 15.8437 10.6935 15.8437 10.0687 16.4686L5.26868 21.2686C4.96862 21.5686 4.80005 21.9756 4.80005 22.4C4.80005 22.8243 4.96862 23.2313 5.26868 23.5313L10.0687 28.3313C10.6935 28.9562 11.7066 28.9562 12.3314 28.3313C12.9563 27.7065 12.9563 26.6934 12.3314 26.0686L10.2628 24H19.2Z" fill="#2874AF"/>
</svg>
