<svg width="32" height="39" viewBox="0 0 32 39" fill="none" xmlns="http://www.w3.org/2000/svg">
<path d="M23.5541 38.7441H10.1735C5.10381 38.7441 0.979919 34.6202 0.979919 29.5504V22.5134C0.979919 20.7982 1.48437 19.1461 2.44283 17.7337L8.49624 8.74184C8.59713 8.60312 8.6728 8.43917 8.72324 8.27523L10.5645 2.28487C10.9554 0.99852 12.1283 0.128342 13.4777 0.128342H15.0163C16.6683 0.128342 18.1691 0.89763 19.1275 2.23443C20.086 3.57122 20.3382 5.24852 19.8086 6.81232L17.3115 14.026H27.3501C29.3805 14.026 31.0326 15.678 31.0326 17.7085V18.3138C31.0326 19.638 30.3264 20.7982 29.2796 21.454C29.5949 21.9963 29.7715 22.6269 29.7715 23.2953V23.9006C29.7715 25.2248 29.0652 26.385 28.0185 27.0408C28.3338 27.5831 28.5103 28.2137 28.5103 28.8821V29.4874C28.5103 30.8116 27.8041 31.9718 26.7574 32.6276C27.0727 33.1699 27.2492 33.8004 27.2492 34.4688V35.0742C27.2366 37.092 25.5845 38.7441 23.5541 38.7441ZM17.3494 36.3479H23.5667C24.273 36.3479 24.8531 35.7678 24.8531 35.0616V34.4562C24.8531 33.75 24.273 33.1699 23.5667 33.1699H17.7781C17.1224 33.1699 16.5801 32.6276 16.5801 31.9718C16.5801 31.316 17.1224 30.7737 17.7781 30.7737H24.8278C25.5341 30.7737 26.1142 30.1936 26.1142 29.4874V28.8821C26.1142 28.1758 25.5341 27.5957 24.8278 27.5957H19.0393C18.3835 27.5957 17.8412 27.0534 17.8412 26.3976C17.8412 25.7418 18.3835 25.1996 19.0393 25.1996H26.089C26.7952 25.1996 27.3753 24.6194 27.3753 23.9132V23.3079C27.3753 22.6016 26.7952 22.0215 26.089 22.0215H20.3004C19.6446 22.0215 19.1023 21.4792 19.1023 20.8234C19.1023 20.1677 19.6446 19.6254 20.3004 19.6254H27.3501C28.0563 19.6254 28.6365 19.0453 28.6365 18.339V17.7337C28.6365 17.0275 28.0563 16.4473 27.3501 16.4473H15.6342C15.2433 16.4473 14.8902 16.2582 14.6632 15.9429C14.4362 15.6276 14.3857 15.224 14.4992 14.8583L17.5259 6.06825C17.8034 5.24852 17.6773 4.36573 17.1602 3.6595C16.6557 2.95327 15.8612 2.54971 14.9911 2.54971H13.4525C13.1624 2.54971 12.9102 2.73888 12.8345 3.00371L10.9933 8.99407C10.8798 9.38502 10.7032 9.75075 10.4636 10.0913L4.41019 19.0831C3.71657 20.1046 3.36345 21.2901 3.36345 22.526V29.5631C3.36345 33.3086 6.41538 36.3605 10.1609 36.3605H17.3494V36.3479Z" fill="white"/>
</svg>

