<svg width="32" height="40" viewBox="0 0 32 40" fill="none" xmlns="http://www.w3.org/2000/svg">
<path d="M22.5705 0.641663H9.4295C4.75071 0.641663 0.942108 4.45027 0.942108 9.12905V33.3175C0.942108 33.9733 1.48439 34.5156 2.14018 34.5156H3.32564V38.1602C3.32564 38.816 3.86793 39.3583 4.52371 39.3583H8.40798C9.06377 39.3583 9.60606 38.816 9.60606 38.1602V34.5156H22.3561V38.1602C22.3561 38.816 22.8983 39.3583 23.5541 39.3583H27.4384C28.0942 39.3583 28.6365 38.816 28.6365 38.1602V34.5156H29.8598C30.5156 34.5156 31.0578 33.9733 31.0578 33.3175V9.12905C31.0578 4.45027 27.2492 0.641663 22.5705 0.641663ZM12.494 6.24107H19.5059C20.1617 6.24107 20.704 6.78335 20.704 7.43914C20.704 8.09493 20.1617 8.63721 19.5059 8.63721H12.494C11.8383 8.63721 11.296 8.09493 11.296 7.43914C11.296 6.78335 11.8383 6.24107 12.494 6.24107ZM6.91985 29.4332C6.25146 29.4332 5.72178 28.8909 5.72178 28.2351C5.72178 27.5667 6.26407 27.0371 6.91985 27.0371C7.58825 27.0371 8.11793 27.5793 8.11793 28.2351C8.11793 28.9035 7.58825 29.4332 6.91985 29.4332ZM19.5059 29.4332H12.494C11.8383 29.4332 11.296 28.8909 11.296 28.2351C11.296 27.5793 11.8383 27.0371 12.494 27.0371H19.5059C20.1617 27.0371 20.704 27.5793 20.704 28.2351C20.704 28.8909 20.1743 29.4332 19.5059 29.4332ZM6.91985 24.3509C6.26407 24.3509 5.72178 23.8086 5.72178 23.1528V12.7737C5.72178 12.1179 6.26407 11.5756 6.91985 11.5756H25.0801C25.7359 11.5756 26.2782 12.1179 26.2782 12.7737V23.1528C26.2782 23.8086 25.7359 24.3509 25.0801 24.3509H6.91985ZM25.0801 29.4332C24.4117 29.4332 23.882 28.8909 23.882 28.2351C23.882 27.5667 24.4243 27.0371 25.0801 27.0371C25.7359 27.0371 26.2782 27.5793 26.2782 28.2351C26.2782 28.9035 25.7485 29.4332 25.0801 29.4332Z" fill="white"/>
<path d="M8.44578 21.9547H23.5541C23.7306 21.9547 23.882 21.8034 23.882 21.6268V14.2997C23.882 14.1231 23.7306 13.9718 23.5541 13.9718H8.44578C8.26922 13.9718 8.11789 14.1231 8.11789 14.2997V21.6268C8.11789 21.8034 8.26922 21.9547 8.44578 21.9547Z" fill="white"/>
</svg>

