<svg width="20" height="18" viewBox="0 0 20 18" fill="none" xmlns="http://www.w3.org/2000/svg">
<path d="M6.29 17.2468C13.837 17.2468 17.965 10.9938 17.965 5.57181C17.965 5.39381 17.965 5.21681 17.953 5.04181C18.7562 4.46033 19.4493 3.74042 20 2.91581C19.2511 3.24781 18.4566 3.46557 17.643 3.56181C18.4996 3.04887 19.1408 2.24215 19.447 1.29181C18.6417 1.76969 17.7607 2.10654 16.842 2.28781C16.2234 1.62957 15.405 1.19364 14.5136 1.04751C13.6222 0.901382 12.7075 1.05321 11.9111 1.47948C11.1147 1.90574 10.4811 2.58268 10.1083 3.40547C9.7355 4.22825 9.64437 5.15099 9.849 6.03081C8.21759 5.94905 6.6216 5.52513 5.16465 4.78658C3.70769 4.04802 2.42233 3.01133 1.392 1.74381C0.867318 2.64701 0.706589 3.71623 0.942536 4.73377C1.17848 5.75131 1.79337 6.64068 2.662 7.22081C2.00926 7.20191 1.37063 7.02631 0.8 6.70881V6.76081C0.800389 7.7081 1.1284 8.62611 1.7284 9.35916C2.3284 10.0922 3.16347 10.5952 4.092 10.7828C3.48781 10.9475 2.85389 10.9715 2.239 10.8528C2.50116 11.6683 3.01168 12.3814 3.69913 12.8924C4.38658 13.4034 5.21657 13.6868 6.073 13.7028C5.22212 14.3714 4.24779 14.8656 3.20573 15.1573C2.16367 15.449 1.07432 15.5325 0 15.4028C1.8766 16.6071 4.06019 17.2459 6.29 17.2428" fill="white"/>
</svg>
