<svg width="17" height="16" viewBox="0 0 17 16" fill="none" xmlns="http://www.w3.org/2000/svg">
<path fill-rule="evenodd" clip-rule="evenodd" d="M16.25 8C16.25 12.4183 12.6683 16 8.25 16C3.83172 16 0.25 12.4183 0.25 8C0.25 3.58172 3.83172 0 8.25 0C12.6683 0 16.25 3.58172 16.25 8ZM10.25 5C10.25 6.10457 9.35457 7 8.25 7C7.14543 7 6.25 6.10457 6.25 5C6.25 3.89543 7.14543 3 8.25 3C9.35457 3 10.25 3.89543 10.25 5ZM8.24993 9C6.23239 9 4.49394 10.195 3.70374 11.9157C4.80403 13.192 6.43265 14 8.24998 14C10.0673 14 11.6959 13.1921 12.7962 11.9158C12.006 10.195 10.2675 9 8.24993 9Z" fill="#3B8BCA"/>
</svg>
