<svg width="34" height="34" viewBox="0 0 34 34" fill="none" xmlns="http://www.w3.org/2000/svg">
<path d="M20.8969 17L33.1551 4.74184C34.227 3.66988 34.227 1.92953 33.1551 0.84496C32.0831 -0.23961 30.3428 -0.226999 29.2582 0.84496L17 13.1031L4.74186 0.84496C3.6699 -0.226999 1.92955 -0.226999 0.844979 0.84496C-0.239591 1.91692 -0.22698 3.65727 0.844979 4.74184L13.1031 17L0.844979 29.2582C-0.22698 30.3301 -0.22698 32.0705 0.844979 33.1551C1.38726 33.6973 2.08088 33.9622 2.78712 33.9622C3.49335 33.9622 4.19958 33.6973 4.72925 33.1551L16.9874 20.8969L29.2456 33.1551C29.7879 33.6973 30.4815 33.9622 31.1877 33.9622C31.8939 33.9622 32.6002 33.6973 33.1299 33.1551C34.2018 32.0831 34.2018 30.3427 33.1299 29.2582L20.8969 17Z" fill="white"/>
</svg>

