<?xml version="1.0" encoding="UTF-8"?>
<svg id="Layer_2" data-name="Layer 2" xmlns="http://www.w3.org/2000/svg" viewBox="0 0 75 75">
  <defs>
    <style>
      .cls-1 {
        fill: #fff;
      }

      .cls-2 {
        fill: #825eb8;
      }
    </style>
  </defs>
  <g id="Layer_1-2" data-name="Layer 1">
    <g>
      <path class="cls-2" d="M37.5,75c20.71,0,37.5-16.79,37.5-37.5S58.21,0,37.5,0,0,16.79,0,37.5s16.79,37.5,37.5,37.5Z"/>
      <path class="cls-2" d="M37.5,69.51c17.68,0,32.01-14.33,32.01-32.01S55.18,5.49,37.5,5.49,5.49,19.82,5.49,37.5s14.33,32.01,32.01,32.01Z"/>
      <path class="cls-1" d="M51,28.35h-7.54c-1.22,0-1.5-.83-1.53-1.53v-7.48c2.77,.42,8.33,2.13,9.07,9.01Zm3.14,29c0-.85-.68-1.53-1.53-1.53H27.94c-.76-.01-4.59-.26-4.59-4.58V23.78c.01-.76,.26-4.59,4.58-4.59h10.96v7.64c0,1.84,1.22,4.58,4.58,4.58h9.17c.85,0,1.53-.68,1.53-1.53,0-10.86-8.99-13.74-13.74-13.74h-12.48c-6.04,0-7.64,4.99-7.64,7.64v27.47c0,6.04,4.99,7.64,7.64,7.64h24.69c.83,.01,1.52-.68,1.52-1.52ZM26.4,29.87c0-.85,.68-1.53,1.53-1.53h3.32c.85,0,1.53,.68,1.53,1.53s-.68,1.53-1.53,1.53h-3.32c-.85,0-1.53-.68-1.53-1.53Zm12.69,6.11c0,.85-.68,1.53-1.53,1.53h-9.63c-.85,0-1.53-.68-1.53-1.53s.68-1.53,1.53-1.53h9.63c.85,.01,1.53,.7,1.53,1.53Zm-2.42,7.53c0,.85-.68,1.53-1.53,1.53h-7.21c-.85,0-1.53-.68-1.53-1.53s.68-1.53,1.53-1.53h7.21c.85,.01,1.53,.7,1.53,1.53Zm2.42,7.64c0,.85-.68,1.53-1.53,1.53h-9.63c-.85,0-1.53-.68-1.53-1.53s.68-1.53,1.53-1.53h9.63c.85,0,1.53,.68,1.53,1.53Z"/>
      <path class="cls-1" d="M48.89,53.84c5.65,0,10.22-4.58,10.22-10.22s-4.58-10.22-10.22-10.22-10.22,4.58-10.22,10.22,4.58,10.22,10.22,10.22Z"/>
      <path class="cls-2" d="M53.74,36.19c-.24-.11-.5-.01-.63,.21l-5.83,10.61-4.69-2.5c-.21-.11-.47-.06-.61,.13-.14,.18-.14,.45,.03,.63l5.83,6.36c.1,.1,.22,.15,.36,.15,.03,0,.07,0,.1-.01,.17-.03,.31-.15,.36-.31l5.34-14.66c.07-.22-.04-.49-.26-.6Z"/>
    </g>
  </g>
</svg>