<svg width="21" height="18" viewBox="0 0 21 18" fill="none" xmlns="http://www.w3.org/2000/svg">
<path d="M0.515469 3.90187L10.5117 8.89937L20.508 3.90187C20.471 3.26493 20.1918 2.66623 19.7277 2.22841C19.2637 1.79058 18.6497 1.54676 18.0117 1.54688H3.01172C2.3737 1.54676 1.75978 1.79058 1.29569 2.22841C0.831604 2.66623 0.552474 3.26493 0.515469 3.90187Z" fill="#828282"/>
<path d="M20.5117 6.69438L10.5117 11.6944L0.511719 6.69438V14.0469C0.511719 14.7099 0.775111 15.3458 1.24395 15.8146C1.71279 16.2835 2.34868 16.5469 3.01172 16.5469H18.0117C18.6748 16.5469 19.3106 16.2835 19.7795 15.8146C20.2483 15.3458 20.5117 14.7099 20.5117 14.0469V6.69438Z" fill="#828282"/>
</svg>
