<svg width="84" height="19" viewBox="0 0 84 19" fill="none" xmlns="http://www.w3.org/2000/svg">
  <path fill-rule="evenodd" clip-rule="evenodd" d="M15.338 15.838H12.67V11.66C12.67 10.665 12.653 9.383 11.283 9.383C9.893 9.383 9.682 10.469 9.682 11.59V15.838H7.014V7.248H9.573V8.422H9.61C9.966 7.747 10.837 7.035 12.136 7.035C14.839 7.035 15.339 8.813 15.339 11.127V15.838H15.338ZM4.005 6.075C3.80171 6.0752 3.60038 6.03535 3.41249 5.95774C3.2246 5.88013 3.05384 5.76627 2.90996 5.62266C2.76607 5.47906 2.65188 5.30852 2.57391 5.12078C2.49593 4.93304 2.4557 4.73179 2.4555 4.5285C2.4553 4.32521 2.49515 4.12388 2.57276 3.93599C2.65037 3.7481 2.76423 3.57734 2.90784 3.43346C3.05144 3.28957 3.22198 3.17538 3.40972 3.09741C3.59746 3.01943 3.79871 2.9792 4.002 2.979C4.41255 2.9786 4.80645 3.14131 5.09704 3.43134C5.38763 3.72136 5.5511 4.11494 5.5515 4.5255C5.5519 4.93606 5.38919 5.32995 5.09916 5.62054C4.80914 5.91113 4.41556 6.0746 4.005 6.075ZM2.668 15.838H5.34V7.248H2.667V15.838H2.668ZM16.668 0.5H1.328C0.595 0.5 0 1.081 0 1.798V17.201C0 17.918 0.595 18.5 1.328 18.5H16.668C17.402 18.5 18 17.918 18 17.201V1.798C18 1.081 17.402 0.5 16.668 0.5Z" fill="white"/>
  <path d="M31.994 4.162H33.632V12.058H37.748V13.5H31.994V4.162ZM39.9124 5.618C39.6698 5.618 39.4551 5.52933 39.2684 5.352C39.0911 5.17467 39.0024 4.96 39.0024 4.708C39.0024 4.456 39.0911 4.24133 39.2684 4.064C39.4551 3.88667 39.6698 3.798 39.9124 3.798C40.1644 3.798 40.3791 3.88667 40.5564 4.064C40.7338 4.24133 40.8224 4.456 40.8224 4.708C40.8224 4.96 40.7338 5.17467 40.5564 5.352C40.3791 5.52933 40.1644 5.618 39.9124 5.618ZM39.1844 6.738H40.6544V13.5H39.1844V6.738ZM47.1254 9.272C47.1254 8.768 47.0087 8.40867 46.7754 8.194C46.542 7.97933 46.206 7.872 45.7674 7.872C45.4127 7.872 45.0814 7.96067 44.7734 8.138C44.4654 8.31533 44.218 8.53 44.0314 8.782V13.5H42.5614V6.738H44.0314V7.662C44.2834 7.36333 44.6194 7.10667 45.0394 6.892C45.4594 6.67733 45.9167 6.57 46.4114 6.57C47.13 6.57 47.6714 6.75667 48.0354 7.13C48.4087 7.50333 48.5954 8.04 48.5954 8.74V13.5H47.1254V9.272ZM52.9127 10.714L51.9747 11.68V13.5H50.5047V4.162H51.9747V10L54.9567 6.738H56.7767L53.9627 9.804L56.8327 13.5H54.9847L52.9127 10.714ZM57.0984 10.112C57.0984 9.45867 57.2431 8.866 57.5324 8.334C57.8311 7.79267 58.2417 7.36333 58.7644 7.046C59.2871 6.72867 59.8751 6.57 60.5284 6.57C61.1911 6.57 61.7744 6.72867 62.2784 7.046C62.7824 7.36333 63.1697 7.802 63.4404 8.362C63.7204 8.91267 63.8604 9.54267 63.8604 10.252V10.602H58.6384C58.6944 11.134 58.9137 11.5773 59.2964 11.932C59.6791 12.2867 60.1784 12.464 60.7944 12.464C61.1397 12.464 61.4851 12.3987 61.8304 12.268C62.1851 12.1373 62.4791 11.9553 62.7124 11.722L63.3844 12.688C63.0484 13.0053 62.6424 13.248 62.1664 13.416C61.6904 13.584 61.1817 13.668 60.6404 13.668C59.9684 13.668 59.3617 13.5233 58.8204 13.234C58.2884 12.9353 57.8684 12.5153 57.5604 11.974C57.2524 11.4327 57.0984 10.812 57.0984 10.112ZM60.5284 7.774C59.9497 7.774 59.4971 7.956 59.1704 8.32C58.8437 8.67467 58.6617 9.09 58.6244 9.566H62.4324C62.4231 9.27667 62.3484 8.99667 62.2084 8.726C62.0684 8.446 61.8584 8.21733 61.5784 8.04C61.2984 7.86267 60.9484 7.774 60.5284 7.774ZM70.0714 12.576C69.81 12.9213 69.488 13.192 69.1054 13.388C68.732 13.5747 68.3307 13.668 67.9014 13.668C67.3227 13.668 66.8047 13.528 66.3474 13.248C65.89 12.9587 65.5307 12.548 65.2694 12.016C65.0174 11.484 64.8914 10.854 64.8914 10.126C64.8914 9.40733 65.0174 8.782 65.2694 8.25C65.5307 7.70867 65.89 7.29333 66.3474 7.004C66.8047 6.71467 67.3227 6.57 67.9014 6.57C68.3214 6.57 68.718 6.668 69.0914 6.864C69.474 7.05067 69.8007 7.32133 70.0714 7.676V4.162H71.5414V13.5H70.0714V12.576ZM70.0714 8.782C69.9034 8.52067 69.656 8.306 69.3294 8.138C69.0027 7.96067 68.6667 7.872 68.3214 7.872C67.7427 7.872 67.2807 8.082 66.9354 8.502C66.59 8.922 66.4174 9.46333 66.4174 10.126C66.4174 10.7887 66.59 11.33 66.9354 11.75C67.2807 12.1607 67.7427 12.366 68.3214 12.366C68.6667 12.366 69.0027 12.282 69.3294 12.114C69.656 11.946 69.9034 11.7313 70.0714 11.47V8.782ZM73.4881 4.162H75.1261V13.5H73.4881V4.162ZM81.6332 9.272C81.6332 8.768 81.5165 8.40867 81.2832 8.194C81.0499 7.97933 80.7139 7.872 80.2752 7.872C79.9205 7.872 79.5892 7.96067 79.2812 8.138C78.9732 8.31533 78.7259 8.53 78.5392 8.782V13.5H77.0692V6.738H78.5392V7.662C78.7912 7.36333 79.1272 7.10667 79.5472 6.892C79.9672 6.67733 80.4245 6.57 80.9192 6.57C81.6379 6.57 82.1792 6.75667 82.5432 7.13C82.9165 7.50333 83.1032 8.04 83.1032 8.74V13.5H81.6332V9.272Z" fill="white"/>
</svg>
