<svg width="90" height="91" viewBox="0 0 90 91" fill="none" xmlns="http://www.w3.org/2000/svg">
<g filter="url(#filter0_d_10121_35568)">
<path d="M45 61.9863C56.0457 61.9863 65 53.032 65 41.9863C65 30.9406 56.0457 21.9863 45 21.9863C33.9543 21.9863 25 30.9406 25 41.9863C25 53.032 33.9543 61.9863 45 61.9863Z" fill="white"/>
<path d="M45.0004 59.0565C54.4277 59.0565 62.0701 51.4141 62.0701 41.9867C62.0701 32.5594 54.4277 24.917 45.0004 24.917C35.573 24.917 27.9307 32.5594 27.9307 41.9867C27.9307 51.4141 35.573 59.0565 45.0004 59.0565Z" fill="white"/>
<path d="M53.5831 42.647H36.417C36.2686 42.647 36.1499 42.7657 36.1499 42.914V48.7894C36.1499 49.1752 36.4689 49.4942 36.8547 49.4942H53.1455C53.5312 49.4942 53.8502 49.1752 53.8502 48.7894V42.914C53.8502 42.7657 53.7315 42.647 53.5831 42.647Z" fill="#2C405A"/>
<path d="M53.1455 35.6064H48.6128C48.3087 33.8853 46.8101 32.5723 45.0001 32.5723C43.19 32.5723 41.6914 33.8853 41.3873 35.6064H36.8547C36.4689 35.6064 36.1499 35.9254 36.1499 36.3111V40.9699C36.1499 41.1183 36.2686 41.237 36.417 41.237H53.5831C53.7315 41.237 53.8502 41.1183 53.8502 40.9699V36.3111C53.8502 35.918 53.5386 35.6064 53.1455 35.6064ZM45.0001 33.9818C46.0238 33.9818 46.8917 34.6643 47.1662 35.6064H42.8339C43.1084 34.6717 43.9763 33.9818 45.0001 33.9818ZM46.4763 39.8275H43.5238C43.138 39.8275 42.819 39.5085 42.819 39.1227C42.819 38.737 43.138 38.418 43.5238 38.418H46.4763C46.8621 38.418 47.1811 38.737 47.1811 39.1227C47.1811 39.5085 46.8695 39.8275 46.4763 39.8275Z" fill="#2C405A"/>
</g>
<defs>
<filter id="filter0_d_10121_35568" x="0" y="0.986328" width="90" height="90" filterUnits="userSpaceOnUse" color-interpolation-filters="sRGB">
<feFlood flood-opacity="0" result="BackgroundImageFix"/>
<feColorMatrix in="SourceAlpha" type="matrix" values="0 0 0 0 0 0 0 0 0 0 0 0 0 0 0 0 0 0 127 0" result="hardAlpha"/>
<feOffset dy="4"/>
<feGaussianBlur stdDeviation="12.5"/>
<feComposite in2="hardAlpha" operator="out"/>
<feColorMatrix type="matrix" values="0 0 0 0 0 0 0 0 0 0 0 0 0 0 0 0 0 0 0.25 0"/>
<feBlend mode="normal" in2="BackgroundImageFix" result="effect1_dropShadow_10121_35568"/>
<feBlend mode="normal" in="SourceGraphic" in2="effect1_dropShadow_10121_35568" result="shape"/>
</filter>
</defs>
</svg>
