<?xml version="1.0" encoding="UTF-8"?>
<svg id="Layer_2" data-name="Layer 2" xmlns="http://www.w3.org/2000/svg" xmlns:xlink="http://www.w3.org/1999/xlink" viewBox="0 0 149.97 96.34">
  <defs>
    <style>
      .cls-1, .cls-2, .cls-3, .cls-4 {
        fill: none;
      }

      .cls-5 {
        clip-path: url(#clippath);
      }

      .cls-6 {
        fill: #fff;
      }

      .cls-7 {
        fill: #2874af;
      }

      .cls-8 {
        fill: #2c405a;
      }

      .cls-2 {
        stroke: #e3ebf3;
        stroke-width: .51px;
      }

      .cls-2, .cls-3 {
        stroke-linejoin: round;
      }

      .cls-2, .cls-3, .cls-4 {
        stroke-linecap: round;
      }

      .cls-3 {
        stroke: #52b4ff;
        stroke-width: 1.02px;
      }

      .cls-4 {
        stroke: #2874af;
        stroke-width: 4.5px;
      }
    </style>
    <clipPath id="clippath">
      <rect class="cls-1" x="16.11" y="46.61" width="115.88" height="41.49"/>
    </clipPath>
  </defs>
  <g id="Layer_1-2" data-name="Layer 1">
    <rect class="cls-6" width="149.97" height="96.34" rx="8" ry="8"/>
    <path class="cls-7" d="M32.79,40.73c9.21,0,16.68-7.27,16.68-16.24s-7.47-16.24-16.68-16.24-16.68,7.27-16.68,16.24,7.47,16.24,16.68,16.24Z"/>
    <path class="cls-8" d="M32.79,38.35c7.86,0,14.24-6.21,14.24-13.86s-6.37-13.86-14.24-13.86-14.24,6.21-14.24,13.86,6.37,13.86,14.24,13.86Z"/>
    <path class="cls-6" d="M32.79,22.89c-2.39,0-4.33-1.89-4.33-4.22s1.94-4.22,4.33-4.22,4.33,1.89,4.33,4.22-1.94,4.22-4.33,4.22Z"/>
    <path class="cls-6" d="M38.62,33.07h-11.66c-.35,0-.64-.28-.64-.62v-4.73c0-1.94,1.62-3.52,3.61-3.52h5.72c1.99,0,3.61,1.58,3.61,3.52v4.73c0,.34-.3,.62-.65,.62Z"/>
    <line class="cls-4" x1="62.35" y1="14.86" x2="131.62" y2="14.86"/>
    <line class="cls-4" x1="62.35" y1="24.35" x2="131.62" y2="24.35"/>
    <line class="cls-4" x1="62.35" y1="33.83" x2="97.76" y2="33.83"/>
    <g class="cls-5">
      <g>
        <path class="cls-2" d="M18.32,46.84v39.05"/>
        <path class="cls-2" d="M36.9,46.84v39.05"/>
        <path class="cls-2" d="M55.47,46.84v39.05"/>
        <path class="cls-2" d="M74.05,46.84v39.05"/>
        <path class="cls-2" d="M92.62,46.84v39.05"/>
        <path class="cls-2" d="M111.2,46.84v39.05"/>
        <path class="cls-2" d="M129.77,46.84v39.05"/>
        <path class="cls-3" d="M18.32,85.89l18.58-10.85,18.58,5.43,18.58-5.43,18.58-5.58,18.58,5.58,18.58,5.43"/>
        <path class="cls-7" d="M92.62,72.05c1.22,0,2.21-.99,2.21-2.21s-.99-2.21-2.21-2.21-2.21,.99-2.21,2.21,.99,2.21,2.21,2.21Z"/>
        <path class="cls-7" d="M111.2,77.25c1.22,0,2.21-.99,2.21-2.21s-.99-2.21-2.21-2.21-2.21,.99-2.21,2.21,.99,2.21,2.21,2.21Z"/>
        <path class="cls-7" d="M129.77,82.42c1.22,0,2.21-.99,2.21-2.21s-.99-2.21-2.21-2.21-2.21,.99-2.21,2.21,.99,2.21,2.21,2.21Z"/>
        <path class="cls-7" d="M74.05,77.25c1.22,0,2.21-.99,2.21-2.21s-.99-2.21-2.21-2.21-2.21,.99-2.21,2.21,.99,2.21,2.21,2.21Z"/>
        <path class="cls-7" d="M55.47,82.25c1.22,0,2.21-.99,2.21-2.21s-.99-2.21-2.21-2.21-2.21,.99-2.21,2.21,.99,2.21,2.21,2.21Z"/>
        <path class="cls-7" d="M18.32,88.1c1.22,0,2.21-.99,2.21-2.21s-.99-2.21-2.21-2.21-2.21,.99-2.21,2.21,.99,2.21,2.21,2.21Z"/>
        <path class="cls-7" d="M36.9,78.22c1.22,0,2.21-.99,2.21-2.21s-.99-2.21-2.21-2.21-2.21,.99-2.21,2.21,.99,2.21,2.21,2.21Z"/>
        <path class="cls-3" d="M18.32,71.99l18.58-5.43,18.58-5.43,18.51,4.72,18.65-10.16,18.58-5.74,18.58,11.18"/>
        <path class="cls-7" d="M111.2,52.75c1.22,0,2.21-.99,2.21-2.21s-.99-2.21-2.21-2.21-2.21,.99-2.21,2.21,.99,2.21,2.21,2.21Z"/>
        <path class="cls-7" d="M129.77,63.19c1.22,0,2.21-.99,2.21-2.21s-.99-2.21-2.21-2.21-2.21,.99-2.21,2.21,.99,2.21,2.21,2.21Z"/>
        <path class="cls-7" d="M55.47,63.76c1.22,0,2.21-.99,2.21-2.21s-.99-2.21-2.21-2.21-2.21,.99-2.21,2.21,.99,2.21,2.21,2.21Z"/>
        <path class="cls-7" d="M18.32,74.2c1.22,0,2.21-.99,2.21-2.21s-.99-2.21-2.21-2.21-2.21,.99-2.21,2.21,.99,2.21,2.21,2.21Z"/>
        <path class="cls-7" d="M73.85,67.35c1.22,0,2.21-.99,2.21-2.21s-.99-2.21-2.21-2.21-2.21,.99-2.21,2.21,.99,2.21,2.21,2.21Z"/>
        <path class="cls-7" d="M36.9,68.15c1.22,0,2.21-.99,2.21-2.21s-.99-2.21-2.21-2.21-2.21,.99-2.21,2.21,.99,2.21,2.21,2.21Z"/>
        <path class="cls-7" d="M92.65,58.22c1.22,0,2.21-.99,2.21-2.21s-.99-2.21-2.21-2.21-2.21,.99-2.21,2.21,.99,2.21,2.21,2.21Z"/>
      </g>
    </g>
  </g>
</svg>