<svg width="21" height="21" viewBox="0 0 21 21" fill="none" xmlns="http://www.w3.org/2000/svg">
<path d="M19.6016 1.91025H20.7193C20.7193 1.61383 20.6015 1.32955 20.3919 1.11995C20.1823 0.910354 19.898 0.792603 19.6016 0.792603V1.91025ZM18.484 15.322C18.484 15.6184 18.6017 15.9027 18.8113 16.1123C19.0209 16.3219 19.3052 16.4397 19.6016 16.4397C19.898 16.4397 20.1823 16.3219 20.3919 16.1123C20.6015 15.9027 20.7193 15.6184 20.7193 15.322H18.484ZM6.18986 0.792603C5.89344 0.792603 5.60916 0.910354 5.39956 1.11995C5.18996 1.32955 5.07221 1.61383 5.07221 1.91025C5.07221 2.20667 5.18996 2.49095 5.39956 2.70055C5.60916 2.91014 5.89344 3.0279 6.18986 3.0279V0.792603ZM0.929095 19.0024C0.822348 19.1055 0.737204 19.2289 0.678629 19.3652C0.620054 19.5016 0.589222 19.6482 0.587933 19.7966C0.586643 19.945 0.614922 20.0922 0.671118 20.2295C0.727314 20.3669 0.810303 20.4917 0.915242 20.5966C1.02018 20.7016 1.14497 20.7846 1.28232 20.8408C1.41968 20.897 1.56685 20.9252 1.71525 20.9239C1.86365 20.9227 2.01031 20.8918 2.14666 20.8332C2.28302 20.7747 2.40635 20.6895 2.50945 20.5828L0.929095 19.0024ZM18.484 1.91025V15.322H20.7193V1.91025H18.484ZM19.6016 0.792603H6.18986V3.0279H19.6016V0.792603ZM18.8114 1.12007L0.929095 19.0024L2.50945 20.5828L20.3918 2.70043L18.8114 1.12007Z" fill="#2874AF"/>
</svg>
