<svg width="363" height="349" viewBox="0 0 363 349" fill="none" xmlns="http://www.w3.org/2000/svg">
<path fill-rule="evenodd" clip-rule="evenodd" d="M132.524 275.068C173.226 315.77 240.639 314.407 284.366 270.68C328.093 226.953 329.456 159.54 288.755 118.838C282.409 112.493 242.291 142.322 199.15 185.463C156.008 228.605 126.179 268.723 132.524 275.068ZM177.522 298.08C212.749 307.88 253.093 298.124 282.451 268.765C311.81 239.406 321.566 199.063 311.766 163.836C317.444 196.618 305.475 234.251 276.706 263.02C247.938 291.789 210.304 303.758 177.522 298.08ZM274.791 261.105C244.699 291.197 204.892 302.349 171.641 293.906C202.639 298.167 239.729 284.677 269.046 255.36C298.364 226.043 311.853 188.953 307.593 157.955C316.035 191.206 304.883 231.013 274.791 261.105ZM165.846 289.944C196.947 297.017 236.203 284.373 267.131 253.445C298.059 222.517 310.703 183.26 303.63 152.16C304.41 160.191 303.824 168.785 301.941 177.636C297.004 200.847 283.138 225.949 261.386 247.7C239.635 269.452 214.533 283.317 191.322 288.255C182.471 290.138 173.877 290.724 165.846 289.944ZM190.926 285.508C180.02 287.828 169.615 288.106 160.267 286.268C168.215 286.651 176.926 285.455 186.01 282.812C207.802 276.473 232.007 261.759 253.726 240.04C275.446 218.321 290.159 194.116 296.498 172.324C299.141 163.24 300.337 154.528 299.954 146.581C301.792 155.929 301.514 166.334 299.195 177.24C294.394 199.808 280.862 224.395 259.471 245.785C238.081 267.175 213.494 280.708 190.926 285.508ZM155.073 282.903C163.993 284.308 174.313 283.345 185.405 280.118C206.62 273.947 230.389 259.548 251.811 238.125C273.234 216.703 287.633 192.934 293.804 171.719C297.031 160.627 297.994 150.307 296.589 141.387C296.474 149.096 294.544 157.807 291.044 167.021C283.309 187.383 267.755 210.692 246.067 232.38C224.378 254.069 201.069 269.623 180.707 277.358C171.493 280.858 162.782 282.788 155.073 282.903ZM179.876 274.74C168.621 279.015 158.507 280.764 150.221 279.876C157.472 279.169 166.05 276.401 175.41 271.89C194.335 262.769 216.747 246.38 238.407 224.72C260.066 203.061 276.455 180.649 285.576 161.724C290.087 152.364 292.855 143.786 293.562 136.535C294.45 144.82 292.701 154.934 288.426 166.189C280.878 186.061 265.605 209.012 244.152 230.465C222.698 251.919 199.747 267.192 179.876 274.74ZM145.745 277.225C147.064 277.277 148.462 277.235 149.936 277.099C156.765 276.472 165.066 273.844 174.34 269.375C192.876 260.441 215.01 244.288 236.492 222.805C257.974 201.323 274.127 179.19 283.061 160.653C287.53 151.38 290.158 143.079 290.785 136.25C290.921 134.776 290.963 133.378 290.912 132.059C290.808 132.55 290.691 133.048 290.563 133.553C288.946 139.9 285.336 147.699 280.093 156.431C269.597 173.913 252.379 195.428 230.747 217.061C209.114 238.693 187.6 255.911 170.117 266.407C161.386 271.65 153.587 275.26 147.239 276.876C146.734 277.005 146.236 277.121 145.745 277.225ZM146.73 274.157C143.833 274.894 141.406 275.151 139.429 274.982C153.984 269.789 187.057 243.515 222.129 208.443C257.201 173.371 283.475 140.298 288.668 125.743C288.837 127.72 288.58 130.147 287.843 133.043C286.328 138.991 282.882 146.501 277.711 155.114C267.38 172.32 250.341 193.636 228.832 215.146C207.323 236.655 186.007 253.694 168.8 264.025C160.187 269.196 152.677 272.642 146.73 274.157ZM285.112 120.881C286.215 120.701 286.608 120.852 286.696 120.897C286.741 120.985 286.892 121.378 286.711 122.48C286.485 123.865 285.81 125.823 284.575 128.374C282.121 133.446 277.772 140.223 271.788 148.271C259.846 164.331 241.712 185.03 220.214 206.528C198.717 228.026 178.018 246.16 161.957 258.101C153.909 264.086 147.132 268.435 142.06 270.889C139.509 272.124 137.551 272.799 136.167 273.025C135.064 273.205 134.671 273.054 134.583 273.009C134.538 272.922 134.387 272.528 134.568 271.426C134.794 270.042 135.469 268.084 136.704 265.532C139.158 260.461 143.507 253.684 149.491 245.635C161.433 229.575 179.567 208.876 201.065 187.378C222.562 165.881 243.261 147.747 259.322 135.805C267.37 129.821 274.147 125.472 279.219 123.017C281.77 121.783 283.728 121.108 285.112 120.881Z" fill="#0043CA"/>
<path fill-rule="evenodd" clip-rule="evenodd" d="M74.0377 230.626C33.3362 189.924 34.699 122.511 78.4262 78.7838C122.153 35.0567 189.566 33.6938 230.268 74.3953C236.614 80.741 206.784 120.858 163.643 164C120.501 207.142 80.3833 236.971 74.0377 230.626ZM51.0259 185.627C41.2264 150.401 50.9825 110.057 80.3411 80.6988C109.7 51.3402 150.043 41.584 185.27 51.3836C152.488 45.7061 114.855 57.6752 86.0861 86.4437C57.3175 115.212 45.3484 152.846 51.0259 185.627ZM88.001 88.3587C57.909 118.451 46.7575 158.258 55.1996 191.509C50.9391 160.511 64.4286 123.421 93.746 94.1036C123.063 64.7863 160.153 51.2968 191.151 55.5573C157.9 47.1151 118.093 58.2667 88.001 88.3587ZM59.1623 197.304C52.0891 166.203 64.7331 126.946 95.661 96.0186C126.589 65.0907 165.846 52.4468 196.946 59.5199C188.916 58.74 180.321 59.3262 171.47 61.209C148.259 66.1464 123.158 80.0119 101.406 101.764C79.6542 123.515 65.7887 148.617 60.8513 171.828C58.9686 180.679 58.3824 189.273 59.1623 197.304ZM63.5977 172.224C61.2778 183.13 60.9998 193.535 62.8385 202.883C62.4549 194.935 63.6515 186.224 66.2941 177.139C72.6331 155.348 87.3466 131.143 109.066 109.423C130.785 87.7043 154.991 72.9907 176.782 66.6517C185.866 64.0091 194.578 62.8125 202.525 63.1962C193.177 61.3574 182.772 61.6354 171.866 63.9554C149.299 68.756 124.711 82.2884 103.321 103.679C81.9307 125.069 68.3983 149.656 63.5977 172.224ZM66.2028 208.077C64.7984 199.157 65.7613 188.836 68.9878 177.745C75.1591 156.53 89.5582 132.761 110.981 111.338C132.403 89.9158 156.172 75.5167 177.387 69.3454C188.479 66.1189 198.799 65.156 207.719 66.5604C200.01 66.6758 191.299 68.606 182.085 72.1059C161.723 79.8404 138.414 95.3949 116.726 117.083C95.0372 138.772 79.4828 162.081 71.7483 182.443C68.2483 191.657 66.3182 200.368 66.2028 208.077ZM74.3663 183.274C70.0911 194.529 68.3419 204.643 69.2306 212.929C69.9371 205.678 72.7048 197.1 77.2161 187.74C86.3372 168.815 102.726 146.403 124.386 124.743C146.045 103.084 168.457 86.6949 187.382 77.5738C196.742 73.0624 205.32 70.2948 212.571 69.5882C204.286 68.6995 194.172 70.4488 182.917 74.7239C163.045 82.2721 140.094 97.545 118.641 118.998C97.1873 140.452 81.9144 163.403 74.3663 183.274ZM71.8806 217.405C71.8295 216.086 71.8714 214.688 72.0068 213.214C72.6342 206.385 75.2619 198.083 79.7312 188.81C88.6651 170.274 104.818 148.14 126.301 126.658C147.783 105.176 169.916 89.0227 188.453 80.0888C197.726 75.6195 206.027 72.9919 212.856 72.3644C214.33 72.229 215.728 72.1871 217.047 72.2383C216.556 72.3423 216.058 72.4588 215.553 72.5873C209.206 74.2037 201.407 77.8141 192.675 83.0567C175.193 93.5531 153.678 110.77 132.046 132.403C110.413 154.036 93.1955 175.55 82.6991 193.033C77.4565 201.764 73.8461 209.563 72.2297 215.911C72.1012 216.416 71.9846 216.914 71.8806 217.405ZM74.9496 216.42C74.212 219.317 73.955 221.744 74.1243 223.721C79.3171 209.166 105.591 176.092 140.663 141.021C175.735 105.949 208.808 79.6748 223.363 74.4819C221.386 74.3126 218.959 74.5696 216.063 75.3072C210.115 76.8216 202.605 80.2675 193.992 85.4386C176.786 95.7696 155.47 112.809 133.96 134.318C112.451 155.827 95.4119 177.143 85.081 194.35C79.9099 202.963 76.464 210.473 74.9496 216.42ZM228.225 78.0376C228.405 76.9354 228.254 76.5417 228.209 76.4543C228.121 76.4093 227.728 76.2583 226.626 76.4386C225.241 76.6651 223.283 77.3399 220.732 78.5746C215.66 81.0289 208.884 85.3777 200.835 91.3623C184.775 103.304 164.076 121.438 142.578 142.936C121.08 164.433 102.946 185.132 91.0046 201.193C85.0201 209.241 80.6713 216.018 78.2169 221.09C76.9823 223.641 76.3075 225.599 76.081 226.983C75.9006 228.085 76.0517 228.479 76.0967 228.567C76.1841 228.612 76.5777 228.763 77.68 228.582C79.0645 228.356 81.0223 227.681 83.5736 226.446C88.6451 223.992 95.422 219.643 103.471 213.659C119.531 201.717 140.23 183.583 161.728 162.085C183.225 140.587 201.359 119.888 213.301 103.828C219.285 95.7796 223.634 89.0027 226.089 83.9312C227.323 81.38 227.998 79.4221 228.225 78.0376Z" fill="#0043CA"/>
</svg>
