<svg width="20" height="20" viewBox="0 0 20 20" fill="none" xmlns="http://www.w3.org/2000/svg">
<path fill-rule="evenodd" clip-rule="evenodd" d="M19.6003 10.0469C19.6003 15.3488 15.3023 19.6469 10.0004 19.6469C4.69845 19.6469 0.400391 15.3488 0.400391 10.0469C0.400391 4.74494 4.69845 0.446869 10.0004 0.446869C15.3023 0.446869 19.6003 4.74494 19.6003 10.0469ZM12.4004 6.44687C12.4004 7.77235 11.3258 8.84687 10.0004 8.84687C8.67489 8.84687 7.60037 7.77235 7.60037 6.44687C7.60037 5.12139 8.67489 4.04687 10.0004 4.04687C11.3258 4.04687 12.4004 5.12139 12.4004 6.44687ZM10.0003 11.2469C7.57924 11.2469 5.49311 12.6808 4.54486 14.7457C5.86521 16.2773 7.81955 17.2469 10.0003 17.2469C12.1811 17.2469 14.1354 16.2774 15.4558 14.7458C14.5075 12.6809 12.4214 11.2469 10.0003 11.2469Z" fill="#2874AF"/>
</svg>
