<svg width="20" height="20" viewBox="0 0 20 20" fill="none" xmlns="http://www.w3.org/2000/svg">
<path d="M18.6 9.9999C18.6 14.7496 14.7497 18.5999 10 18.5999C5.25038 18.5999 1.40002 14.7496 1.40002 9.9999C1.40002 5.25025 5.25038 1.3999 10 1.3999C14.7497 1.3999 18.6 5.25025 18.6 9.9999ZM10.0204 5.76939C9.34528 5.31934 8.47728 5.27738 7.76194 5.66022C7.04659 6.04306 6.60002 6.78855 6.60002 7.5999V12.3999C6.60002 13.2113 7.04659 13.9567 7.76194 14.3396C8.47728 14.7224 9.34528 14.6805 10.0204 14.2304L13.6204 11.8304C14.2324 11.4224 14.6 10.7355 14.6 9.9999C14.6 9.26433 14.2324 8.57742 13.6204 8.16939L10.0204 5.76939Z" fill="#712F79" stroke="#712F79" stroke-width="2"/>
</svg>
