<svg width="90" height="91" viewBox="0 0 90 91" fill="none" xmlns="http://www.w3.org/2000/svg">
<g filter="url(#filter0_d_10121_35570)">
<path d="M45 61.9863C56.0457 61.9863 65 53.032 65 41.9863C65 30.9406 56.0457 21.9863 45 21.9863C33.9543 21.9863 25 30.9406 25 41.9863C25 53.032 33.9543 61.9863 45 61.9863Z" fill="white"/>
<path d="M45.0004 59.0565C54.4277 59.0565 62.0701 51.4141 62.0701 41.9867C62.0701 32.5594 54.4277 24.917 45.0004 24.917C35.573 24.917 27.9307 32.5594 27.9307 41.9867C27.9307 51.4141 35.573 59.0565 45.0004 59.0565Z" fill="white"/>
<path d="M43.3064 30.7827C42.9207 30.7827 42.6017 31.1017 42.6017 31.4875V37.0067C42.6017 37.9786 41.8079 38.7723 40.8361 38.7723H39.115C38.1432 38.7723 37.3494 37.9786 37.3494 37.0067V31.4875C37.3494 31.1017 37.0304 30.7827 36.6447 30.7827C36.2589 30.7827 35.9399 31.1017 35.9399 31.4875V37.0067C35.9399 38.3866 36.8227 39.5587 38.0468 39.9964V51.5468C38.0468 52.6151 38.9147 53.4756 39.9755 53.4756C41.0364 53.4756 41.9043 52.6076 41.9043 51.5468V40.0038C43.1284 39.5661 44.0112 38.3866 44.0112 37.0142V31.4949C44.0112 31.1017 43.6922 30.7827 43.3064 30.7827Z" fill="#2C405A"/>
<path d="M38.8708 37.3842C39.2565 37.3842 39.5755 37.0652 39.5755 36.6795V31.4792C39.5755 31.0934 39.2565 30.7744 38.8708 30.7744C38.485 30.7744 38.166 31.0934 38.166 31.4792V36.6795C38.166 37.0726 38.485 37.3842 38.8708 37.3842Z" fill="#2C405A"/>
<path d="M41.1325 37.3842C41.5182 37.3842 41.8372 37.0652 41.8372 36.6795V31.4792C41.8372 31.0934 41.5182 30.7744 41.1325 30.7744C40.7467 30.7744 40.4277 31.0934 40.4277 31.4792V36.6795C40.4277 37.0726 40.7393 37.3842 41.1325 37.3842Z" fill="#2C405A"/>
<path d="M50.4134 30.7441H47.9801C47.5944 30.7441 47.2754 31.0631 47.2754 31.4489V51.5453C47.2754 52.6136 48.1433 53.4741 49.2042 53.4741C50.265 53.4741 51.133 52.6062 51.133 51.5453V44.6759H52.8837C53.2695 44.6759 53.5884 44.3569 53.5884 43.9711V33.9192C53.5959 32.1685 52.1641 30.7441 50.4134 30.7441Z" fill="#2C405A"/>
</g>
<defs>
<filter id="filter0_d_10121_35570" x="0" y="0.986328" width="90" height="90" filterUnits="userSpaceOnUse" color-interpolation-filters="sRGB">
<feFlood flood-opacity="0" result="BackgroundImageFix"/>
<feColorMatrix in="SourceAlpha" type="matrix" values="0 0 0 0 0 0 0 0 0 0 0 0 0 0 0 0 0 0 127 0" result="hardAlpha"/>
<feOffset dy="4"/>
<feGaussianBlur stdDeviation="12.5"/>
<feComposite in2="hardAlpha" operator="out"/>
<feColorMatrix type="matrix" values="0 0 0 0 0 0 0 0 0 0 0 0 0 0 0 0 0 0 0.25 0"/>
<feBlend mode="normal" in2="BackgroundImageFix" result="effect1_dropShadow_10121_35570"/>
<feBlend mode="normal" in="SourceGraphic" in2="effect1_dropShadow_10121_35570" result="shape"/>
</filter>
</defs>
</svg>
