<svg width="91" height="91" viewBox="0 0 91 91" fill="none" xmlns="http://www.w3.org/2000/svg">
<g filter="url(#filter0_d_10121_35569)">
<path d="M45.9863 61.9863C57.032 61.9863 65.9863 53.032 65.9863 41.9863C65.9863 30.9406 57.032 21.9863 45.9863 21.9863C34.9406 21.9863 25.9863 30.9406 25.9863 41.9863C25.9863 53.032 34.9406 61.9863 45.9863 61.9863Z" fill="white"/>
<path d="M45.9867 59.0565C55.4141 59.0565 63.0565 51.4141 63.0565 41.9867C63.0565 32.5594 55.4141 24.917 45.9867 24.917C36.5594 24.917 28.917 32.5594 28.917 41.9867C28.917 51.4141 36.5594 59.0565 45.9867 59.0565Z" fill="white"/>
<path d="M54.4581 32.6833L46.2385 29.5972C46.0753 29.5379 45.9046 29.5379 45.7414 29.5972L37.5219 32.6907C37.5144 32.6907 37.5144 32.6907 37.507 32.6981C37.4996 32.6981 37.4922 32.7056 37.4848 32.7056C37.4699 32.713 37.4625 32.713 37.4477 32.7204C37.4403 32.7204 37.4328 32.7278 37.4254 32.7278C37.4106 32.7352 37.3883 32.7501 37.3735 32.7575C37.3735 32.7575 37.3661 32.7575 37.3661 32.7649C37.3512 32.7723 37.3364 32.7872 37.3216 32.7946C37.3141 32.802 37.3141 32.802 37.3067 32.8094C37.2919 32.8168 37.2845 32.8317 37.2771 32.8391C37.2696 32.8465 37.2696 32.8465 37.2622 32.8539C37.2474 32.8688 37.24 32.8762 37.2325 32.891L37.2251 32.8984C37.2103 32.9133 37.2029 32.9281 37.188 32.9429C37.1806 32.9504 37.1806 32.9578 37.1806 32.9578C37.1732 32.9726 37.1658 32.98 37.1584 32.9949C37.1509 33.0023 37.1509 33.0097 37.1435 33.0171C37.1361 33.0245 37.1361 33.0394 37.1287 33.0542C37.1287 33.0616 37.1213 33.0691 37.1213 33.0765C37.1138 33.0913 37.1064 33.1136 37.099 33.1284C37.099 33.1358 37.099 33.1432 37.0916 33.1507C37.0842 33.1655 37.0842 33.1803 37.0842 33.1952C37.0842 33.2026 37.0842 33.21 37.0768 33.2174C37.0768 33.2323 37.0693 33.2471 37.0693 33.2619C37.0693 33.2694 37.0693 33.2768 37.0693 33.2842C37.0693 33.3064 37.0693 33.3287 37.0693 33.351V38.4548C37.0693 38.8406 37.3883 39.1596 37.7741 39.1596C38.1598 39.1596 38.4788 38.8406 38.4788 38.4548V34.3747L45.7489 37.1047C45.8305 37.1343 45.9121 37.1492 45.9937 37.1492C46.0753 37.1492 46.1643 37.1343 46.2385 37.1047L54.4581 34.0038C54.7325 33.8999 54.918 33.6403 54.918 33.3435C54.918 33.0468 54.7325 32.7872 54.4581 32.6833Z" fill="#2C405A"/>
<path d="M51.995 41.2075C51.854 41.1037 51.6612 41.1482 51.5647 41.2891C50.3778 43.1066 48.3229 44.3158 45.9935 44.3158C43.6493 44.3158 41.587 43.0992 40.4 41.2669C40.3036 41.1185 40.1107 41.0814 39.9698 41.1778C38.2487 42.4019 37.1211 44.4123 37.1211 46.6749V51.6081C37.1211 51.9939 37.4401 52.3129 37.8258 52.3129H54.1018C54.4876 52.3129 54.8066 51.9939 54.8066 51.6081V46.6749C54.7991 44.4271 53.6938 42.4316 51.995 41.2075Z" fill="#2C405A"/>
<path d="M46.7279 38.4179C46.4905 38.5069 46.2382 38.5514 45.986 38.5514C45.7338 38.5514 45.4816 38.5069 45.2442 38.4179L41.1121 36.8675C40.9638 36.8081 40.8006 36.912 40.7783 37.0752C40.756 37.268 40.7412 37.4683 40.7412 37.6686C40.7412 40.5618 43.0928 42.9134 45.986 42.9134C48.8792 42.9134 51.2308 40.5618 51.2308 37.6686C51.2308 37.4683 51.216 37.268 51.1937 37.0752C51.1715 36.912 51.0157 36.8155 50.8599 36.8675L46.7279 38.4179Z" fill="#2C405A"/>
</g>
<defs>
<filter id="filter0_d_10121_35569" x="0.986328" y="0.986328" width="90" height="90" filterUnits="userSpaceOnUse" color-interpolation-filters="sRGB">
<feFlood flood-opacity="0" result="BackgroundImageFix"/>
<feColorMatrix in="SourceAlpha" type="matrix" values="0 0 0 0 0 0 0 0 0 0 0 0 0 0 0 0 0 0 127 0" result="hardAlpha"/>
<feOffset dy="4"/>
<feGaussianBlur stdDeviation="12.5"/>
<feComposite in2="hardAlpha" operator="out"/>
<feColorMatrix type="matrix" values="0 0 0 0 0 0 0 0 0 0 0 0 0 0 0 0 0 0 0.25 0"/>
<feBlend mode="normal" in2="BackgroundImageFix" result="effect1_dropShadow_10121_35569"/>
<feBlend mode="normal" in="SourceGraphic" in2="effect1_dropShadow_10121_35569" result="shape"/>
</filter>
</defs>
</svg>
