<svg width="20" height="21" viewBox="0 0 20 21" fill="none" xmlns="http://www.w3.org/2000/svg">
  <path fill-rule="evenodd" clip-rule="evenodd" d="M10 0.993408C4.48 0.993408 0 5.47341 0 10.9934C0 16.5134 4.48 20.9934 10 20.9934C15.51 20.9934 20 16.5134 20 10.9934C20 5.47341 15.51 0.993408 10 0.993408ZM16.605 5.60341C17.8357 7.10272 18.5167 8.97777 18.535 10.9174C18.254 10.8634 15.434 10.2884 12.592 10.6464C12.527 10.5054 12.472 10.3534 12.408 10.2014C12.231 9.78446 12.043 9.37231 11.844 8.96541C14.989 7.68541 16.421 5.84141 16.605 5.60341ZM10 2.46841C12.17 2.46841 14.154 3.28141 15.662 4.61641C15.51 4.83241 14.219 6.55741 11.182 7.69641C9.783 5.12641 8.232 3.02141 7.993 2.69641C8.65086 2.54262 9.32441 2.46611 10 2.46841ZM6.367 3.27141C7.51144 4.85772 8.56867 6.50516 9.534 8.20641C5.542 9.26941 2.017 9.24641 1.638 9.24641C1.91283 7.95353 2.48261 6.74162 3.3029 5.7052C4.12319 4.66878 5.17182 3.83586 6.367 3.27141ZM1.453 11.0034V10.7434C1.823 10.7534 5.965 10.8084 10.228 9.52841C10.478 10.0054 10.705 10.4934 10.922 10.9814C10.813 11.0144 10.694 11.0464 10.586 11.0794C6.182 12.4994 3.839 16.3824 3.644 16.7084C2.23384 15.1429 1.45264 13.1104 1.453 11.0034ZM10 19.5404C8.10143 19.5437 6.25667 18.9098 4.761 17.7404C4.913 17.4254 6.649 14.0844 11.464 12.4034C11.486 12.3934 11.497 12.3934 11.518 12.3814C12.3303 14.4768 12.9407 16.645 13.341 18.8564C12.2858 19.3105 11.1487 19.5433 10 19.5404ZM14.761 18.0754C14.675 17.5554 14.219 15.0604 13.102 11.9914C15.781 11.5684 18.124 12.2624 18.416 12.3604C18.2336 13.5135 17.8148 14.6164 17.1858 15.5999C16.5568 16.5834 15.7313 17.4262 14.761 18.0754Z" fill="white"/>
</svg>
