<svg width="21" height="16" viewBox="0 0 21 16" fill="none" xmlns="http://www.w3.org/2000/svg">
<path d="M0.515469 2.94875L10.5117 7.94625L20.508 2.94875C20.471 2.3118 20.1918 1.71311 19.7277 1.27528C19.2637 0.837457 18.6497 0.593633 18.0117 0.59375H3.01172C2.3737 0.593633 1.75978 0.837457 1.29569 1.27528C0.831604 1.71311 0.552474 2.3118 0.515469 2.94875Z" fill="#828282"/>
<path d="M20.5117 5.74125L10.5117 10.7412L0.511719 5.74125V13.0938C0.511719 13.7568 0.775111 14.3927 1.24395 14.8615C1.71279 15.3304 2.34868 15.5938 3.01172 15.5938H18.0117C18.6748 15.5938 19.3106 15.3304 19.7795 14.8615C20.2483 14.3927 20.5117 13.7568 20.5117 13.0938V5.74125Z" fill="#828282"/>
</svg>
