
<svg width="29" height="29" viewBox="0 0 29 29" fill="none" xmlns="http://www.w3.org/2000/svg">
<g clip-path="url(#clip0_708_6342)">
<path d="M29.0002 17.3389V28.162H22.826V18.0853C22.826 15.5662 21.8905 13.7934 19.6454 13.7934C18.9376 13.8031 18.2506 14.0331 17.6803 14.4513C17.11 14.8696 16.685 15.4551 16.4647 16.126C16.3107 16.6078 16.2473 17.114 16.2776 17.6188V28.162H10.0099C10.0099 28.162 10.1034 11.0877 10.0099 9.31491H16.2776V12.114V12.0207C16.8257 11.0307 17.6439 10.216 18.6373 9.67102C19.6308 9.12605 20.7588 8.87317 21.8905 8.9417C25.9131 8.8484 29.0002 11.5542 29.0002 17.3389ZM3.55506 0.171292C2.68926 0.108713 1.83317 0.385778 1.16917 0.943466C0.505166 1.50115 0.0857347 2.29538 0.000222213 3.15696V3.43687C-0.00979355 4.28989 0.319124 5.11218 0.915103 5.72408C1.51108 6.33597 2.32567 6.68771 3.18087 6.70245H3.46151C4.31684 6.76156 5.16089 6.48078 5.80938 5.9214C6.45787 5.36202 6.85814 4.56947 6.9228 3.71678V3.43687C6.94478 3.01015 6.87827 2.5835 6.72744 2.18358C6.57661 1.78366 6.34469 1.41907 6.04618 1.11259C5.74768 0.806115 5.389 0.564339 4.99256 0.402377C4.59613 0.240415 4.17046 0.161747 3.74216 0.171292H3.55506ZM0.374416 28.162H6.54861V9.31491H0.374416V28.162Z" fill="white"/>
</g>
<defs>
<clipPath id="clip0_708_6342">
<rect width="29" height="28" fill="white" transform="translate(0 0.162109)"/>
</clipPath>
</defs>
</svg>
