<svg xmlns="http://www.w3.org/2000/svg" width="21" height="21" viewBox="0 0 21 21" fill="none">
  <path fill-rule="evenodd" clip-rule="evenodd" d="M16.3849 16.4786H13.7169V12.3006C13.7169 11.3056 13.6999 10.0236 12.3299 10.0236C10.9399 10.0236 10.7289 11.1096 10.7289 12.2306V16.4786H8.06087V7.88863H10.6199V9.06262H10.6569C11.0129 8.38762 11.8839 7.67562 13.1829 7.67562C15.8859 7.67562 16.3859 9.45362 16.3859 11.7676V16.4786H16.3849ZM5.05188 6.71562C4.84859 6.71582 4.64725 6.67598 4.45937 6.59836C4.27148 6.52075 4.10072 6.40689 3.95683 6.26329C3.81295 6.11968 3.69876 5.94914 3.62078 5.7614C3.54281 5.57367 3.50257 5.37241 3.50237 5.16913C3.50218 4.96584 3.54202 4.7645 3.61964 4.57662C3.69725 4.38873 3.81111 4.21797 3.95471 4.07408C4.09832 3.9302 4.26886 3.81601 4.4566 3.73803C4.64433 3.66006 4.84559 3.61982 5.04887 3.61963C5.45943 3.61923 5.85333 3.78194 6.14392 4.07196C6.4345 4.36199 6.59798 4.75557 6.59837 5.16612C6.59877 5.57668 6.43606 5.97058 6.14604 6.26117C5.85601 6.55175 5.46243 6.71523 5.05188 6.71562ZM3.71487 16.4786H6.38688V7.88863H3.71388V16.4786H3.71487ZM17.7149 1.14062H2.37488C1.64188 1.14062 1.04688 1.72163 1.04688 2.43863V17.8416C1.04688 18.5586 1.64188 19.1406 2.37488 19.1406H17.7149C18.4489 19.1406 19.0469 18.5586 19.0469 17.8416V2.43863C19.0469 1.72163 18.4489 1.14062 17.7149 1.14062Z" fill="#2874AF"/>
</svg>
