<?xml version="1.0" encoding="UTF-8"?>
<svg id="Layer_2" data-name="Layer 2" xmlns="http://www.w3.org/2000/svg" viewBox="0 0 75 75">
  <defs>
    <style>
      .cls-1 {
        fill: #f07012;
      }

      .cls-2 {
        fill: #fff;
      }
    </style>
  </defs>
  <g id="Layer_1-2" data-name="Layer 1">
    <g>
      <path class="cls-1" d="M37.5,75c20.71,0,37.5-16.79,37.5-37.5S58.21,0,37.5,0,0,16.79,0,37.5s16.79,37.5,37.5,37.5Z"/>
      <path class="cls-1" d="M37.5,69.51c17.68,0,32.01-14.33,32.01-32.01S55.18,5.49,37.5,5.49,5.49,19.82,5.49,37.5s14.33,32.01,32.01,32.01Z"/>
      <path class="cls-2" d="M53.11,21.88c-.4-.83-.89-1.61-1.45-2.3-1.79-2.23-4.48-3.45-7.34-3.39-2.66,.07-5.1,1.24-6.82,3.24-1.7-2-4.15-3.19-6.82-3.24-2.87-.07-5.55,1.17-7.34,3.39-.56,.68-1.04,1.46-1.45,2.3-1.15,2.36-1.54,4.99-1.15,7.62,.39,2.6,1.53,5.01,3.28,6.97l12.49,13.91c.25,.28,.61,.45,.99,.45s.74-.15,.99-.45l12.49-13.91c1.77-1.96,2.89-4.37,3.28-6.97,.39-2.63,0-5.26-1.15-7.62Z"/>
      <path class="cls-2" d="M37.5,58.81c-.38,0-.74-.17-.99-.45l-7.32-8.19-1.72,2.93c-.24,.4-.67,.65-1.14,.65h-4.21c-.72,0-1.32-.6-1.32-1.32s.6-1.32,1.32-1.32h3.46l2.27-3.85c.21-.36,.58-.6,1.02-.64,.42-.04,.83,.13,1.11,.43l7.54,8.43,10.72-12.1c.36-.42,.95-.56,1.46-.36,.51,.19,.85,.68,.85,1.24v6.86h2.36c.72,0,1.32,.6,1.32,1.32s-.6,1.32-1.32,1.32h-3.69c-.72,0-1.32-.6-1.32-1.32v-4.69l-9.39,10.6c-.28,.29-.63,.46-1.02,.46Z"/>
    </g>
  </g>
</svg>