<?xml version="1.0" encoding="UTF-8"?>
<svg id="Layer_2" data-name="Layer 2" xmlns="http://www.w3.org/2000/svg" viewBox="0 0 75 75">
  <defs>
    <style>
      .cls-1 {
        fill: #fff;
      }

      .cls-2 {
        fill: #f2c94c;
      }
    </style>
  </defs>
  <g id="Layer_1-2" data-name="Layer 1">
    <g>
      <path class="cls-2" d="M37.5,75c20.7,0,37.5-16.8,37.5-37.5S58.2,0,37.5,0,0,16.8,0,37.5s16.8,37.5,37.5,37.5Z"/>
      <path class="cls-2" d="M37.5,69.5c17.7,0,32-14.3,32-32S55.2,5.5,37.5,5.5,5.5,19.8,5.5,37.5s14.3,32,32,32Z"/>
      <path class="cls-1" d="M54,30.4l-15.6-15.5c-.5-.5-1.3-.5-1.9,0l-15.5,15.5c-.4,.4-.5,.9-.3,1.4s.7,.8,1.2,.8h31.1c.5,0,1-.3,1.2-.8,.3-.5,.1-1-.2-1.4Z"/>
      <path class="cls-1" d="M35.8,57.2h3.3c.2,0,.3-.1,.3-.3v-14.1c0-.1-.1-.2-.2-.2h-3.4c-.1,0-.2,.1-.2,.2v14.1c0,.2,.1,.3,.2,.3Z"/>
      <path class="cls-1" d="M50,35.3H25c-.7,0-1.3,.6-1.3,1.3v19.3c0,.7,.6,1.3,1.3,1.3h7.7c.2,0,.3-.1,.3-.3v-15.6c0-.7,.6-1.3,1.3-1.3h6.5c.7,0,1.3,.6,1.3,1.3v15.6c0,.2,.1,.3,.3,.3h7.6c.7,0,1.3-.6,1.3-1.3v-19.3c0-.7-.5-1.3-1.3-1.3Z"/>
    </g>
  </g>
</svg>